<svg width="108" height="79" viewBox="0 0 108 79" fill="none" xmlns="http://www.w3.org/2000/svg">
<path fill-rule="evenodd" clip-rule="evenodd" d="M19.5469 41.1828H23.2239V22.4824H19.5469V41.1828Z" fill="#12044B"/>
<path fill-rule="evenodd" clip-rule="evenodd" d="M37.5052 41.1829L30.6764 30.9923C30.2562 30.2569 29.6259 29.4164 29.4157 28.8911C29.4157 29.6265 29.5208 31.9378 29.5208 32.9884V41.1829H25.8438V22.4825H29.4157L36.0344 32.358C36.4547 33.0934 37.085 33.9339 37.2951 34.4592C37.2951 33.7238 37.1901 31.4125 37.1901 30.3619V22.4825H40.8671V41.0779C40.8671 41.1829 37.5052 41.1829 37.5052 41.1829Z" fill="#12044B"/>
<mask id="mask0_12839_24506" style="mask-type:alpha" maskUnits="userSpaceOnUse" x="0" y="0" width="108" height="79">
<path fill-rule="evenodd" clip-rule="evenodd" d="M0 78.3735H108V0H0V78.3735Z" fill="white"/>
</mask>
<g mask="url(#mask0_12839_24506)">
<path fill-rule="evenodd" clip-rule="evenodd" d="M19.5469 18.9101H23.2239V0.314766H19.5469V18.9101ZM37.5119 18.9101L30.6831 8.71944C30.2628 7.98403 29.6325 7.14356 29.4224 6.61827C29.4224 7.35368 29.5274 9.66496 29.5274 10.7155V18.9101H25.8504V0.314766H29.4224L36.041 10.1903C36.4613 10.9257 37.0916 11.7661 37.3017 12.2914C37.3017 11.556 37.1967 9.24473 37.1967 8.19414V0.314766H40.8737V18.9101H37.5119ZM52.0099 18.9101H48.4379L41.8193 0.314766H45.9165L49.3835 11.1358C49.6986 12.1864 50.1189 13.5521 50.2239 14.1825C50.434 13.4471 50.7492 12.1864 51.0644 11.1358L54.5313 0.314766H58.6286L52.0099 18.9101ZM59.5741 18.9101V0.314766H72.4963V3.99181H63.2512V7.24862H68.6091V10.8206H63.2512V15.3381H72.8115V19.0152H59.5741V18.9101ZM81.006 7.24862C81.3212 7.35368 81.6364 7.45873 82.0566 7.45873C84.9982 8.19414 88.2551 9.13967 88.2551 13.2369C88.2551 16.8089 86.0488 19.1202 80.901 19.1202C77.7492 19.1202 75.1227 17.8595 73.6519 15.7583L76.3835 13.342C77.6442 14.8128 79.3251 15.4432 81.1111 15.4432C83.3173 15.4432 84.3679 14.8128 84.3679 13.4471C84.3679 12.2914 83.7375 11.7661 80.2706 10.9257C76.8037 10.0852 74.4924 9.03461 74.4924 5.35757C74.4924 1.9957 77.434 -0.105469 81.1111 -0.105469C84.0527 -0.105469 86.1539 0.945114 87.9399 2.83616L85.2084 5.46262C84.0527 4.20192 82.687 3.57157 81.006 3.57157C79.0099 3.57157 78.3796 4.41204 78.3796 5.25251C78.2745 6.30309 78.7998 6.72333 81.006 7.24862ZM97.5002 3.99181V18.9101H93.8231V3.99181H88.4652V0.314766H102.858V3.99181H97.5002Z" fill="#12044B"/>
</g>
<mask id="mask1_12839_24506" style="mask-type:alpha" maskUnits="userSpaceOnUse" x="0" y="0" width="108" height="79">
<path fill-rule="evenodd" clip-rule="evenodd" d="M0 78.3735H108V0H0V78.3735Z" fill="white"/>
</mask>
<g mask="url(#mask1_12839_24506)">
<path fill-rule="evenodd" clip-rule="evenodd" d="M19.5469 70.3901H108.006V44.7559H19.5469V70.3901Z" fill="#E41F12"/>
<path fill-rule="evenodd" clip-rule="evenodd" d="M34.9853 60.1985H32.0437V56.7316H38.6623V59.6732C38.6623 64.4008 35.5106 67.1323 31.3083 67.1323C26.4756 67.1323 23.2188 63.4553 23.2188 57.572C23.2188 52.0039 26.5806 48.0117 31.4133 48.0117C35.1954 48.0117 37.1915 49.7977 38.3472 52.6343L34.8802 54.1051C34.1448 52.7393 33.3044 51.6888 31.3083 51.6888C28.5767 51.6888 27.0009 54.1051 27.0009 57.572C27.0009 60.9339 28.5767 63.4553 31.4133 63.4553C34.46 63.4553 34.8802 61.5642 34.9853 60.6187C34.9853 60.5137 34.9853 60.3035 34.9853 60.1985Z" fill="white"/>
<path fill-rule="evenodd" clip-rule="evenodd" d="M59.4609 66.8164V48.3262H72.2781V52.0032H63.138V55.7853H69.9668V59.3573H63.138V63.2445H72.2781V66.8164H59.4609Z" fill="white"/>
<path fill-rule="evenodd" clip-rule="evenodd" d="M84.6734 48.3262H81.1014L74.0625 66.8164H78.0547L79.4205 62.9293H86.2493C86.9847 65.1355 87.615 66.8164 87.615 66.8164H91.7123L84.6734 48.3262ZM80.5761 59.3573C81.6267 56.2055 82.6773 53.2639 82.7823 52.9487C82.8874 53.2639 83.938 56.2055 84.9886 59.3573H80.5761Z" fill="white"/>
<path fill-rule="evenodd" clip-rule="evenodd" d="M99.0706 52.0032V66.8164H95.3935V52.0032H90.1406V48.3262H104.429V52.0032H99.0706Z" fill="white"/>
<path fill-rule="evenodd" clip-rule="evenodd" d="M56.6214 54.2094C56.6214 50.3223 53.7848 48.3262 50.3179 48.3262H41.7031V66.8164H45.3802V60.1978H49.0572L52.314 66.8164H56.5164L52.9444 59.6725C55.4658 58.727 56.6214 56.941 56.6214 54.2094ZM50.2129 56.7308H45.3802V52.0032H50.2129C51.8938 52.0032 52.8393 52.7386 52.8393 54.3145C52.8393 55.8904 51.8938 56.7308 50.2129 56.7308Z" fill="white"/>
<path fill-rule="evenodd" clip-rule="evenodd" d="M22.4729 75.957C22.7881 75.7469 22.8931 75.5368 22.8931 75.1166C22.8931 74.3812 22.3678 73.9609 21.5274 73.9609H19.5312V78.2683H21.4223C22.3678 78.2683 22.8931 77.743 22.8931 76.9026C22.9982 76.4823 22.7881 76.1672 22.4729 75.957ZM20.3717 74.8014H21.4223C21.8425 74.8014 21.9476 74.9065 21.9476 75.2216C21.9476 75.4318 21.8425 75.6419 21.4223 75.6419H20.2667V74.8014H20.3717ZM21.5274 77.5329H20.3717V76.3773H21.5274C21.9476 76.3773 22.1577 76.5874 22.1577 76.9026C22.1577 77.3228 21.9476 77.5329 21.5274 77.5329Z" fill="#12044B"/>
<path fill-rule="evenodd" clip-rule="evenodd" d="M27.0919 75.4322C27.0919 74.4866 26.4616 74.0664 25.6211 74.0664H23.625V78.3738H24.4655V76.7979H25.3059L26.0413 78.3738H26.9869L26.1464 76.6929C26.7767 76.4827 27.0919 76.0625 27.0919 75.4322ZM25.5161 75.9575H24.3604V74.9069H25.5161C25.9363 74.9069 26.1464 75.117 26.1464 75.4322C26.1464 75.7473 25.9363 75.9575 25.5161 75.9575Z" fill="#12044B"/>
<path d="M28.5592 74.0664H27.7188V78.3738H28.5592V74.0664Z" fill="#12044B"/>
<path fill-rule="evenodd" clip-rule="evenodd" d="M32.3384 74.0664H28.9766V74.9069H30.2373V78.3738H31.0777V74.9069H32.3384V74.0664Z" fill="#12044B"/>
<path fill-rule="evenodd" clip-rule="evenodd" d="M33.5012 74.0664L31.8203 78.3738H32.7658L33.081 77.4283H34.6569L34.9721 78.3738H35.9176L34.3417 74.0664H33.5012ZM33.3962 76.5878L33.7114 75.8524C33.8164 75.6423 33.9215 75.3271 33.9215 75.222C34.0265 75.4322 34.0265 75.6423 34.1316 75.8524L34.4468 76.5878H33.3962Z" fill="#12044B"/>
<path d="M37.2936 74.0664H36.4531V78.3738H37.2936V74.0664Z" fill="#12044B"/>
<path fill-rule="evenodd" clip-rule="evenodd" d="M40.6421 75.852C40.6421 76.0621 40.6421 76.5874 40.6421 76.7975C40.537 76.6925 40.432 76.4823 40.3269 76.2722L38.8561 73.9609H38.0156V78.2683H38.8561V76.3773C38.8561 76.1672 38.8561 75.6419 38.8561 75.4318C38.9612 75.5368 39.0662 75.7469 39.1713 75.957L40.7471 78.2683H41.4826V73.9609H40.6421V75.852Z" fill="#12044B"/>
<path fill-rule="evenodd" clip-rule="evenodd" d="M47.3767 76.3777L46.6413 76.1676C46.5362 76.3777 46.4311 76.6929 46.3261 76.903L45.1704 75.5372C45.0654 75.3271 44.9603 75.222 44.9603 75.117C44.9603 74.9069 45.0654 74.8018 45.3806 74.8018C45.6957 74.8018 46.0109 74.9069 46.221 75.117L46.6413 74.4866C46.221 74.1715 45.9059 74.0664 45.3806 74.0664C44.6452 74.0664 44.1199 74.3816 44.1199 75.117C44.1199 75.4322 44.2249 75.7473 44.5401 75.9575L44.6452 76.0625C44.1199 76.3777 43.8047 76.6929 43.8047 77.3232C43.8047 78.0586 44.33 78.4789 45.1704 78.4789C45.6957 78.4789 46.116 78.3738 46.4311 78.0586L46.7463 78.3738H47.6918L46.8514 77.4283C47.0615 77.1131 47.2716 76.7979 47.3767 76.3777ZM45.2755 77.6384C44.8553 77.6384 44.6452 77.4283 44.6452 77.2182C44.6452 77.008 44.7502 76.6929 45.0654 76.5878L45.9059 77.5333C45.6957 77.5333 45.4856 77.6384 45.2755 77.6384Z" fill="#12044B"/>
<path fill-rule="evenodd" clip-rule="evenodd" d="M52.0952 75.852C52.0952 76.0621 52.0952 76.5874 52.0952 76.7975C51.9902 76.6925 51.8851 76.4823 51.78 76.2722L50.3092 73.9609H49.4688V78.2683H50.3092V76.3773C50.3092 76.1672 50.3092 75.6419 50.3092 75.4318C50.4143 75.5368 50.5193 75.7469 50.6244 75.957L52.2003 78.2683H52.9357V73.9609H52.0952V75.852Z" fill="#12044B"/>
<path fill-rule="evenodd" clip-rule="evenodd" d="M55.352 73.9609C54.1963 73.9609 53.4609 74.9065 53.4609 76.1672C53.4609 77.4279 54.1963 78.3734 55.352 78.3734C56.5076 78.3734 57.243 77.4279 57.243 76.1672C57.243 74.9065 56.5076 73.9609 55.352 73.9609ZM55.352 77.5329C54.6166 77.5329 54.4065 76.9026 54.4065 76.1672C54.4065 75.4318 54.7216 74.8014 55.352 74.8014C56.0874 74.8014 56.2975 75.4318 56.2975 76.1672C56.4026 76.9026 56.0874 77.5329 55.352 77.5329Z" fill="#12044B"/>
<path fill-rule="evenodd" clip-rule="evenodd" d="M61.2326 75.4322C61.2326 74.4866 60.6022 74.0664 59.7617 74.0664H57.7656V78.3738H58.6061V76.7979H59.4465L60.182 78.3738H61.1275L60.287 76.6929C61.0224 76.4827 61.2326 76.0625 61.2326 75.4322ZM59.7617 75.9575H58.6061V74.9069H59.7617C60.182 74.9069 60.3921 75.117 60.3921 75.4322C60.3921 75.7473 60.182 75.9575 59.7617 75.9575Z" fill="#12044B"/>
<path fill-rule="evenodd" clip-rule="evenodd" d="M61.4531 74.9069H62.7138V78.3738H63.5543V74.9069H64.7099V74.0664H61.4531V74.9069Z" fill="#12044B"/>
<path fill-rule="evenodd" clip-rule="evenodd" d="M67.7515 75.6423H65.9655V74.0664H65.125V78.3738H65.9655V76.4828H67.7515V78.3738H68.5919V74.0664H67.7515V75.6423Z" fill="#12044B"/>
<path fill-rule="evenodd" clip-rule="evenodd" d="M70.2702 76.4828H71.5309V75.6423H70.2702V74.9069H72.3713V74.0664H69.4297V78.3738H72.4764V77.5333H70.2702V76.4828Z" fill="#12044B"/>
<path fill-rule="evenodd" clip-rule="evenodd" d="M76.5763 75.4322C76.5763 74.4866 75.946 74.0664 75.1055 74.0664H73.1094V78.3738H73.9498V76.7979H74.7903L75.5257 78.3738H76.4713L75.6308 76.6929C76.2611 76.4827 76.5763 76.0625 76.5763 75.4322ZM75.0004 75.9575H73.8448V74.9069H75.0004C75.4207 74.9069 75.6308 75.117 75.6308 75.4322C75.6308 75.7473 75.4207 75.9575 75.0004 75.9575Z" fill="#12044B"/>
<path fill-rule="evenodd" clip-rule="evenodd" d="M79.7202 75.852C79.7202 76.0621 79.7202 76.5874 79.7202 76.7975C79.6152 76.6925 79.5101 76.4823 79.405 76.2722L77.9342 73.9609H77.0938V78.2683H77.9342V76.3773C77.9342 76.1672 77.9342 75.6419 77.9342 75.4318C78.0393 75.6419 78.1443 75.7469 78.2494 75.957L79.8253 78.2683H80.5607V73.9609H79.7202V75.852Z" fill="#12044B"/>
<path d="M84.0358 74.0664H83.1953V78.3738H84.0358V74.0664Z" fill="#12044B"/>
<path fill-rule="evenodd" clip-rule="evenodd" d="M88.3419 75.4322C88.3419 74.4866 87.7116 74.0664 86.8711 74.0664H84.875V78.3738H85.7155V76.7979H86.5559L87.2913 78.3738H88.2369L87.3964 76.6929C88.0268 76.4827 88.3419 76.0625 88.3419 75.4322ZM86.8711 75.9575H85.7155V74.9069H86.8711C87.2913 74.9069 87.5015 75.117 87.5015 75.4322C87.5015 75.7473 87.2913 75.9575 86.8711 75.9575Z" fill="#12044B"/>
<path fill-rule="evenodd" clip-rule="evenodd" d="M89.9108 76.4828H91.1715V75.6423H89.9108V74.9069H92.012V74.0664H89.0703V78.3738H92.117V77.5333H89.9108V76.4828Z" fill="#12044B"/>
<path fill-rule="evenodd" clip-rule="evenodd" d="M93.6061 74.0664H92.7656V78.3738H95.7073V77.4283H93.6061V74.0664Z" fill="#12044B"/>
<path fill-rule="evenodd" clip-rule="evenodd" d="M97.5794 74.0664L95.8984 78.3738H96.844L97.1591 77.4283H98.735L99.0502 78.3738H99.9957L98.4198 74.0664H97.5794ZM97.4743 76.5878L97.7895 75.8524C97.8945 75.6423 97.9996 75.3271 97.9996 75.222C98.1047 75.4322 98.1047 75.6423 98.2097 75.8524L98.5249 76.5878H97.4743Z" fill="#12044B"/>
<path fill-rule="evenodd" clip-rule="evenodd" d="M102.939 75.852C102.939 76.0621 102.939 76.5874 102.939 76.7975C102.834 76.6925 102.729 76.4823 102.624 76.2722L101.153 73.9609H100.312V78.2683H101.153V76.3773C101.153 76.1672 101.153 75.6419 101.153 75.4318C101.258 75.6419 101.363 75.7469 101.468 75.957L103.044 78.2683H103.779V73.9609H102.939V75.852Z" fill="#12044B"/>
<path fill-rule="evenodd" clip-rule="evenodd" d="M105.881 74.0664H104.516V78.3738H105.776C106.827 78.3738 107.983 77.7434 107.983 76.2726C107.983 74.5917 107.037 74.0664 105.881 74.0664ZM105.776 77.5333H105.356V74.9069H105.776C106.722 74.9069 107.037 75.3271 107.037 76.1676C107.037 77.008 106.722 77.5333 105.776 77.5333Z" fill="#12044B"/>
<path d="M15.0234 0.314453H0V70.4934H15.0234V0.314453Z" fill="white"/>
</g>
<mask id="mask2_12839_24506" style="mask-type:alpha" maskUnits="userSpaceOnUse" x="0" y="0" width="108" height="79">
<path fill-rule="evenodd" clip-rule="evenodd" d="M0 78.3735H108V0H0V78.3735Z" fill="white"/>
</mask>
<g mask="url(#mask2_12839_24506)">
<path fill-rule="evenodd" clip-rule="evenodd" d="M0.525292 0.314453L8.08949 15.4429V0.314453H0.525292ZM7.24902 29.6257L0 15.1277V29.6257H7.24902ZM7.14397 41.2872H0V55.5751L7.14397 41.2872ZM8.08949 70.4934V55.26L0.525292 70.3884H8.08949V70.4934Z" fill="#12044B"/>
</g>
<mask id="mask3_12839_24506" style="mask-type:alpha" maskUnits="userSpaceOnUse" x="0" y="0" width="108" height="79">
<path fill-rule="evenodd" clip-rule="evenodd" d="M0 78.3735H108V0H0V78.3735Z" fill="white"/>
</mask>
<g mask="url(#mask3_12839_24506)">
<path fill-rule="evenodd" clip-rule="evenodd" d="M8.08949 28.6809V23.2179L0 6.93384V12.3969L8.08949 28.6809ZM8.08949 52.6342V47.1712L0 63.4552V68.9183L8.08949 52.6342Z" fill="#B00F2B"/>
</g>
<mask id="mask4_12839_24506" style="mask-type:alpha" maskUnits="userSpaceOnUse" x="0" y="0" width="108" height="79">
<path fill-rule="evenodd" clip-rule="evenodd" d="M0 78.3735H108V0H0V78.3735Z" fill="white"/>
</mask>
<g mask="url(#mask4_12839_24506)">
<path fill-rule="evenodd" clip-rule="evenodd" d="M10.4008 0.314453V31.937H0V39.081H10.4008V70.4934H15.0234V0.314453H10.4008Z" fill="#AF0D23"/>
</g>
</svg>
