<svg width="144" height="144" viewBox="0 0 144 144" fill="none" xmlns="http://www.w3.org/2000/svg">
<path d="M144 0H0V144H144V0Z" fill="#F41112"/>
<path d="M44.5216 48.72H21.6016V49.8C24.2416 49.92 25.0816 50.28 25.0816 53.04V71.64C25.0816 74.52 24.2416 74.76 21.6016 74.88V75.84H34.4416V74.88C31.2016 74.76 30.4816 74.4 30.4816 71.64V62.76H35.1616C38.6416 62.76 40.3216 63.6 40.9216 66.72H42.0016V57.12H40.9216C40.4416 60 39.4816 60.72 35.1616 60.72H30.4816V52.08C30.4816 51 30.7216 50.76 32.0416 50.76H36.1216C41.5216 50.76 42.4816 51.72 43.4416 54.72H44.5216V48.72Z" fill="white"/>
<path d="M61.9184 73.08L56.6384 65.28L59.5184 61.68C61.4384 59.4 62.5184 58.2 64.1984 58.08V57H56.7584V58.08C58.0784 58.08 58.6784 58.44 58.6784 59.28C58.6784 60 57.8384 60.96 57.1184 61.68L55.4384 63.6L53.5184 60.72C53.0384 60.12 52.6784 59.64 52.6784 59.04C52.6784 58.44 53.3984 58.08 54.5984 58.08V57H44.6384V58.08C46.0784 58.44 46.6784 59.28 47.3984 60.36L52.3184 67.56L48.2384 72.36C46.7984 74.04 46.0784 74.64 44.3984 74.88V75.84H51.7184V74.88C50.7584 74.88 49.6784 74.64 49.6784 74.04C49.6784 73.44 50.3984 72.6 51.5984 71.16L53.2784 69.12L55.3184 72.12C56.0384 73.2 56.3984 73.68 56.3984 74.04C56.3984 74.52 55.6784 74.76 54.3584 74.76V75.72H64.5584V74.76C63.7184 75 62.9984 74.76 61.9184 73.08Z" fill="white"/>
<path d="M79.0822 48.72H66.2422V49.8C69.0022 49.92 69.7222 50.28 69.7222 53.04V71.64C69.7222 74.52 69.0022 74.76 66.2422 74.88V75.84H78.8422V74.88C75.9622 74.76 75.2422 74.4 75.2422 71.64V64.56H78.8422C85.8022 64.56 89.5222 61.8 89.5222 56.64C89.4022 52.2 86.5222 48.72 79.0822 48.72ZM75.1222 63V51.84C75.1222 50.88 75.4822 50.28 77.4022 50.28C81.0022 50.28 83.7622 52.32 83.7622 56.04C83.7622 60.36 81.4822 63 75.1222 63Z" fill="white"/>
<path d="M102.242 56.64C99.9616 56.64 98.5216 58.44 97.8016 60.12H97.6816V57.24C97.6816 56.88 97.6816 56.64 97.4416 56.64C97.0816 56.64 92.6416 57.84 90.6016 58.2V59.28C92.4016 59.28 92.8816 59.64 92.8816 61.68V72.6C92.8816 74.28 92.1616 74.64 90.6016 74.88V75.84H100.562V74.88C98.7616 74.88 97.6816 74.4 97.6816 72.36V61.8C98.2816 60.84 99.0016 60.24 99.7216 60.24C100.202 60.24 100.562 60.48 100.802 60.6C101.162 60.84 101.642 61.44 102.722 61.44C103.922 61.44 104.882 60.48 104.882 59.28C105.002 58.08 104.162 56.64 102.242 56.64Z" fill="white"/>
<path d="M113.761 56.64C108.361 56.64 104.641 60.84 104.641 66.6C104.641 72.36 108.361 76.56 113.761 76.56C119.161 76.56 122.881 72.36 122.881 66.6C122.881 60.84 119.161 56.64 113.761 56.64ZM113.761 74.88C110.881 74.88 109.801 72.36 109.801 66.6C109.801 60.84 111.001 58.32 113.761 58.32C116.641 58.32 117.721 60.84 117.721 66.6C117.841 72.36 116.641 74.88 113.761 74.88Z" fill="white"/>
<path d="M21.7188 85.2H28.9188V86.3999H25.9188V94.4399H24.7188V86.3999H21.7188V85.2Z" fill="white"/>
<path d="M31.8006 87.84C32.1606 87.6 32.7606 87.48 33.2406 87.48V88.68C32.5206 88.68 31.9206 88.8 31.5606 89.28C31.0806 89.64 30.8406 90.24 30.8406 90.84V94.44H29.6406V87.48H30.8406V88.92C30.9606 88.44 31.3206 88.08 31.8006 87.84Z" fill="white"/>
<path d="M38.5187 94.44V93.48C38.0387 94.2 37.1988 94.56 36.1188 94.56C35.6388 94.56 35.1588 94.44 34.7987 94.32C34.4387 94.2 34.1987 93.84 33.9587 93.6C33.7187 93.24 33.7188 92.88 33.7188 92.52C33.7188 91.92 33.9588 91.44 34.4388 91.08C34.9188 90.72 35.5187 90.48 36.3587 90.48H38.5187V90C38.5187 89.52 38.3988 89.16 38.0388 88.92C37.6788 88.68 37.3188 88.56 36.7188 88.56C35.9988 88.56 35.2787 88.8 34.5587 89.28L34.0787 88.44C34.5587 88.08 35.0388 87.84 35.5188 87.72C35.9988 87.6 36.4787 87.48 37.0788 87.48C37.9188 87.48 38.6387 87.72 39.1187 88.08C39.5987 88.56 39.8388 89.04 39.8388 89.88V94.44H38.5187ZM37.7988 93C38.1588 92.76 38.3987 92.4 38.5187 91.92V91.2H36.4787C35.8787 91.2 35.5187 91.32 35.2787 91.44C35.0387 91.56 34.9188 91.92 34.9188 92.28C34.9188 92.64 35.0387 92.88 35.2787 93.12C35.5187 93.36 35.8787 93.48 36.3587 93.48C36.8387 93.48 37.3188 93.24 37.7988 93Z" fill="white"/>
<path d="M48.3612 84.72V94.44H47.1612V93.12C46.9212 93.6 46.5613 93.96 46.0813 94.2C45.6013 94.44 45.1212 94.56 44.5212 94.56C43.9212 94.56 43.3212 94.44 42.8412 94.08C42.3612 93.72 42.0012 93.36 41.6412 92.88C41.2812 92.4 41.2812 91.68 41.2812 91.08C41.2812 90.36 41.4012 89.76 41.6412 89.28C41.8812 88.8 42.3612 88.32 42.8412 88.08C43.3212 87.84 43.9212 87.6 44.5212 87.6C45.1212 87.6 45.6013 87.72 46.0813 87.96C46.5613 88.2 46.9212 88.56 47.1612 89.04V84.84H48.3612V84.72ZM45.9612 93.12C46.3212 92.88 46.5612 92.64 46.8012 92.28C47.0412 91.92 47.1612 91.44 47.1612 90.96C47.1612 90.48 47.0412 90 46.8012 89.64C46.5612 89.28 46.3212 88.92 45.9612 88.8C45.6012 88.56 45.2412 88.44 44.7612 88.44C44.2812 88.44 43.9212 88.56 43.5612 88.8C43.2012 89.04 42.9612 89.28 42.7212 89.64C42.4812 90 42.3612 90.48 42.3612 90.96C42.3612 91.44 42.4812 91.8 42.7212 92.28C42.9612 92.64 43.2012 93 43.5612 93.12C43.9212 93.36 44.2812 93.48 44.7612 93.48C45.2412 93.36 45.6012 93.36 45.9612 93.12Z" fill="white"/>
<path d="M56.0412 88.32C56.6412 88.92 56.8812 89.88 56.8812 90.96C56.8812 91.08 56.8812 91.32 56.8812 91.32H51.3612C51.4812 91.92 51.7212 92.4 52.0812 92.76C52.5612 93.12 53.0412 93.36 53.6412 93.36C54.0012 93.36 54.4812 93.24 54.8412 93.12C55.2012 93 55.5612 92.76 55.8012 92.52L56.5212 93.24C56.1612 93.6 55.8012 93.84 55.3212 94.08C54.8412 94.32 54.3612 94.44 53.7612 94.44C53.0412 94.44 52.4412 94.32 51.9612 93.96C51.4812 93.72 51.0012 93.24 50.7612 92.76C50.5212 92.28 50.2812 91.68 50.2812 90.96C50.2812 90.24 50.4012 89.64 50.7612 89.16C51.0012 88.68 51.4812 88.2 51.9612 87.96C52.4412 87.72 53.0412 87.48 53.7612 87.48C54.6012 87.48 55.4412 87.72 56.0412 88.32ZM55.6812 90.48C55.6812 89.88 55.4412 89.4 55.0812 89.04C54.7212 88.68 54.2412 88.44 53.5212 88.44C52.9212 88.44 52.4412 88.68 51.9612 89.04C51.6012 89.4 51.3612 89.88 51.2412 90.48H55.6812Z" fill="white"/>
<path d="M62.0419 85.2H63.2419V93.2399H67.2019V94.3199H61.9219V85.2H62.0419Z" fill="white"/>
<path d="M69.9556 84.96C70.0756 85.08 70.1956 85.32 70.1956 85.56C70.1956 85.8 70.0756 85.92 69.9556 86.16C69.8356 86.28 69.5956 86.4 69.3556 86.4C69.1156 86.4 68.9956 86.28 68.7556 86.16C68.6356 86.04 68.5156 85.8 68.5156 85.56C68.5156 85.32 68.6356 85.2 68.7556 84.96C68.8756 84.72 69.1156 84.72 69.3556 84.72C69.5956 84.72 69.7156 84.72 69.9556 84.96ZM68.7556 87.48H69.9556V94.44H68.7556V87.48Z" fill="white"/>
<path d="M77.1566 94.44L74.9966 91.08L73.6766 92.4V94.32H72.4766V84.6H73.6766V90.84L77.0366 87.48H78.4766L75.8366 90.12L78.7166 94.32H77.1566V94.44Z" fill="white"/>
<path d="M84.8381 88.32C85.4381 88.92 85.6781 89.88 85.6781 90.96C85.6781 91.08 85.6781 91.32 85.6781 91.32H80.1581C80.2781 91.92 80.5181 92.4 80.8781 92.76C81.3581 93.12 81.8381 93.36 82.4381 93.36C82.7981 93.36 83.2781 93.24 83.6381 93.12C83.9981 93 84.3581 92.76 84.5981 92.52L85.3181 93.24C84.9581 93.6 84.5981 93.84 84.1181 94.08C83.6381 94.32 83.1581 94.44 82.5581 94.44C81.8381 94.44 81.2381 94.32 80.7581 93.96C80.2781 93.72 79.7981 93.24 79.5581 92.76C79.3181 92.28 79.0781 91.68 79.0781 90.96C79.0781 90.24 79.1981 89.64 79.5581 89.16C79.7981 88.68 80.2781 88.2 80.7581 87.96C81.2381 87.6 81.8381 87.48 82.5581 87.48C83.5181 87.48 84.3581 87.72 84.8381 88.32ZM84.5981 90.48C84.5981 89.88 84.3581 89.4 83.9981 89.04C83.6381 88.68 83.1581 88.44 82.4381 88.44C81.8381 88.44 81.3581 88.68 80.8781 89.04C80.5181 89.4 80.2781 89.88 80.1581 90.48H84.5981Z" fill="white"/>
<path d="M95.0422 94.44V93.48C94.5622 94.2 93.7222 94.56 92.6422 94.56C92.1622 94.56 91.6822 94.44 91.3222 94.32C90.9622 94.2 90.7222 93.84 90.4822 93.6C90.2422 93.24 90.2422 92.88 90.2422 92.52C90.2422 91.92 90.4822 91.44 90.9622 91.08C91.4422 90.72 92.0422 90.48 92.8822 90.48H95.0422V90C95.0422 89.52 94.9222 89.16 94.5622 88.92C94.2022 88.68 93.8422 88.56 93.2422 88.56C92.5222 88.56 91.8022 88.8 91.0822 89.28L90.6022 88.44C91.0822 88.08 91.5622 87.84 92.0422 87.72C92.5222 87.6 93.0022 87.48 93.6022 87.48C94.4422 87.48 95.1622 87.72 95.6422 88.08C96.1222 88.56 96.3622 89.04 96.3622 89.88V94.44H95.0422ZM94.3222 93C94.6822 92.76 94.9222 92.4 95.0422 91.92V91.2H93.0022C92.4022 91.2 92.0422 91.32 91.8022 91.44C91.5622 91.56 91.4422 91.92 91.4422 92.28C91.4422 92.64 91.5622 92.88 91.8022 93.12C92.0422 93.36 92.4022 93.48 92.8822 93.48C93.3622 93.48 93.8422 93.24 94.3222 93Z" fill="white"/>
<path d="M108.12 86.0399C108.72 86.6399 109.08 87.3599 109.08 88.3199C109.08 89.3999 108.72 90.1199 108.12 90.7199C107.52 91.3199 106.56 91.5599 105.48 91.5599H103.2V94.4399H102V85.2H105.48C106.68 85.2 107.52 85.4399 108.12 86.0399ZM107.28 89.8799C107.64 89.5199 107.88 89.0399 107.88 88.3199C107.88 87.7199 107.64 87.12 107.28 86.88C106.8 86.52 106.2 86.3999 105.48 86.3999H103.2V90.3599H105.48C106.2 90.3599 106.8 90.2399 107.28 89.8799Z" fill="white"/>
<path d="M112.801 87.84C113.161 87.6 113.761 87.48 114.241 87.48V88.68C113.521 88.68 112.921 88.8 112.561 89.28C112.081 89.64 111.841 90.24 111.841 90.84V94.44H110.641V87.48H111.841V88.92C112.081 88.44 112.321 88.08 112.801 87.84Z" fill="white"/>
<path d="M120.358 87.84C120.838 88.08 121.318 88.56 121.558 89.04C121.918 89.52 122.038 90.12 122.038 90.84C122.038 91.56 121.918 92.16 121.558 92.64C121.198 93.12 120.838 93.6 120.358 93.84C119.878 94.08 119.158 94.32 118.558 94.32C117.838 94.32 117.238 94.2 116.758 93.84C116.278 93.48 115.798 93.12 115.558 92.64C115.318 92.16 115.078 91.56 115.078 90.84C115.078 90.12 115.198 89.52 115.558 89.04C115.918 88.56 116.278 88.08 116.758 87.84C117.238 87.6 117.958 87.36 118.558 87.36C119.158 87.48 119.758 87.6 120.358 87.84ZM117.238 88.8C116.878 89.04 116.638 89.28 116.398 89.64C116.158 90 116.158 90.48 116.158 90.96C116.158 91.44 116.278 91.92 116.398 92.28C116.638 92.64 116.878 93 117.238 93.12C117.598 93.36 117.958 93.48 118.438 93.48C118.918 93.48 119.278 93.36 119.638 93.12C119.998 92.88 120.238 92.64 120.478 92.28C120.718 91.92 120.718 91.44 120.718 90.96C120.718 90.48 120.598 90.12 120.478 89.64C120.238 89.28 119.998 88.92 119.638 88.8C119.278 88.56 118.918 88.44 118.438 88.44C118.078 88.44 117.598 88.56 117.238 88.8Z" fill="white"/>
</svg>
