<svg width="130" height="81" viewBox="0 0 130 81" fill="none" xmlns="http://www.w3.org/2000/svg">
<path fill-rule="evenodd" clip-rule="evenodd" d="M128.995 31.1558C129.598 31.1558 130 30.7538 130 30.1508V3.01508C130 1.40704 128.593 0 126.985 0H99.8492C98.2412 0 96.8342 1.40704 96.8342 3.01508V7.03518V35.9799C96.8342 37.1859 95.8291 37.9899 94.8241 37.9899H94.0201C92.8141 37.9899 92.01 36.9849 92.01 35.9799V10.0503C92.01 9.44724 92.2111 9.04523 92.4121 9.04523H93.8191C94.4221 9.04523 94.8241 8.64322 94.8241 8.0402C94.8241 7.43719 94.2211 7.03518 93.6181 7.03518H92.4121C91.005 7.03518 90 8.24121 90 10.0503V35.9799C90 38.191 91.608 39.799 93.8191 40H94.0201H94.6231H126.784C128.392 40 129.799 38.593 129.799 36.9849V34.9749C129.799 34.3719 129.397 33.9698 128.794 33.9698C128.191 33.9698 127.789 34.3719 127.789 34.9749V36.9849C127.789 37.5879 127.387 37.9899 126.784 37.9899H98.2412C98.6432 37.3869 98.8442 36.5829 98.8442 35.9799V7.03518V3.01508C98.8442 2.41206 99.2462 2.01005 99.8492 2.01005H126.985C127.588 2.01005 127.99 2.41206 127.99 3.01508V30.1508C127.99 30.7538 128.392 31.1558 128.995 31.1558ZM122.759 6.83398H103.864C103.261 6.83398 102.859 7.23599 102.859 7.83901C102.859 8.44202 103.261 8.84403 103.864 8.84403H122.759C123.362 8.84403 123.764 8.44202 123.764 7.83901C123.764 7.23599 123.362 6.83398 122.759 6.83398ZM103.864 25.3262H122.759C123.362 25.3262 123.764 25.7282 123.764 26.3312C123.764 26.9342 123.362 27.3362 122.759 27.3362H103.864C103.261 27.3362 102.859 26.9342 102.859 26.3312C102.859 25.7282 103.261 25.3262 103.864 25.3262ZM122.759 31.5586H103.864C103.261 31.5586 102.859 31.9606 102.859 32.5636C102.859 33.1666 103.261 33.5686 103.864 33.5686H122.759C123.362 33.5686 123.764 33.1666 123.764 32.5636C123.764 31.9606 123.362 31.5586 122.759 31.5586ZM122.564 15.0752H117.137C116.735 15.0752 116.132 14.6731 116.132 14.0701C116.132 13.4671 116.735 13.0651 117.137 13.0651H122.564C123.167 13.0651 123.569 13.4671 123.569 14.0701C123.569 14.6731 123.167 15.0752 122.564 15.0752ZM117.137 21.1055H122.564C123.167 21.1055 123.569 20.7035 123.569 20.1005C123.569 19.4975 123.167 19.0955 122.564 19.0955H117.137C116.735 19.0955 116.132 19.6985 116.132 20.1005C116.132 20.5025 116.735 21.1055 117.137 21.1055ZM112.513 21.1054H104.071C103.468 21.1054 103.066 20.7034 103.066 20.1004V13.6682C103.066 13.0652 103.468 12.6632 104.071 12.6632H112.513C113.116 12.6632 113.518 13.0652 113.518 13.6682V20.1004C113.518 20.7034 113.116 21.1054 112.513 21.1054ZM111.508 14.6732H105.076V19.2964H111.508V14.6732ZM79.1206 73.2613C79.6482 73.2613 80 72.9095 80 72.3819V48.6382C80 47.2312 78.7688 46 77.3618 46H53.6181C52.2111 46 50.9799 47.2312 50.9799 48.6382V52.1558V77.4824C50.9799 78.5377 50.1005 79.2412 49.2211 79.2412H48.5176C47.4623 79.2412 46.7588 78.3618 46.7588 77.4824V54.794C46.7588 54.2663 46.9347 53.9146 47.1106 53.9146H48.3417C48.8693 53.9146 49.2211 53.5628 49.2211 53.0352C49.2211 52.5075 48.6935 52.1558 48.1658 52.1558H47.1106C45.8794 52.1558 45 53.2111 45 54.794V77.4824C45 79.4171 46.407 80.8241 48.3417 81H48.5176H49.0452H77.1859C78.593 81 79.8241 79.7688 79.8241 78.3618V76.603C79.8241 76.0754 79.4724 75.7236 78.9447 75.7236C78.4171 75.7236 78.0653 76.0754 78.0653 76.603V78.3618C78.0653 78.8895 77.7136 79.2412 77.1859 79.2412H52.2111C52.5628 78.7136 52.7387 78.01 52.7387 77.4824V52.1558V48.6382C52.7387 48.1106 53.0905 47.7588 53.6181 47.7588H77.3618C77.8895 47.7588 78.2412 48.1106 78.2412 48.6382V72.3819C78.2412 72.9095 78.593 73.2613 79.1206 73.2613ZM57.1329 51.9799H73.6655C74.1932 51.9799 74.5449 52.3317 74.5449 52.8593C74.5449 53.387 74.1932 53.7387 73.6655 53.7387H57.1329C56.6052 53.7387 56.2535 53.387 56.2535 52.8593C56.2535 52.3317 56.6052 51.9799 57.1329 51.9799ZM73.6655 68.1606H57.1329C56.6052 68.1606 56.2535 68.5124 56.2535 69.04C56.2535 69.5676 56.6052 69.9194 57.1329 69.9194H73.6655C74.1932 69.9194 74.5449 69.5676 74.5449 69.04C74.5449 68.5124 74.1932 68.1606 73.6655 68.1606ZM57.1329 73.6134H73.6655C74.1932 73.6134 74.5449 73.9651 74.5449 74.4928C74.5449 75.0204 74.1932 75.3722 73.6655 75.3722H57.1329C56.6052 75.3722 56.2535 75.0204 56.2535 74.4928C56.2535 73.9651 56.6052 73.6134 57.1329 73.6134ZM68.7466 59.1904H73.4953C74.023 59.1904 74.3747 58.8387 74.3747 58.311C74.3747 57.7834 74.023 57.4316 73.4953 57.4316H68.7466C68.3948 57.4316 67.8672 57.7834 67.8672 58.311C67.8672 58.8387 68.3948 59.1904 68.7466 59.1904ZM73.4953 64.4678H68.7466C68.3948 64.4678 67.8672 63.9401 67.8672 63.5884C67.8672 63.2366 68.3948 62.709 68.7466 62.709H73.4953C74.023 62.709 74.3747 63.0607 74.3747 63.5884C74.3747 64.116 74.023 64.4678 73.4953 64.4678ZM57.3121 64.4672H64.6991C65.2267 64.4672 65.5785 64.1155 65.5785 63.5878V57.9597C65.5785 57.4321 65.2267 57.0803 64.6991 57.0803H57.3121C56.7845 57.0803 56.4327 57.4321 56.4327 57.9597V63.5878C56.4327 64.1155 56.7845 64.4672 57.3121 64.4672ZM58.1915 58.8391H63.8197V62.8843H58.1915V58.8391ZM30 38.6131C30 39.0653 29.6985 39.3668 29.2462 39.3668C28.794 39.3668 28.4925 39.0653 28.4925 38.6131V18.2613C28.4925 17.809 28.191 17.5075 27.7387 17.5075H7.38693C6.93467 17.5075 6.63317 17.809 6.63317 18.2613V21.2764V42.9849C6.63317 43.4372 6.48241 44.0402 6.1809 44.4925H27.5879C28.0402 44.4925 28.3417 44.191 28.3417 43.7387V42.2312C28.3417 41.7789 28.6432 41.4774 29.0955 41.4774C29.5477 41.4774 29.8492 41.7789 29.8492 42.2312V43.7387C29.8492 44.9447 28.794 46 27.5879 46H3.46734H3.01508H2.86432C1.20603 45.8492 0 44.6432 0 42.9849V23.5377C0 22.1809 0.753769 21.2764 1.80905 21.2764H2.71357C3.16583 21.2764 3.61809 21.5779 3.61809 22.0302C3.61809 22.4824 3.31658 22.7839 2.86432 22.7839H1.80905C1.65829 22.7839 1.50754 23.0854 1.50754 23.5377V42.9849C1.50754 43.7387 2.11055 44.4925 3.01508 44.4925H3.61809C4.37186 44.4925 5.12563 43.8895 5.12563 42.9849V21.2764V18.2613C5.12563 17.0553 6.1809 16 7.38693 16H27.7387C28.9447 16 30 17.0553 30 18.2613V38.6131ZM24.5731 21.126H10.4022C9.94995 21.126 9.64844 21.4275 9.64844 21.8797C9.64844 22.332 9.94995 22.6335 10.4022 22.6335H24.5731C25.0253 22.6335 25.3268 22.332 25.3268 21.8797C25.3268 21.4275 25.0253 21.126 24.5731 21.126ZM10.4022 34.9951H24.5731C25.0253 34.9951 25.3268 35.2966 25.3268 35.7489C25.3268 36.2011 25.0253 36.5027 24.5731 36.5027H10.4022C9.94995 36.5027 9.64844 36.2011 9.64844 35.7489C9.64844 35.2966 9.94995 34.9951 10.4022 34.9951ZM24.5731 39.6689H10.4022C9.94995 39.6689 9.64844 39.9705 9.64844 40.4227C9.64844 40.875 9.94995 41.1765 10.4022 41.1765H24.5731C25.0253 41.1765 25.3268 40.875 25.3268 40.4227C25.3268 39.9705 25.0253 39.6689 24.5731 39.6689ZM24.4257 27.3064H20.3553C20.0538 27.3064 19.6016 27.0049 19.6016 26.5526C19.6016 26.1003 20.0538 25.7988 20.3553 25.7988H24.4257C24.8779 25.7988 25.1795 26.1003 25.1795 26.5526C25.1795 27.0049 24.8779 27.3064 24.4257 27.3064ZM20.3553 31.8288H24.4257C24.8779 31.8288 25.1795 31.5273 25.1795 31.0751C25.1795 30.6228 24.8779 30.3213 24.4257 30.3213H20.3553C20.0538 30.3213 19.6016 30.7736 19.6016 31.0751C19.6016 31.3766 20.0538 31.8288 20.3553 31.8288ZM16.8823 31.8297H10.5506C10.0984 31.8297 9.79688 31.5282 9.79688 31.0759V26.2518C9.79688 25.7996 10.0984 25.498 10.5506 25.498H16.8823C17.3346 25.498 17.6361 25.7996 17.6361 26.2518V31.0759C17.6361 31.5282 17.3346 31.8297 16.8823 31.8297ZM16.1285 27.0056H11.3044V30.4729H16.1285V27.0056Z" fill="#A79582"/>
</svg>
