<svg width="160" height="220" viewBox="0 0 160 220" fill="none" xmlns="http://www.w3.org/2000/svg">
<g filter="url(#filter0_d_12839_24808)">
<mask id="mask0_12839_24808" style="mask-type:alpha" maskUnits="userSpaceOnUse" x="10" y="8" width="140" height="200">
<rect x="10" y="8" width="140" height="200" rx="6" fill="white"/>
</mask>
<g mask="url(#mask0_12839_24808)">
<rect x="10" y="8" width="140" height="200" rx="6" fill="white"/>
</g>
</g>
<path d="M102.161 45.9414H57.8281V90.6473H102.161V45.9414Z" fill="#F41112"/>
<path d="M71.5329 61.0664H64.4766V61.4017C65.2893 61.439 65.548 61.5507 65.548 62.4076V68.1821C65.548 69.0762 65.2893 69.1507 64.4766 69.188V69.486H68.4296V69.188C67.4321 69.1507 67.2105 69.039 67.2105 68.1821V65.4252H68.6513C69.7227 65.4252 70.2399 65.686 70.4246 66.6546H70.7571V63.6742H70.4246C70.2768 64.5684 69.9813 64.7919 68.6513 64.7919H67.2105V62.1095C67.2105 61.7743 67.2843 61.6997 67.6907 61.6997H68.9468C70.6093 61.6997 70.9049 61.9978 71.2004 62.9292H71.5329V61.0664Z" fill="white"/>
<path d="M76.8939 68.6289L75.2683 66.2073L76.155 65.0897C76.7461 64.3818 77.0786 64.0093 77.5958 63.972V63.6367H75.3053V63.972C75.7117 63.972 75.8964 64.0838 75.8964 64.3446C75.8964 64.5681 75.6378 64.8661 75.4161 65.0897L74.8989 65.6857L74.3078 64.7916C74.16 64.6053 74.0492 64.4563 74.0492 64.2701C74.0492 64.0838 74.2708 63.972 74.6403 63.972V63.6367H71.5739V63.972C72.0172 64.0838 72.2019 64.3446 72.4236 64.6799L73.9383 66.9151L72.6822 68.4053C72.2389 68.9269 72.0172 69.1132 71.5 69.1877V69.4857H73.7536V69.1877C73.4581 69.1877 73.1256 69.1132 73.1256 68.9269C73.1256 68.7406 73.3472 68.4799 73.7167 68.0328L74.2339 67.3995L74.8619 68.3308C75.0836 68.6661 75.1944 68.8151 75.1944 68.9269C75.1944 69.0759 74.9728 69.1504 74.5664 69.1504V69.4485H77.7067V69.1504C77.4481 69.225 77.2264 69.1504 76.8939 68.6289Z" fill="white"/>
<path d="M82.1718 61.0664H78.2188V61.4017C79.0685 61.439 79.2901 61.5507 79.2901 62.4076V68.1821C79.2901 69.0762 79.0685 69.1507 78.2188 69.188V69.486H82.0979V69.188C81.2112 69.1507 80.9896 69.039 80.9896 68.1821V65.9841H82.0979C84.2407 65.9841 85.386 65.1272 85.386 63.5252C85.349 62.1468 84.4624 61.0664 82.1718 61.0664ZM80.9526 65.4997V62.035C80.9526 61.737 81.0635 61.5507 81.6546 61.5507C82.7629 61.5507 83.6126 62.1841 83.6126 63.339C83.6126 64.6801 82.9107 65.4997 80.9526 65.4997Z" fill="white"/>
<path d="M89.3024 63.5254C88.6004 63.5254 88.1571 64.0842 87.9354 64.6058H87.8985V63.7117C87.8985 63.5999 87.8985 63.5254 87.8246 63.5254C87.7138 63.5254 86.3468 63.8979 85.7188 64.0097V64.345C86.2729 64.345 86.4207 64.4568 86.4207 65.0901V68.4803C86.4207 69.0019 86.199 69.1136 85.7188 69.1881V69.4862H88.7851V69.1881C88.231 69.1881 87.8985 69.0391 87.8985 68.4058V65.1274C88.0832 64.8293 88.3049 64.643 88.5265 64.643C88.6743 64.643 88.7851 64.7175 88.859 64.7548C88.9699 64.8293 89.1176 65.0156 89.4501 65.0156C89.8196 65.0156 90.1151 64.7175 90.1151 64.345C90.1521 63.9724 89.8935 63.5254 89.3024 63.5254Z" fill="white"/>
<path d="M92.8468 63.5254C91.1843 63.5254 90.0391 64.8293 90.0391 66.6175C90.0391 68.4058 91.1843 69.7097 92.8468 69.7097C94.5093 69.7097 95.6546 68.4058 95.6546 66.6175C95.6546 64.8293 94.5093 63.5254 92.8468 63.5254ZM92.8468 69.1881C91.9602 69.1881 91.6277 68.4058 91.6277 66.6175C91.6277 64.8293 91.9971 64.047 92.8468 64.047C93.7335 64.047 94.066 64.8293 94.066 66.6175C94.103 68.4058 93.7335 69.1881 92.8468 69.1881Z" fill="white"/>
<path d="M64.5156 72.3906H66.7323V72.7632H65.8087V75.2592H65.4392V72.7632H64.5156V72.3906Z" fill="white"/>
<path d="M67.6181 73.2114C67.729 73.1369 67.9137 73.0996 68.0615 73.0996V73.4722C67.8398 73.4722 67.6551 73.5094 67.5442 73.6584C67.3965 73.7702 67.3226 73.9565 67.3226 74.1427V75.2604H66.9531V73.0996H67.3226V73.5467C67.3595 73.3976 67.4703 73.2859 67.6181 73.2114Z" fill="white"/>
<path d="M69.6887 75.2604V74.9624C69.5409 75.1859 69.2823 75.2976 68.9498 75.2976C68.802 75.2976 68.6543 75.2604 68.5434 75.2231C68.4326 75.1859 68.3587 75.0741 68.2848 74.9996C68.2109 74.8878 68.2109 74.7761 68.2109 74.6643C68.2109 74.478 68.2848 74.329 68.4326 74.2173C68.5804 74.1055 68.7651 74.031 69.0237 74.031H69.6887V73.882C69.6887 73.7329 69.6518 73.6212 69.5409 73.5467C69.4301 73.4722 69.3193 73.4349 69.1345 73.4349C68.9129 73.4349 68.6912 73.5094 68.4695 73.6584L68.3218 73.3976C68.4695 73.2859 68.6173 73.2114 68.7651 73.1741C68.9129 73.1369 69.0607 73.0996 69.2454 73.0996C69.504 73.0996 69.7257 73.1741 69.8734 73.2859C70.0212 73.4349 70.0951 73.5839 70.0951 73.8447V75.2604H69.6887ZM69.467 74.8133C69.5779 74.7388 69.6518 74.6271 69.6887 74.478V74.2545H69.0607C68.8759 74.2545 68.7651 74.2918 68.6912 74.329C68.6173 74.3663 68.5804 74.478 68.5804 74.5898C68.5804 74.7016 68.6173 74.7761 68.6912 74.8506C68.7651 74.9251 68.8759 74.9624 69.0237 74.9624C69.1715 74.9624 69.3193 74.8878 69.467 74.8133Z" fill="white"/>
<path d="M72.7188 72.2422V75.2598H72.3493V74.85C72.2755 74.9991 72.1646 75.1108 72.0168 75.1853C71.8691 75.2598 71.7213 75.2971 71.5366 75.2971C71.3518 75.2971 71.1671 75.2598 71.0193 75.1481C70.8716 75.0363 70.7607 74.9245 70.6499 74.7755C70.5391 74.6265 70.5391 74.403 70.5391 74.2167C70.5391 73.9932 70.576 73.8069 70.6499 73.6579C70.7238 73.5089 70.8716 73.3598 71.0193 73.2853C71.1671 73.2108 71.3518 73.1363 71.5366 73.1363C71.7213 73.1363 71.8691 73.1736 72.0168 73.2481C72.1646 73.3226 72.2755 73.4343 72.3493 73.5834V72.2794H72.7188V72.2422ZM71.9799 74.85C72.0907 74.7755 72.1646 74.701 72.2385 74.5892C72.3124 74.4775 72.3493 74.3285 72.3493 74.1794C72.3493 74.0304 72.3124 73.8814 72.2385 73.7696C72.1646 73.6579 72.0907 73.5461 71.9799 73.5089C71.8691 73.4343 71.7582 73.3971 71.6105 73.3971C71.4627 73.3971 71.3518 73.4343 71.241 73.5089C71.1302 73.5834 71.0563 73.6579 70.9824 73.7696C70.9085 73.8814 70.8716 74.0304 70.8716 74.1794C70.8716 74.3285 70.9085 74.4402 70.9824 74.5892C71.0563 74.701 71.1302 74.8128 71.241 74.85C71.3518 74.9245 71.4627 74.9618 71.6105 74.9618C71.7582 74.9245 71.8691 74.9245 71.9799 74.85Z" fill="white"/>
<path d="M75.078 73.3604C75.2627 73.5467 75.3366 73.8447 75.3366 74.18C75.3366 74.2173 75.3366 74.2918 75.3366 74.2918H73.6372C73.6741 74.478 73.748 74.6271 73.8589 74.7388C74.0066 74.8506 74.1544 74.9251 74.3391 74.9251C74.45 74.9251 74.5977 74.8878 74.7086 74.8506C74.8194 74.8133 74.9302 74.7388 75.0041 74.6643L75.2258 74.8878C75.115 74.9996 75.0041 75.0741 74.8564 75.1486C74.7086 75.2231 74.5608 75.2604 74.3761 75.2604C74.1544 75.2604 73.9697 75.2231 73.8219 75.1114C73.6741 75.0369 73.5264 74.8878 73.4525 74.7388C73.3786 74.5898 73.3047 74.4035 73.3047 74.18C73.3047 73.9565 73.3416 73.7702 73.4525 73.6212C73.5264 73.4722 73.6741 73.3231 73.8219 73.2486C73.9697 73.1741 74.1544 73.0996 74.3761 73.0996C74.6347 73.0996 74.8933 73.1741 75.078 73.3604ZM74.9672 74.031C74.9672 73.8447 74.8933 73.6957 74.7825 73.5839C74.6716 73.4722 74.5239 73.3976 74.3022 73.3976C74.1175 73.3976 73.9697 73.4722 73.8219 73.5839C73.7111 73.6957 73.6372 73.8447 73.6002 74.031H74.9672Z" fill="white"/>
<path d="M76.9276 72.3906H77.297V74.8867H78.5162V75.222H76.8906V72.3906H76.9276Z" fill="white"/>
<path d="M79.3652 72.3167C79.4021 72.354 79.4391 72.4285 79.4391 72.503C79.4391 72.5775 79.4021 72.6147 79.3652 72.6892C79.3283 72.7265 79.2544 72.7638 79.1805 72.7638C79.1066 72.7638 79.0697 72.7265 78.9958 72.6892C78.9588 72.652 78.9219 72.5775 78.9219 72.503C78.9219 72.4285 78.9588 72.3912 78.9958 72.3167C79.0327 72.2422 79.1066 72.2422 79.1805 72.2422C79.2544 72.2422 79.2913 72.2422 79.3652 72.3167ZM78.9958 73.099H79.3652V75.2598H78.9958V73.099Z" fill="white"/>
<path d="M81.5815 75.26L80.9165 74.2168L80.5101 74.6266V75.2227H80.1406V72.2051H80.5101V74.1423L81.5445 73.0992H81.9878L81.1751 73.9188L82.0617 75.2227H81.5815V75.26Z" fill="white"/>
<path d="M83.9452 73.3604C84.1299 73.5467 84.2038 73.8447 84.2038 74.18C84.2038 74.2173 84.2038 74.2918 84.2038 74.2918H82.5044C82.5413 74.478 82.6152 74.6271 82.726 74.7388C82.8738 74.8506 83.0216 74.9251 83.2063 74.9251C83.3172 74.9251 83.4649 74.8878 83.5758 74.8506C83.6866 74.8133 83.7974 74.7388 83.8713 74.6643L84.093 74.8878C83.9822 74.9996 83.8713 75.0741 83.7235 75.1486C83.5758 75.2231 83.428 75.2604 83.2433 75.2604C83.0216 75.2604 82.8369 75.2231 82.6891 75.1114C82.5413 75.0369 82.3935 74.8878 82.3197 74.7388C82.2458 74.5898 82.1719 74.4035 82.1719 74.18C82.1719 73.9565 82.2088 73.7702 82.3197 73.6212C82.3935 73.4722 82.5413 73.3231 82.6891 73.2486C82.8369 73.1369 83.0216 73.0996 83.2433 73.0996C83.5388 73.0996 83.7974 73.1741 83.9452 73.3604ZM83.8713 74.031C83.8713 73.8447 83.7974 73.6957 83.6866 73.5839C83.5758 73.4722 83.428 73.3976 83.2063 73.3976C83.0216 73.3976 82.8738 73.4722 82.726 73.5839C82.6152 73.6957 82.5413 73.8447 82.5044 74.031H83.8713Z" fill="white"/>
<path d="M87.0872 75.2604V74.9624C86.9394 75.1859 86.6808 75.2976 86.3483 75.2976C86.2005 75.2976 86.0527 75.2604 85.9419 75.2231C85.831 75.1859 85.7572 75.0741 85.6833 74.9996C85.6094 74.8878 85.6094 74.7761 85.6094 74.6643C85.6094 74.478 85.6833 74.329 85.831 74.2173C85.9788 74.1055 86.1635 74.031 86.4222 74.031H87.0872V73.882C87.0872 73.7329 87.0502 73.6212 86.9394 73.5467C86.8285 73.4722 86.7177 73.4349 86.533 73.4349C86.3113 73.4349 86.0897 73.5094 85.868 73.6584L85.7202 73.3976C85.868 73.2859 86.0158 73.2114 86.1635 73.1741C86.3113 73.1369 86.4591 73.0996 86.6438 73.0996C86.9024 73.0996 87.1241 73.1741 87.2719 73.2859C87.4197 73.4349 87.4935 73.5839 87.4935 73.8447V75.2604H87.0872ZM86.8655 74.8133C86.9763 74.7388 87.0502 74.6271 87.0872 74.478V74.2545H86.4591C86.2744 74.2545 86.1635 74.2918 86.0897 74.329C86.0158 74.3663 85.9788 74.478 85.9788 74.5898C85.9788 74.7016 86.0158 74.7761 86.0897 74.8506C86.1635 74.9251 86.2744 74.9624 86.4222 74.9624C86.5699 74.9624 86.7177 74.8878 86.8655 74.8133Z" fill="white"/>
<path d="M91.1185 72.6514C91.3033 72.8377 91.4141 73.0612 91.4141 73.3593C91.4141 73.6945 91.3033 73.9181 91.1185 74.1043C90.9338 74.2906 90.6383 74.3651 90.3058 74.3651H89.6038V75.2592H89.2344V72.3906H90.3058C90.6752 72.3906 90.9338 72.4651 91.1185 72.6514ZM90.8599 73.8436C90.9708 73.7318 91.0447 73.5828 91.0447 73.3593C91.0447 73.173 90.9708 72.9867 90.8599 72.9122C90.7122 72.8004 90.5274 72.7632 90.3058 72.7632H89.6038V73.9926H90.3058C90.5274 73.9926 90.7122 73.9553 90.8599 73.8436Z" fill="white"/>
<path d="M92.5556 73.2114C92.6665 73.1369 92.8512 73.0996 92.999 73.0996V73.4722C92.7773 73.4722 92.5926 73.5094 92.4817 73.6584C92.334 73.7702 92.2601 73.9565 92.2601 74.1427V75.2604H91.8906V73.0996H92.2601V73.5467C92.334 73.3976 92.4079 73.2859 92.5556 73.2114Z" fill="white"/>
<path d="M94.8834 73.2115C95.0311 73.286 95.1789 73.435 95.2528 73.5841C95.3636 73.7331 95.4006 73.9194 95.4006 74.1429C95.4006 74.3664 95.3636 74.5527 95.2528 74.7017C95.142 74.8507 95.0311 74.9997 94.8834 75.0743C94.7356 75.1488 94.5139 75.2233 94.3292 75.2233C94.1075 75.2233 93.9228 75.186 93.775 75.0743C93.6273 74.9625 93.4795 74.8507 93.4056 74.7017C93.3317 74.5527 93.2578 74.3664 93.2578 74.1429C93.2578 73.9194 93.2948 73.7331 93.4056 73.5841C93.5164 73.435 93.6273 73.286 93.775 73.2115C93.9228 73.137 94.1445 73.0625 94.3292 73.0625C94.5139 73.0998 94.6986 73.137 94.8834 73.2115ZM93.9228 73.5096C93.812 73.5841 93.7381 73.6586 93.6642 73.7703C93.5903 73.8821 93.5903 74.0311 93.5903 74.1801C93.5903 74.3292 93.6273 74.4782 93.6642 74.5899C93.7381 74.7017 93.812 74.8135 93.9228 74.8507C94.0336 74.9252 94.1445 74.9625 94.2923 74.9625C94.44 74.9625 94.5509 74.9252 94.6617 74.8507C94.7725 74.7762 94.8464 74.7017 94.9203 74.5899C94.9942 74.4782 94.9942 74.3292 94.9942 74.1801C94.9942 74.0311 94.9573 73.9194 94.9203 73.7703C94.8464 73.6586 94.7725 73.5468 94.6617 73.5096C94.5509 73.435 94.44 73.3978 94.2923 73.3978C94.1814 73.3978 94.0336 73.435 93.9228 73.5096Z" fill="white"/>
<path d="M40.8511 112.995H35.8411V123H37.3711V118.41H40.7311V116.97H37.3711V114.435H40.8511V112.995ZM41.1618 123H42.9618L44.8368 120.645L46.6518 123H48.4218L45.7218 119.58L48.0468 116.685H46.2468L44.8368 118.53L43.4418 116.685H41.7018L43.9518 119.58L41.1618 123ZM49.7132 112.995V123H51.2432V118.935H51.9332C52.6682 118.935 53.5832 118.83 54.3782 118.155C55.2032 117.45 55.3532 116.55 55.3532 115.965C55.3532 115.05 54.9482 114.09 54.1082 113.535C53.3882 113.055 52.5332 112.995 51.9182 112.995H49.7132ZM51.2432 114.405H51.9182C53.6582 114.405 53.8832 115.395 53.8832 115.95C53.8832 116.88 53.2532 117.525 51.9332 117.525H51.2432V114.405ZM56.6502 123H58.1202V119.73C58.1202 119.31 58.1202 118.71 58.5252 118.275C58.8102 117.975 59.1252 117.93 59.4402 117.93C59.5902 117.93 59.8602 117.945 60.1902 118.155L60.7902 116.82C60.3852 116.58 59.9952 116.52 59.6352 116.52C59.3052 116.52 59.0202 116.565 58.7352 116.73C58.5252 116.85 58.2852 117.06 58.1202 117.255V116.685H56.6502V123ZM64.3827 116.52C62.4777 116.52 61.0077 117.9 61.0077 119.85C61.0077 121.785 62.4777 123.195 64.3827 123.195C66.2877 123.195 67.7577 121.785 67.7577 119.85C67.7577 117.9 66.2877 116.52 64.3827 116.52ZM64.3827 121.875C63.2277 121.875 62.5077 121.08 62.5077 119.865C62.5077 118.425 63.4527 117.84 64.3827 117.84C65.3127 117.84 66.2577 118.425 66.2577 119.865C66.2577 121.08 65.5377 121.875 64.3827 121.875ZM78.0728 112.995H73.0628V123H74.5928V118.41H77.9528V116.97H74.5928V114.435H78.0728V112.995ZM79.5457 116.685V123H81.0157V116.685H79.5457ZM79.3357 114.075C79.3357 114.615 79.7407 115.02 80.2807 115.02C80.8207 115.02 81.2257 114.615 81.2257 114.075C81.2257 113.535 80.8207 113.13 80.2807 113.13C79.7407 113.13 79.3357 113.535 79.3357 114.075ZM82.8559 123H84.3259V119.97C84.3259 117.93 85.0009 117.84 85.6609 117.84C86.2159 117.84 86.8159 117.885 86.8159 119.49V123H88.2859V119.13C88.2859 118.155 88.1359 117.72 87.8959 117.375C87.7009 117.105 87.2059 116.52 86.0359 116.52C85.6759 116.52 84.9559 116.565 84.3259 117.27V116.685H82.8559V123ZM94.7712 117.42C94.1712 116.64 93.3612 116.52 92.8962 116.52C91.2312 116.52 89.8212 117.78 89.8212 119.835C89.8212 121.575 90.9312 123.195 92.8812 123.195C93.3312 123.195 94.1262 123.09 94.7712 122.34V123H96.2412V116.685H94.7712V117.42ZM93.0762 117.84C94.0062 117.84 94.8612 118.5 94.8612 119.88C94.8612 121.2 94.0062 121.875 93.0762 121.875C92.0112 121.875 91.3212 120.96 91.3212 119.865C91.3212 118.74 92.0112 117.84 93.0762 117.84ZM98.0903 123H99.5603V119.97C99.5603 117.93 100.235 117.84 100.895 117.84C101.45 117.84 102.05 117.885 102.05 119.49V123H103.52V119.13C103.52 118.155 103.37 117.72 103.13 117.375C102.935 117.105 102.44 116.52 101.27 116.52C100.91 116.52 100.19 116.565 99.5603 117.27V116.685H98.0903V123ZM110.276 116.97C109.601 116.595 109.031 116.52 108.551 116.52C107.306 116.52 106.511 116.955 106.016 117.45C105.551 117.915 105.056 118.71 105.056 119.895C105.056 121.05 105.506 121.8 105.956 122.265C106.556 122.895 107.306 123.195 108.356 123.195C109.331 123.195 109.916 122.925 110.276 122.7V121.065C109.766 121.635 109.061 121.875 108.461 121.875C107.921 121.875 107.456 121.68 107.126 121.365C106.841 121.08 106.556 120.585 106.556 119.85C106.556 119.145 106.826 118.665 107.096 118.395C107.366 118.125 107.801 117.84 108.491 117.84C108.941 117.84 109.601 117.96 110.276 118.62V116.97ZM111.684 116.685V123H113.154V116.685H111.684ZM111.474 114.075C111.474 114.615 111.879 115.02 112.419 115.02C112.959 115.02 113.364 114.615 113.364 114.075C113.364 113.535 112.959 113.13 112.419 113.13C111.879 113.13 111.474 113.535 111.474 114.075ZM119.63 117.42C119.03 116.64 118.22 116.52 117.755 116.52C116.09 116.52 114.68 117.78 114.68 119.835C114.68 121.575 115.79 123.195 117.74 123.195C118.19 123.195 118.985 123.09 119.63 122.34V123H121.1V116.685H119.63V117.42ZM117.935 117.84C118.865 117.84 119.72 118.5 119.72 119.88C119.72 121.2 118.865 121.875 117.935 121.875C116.87 121.875 116.18 120.96 116.18 119.865C116.18 118.74 116.87 117.84 117.935 117.84ZM122.964 112.065V123H124.434V112.065H122.964ZM51.7329 132.495C51.5229 132.075 51.2379 131.73 50.9679 131.49C50.6529 131.22 50.0379 130.815 48.9579 130.815C47.0829 130.815 46.0329 132.105 46.0329 133.455C46.0329 134.955 47.2479 135.645 48.0729 135.99L49.0329 136.395C49.6929 136.665 50.4729 137.085 50.4729 138.105C50.4729 139.11 49.7529 139.785 48.8229 139.785C48.2229 139.785 47.8029 139.545 47.5179 139.185C47.2779 138.87 47.0979 138.405 47.0979 137.91L45.5829 138.24C45.6429 138.93 45.8829 139.59 46.4229 140.19C46.9329 140.76 47.6229 141.195 48.7779 141.195C50.6529 141.195 52.0029 139.89 52.0029 137.985C52.0029 136.845 51.4929 135.795 49.6479 135.045L48.6429 134.64C47.6679 134.25 47.5629 133.725 47.5629 133.425C47.5629 132.78 48.0429 132.225 48.9729 132.225C49.4079 132.225 49.7379 132.33 50.0529 132.585C50.2779 132.78 50.4129 132.99 50.5029 133.215L51.7329 132.495ZM58.0723 138.87C57.9373 139.11 57.7423 139.365 57.4873 139.56C57.1873 139.785 56.8873 139.875 56.4823 139.875C56.1223 139.875 55.7023 139.815 55.3573 139.47C55.0423 139.155 54.8473 138.645 54.8173 138.195H59.3473V138.015C59.3473 137.355 59.2723 136.185 58.4623 135.345C58.0873 134.955 57.4423 134.52 56.4373 134.52C55.5373 134.52 54.8473 134.85 54.3223 135.375C53.6623 136.05 53.3173 136.995 53.3173 137.97C53.3173 138.915 53.6473 139.785 54.2473 140.385C54.8473 140.985 55.5373 141.195 56.3773 141.195C57.0523 141.195 57.7273 141.045 58.2373 140.715C58.6423 140.46 59.0323 140.04 59.3023 139.56L58.0723 138.87ZM54.9223 136.995C54.9973 136.68 55.1623 136.38 55.3723 136.185C55.5673 135.99 55.8973 135.78 56.4073 135.78C56.8873 135.78 57.2023 135.96 57.3973 136.14C57.6223 136.35 57.7873 136.65 57.8473 136.995H54.9223ZM60.8836 141H62.3536V137.73C62.3536 137.31 62.3536 136.71 62.7586 136.275C63.0436 135.975 63.3586 135.93 63.6736 135.93C63.8236 135.93 64.0936 135.945 64.4236 136.155L65.0236 134.82C64.6186 134.58 64.2286 134.52 63.8686 134.52C63.5386 134.52 63.2536 134.565 62.9686 134.73C62.7586 134.85 62.5186 135.06 62.3536 135.255V134.685H60.8836V141ZM65.3463 134.685L68.6163 141.45L71.8863 134.685H70.2363L68.6163 138.285L66.9963 134.685H65.3463ZM72.91 134.685V141H74.38V134.685H72.91ZM72.7 132.075C72.7 132.615 73.105 133.02 73.645 133.02C74.185 133.02 74.59 132.615 74.59 132.075C74.59 131.535 74.185 131.13 73.645 131.13C73.105 131.13 72.7 131.535 72.7 132.075ZM81.1252 134.97C80.4502 134.595 79.8802 134.52 79.4002 134.52C78.1552 134.52 77.3602 134.955 76.8652 135.45C76.4002 135.915 75.9052 136.71 75.9052 137.895C75.9052 139.05 76.3552 139.8 76.8052 140.265C77.4052 140.895 78.1552 141.195 79.2052 141.195C80.1802 141.195 80.7652 140.925 81.1252 140.7V139.065C80.6152 139.635 79.9102 139.875 79.3102 139.875C78.7702 139.875 78.3052 139.68 77.9752 139.365C77.6902 139.08 77.4052 138.585 77.4052 137.85C77.4052 137.145 77.6752 136.665 77.9452 136.395C78.2152 136.125 78.6502 135.84 79.3402 135.84C79.7902 135.84 80.4502 135.96 81.1252 136.62V134.97ZM86.959 138.87C86.824 139.11 86.629 139.365 86.374 139.56C86.074 139.785 85.774 139.875 85.369 139.875C85.009 139.875 84.589 139.815 84.244 139.47C83.929 139.155 83.734 138.645 83.704 138.195H88.234V138.015C88.234 137.355 88.159 136.185 87.349 135.345C86.974 134.955 86.329 134.52 85.324 134.52C84.424 134.52 83.734 134.85 83.209 135.375C82.549 136.05 82.204 136.995 82.204 137.97C82.204 138.915 82.534 139.785 83.134 140.385C83.734 140.985 84.424 141.195 85.264 141.195C85.939 141.195 86.614 141.045 87.124 140.715C87.529 140.46 87.919 140.04 88.189 139.56L86.959 138.87ZM83.809 136.995C83.884 136.68 84.049 136.38 84.259 136.185C84.454 135.99 84.784 135.78 85.294 135.78C85.774 135.78 86.089 135.96 86.284 136.14C86.509 136.35 86.674 136.65 86.734 136.995H83.809ZM93.6253 135.63C93.4003 135.225 93.1153 134.985 92.9053 134.85C92.5453 134.61 92.1853 134.52 91.7353 134.52C90.9553 134.52 90.4753 134.82 90.1903 135.12C89.8603 135.465 89.6653 135.96 89.6653 136.47C89.6653 136.875 89.7853 137.22 90.1153 137.535C90.3553 137.775 90.7003 137.94 90.9853 138.075L91.5253 138.33C91.7653 138.435 91.9753 138.54 92.1553 138.72C92.2903 138.87 92.3503 139.02 92.3503 139.2C92.3503 139.38 92.2603 139.575 92.1403 139.695C92.0053 139.83 91.7653 139.905 91.5403 139.905C91.1953 139.905 90.9853 139.755 90.8953 139.665C90.7603 139.545 90.6253 139.275 90.5503 139.065L89.3503 139.635C89.5003 140.085 89.8003 140.52 90.1603 140.79C90.6103 141.135 91.1203 141.195 91.5253 141.195C92.1853 141.195 92.8003 141.03 93.2953 140.49C93.6403 140.115 93.8503 139.62 93.8503 139.05C93.8503 138.615 93.7303 138.225 93.3853 137.88C93.1453 137.625 92.8303 137.46 92.5003 137.295L91.7503 136.92C91.4353 136.755 91.3453 136.725 91.2553 136.665C91.1203 136.575 91.0453 136.47 91.0453 136.305C91.0453 136.17 91.1053 136.05 91.1803 135.975C91.2703 135.885 91.4203 135.81 91.6303 135.81C92.0953 135.81 92.3803 136.11 92.5303 136.35L93.6253 135.63ZM98.9466 130.995V141H103.417V139.56H100.477V130.995H98.9466ZM107 136.035V134.685H105.875V132.375H104.405V134.685H103.79V136.035H104.405V141H105.875V136.035H107ZM112.613 135.42C112.013 134.64 111.203 134.52 110.738 134.52C109.073 134.52 107.663 135.78 107.663 137.835C107.663 139.575 108.773 141.195 110.723 141.195C111.173 141.195 111.968 141.09 112.613 140.34V141H114.083V130.065H112.613V135.42ZM110.918 135.84C111.848 135.84 112.703 136.5 112.703 137.88C112.703 139.2 111.848 139.875 110.918 139.875C109.853 139.875 109.163 138.96 109.163 137.865C109.163 136.74 109.853 135.84 110.918 135.84Z" fill="#2D3436"/>
<path d="M55.8438 148.995H50.8338V159H52.3638V154.41H55.7238V152.97H52.3638V150.435H55.8438V148.995ZM61.5559 153.42C60.9559 152.64 60.1459 152.52 59.6809 152.52C58.0159 152.52 56.6059 153.78 56.6059 155.835C56.6059 157.575 57.7159 159.195 59.6659 159.195C60.1159 159.195 60.9109 159.09 61.5559 158.34V159H63.0259V152.685H61.5559V153.42ZM59.8609 153.84C60.7909 153.84 61.6459 154.5 61.6459 155.88C61.6459 157.2 60.7909 157.875 59.8609 157.875C58.7959 157.875 58.1059 156.96 58.1059 155.865C58.1059 154.74 58.7959 153.84 59.8609 153.84ZM69.78 152.97C69.105 152.595 68.535 152.52 68.055 152.52C66.81 152.52 66.015 152.955 65.52 153.45C65.055 153.915 64.56 154.71 64.56 155.895C64.56 157.05 65.01 157.8 65.46 158.265C66.06 158.895 66.81 159.195 67.86 159.195C68.835 159.195 69.42 158.925 69.78 158.7V157.065C69.27 157.635 68.565 157.875 67.965 157.875C67.425 157.875 66.96 157.68 66.63 157.365C66.345 157.08 66.06 156.585 66.06 155.85C66.06 155.145 66.33 154.665 66.6 154.395C66.87 154.125 67.305 153.84 67.995 153.84C68.445 153.84 69.105 153.96 69.78 154.62V152.97ZM73.8288 154.035V152.685H72.7038V150.375H71.2338V152.685H70.6188V154.035H71.2338V159H72.7038V154.035H73.8288ZM84.1426 150.495C83.9326 150.075 83.6476 149.73 83.3776 149.49C83.0626 149.22 82.4476 148.815 81.3676 148.815C79.4926 148.815 78.4426 150.105 78.4426 151.455C78.4426 152.955 79.6576 153.645 80.4826 153.99L81.4426 154.395C82.1026 154.665 82.8826 155.085 82.8826 156.105C82.8826 157.11 82.1626 157.785 81.2326 157.785C80.6326 157.785 80.2126 157.545 79.9276 157.185C79.6876 156.87 79.5076 156.405 79.5076 155.91L77.9926 156.24C78.0526 156.93 78.2926 157.59 78.8326 158.19C79.3426 158.76 80.0326 159.195 81.1876 159.195C83.0626 159.195 84.4126 157.89 84.4126 155.985C84.4126 154.845 83.9026 153.795 82.0576 153.045L81.0526 152.64C80.0776 152.25 79.9726 151.725 79.9726 151.425C79.9726 150.78 80.4526 150.225 81.3826 150.225C81.8176 150.225 82.1476 150.33 82.4626 150.585C82.6876 150.78 82.8226 150.99 82.9126 151.215L84.1426 150.495ZM86.057 159H87.527V155.955C87.527 155.145 87.617 154.665 87.827 154.365C88.022 154.08 88.412 153.84 88.907 153.84C89.282 153.84 89.567 153.99 89.732 154.17C90.017 154.485 90.017 154.89 90.017 155.265V159H91.487V155.13C91.487 154.68 91.472 153.945 91.082 153.375C90.902 153.12 90.377 152.52 89.222 152.52C88.847 152.52 88.157 152.58 87.527 153.225V148.065H86.057V159ZM97.6157 156.87C97.4807 157.11 97.2857 157.365 97.0307 157.56C96.7307 157.785 96.4307 157.875 96.0257 157.875C95.6657 157.875 95.2457 157.815 94.9007 157.47C94.5857 157.155 94.3907 156.645 94.3607 156.195H98.8907V156.015C98.8907 155.355 98.8157 154.185 98.0057 153.345C97.6307 152.955 96.9857 152.52 95.9807 152.52C95.0807 152.52 94.3907 152.85 93.8657 153.375C93.2057 154.05 92.8607 154.995 92.8607 155.97C92.8607 156.915 93.1907 157.785 93.7907 158.385C94.3907 158.985 95.0807 159.195 95.9207 159.195C96.5957 159.195 97.2707 159.045 97.7807 158.715C98.1857 158.46 98.5757 158.04 98.8457 157.56L97.6157 156.87ZM94.4657 154.995C94.5407 154.68 94.7057 154.38 94.9157 154.185C95.1107 153.99 95.4407 153.78 95.9507 153.78C96.4307 153.78 96.7457 153.96 96.9407 154.14C97.1657 154.35 97.3307 154.65 97.3907 154.995H94.4657ZM104.852 156.87C104.717 157.11 104.522 157.365 104.267 157.56C103.967 157.785 103.667 157.875 103.262 157.875C102.902 157.875 102.482 157.815 102.137 157.47C101.822 157.155 101.627 156.645 101.597 156.195H106.127V156.015C106.127 155.355 106.052 154.185 105.242 153.345C104.867 152.955 104.222 152.52 103.217 152.52C102.317 152.52 101.627 152.85 101.102 153.375C100.442 154.05 100.097 154.995 100.097 155.97C100.097 156.915 100.427 157.785 101.027 158.385C101.627 158.985 102.317 159.195 103.157 159.195C103.832 159.195 104.507 159.045 105.017 158.715C105.422 158.46 105.812 158.04 106.082 157.56L104.852 156.87ZM101.702 154.995C101.777 154.68 101.942 154.38 102.152 154.185C102.347 153.99 102.677 153.78 103.187 153.78C103.667 153.78 103.982 153.96 104.177 154.14C104.402 154.35 104.567 154.65 104.627 154.995H101.702ZM110.303 154.035V152.685H109.178V150.375H107.708V152.685H107.093V154.035H107.708V159H109.178V154.035H110.303Z" fill="#6D6455"/>
<defs>
<filter id="filter0_d_12839_24808" x="0" y="0" width="160" height="220" filterUnits="userSpaceOnUse" color-interpolation-filters="sRGB">
<feFlood flood-opacity="0" result="BackgroundImageFix"/>
<feColorMatrix in="SourceAlpha" type="matrix" values="0 0 0 0 0 0 0 0 0 0 0 0 0 0 0 0 0 0 127 0" result="hardAlpha"/>
<feOffset dy="2"/>
<feGaussianBlur stdDeviation="5"/>
<feColorMatrix type="matrix" values="0 0 0 0 0.176471 0 0 0 0 0.203922 0 0 0 0 0.211765 0 0 0 0.05 0"/>
<feBlend mode="normal" in2="BackgroundImageFix" result="effect1_dropShadow_12839_24808"/>
<feBlend mode="normal" in="SourceGraphic" in2="effect1_dropShadow_12839_24808" result="shape"/>
</filter>
</defs>
</svg>
