<svg width="160" height="220" viewBox="0 0 160 220" fill="none" xmlns="http://www.w3.org/2000/svg">
<g filter="url(#filter0_d_12839_24838)">
<mask id="mask0_12839_24838" style="mask-type:alpha" maskUnits="userSpaceOnUse" x="10" y="8" width="140" height="200">
<rect x="10" y="8" width="140" height="200" rx="6" fill="white"/>
</mask>
<g mask="url(#mask0_12839_24838)">
<rect x="10" y="8" width="140" height="200" rx="6" fill="white"/>
</g>
</g>
<path d="M102.161 45.9414H57.8281V90.6473H102.161V45.9414Z" fill="#F41112"/>
<path d="M71.5329 61.0664H64.4766V61.4017C65.2893 61.439 65.548 61.5507 65.548 62.4076V68.1821C65.548 69.0762 65.2893 69.1507 64.4766 69.188V69.486H68.4296V69.188C67.4321 69.1507 67.2105 69.039 67.2105 68.1821V65.4252H68.6513C69.7227 65.4252 70.2399 65.686 70.4246 66.6546H70.7571V63.6742H70.4246C70.2768 64.5684 69.9813 64.7919 68.6513 64.7919H67.2105V62.1095C67.2105 61.7743 67.2843 61.6997 67.6907 61.6997H68.9468C70.6093 61.6997 70.9049 61.9978 71.2004 62.9292H71.5329V61.0664Z" fill="white"/>
<path d="M76.8939 68.6289L75.2683 66.2073L76.155 65.0897C76.7461 64.3818 77.0786 64.0093 77.5958 63.972V63.6367H75.3053V63.972C75.7117 63.972 75.8964 64.0838 75.8964 64.3446C75.8964 64.5681 75.6378 64.8661 75.4161 65.0897L74.8989 65.6857L74.3078 64.7916C74.16 64.6053 74.0492 64.4563 74.0492 64.2701C74.0492 64.0838 74.2708 63.972 74.6403 63.972V63.6367H71.5739V63.972C72.0172 64.0838 72.2019 64.3446 72.4236 64.6799L73.9383 66.9151L72.6822 68.4053C72.2389 68.9269 72.0172 69.1132 71.5 69.1877V69.4857H73.7536V69.1877C73.4581 69.1877 73.1256 69.1132 73.1256 68.9269C73.1256 68.7406 73.3472 68.4799 73.7167 68.0328L74.2339 67.3995L74.8619 68.3308C75.0836 68.6661 75.1944 68.8151 75.1944 68.9269C75.1944 69.0759 74.9728 69.1504 74.5664 69.1504V69.4485H77.7067V69.1504C77.4481 69.225 77.2264 69.1504 76.8939 68.6289Z" fill="white"/>
<path d="M82.1718 61.0664H78.2188V61.4017C79.0685 61.439 79.2901 61.5507 79.2901 62.4076V68.1821C79.2901 69.0762 79.0685 69.1507 78.2188 69.188V69.486H82.0979V69.188C81.2112 69.1507 80.9896 69.039 80.9896 68.1821V65.9841H82.0979C84.2407 65.9841 85.386 65.1272 85.386 63.5252C85.349 62.1468 84.4624 61.0664 82.1718 61.0664ZM80.9526 65.4997V62.035C80.9526 61.737 81.0635 61.5507 81.6546 61.5507C82.7629 61.5507 83.6126 62.1841 83.6126 63.339C83.6126 64.6801 82.9107 65.4997 80.9526 65.4997Z" fill="white"/>
<path d="M89.3024 63.5254C88.6004 63.5254 88.1571 64.0842 87.9354 64.6058H87.8985V63.7117C87.8985 63.5999 87.8985 63.5254 87.8246 63.5254C87.7138 63.5254 86.3468 63.8979 85.7188 64.0097V64.345C86.2729 64.345 86.4207 64.4568 86.4207 65.0901V68.4803C86.4207 69.0019 86.199 69.1136 85.7188 69.1881V69.4862H88.7851V69.1881C88.231 69.1881 87.8985 69.0391 87.8985 68.4058V65.1274C88.0832 64.8293 88.3049 64.643 88.5265 64.643C88.6743 64.643 88.7851 64.7175 88.859 64.7548C88.9699 64.8293 89.1176 65.0156 89.4501 65.0156C89.8196 65.0156 90.1151 64.7175 90.1151 64.345C90.1521 63.9724 89.8935 63.5254 89.3024 63.5254Z" fill="white"/>
<path d="M92.8468 63.5254C91.1843 63.5254 90.0391 64.8293 90.0391 66.6175C90.0391 68.4058 91.1843 69.7097 92.8468 69.7097C94.5093 69.7097 95.6546 68.4058 95.6546 66.6175C95.6546 64.8293 94.5093 63.5254 92.8468 63.5254ZM92.8468 69.1881C91.9602 69.1881 91.6277 68.4058 91.6277 66.6175C91.6277 64.8293 91.9971 64.047 92.8468 64.047C93.7335 64.047 94.066 64.8293 94.066 66.6175C94.103 68.4058 93.7335 69.1881 92.8468 69.1881Z" fill="white"/>
<path d="M64.5156 72.3906H66.7323V72.7632H65.8087V75.2592H65.4392V72.7632H64.5156V72.3906Z" fill="white"/>
<path d="M67.6181 73.2114C67.729 73.1369 67.9137 73.0996 68.0615 73.0996V73.4722C67.8398 73.4722 67.6551 73.5094 67.5442 73.6584C67.3965 73.7702 67.3226 73.9565 67.3226 74.1427V75.2604H66.9531V73.0996H67.3226V73.5467C67.3595 73.3976 67.4703 73.2859 67.6181 73.2114Z" fill="white"/>
<path d="M69.6887 75.2604V74.9624C69.5409 75.1859 69.2823 75.2976 68.9498 75.2976C68.802 75.2976 68.6543 75.2604 68.5434 75.2231C68.4326 75.1859 68.3587 75.0741 68.2848 74.9996C68.2109 74.8878 68.2109 74.7761 68.2109 74.6643C68.2109 74.478 68.2848 74.329 68.4326 74.2173C68.5804 74.1055 68.7651 74.031 69.0237 74.031H69.6887V73.882C69.6887 73.7329 69.6518 73.6212 69.5409 73.5467C69.4301 73.4722 69.3193 73.4349 69.1345 73.4349C68.9129 73.4349 68.6912 73.5094 68.4695 73.6584L68.3218 73.3976C68.4695 73.2859 68.6173 73.2114 68.7651 73.1741C68.9129 73.1369 69.0607 73.0996 69.2454 73.0996C69.504 73.0996 69.7257 73.1741 69.8734 73.2859C70.0212 73.4349 70.0951 73.5839 70.0951 73.8447V75.2604H69.6887ZM69.467 74.8133C69.5779 74.7388 69.6518 74.6271 69.6887 74.478V74.2545H69.0607C68.8759 74.2545 68.7651 74.2918 68.6912 74.329C68.6173 74.3663 68.5804 74.478 68.5804 74.5898C68.5804 74.7016 68.6173 74.7761 68.6912 74.8506C68.7651 74.9251 68.8759 74.9624 69.0237 74.9624C69.1715 74.9624 69.3193 74.8878 69.467 74.8133Z" fill="white"/>
<path d="M72.7188 72.2422V75.2598H72.3493V74.85C72.2755 74.9991 72.1646 75.1108 72.0168 75.1853C71.8691 75.2598 71.7213 75.2971 71.5366 75.2971C71.3518 75.2971 71.1671 75.2598 71.0193 75.1481C70.8716 75.0363 70.7607 74.9245 70.6499 74.7755C70.5391 74.6265 70.5391 74.403 70.5391 74.2167C70.5391 73.9932 70.576 73.8069 70.6499 73.6579C70.7238 73.5089 70.8716 73.3598 71.0193 73.2853C71.1671 73.2108 71.3518 73.1363 71.5366 73.1363C71.7213 73.1363 71.8691 73.1736 72.0168 73.2481C72.1646 73.3226 72.2755 73.4343 72.3493 73.5834V72.2794H72.7188V72.2422ZM71.9799 74.85C72.0907 74.7755 72.1646 74.701 72.2385 74.5892C72.3124 74.4775 72.3493 74.3285 72.3493 74.1794C72.3493 74.0304 72.3124 73.8814 72.2385 73.7696C72.1646 73.6579 72.0907 73.5461 71.9799 73.5089C71.8691 73.4343 71.7582 73.3971 71.6105 73.3971C71.4627 73.3971 71.3518 73.4343 71.241 73.5089C71.1302 73.5834 71.0563 73.6579 70.9824 73.7696C70.9085 73.8814 70.8716 74.0304 70.8716 74.1794C70.8716 74.3285 70.9085 74.4402 70.9824 74.5892C71.0563 74.701 71.1302 74.8128 71.241 74.85C71.3518 74.9245 71.4627 74.9618 71.6105 74.9618C71.7582 74.9245 71.8691 74.9245 71.9799 74.85Z" fill="white"/>
<path d="M75.078 73.3604C75.2627 73.5467 75.3366 73.8447 75.3366 74.18C75.3366 74.2173 75.3366 74.2918 75.3366 74.2918H73.6372C73.6741 74.478 73.748 74.6271 73.8589 74.7388C74.0066 74.8506 74.1544 74.9251 74.3391 74.9251C74.45 74.9251 74.5977 74.8878 74.7086 74.8506C74.8194 74.8133 74.9302 74.7388 75.0041 74.6643L75.2258 74.8878C75.115 74.9996 75.0041 75.0741 74.8564 75.1486C74.7086 75.2231 74.5608 75.2604 74.3761 75.2604C74.1544 75.2604 73.9697 75.2231 73.8219 75.1114C73.6741 75.0369 73.5264 74.8878 73.4525 74.7388C73.3786 74.5898 73.3047 74.4035 73.3047 74.18C73.3047 73.9565 73.3416 73.7702 73.4525 73.6212C73.5264 73.4722 73.6741 73.3231 73.8219 73.2486C73.9697 73.1741 74.1544 73.0996 74.3761 73.0996C74.6347 73.0996 74.8933 73.1741 75.078 73.3604ZM74.9672 74.031C74.9672 73.8447 74.8933 73.6957 74.7825 73.5839C74.6716 73.4722 74.5239 73.3976 74.3022 73.3976C74.1175 73.3976 73.9697 73.4722 73.8219 73.5839C73.7111 73.6957 73.6372 73.8447 73.6002 74.031H74.9672Z" fill="white"/>
<path d="M76.9276 72.3906H77.297V74.8867H78.5162V75.222H76.8906V72.3906H76.9276Z" fill="white"/>
<path d="M79.3652 72.3167C79.4021 72.354 79.4391 72.4285 79.4391 72.503C79.4391 72.5775 79.4021 72.6147 79.3652 72.6892C79.3283 72.7265 79.2544 72.7638 79.1805 72.7638C79.1066 72.7638 79.0697 72.7265 78.9958 72.6892C78.9588 72.652 78.9219 72.5775 78.9219 72.503C78.9219 72.4285 78.9588 72.3912 78.9958 72.3167C79.0327 72.2422 79.1066 72.2422 79.1805 72.2422C79.2544 72.2422 79.2913 72.2422 79.3652 72.3167ZM78.9958 73.099H79.3652V75.2598H78.9958V73.099Z" fill="white"/>
<path d="M81.5815 75.26L80.9165 74.2168L80.5101 74.6266V75.2227H80.1406V72.2051H80.5101V74.1423L81.5445 73.0992H81.9878L81.1751 73.9188L82.0617 75.2227H81.5815V75.26Z" fill="white"/>
<path d="M83.9452 73.3604C84.1299 73.5467 84.2038 73.8447 84.2038 74.18C84.2038 74.2173 84.2038 74.2918 84.2038 74.2918H82.5044C82.5413 74.478 82.6152 74.6271 82.726 74.7388C82.8738 74.8506 83.0216 74.9251 83.2063 74.9251C83.3172 74.9251 83.4649 74.8878 83.5758 74.8506C83.6866 74.8133 83.7974 74.7388 83.8713 74.6643L84.093 74.8878C83.9822 74.9996 83.8713 75.0741 83.7235 75.1486C83.5758 75.2231 83.428 75.2604 83.2433 75.2604C83.0216 75.2604 82.8369 75.2231 82.6891 75.1114C82.5413 75.0369 82.3935 74.8878 82.3197 74.7388C82.2458 74.5898 82.1719 74.4035 82.1719 74.18C82.1719 73.9565 82.2088 73.7702 82.3197 73.6212C82.3935 73.4722 82.5413 73.3231 82.6891 73.2486C82.8369 73.1369 83.0216 73.0996 83.2433 73.0996C83.5388 73.0996 83.7974 73.1741 83.9452 73.3604ZM83.8713 74.031C83.8713 73.8447 83.7974 73.6957 83.6866 73.5839C83.5758 73.4722 83.428 73.3976 83.2063 73.3976C83.0216 73.3976 82.8738 73.4722 82.726 73.5839C82.6152 73.6957 82.5413 73.8447 82.5044 74.031H83.8713Z" fill="white"/>
<path d="M87.0872 75.2604V74.9624C86.9394 75.1859 86.6808 75.2976 86.3483 75.2976C86.2005 75.2976 86.0527 75.2604 85.9419 75.2231C85.831 75.1859 85.7572 75.0741 85.6833 74.9996C85.6094 74.8878 85.6094 74.7761 85.6094 74.6643C85.6094 74.478 85.6833 74.329 85.831 74.2173C85.9788 74.1055 86.1635 74.031 86.4222 74.031H87.0872V73.882C87.0872 73.7329 87.0502 73.6212 86.9394 73.5467C86.8285 73.4722 86.7177 73.4349 86.533 73.4349C86.3113 73.4349 86.0897 73.5094 85.868 73.6584L85.7202 73.3976C85.868 73.2859 86.0158 73.2114 86.1635 73.1741C86.3113 73.1369 86.4591 73.0996 86.6438 73.0996C86.9024 73.0996 87.1241 73.1741 87.2719 73.2859C87.4197 73.4349 87.4935 73.5839 87.4935 73.8447V75.2604H87.0872ZM86.8655 74.8133C86.9763 74.7388 87.0502 74.6271 87.0872 74.478V74.2545H86.4591C86.2744 74.2545 86.1635 74.2918 86.0897 74.329C86.0158 74.3663 85.9788 74.478 85.9788 74.5898C85.9788 74.7016 86.0158 74.7761 86.0897 74.8506C86.1635 74.9251 86.2744 74.9624 86.4222 74.9624C86.5699 74.9624 86.7177 74.8878 86.8655 74.8133Z" fill="white"/>
<path d="M91.1185 72.6514C91.3033 72.8377 91.4141 73.0612 91.4141 73.3593C91.4141 73.6945 91.3033 73.9181 91.1185 74.1043C90.9338 74.2906 90.6383 74.3651 90.3058 74.3651H89.6038V75.2592H89.2344V72.3906H90.3058C90.6752 72.3906 90.9338 72.4651 91.1185 72.6514ZM90.8599 73.8436C90.9708 73.7318 91.0447 73.5828 91.0447 73.3593C91.0447 73.173 90.9708 72.9867 90.8599 72.9122C90.7122 72.8004 90.5274 72.7632 90.3058 72.7632H89.6038V73.9926H90.3058C90.5274 73.9926 90.7122 73.9553 90.8599 73.8436Z" fill="white"/>
<path d="M92.5556 73.2114C92.6665 73.1369 92.8512 73.0996 92.999 73.0996V73.4722C92.7773 73.4722 92.5926 73.5094 92.4817 73.6584C92.334 73.7702 92.2601 73.9565 92.2601 74.1427V75.2604H91.8906V73.0996H92.2601V73.5467C92.334 73.3976 92.4079 73.2859 92.5556 73.2114Z" fill="white"/>
<path d="M94.8834 73.2115C95.0311 73.286 95.1789 73.435 95.2528 73.5841C95.3636 73.7331 95.4006 73.9194 95.4006 74.1429C95.4006 74.3664 95.3636 74.5527 95.2528 74.7017C95.142 74.8507 95.0311 74.9997 94.8834 75.0743C94.7356 75.1488 94.5139 75.2233 94.3292 75.2233C94.1075 75.2233 93.9228 75.186 93.775 75.0743C93.6273 74.9625 93.4795 74.8507 93.4056 74.7017C93.3317 74.5527 93.2578 74.3664 93.2578 74.1429C93.2578 73.9194 93.2948 73.7331 93.4056 73.5841C93.5164 73.435 93.6273 73.286 93.775 73.2115C93.9228 73.137 94.1445 73.0625 94.3292 73.0625C94.5139 73.0998 94.6986 73.137 94.8834 73.2115ZM93.9228 73.5096C93.812 73.5841 93.7381 73.6586 93.6642 73.7703C93.5903 73.8821 93.5903 74.0311 93.5903 74.1801C93.5903 74.3292 93.6273 74.4782 93.6642 74.5899C93.7381 74.7017 93.812 74.8135 93.9228 74.8507C94.0336 74.9252 94.1445 74.9625 94.2923 74.9625C94.44 74.9625 94.5509 74.9252 94.6617 74.8507C94.7725 74.7762 94.8464 74.7017 94.9203 74.5899C94.9942 74.4782 94.9942 74.3292 94.9942 74.1801C94.9942 74.0311 94.9573 73.9194 94.9203 73.7703C94.8464 73.6586 94.7725 73.5468 94.6617 73.5096C94.5509 73.435 94.44 73.3978 94.2923 73.3978C94.1814 73.3978 94.0336 73.435 93.9228 73.5096Z" fill="white"/>
<path d="M46.7325 112.995H41.7225V123H43.2525V118.41H46.6125V116.97H43.2525V114.435H46.7325V112.995ZM47.0431 123H48.8431L50.7181 120.645L52.5331 123H54.3031L51.6031 119.58L53.9281 116.685H52.1281L50.7181 118.53L49.3231 116.685H47.5831L49.8331 119.58L47.0431 123ZM55.5945 112.995V123H57.1245V118.935H57.8145C58.5495 118.935 59.4645 118.83 60.2595 118.155C61.0845 117.45 61.2345 116.55 61.2345 115.965C61.2345 115.05 60.8295 114.09 59.9895 113.535C59.2695 113.055 58.4145 112.995 57.7995 112.995H55.5945ZM57.1245 114.405H57.7995C59.5395 114.405 59.7645 115.395 59.7645 115.95C59.7645 116.88 59.1345 117.525 57.8145 117.525H57.1245V114.405ZM62.5316 123H64.0016V119.73C64.0016 119.31 64.0016 118.71 64.4066 118.275C64.6916 117.975 65.0066 117.93 65.3216 117.93C65.4716 117.93 65.7416 117.945 66.0716 118.155L66.6716 116.82C66.2666 116.58 65.8766 116.52 65.5166 116.52C65.1866 116.52 64.9016 116.565 64.6166 116.73C64.4066 116.85 64.1666 117.06 64.0016 117.255V116.685H62.5316V123ZM70.2641 116.52C68.3591 116.52 66.8891 117.9 66.8891 119.85C66.8891 121.785 68.3591 123.195 70.2641 123.195C72.1691 123.195 73.6391 121.785 73.6391 119.85C73.6391 117.9 72.1691 116.52 70.2641 116.52ZM70.2641 121.875C69.1091 121.875 68.3891 121.08 68.3891 119.865C68.3891 118.425 69.3341 117.84 70.2641 117.84C71.1941 117.84 72.1391 118.425 72.1391 119.865C72.1391 121.08 71.4191 121.875 70.2641 121.875ZM84.1191 119.205H86.6091C86.5491 119.775 86.3241 120.36 85.7691 120.9C85.1241 121.53 84.4041 121.785 83.5341 121.785C82.5741 121.785 81.7191 121.515 81.0291 120.78C80.3691 120.075 79.9941 119.07 79.9941 118.065C79.9941 116.985 80.3991 115.92 81.0591 115.26C81.5541 114.765 82.3941 114.225 83.6991 114.225C84.3141 114.225 84.9141 114.33 85.4691 114.66C85.9491 114.93 86.3991 115.38 86.6991 115.8L87.9141 114.945C87.6291 114.495 87.1191 113.91 86.2941 113.445C85.5141 113.01 84.5841 112.815 83.6841 112.815C82.1391 112.815 80.7741 113.445 79.9191 114.315C79.0941 115.14 78.4641 116.49 78.4641 118.05C78.4641 119.49 78.9741 120.825 79.9491 121.83C80.8641 122.775 81.8991 123.195 83.3541 123.195C84.4941 123.195 85.7241 122.925 86.7591 121.92C87.7341 120.975 88.2441 119.58 88.2441 117.87V117.795H84.1191V119.205ZM89.8948 112.065V123H91.3648V112.065H89.8948ZM96.265 116.52C94.36 116.52 92.89 117.9 92.89 119.85C92.89 121.785 94.36 123.195 96.265 123.195C98.17 123.195 99.64 121.785 99.64 119.85C99.64 117.9 98.17 116.52 96.265 116.52ZM96.265 121.875C95.11 121.875 94.39 121.08 94.39 119.865C94.39 118.425 95.335 117.84 96.265 117.84C97.195 117.84 98.14 118.425 98.14 119.865C98.14 121.08 97.42 121.875 96.265 121.875ZM102.644 112.065H101.174V123H102.644V122.34C103.289 123.09 104.084 123.195 104.534 123.195C106.484 123.195 107.594 121.575 107.594 119.835C107.594 117.78 106.184 116.52 104.519 116.52C104.054 116.52 103.244 116.64 102.644 117.42V112.065ZM104.339 117.84C105.404 117.84 106.094 118.74 106.094 119.865C106.094 120.96 105.404 121.875 104.339 121.875C103.409 121.875 102.554 121.2 102.554 119.88C102.554 118.5 103.409 117.84 104.339 117.84ZM113.748 117.42C113.148 116.64 112.338 116.52 111.873 116.52C110.208 116.52 108.798 117.78 108.798 119.835C108.798 121.575 109.908 123.195 111.858 123.195C112.308 123.195 113.103 123.09 113.748 122.34V123H115.218V116.685H113.748V117.42ZM112.053 117.84C112.983 117.84 113.838 118.5 113.838 119.88C113.838 121.2 112.983 121.875 112.053 121.875C110.988 121.875 110.298 120.96 110.298 119.865C110.298 118.74 110.988 117.84 112.053 117.84ZM117.082 112.065V123H118.552V112.065H117.082ZM47.8457 141L48.8957 134.955L51.7757 141.465L54.6857 134.97L55.7057 141H57.2657L55.3757 130.245L51.8657 138.015L48.3857 130.245L46.2857 141H47.8457ZM63.7092 135.42C63.1092 134.64 62.2992 134.52 61.8342 134.52C60.1692 134.52 58.7592 135.78 58.7592 137.835C58.7592 139.575 59.8692 141.195 61.8192 141.195C62.2692 141.195 63.0642 141.09 63.7092 140.34V141H65.1792V134.685H63.7092V135.42ZM62.0142 135.84C62.9442 135.84 63.7992 136.5 63.7992 137.88C63.7992 139.2 62.9442 139.875 62.0142 139.875C60.9492 139.875 60.2592 138.96 60.2592 137.865C60.2592 136.74 60.9492 135.84 62.0142 135.84ZM67.0433 141H68.5133V137.73C68.5133 137.31 68.5133 136.71 68.9183 136.275C69.2033 135.975 69.5183 135.93 69.8333 135.93C69.9833 135.93 70.2533 135.945 70.5833 136.155L71.1833 134.82C70.7783 134.58 70.3883 134.52 70.0283 134.52C69.6983 134.52 69.4133 134.565 69.1283 134.73C68.9183 134.85 68.6783 135.06 68.5133 135.255V134.685H67.0433V141ZM72.0238 130.065V141H73.4938V138.57L73.7638 138.3L75.8338 141H77.6938L74.7838 137.31L77.4988 134.685H75.5488L73.4938 136.8V130.065H72.0238ZM82.9234 138.87C82.7884 139.11 82.5934 139.365 82.3384 139.56C82.0384 139.785 81.7384 139.875 81.3334 139.875C80.9734 139.875 80.5534 139.815 80.2084 139.47C79.8934 139.155 79.6984 138.645 79.6684 138.195H84.1984V138.015C84.1984 137.355 84.1234 136.185 83.3134 135.345C82.9384 134.955 82.2934 134.52 81.2884 134.52C80.3884 134.52 79.6984 134.85 79.1734 135.375C78.5134 136.05 78.1684 136.995 78.1684 137.97C78.1684 138.915 78.4984 139.785 79.0984 140.385C79.6984 140.985 80.3884 141.195 81.2284 141.195C81.9034 141.195 82.5784 141.045 83.0884 140.715C83.4934 140.46 83.8834 140.04 84.1534 139.56L82.9234 138.87ZM79.7734 136.995C79.8484 136.68 80.0134 136.38 80.2234 136.185C80.4184 135.99 80.7484 135.78 81.2584 135.78C81.7384 135.78 82.0534 135.96 82.2484 136.14C82.4734 136.35 82.6384 136.65 82.6984 136.995H79.7734ZM88.3747 136.035V134.685H87.2497V132.375H85.7797V134.685H85.1647V136.035H85.7797V141H87.2497V136.035H88.3747ZM93.2225 135.63C92.9975 135.225 92.7125 134.985 92.5025 134.85C92.1425 134.61 91.7825 134.52 91.3325 134.52C90.5525 134.52 90.0725 134.82 89.7875 135.12C89.4575 135.465 89.2625 135.96 89.2625 136.47C89.2625 136.875 89.3825 137.22 89.7125 137.535C89.9525 137.775 90.2975 137.94 90.5825 138.075L91.1225 138.33C91.3625 138.435 91.5725 138.54 91.7525 138.72C91.8875 138.87 91.9475 139.02 91.9475 139.2C91.9475 139.38 91.8575 139.575 91.7375 139.695C91.6025 139.83 91.3625 139.905 91.1375 139.905C90.7925 139.905 90.5825 139.755 90.4925 139.665C90.3575 139.545 90.2225 139.275 90.1475 139.065L88.9475 139.635C89.0975 140.085 89.3975 140.52 89.7575 140.79C90.2075 141.135 90.7175 141.195 91.1225 141.195C91.7825 141.195 92.3975 141.03 92.8925 140.49C93.2375 140.115 93.4475 139.62 93.4475 139.05C93.4475 138.615 93.3275 138.225 92.9825 137.88C92.7425 137.625 92.4275 137.46 92.0975 137.295L91.3475 136.92C91.0325 136.755 90.9425 136.725 90.8525 136.665C90.7175 136.575 90.6425 136.47 90.6425 136.305C90.6425 136.17 90.7025 136.05 90.7775 135.975C90.8675 135.885 91.0175 135.81 91.2275 135.81C91.6925 135.81 91.9775 136.11 92.1275 136.35L93.2225 135.63ZM98.5438 130.995V141H103.014V139.56H100.074V130.995H98.5438ZM106.597 136.035V134.685H105.472V132.375H104.002V134.685H103.387V136.035H104.002V141H105.472V136.035H106.597ZM112.21 135.42C111.61 134.64 110.8 134.52 110.335 134.52C108.67 134.52 107.26 135.78 107.26 137.835C107.26 139.575 108.37 141.195 110.32 141.195C110.77 141.195 111.565 141.09 112.21 140.34V141H113.68V130.065H112.21V135.42ZM110.515 135.84C111.445 135.84 112.3 136.5 112.3 137.88C112.3 139.2 111.445 139.875 110.515 139.875C109.45 139.875 108.76 138.96 108.76 137.865C108.76 136.74 109.45 135.84 110.515 135.84Z" fill="#2D3436"/>
<path d="M55.8438 148.995H50.8338V159H52.3638V154.41H55.7238V152.97H52.3638V150.435H55.8438V148.995ZM61.5559 153.42C60.9559 152.64 60.1459 152.52 59.6809 152.52C58.0159 152.52 56.6059 153.78 56.6059 155.835C56.6059 157.575 57.7159 159.195 59.6659 159.195C60.1159 159.195 60.9109 159.09 61.5559 158.34V159H63.0259V152.685H61.5559V153.42ZM59.8609 153.84C60.7909 153.84 61.6459 154.5 61.6459 155.88C61.6459 157.2 60.7909 157.875 59.8609 157.875C58.7959 157.875 58.1059 156.96 58.1059 155.865C58.1059 154.74 58.7959 153.84 59.8609 153.84ZM69.78 152.97C69.105 152.595 68.535 152.52 68.055 152.52C66.81 152.52 66.015 152.955 65.52 153.45C65.055 153.915 64.56 154.71 64.56 155.895C64.56 157.05 65.01 157.8 65.46 158.265C66.06 158.895 66.81 159.195 67.86 159.195C68.835 159.195 69.42 158.925 69.78 158.7V157.065C69.27 157.635 68.565 157.875 67.965 157.875C67.425 157.875 66.96 157.68 66.63 157.365C66.345 157.08 66.06 156.585 66.06 155.85C66.06 155.145 66.33 154.665 66.6 154.395C66.87 154.125 67.305 153.84 67.995 153.84C68.445 153.84 69.105 153.96 69.78 154.62V152.97ZM73.8288 154.035V152.685H72.7038V150.375H71.2338V152.685H70.6188V154.035H71.2338V159H72.7038V154.035H73.8288ZM84.1426 150.495C83.9326 150.075 83.6476 149.73 83.3776 149.49C83.0626 149.22 82.4476 148.815 81.3676 148.815C79.4926 148.815 78.4426 150.105 78.4426 151.455C78.4426 152.955 79.6576 153.645 80.4826 153.99L81.4426 154.395C82.1026 154.665 82.8826 155.085 82.8826 156.105C82.8826 157.11 82.1626 157.785 81.2326 157.785C80.6326 157.785 80.2126 157.545 79.9276 157.185C79.6876 156.87 79.5076 156.405 79.5076 155.91L77.9926 156.24C78.0526 156.93 78.2926 157.59 78.8326 158.19C79.3426 158.76 80.0326 159.195 81.1876 159.195C83.0626 159.195 84.4126 157.89 84.4126 155.985C84.4126 154.845 83.9026 153.795 82.0576 153.045L81.0526 152.64C80.0776 152.25 79.9726 151.725 79.9726 151.425C79.9726 150.78 80.4526 150.225 81.3826 150.225C81.8176 150.225 82.1476 150.33 82.4626 150.585C82.6876 150.78 82.8226 150.99 82.9126 151.215L84.1426 150.495ZM86.057 159H87.527V155.955C87.527 155.145 87.617 154.665 87.827 154.365C88.022 154.08 88.412 153.84 88.907 153.84C89.282 153.84 89.567 153.99 89.732 154.17C90.017 154.485 90.017 154.89 90.017 155.265V159H91.487V155.13C91.487 154.68 91.472 153.945 91.082 153.375C90.902 153.12 90.377 152.52 89.222 152.52C88.847 152.52 88.157 152.58 87.527 153.225V148.065H86.057V159ZM97.6157 156.87C97.4807 157.11 97.2857 157.365 97.0307 157.56C96.7307 157.785 96.4307 157.875 96.0257 157.875C95.6657 157.875 95.2457 157.815 94.9007 157.47C94.5857 157.155 94.3907 156.645 94.3607 156.195H98.8907V156.015C98.8907 155.355 98.8157 154.185 98.0057 153.345C97.6307 152.955 96.9857 152.52 95.9807 152.52C95.0807 152.52 94.3907 152.85 93.8657 153.375C93.2057 154.05 92.8607 154.995 92.8607 155.97C92.8607 156.915 93.1907 157.785 93.7907 158.385C94.3907 158.985 95.0807 159.195 95.9207 159.195C96.5957 159.195 97.2707 159.045 97.7807 158.715C98.1857 158.46 98.5757 158.04 98.8457 157.56L97.6157 156.87ZM94.4657 154.995C94.5407 154.68 94.7057 154.38 94.9157 154.185C95.1107 153.99 95.4407 153.78 95.9507 153.78C96.4307 153.78 96.7457 153.96 96.9407 154.14C97.1657 154.35 97.3307 154.65 97.3907 154.995H94.4657ZM104.852 156.87C104.717 157.11 104.522 157.365 104.267 157.56C103.967 157.785 103.667 157.875 103.262 157.875C102.902 157.875 102.482 157.815 102.137 157.47C101.822 157.155 101.627 156.645 101.597 156.195H106.127V156.015C106.127 155.355 106.052 154.185 105.242 153.345C104.867 152.955 104.222 152.52 103.217 152.52C102.317 152.52 101.627 152.85 101.102 153.375C100.442 154.05 100.097 154.995 100.097 155.97C100.097 156.915 100.427 157.785 101.027 158.385C101.627 158.985 102.317 159.195 103.157 159.195C103.832 159.195 104.507 159.045 105.017 158.715C105.422 158.46 105.812 158.04 106.082 157.56L104.852 156.87ZM101.702 154.995C101.777 154.68 101.942 154.38 102.152 154.185C102.347 153.99 102.677 153.78 103.187 153.78C103.667 153.78 103.982 153.96 104.177 154.14C104.402 154.35 104.567 154.65 104.627 154.995H101.702ZM110.303 154.035V152.685H109.178V150.375H107.708V152.685H107.093V154.035H107.708V159H109.178V154.035H110.303Z" fill="#6D6455"/>
<defs>
<filter id="filter0_d_12839_24838" x="0" y="0" width="160" height="220" filterUnits="userSpaceOnUse" color-interpolation-filters="sRGB">
<feFlood flood-opacity="0" result="BackgroundImageFix"/>
<feColorMatrix in="SourceAlpha" type="matrix" values="0 0 0 0 0 0 0 0 0 0 0 0 0 0 0 0 0 0 127 0" result="hardAlpha"/>
<feOffset dy="2"/>
<feGaussianBlur stdDeviation="5"/>
<feColorMatrix type="matrix" values="0 0 0 0 0.176471 0 0 0 0 0.203922 0 0 0 0 0.211765 0 0 0 0.05 0"/>
<feBlend mode="normal" in2="BackgroundImageFix" result="effect1_dropShadow_12839_24838"/>
<feBlend mode="normal" in="SourceGraphic" in2="effect1_dropShadow_12839_24838" result="shape"/>
</filter>
</defs>
</svg>
