<svg width="8" height="21" viewBox="0 0 8 21" fill="none" xmlns="http://www.w3.org/2000/svg">
<path fill-rule="evenodd" clip-rule="evenodd" d="M7.53324 17.1716L4.35126 20.3536C4.156 20.5488 3.83941 20.5488 3.64415 20.3536L0.462172 17.1716C0.26691 16.9763 0.26691 16.6597 0.462172 16.4645C0.657435 16.2692 0.974017 16.2692 1.16928 16.4645L3.70481 19L4.2906 19L6.82613 16.4645C7.0214 16.2692 7.33798 16.2692 7.53324 16.4645C7.7285 16.6597 7.7285 16.9763 7.53324 17.1716ZM3.49771 1L3.49771 -1.82799e-07L4.49771 -1.39088e-07L4.49771 1L3.49771 1ZM3.49771 5L3.49771 3L4.49771 3L4.49771 5L3.49771 5ZM3.49771 9L3.49771 7L4.49771 7L4.49771 9L3.49771 9ZM3.49771 13L3.49771 11L4.49771 11L4.49771 13L3.49771 13ZM3.49771 17L3.49771 15L4.49771 15L4.49771 17L3.49771 17Z" fill="#B68756"/>
</svg>
