<svg width="48" height="31" viewBox="0 0 48 31" fill="none" xmlns="http://www.w3.org/2000/svg">
<rect width="48" height="31" rx="3" fill="#1434CB"/>
<path d="M29.0535 9C26.2133 9 23.6752 10.4766 23.6752 13.2048C23.6752 16.3335 28.1766 16.5496 28.1766 18.1213C28.1766 18.7831 27.4205 19.3755 26.1291 19.3755C24.2963 19.3755 22.9265 18.5478 22.9265 18.5478L22.3404 21.3008C22.3404 21.3008 23.9184 22 26.0134 22C29.1186 22 31.562 20.4509 31.562 17.6761C31.562 14.3701 27.0419 14.1604 27.0419 12.7015C27.0419 12.1831 27.6626 11.6151 28.9503 11.6151C30.4032 11.6151 31.5886 12.2171 31.5886 12.2171L32.1622 9.55813C32.1622 9.55813 30.8724 9 29.0535 9ZM3.06877 9.20068L3 9.60203C3 9.60203 4.19486 9.82137 5.27102 10.2589C6.65667 10.7607 6.75538 11.0528 6.98875 11.96L9.53173 21.7931H12.9406L18.1922 9.20068H14.7912L11.4167 17.7623L10.0397 10.5051C9.91342 9.67448 9.27376 9.20068 8.49078 9.20068H3.06877ZM19.5599 9.20068L16.8918 21.7931H20.135L22.7937 9.20068H19.5599ZM37.6483 9.20068C36.8663 9.20068 36.4519 9.62066 36.1479 10.3546L31.3964 21.7931H34.7974L35.4555 19.8866H39.5989L39.9991 21.7931H43L40.382 9.20068H37.6483ZM38.0907 12.6028L39.0988 17.328H36.3979L38.0907 12.6028Z" fill="white"/>
</svg>
