<svg width="46" height="46" viewBox="0 0 46 46" fill="none" xmlns="http://www.w3.org/2000/svg">
<path fill-rule="evenodd" clip-rule="evenodd" d="M45.3104 28.5631C42.2379 40.8835 29.7566 48.3834 17.4324 45.311L17.4344 45.3129C5.11594 42.2424 -2.38397 29.7611 0.688445 17.4407C3.75894 5.11655 16.2403 -2.38528 28.5568 0.689052C40.8809 3.75955 48.3828 16.2409 45.3104 28.5631ZM32.0279 16.9865C31.6771 13.9121 29.0014 12.927 25.6396 12.6893V12.6931L25.5649 8.42089L22.9639 8.46689L23.0368 12.6261C22.4257 12.6363 21.8039 12.6588 21.1838 12.6813C21.1095 12.684 21.0352 12.6866 20.961 12.6893L20.8882 8.5033L18.2892 8.54739L18.362 12.8196C17.8004 12.8407 17.2465 12.8599 16.7079 12.8695V12.8561L13.1199 12.9174L13.1698 15.6927C13.1698 15.6927 15.0884 15.6218 15.0596 15.6601C16.1119 15.641 16.4645 16.2466 16.5738 16.7718L16.6581 21.6401C16.7503 21.6386 16.8425 21.6431 16.9341 21.6536H16.8459L16.66 21.6574L16.7769 28.475C16.7367 28.8085 16.5508 29.3394 15.8148 29.3547C15.8493 29.3835 13.9249 29.3873 13.9249 29.3873L13.463 32.5L16.8479 32.4425C17.222 32.4348 17.5961 32.4329 17.9665 32.431L17.971 32.431L18.7051 32.4252L18.7818 36.7454L21.3808 36.6994L21.3041 32.4252C22.019 32.4291 22.709 32.4214 23.3818 32.4099L23.4565 36.6649L26.0555 36.617L25.9827 32.3045C30.3489 31.9786 33.3906 30.8229 33.6992 26.7116C33.9484 23.3996 32.3671 21.9526 29.8754 21.4006C31.3685 20.6071 32.2885 19.2366 32.0279 16.9865ZM28.5492 26.2903C28.6029 29.2515 23.9473 29.2688 21.8179 29.2765C21.6262 29.2765 21.4537 29.2765 21.31 29.2803L21.2103 23.5552C21.3601 23.5536 21.5389 23.5464 21.7386 23.5384C21.774 23.537 21.81 23.5356 21.8466 23.5341C24.0259 23.444 28.4975 23.262 28.5492 26.2903ZM21.5924 20.9332H21.5917L21.1643 20.9351L21.0742 15.7429C21.2237 15.741 21.402 15.7333 21.6071 15.7237C23.426 15.6432 27.1501 15.4803 27.1999 18.2345C27.2459 20.9271 23.3695 20.9313 21.5924 20.9332Z" fill="#FABA65"/>
</svg>
