<svg width="49" height="39" viewBox="0 0 49 39" fill="none" xmlns="http://www.w3.org/2000/svg">
<path d="M8.625 33.7197H9.61377V34.1152C9.8042 33.916 9.9668 33.7812 10.1016 33.7109C10.2451 33.6377 10.4253 33.6011 10.6421 33.6011C11.1255 33.6011 11.5078 33.812 11.7891 34.2339C12.0996 33.812 12.52 33.6011 13.0503 33.6011C14.0142 33.6011 14.4961 34.1855 14.4961 35.3545V38H13.5029V35.6226C13.5029 35.2124 13.4531 34.9224 13.3535 34.7524C13.251 34.5796 13.0825 34.4932 12.8481 34.4932C12.5757 34.4932 12.3765 34.5957 12.2505 34.8008C12.1274 35.0059 12.0659 35.3354 12.0659 35.7896V38H11.0728V35.6357C11.0728 34.874 10.853 34.4932 10.4136 34.4932C10.1353 34.4932 9.93164 34.5972 9.80273 34.8052C9.67676 35.0132 9.61377 35.3413 9.61377 35.7896V38H8.625V33.7197Z" fill="black"/>
<path d="M18.9894 33.7197H19.9826V38H18.9894V37.5518C18.5822 37.9326 18.1442 38.123 17.6754 38.123C17.0837 38.123 16.5944 37.9092 16.2077 37.4814C15.8239 37.0449 15.632 36.5 15.632 35.8467C15.632 35.2051 15.8239 34.6704 16.2077 34.2427C16.5915 33.8149 17.0719 33.6011 17.6491 33.6011C18.1471 33.6011 18.5939 33.8062 18.9894 34.2163V33.7197ZM16.6427 35.8467C16.6427 36.2568 16.7526 36.5908 16.9723 36.8486C17.1979 37.1094 17.4821 37.2397 17.8249 37.2397C18.1911 37.2397 18.487 37.1138 18.7126 36.8618C18.9381 36.6011 19.0509 36.27 19.0509 35.8687C19.0509 35.4673 18.9381 35.1362 18.7126 34.8755C18.487 34.6206 18.194 34.4932 17.8337 34.4932C17.4938 34.4932 17.2096 34.6221 16.9811 34.8799C16.7555 35.1406 16.6427 35.4629 16.6427 35.8467Z" fill="black"/>
<path d="M25.2186 36.0928H22.1512C22.1776 36.4443 22.2918 36.7241 22.494 36.9321C22.6961 37.1372 22.9554 37.2397 23.2718 37.2397C23.5179 37.2397 23.7215 37.1812 23.8826 37.064C24.0408 36.9468 24.221 36.73 24.4232 36.4136L25.2581 36.8794C25.1292 37.0991 24.993 37.2881 24.8494 37.4463C24.7059 37.6016 24.5521 37.7305 24.388 37.833C24.2239 37.9326 24.0467 38.0059 23.8563 38.0527C23.6658 38.0996 23.4593 38.123 23.2366 38.123C22.598 38.123 22.0853 37.918 21.6986 37.5078C21.3118 37.0947 21.1185 36.5469 21.1185 35.8643C21.1185 35.1875 21.306 34.6396 21.681 34.2207C22.0589 33.8076 22.5599 33.6011 23.1839 33.6011C23.8138 33.6011 24.3118 33.8018 24.678 34.2031C25.0413 34.6016 25.223 35.1538 25.223 35.8599L25.2186 36.0928ZM24.2034 35.2842C24.0657 34.7568 23.7332 34.4932 23.2059 34.4932C23.0858 34.4932 22.973 34.5122 22.8675 34.5503C22.762 34.5854 22.6654 34.6382 22.5775 34.7085C22.4925 34.7759 22.4193 34.8579 22.3577 34.9546C22.2962 35.0513 22.2493 35.1611 22.2171 35.2842H24.2034Z" fill="black"/>
<path d="M28.8813 34.4492L28.0639 34.8843C27.935 34.6206 27.7754 34.4888 27.5849 34.4888C27.4941 34.4888 27.4165 34.5195 27.352 34.5811C27.2876 34.6396 27.2554 34.7158 27.2554 34.8096C27.2554 34.9736 27.4458 35.1362 27.8266 35.2974C28.3511 35.5229 28.7041 35.731 28.8857 35.9214C29.0674 36.1118 29.1582 36.3682 29.1582 36.6904C29.1582 37.1035 29.0058 37.4492 28.7012 37.7275C28.4053 37.9912 28.0478 38.123 27.6289 38.123C26.9111 38.123 26.4028 37.7729 26.104 37.0728L26.9477 36.6816C27.0649 36.8867 27.1543 37.0171 27.2158 37.0728C27.3359 37.1841 27.4795 37.2397 27.6465 37.2397C27.9804 37.2397 28.1474 37.0874 28.1474 36.7827C28.1474 36.6069 28.0185 36.4429 27.7607 36.2905C27.6611 36.2407 27.5615 36.1924 27.4619 36.1455C27.3623 36.0986 27.2612 36.0503 27.1587 36.0005C26.8716 35.8599 26.6694 35.7192 26.5522 35.5786C26.4028 35.3999 26.3281 35.1699 26.3281 34.8887C26.3281 34.5166 26.4555 34.209 26.7104 33.9658C26.9712 33.7227 27.2876 33.6011 27.6596 33.6011C28.2075 33.6011 28.6147 33.8838 28.8813 34.4492Z" fill="black"/>
<path d="M31.1598 34.6426V38H30.171V34.6426H29.7492V33.7197H30.171V32.1509H31.1598V33.7197H31.9288V34.6426H31.1598Z" fill="black"/>
<path d="M32.6912 33.7197H33.68V34.1021C33.8616 33.9116 34.0228 33.7812 34.1634 33.7109C34.3069 33.6377 34.4769 33.6011 34.6731 33.6011C34.9339 33.6011 35.2063 33.686 35.4905 33.856L35.0379 34.7612C34.8504 34.6265 34.6673 34.5591 34.4886 34.5591C33.9495 34.5591 33.68 34.9663 33.68 35.7808V38H32.6912V33.7197Z" fill="black"/>
<path d="M35.8662 35.8291C35.8662 35.2109 36.0874 34.6851 36.5297 34.2515C36.9721 33.8179 37.5112 33.6011 38.1469 33.6011C38.7856 33.6011 39.3276 33.8193 39.7729 34.2559C40.2124 34.6924 40.4321 35.2285 40.4321 35.8643C40.4321 36.5059 40.2109 37.0435 39.7685 37.4771C39.3232 37.9077 38.7768 38.123 38.1294 38.123C37.4878 38.123 36.9502 37.9033 36.5166 37.4639C36.083 37.0303 35.8662 36.4854 35.8662 35.8291ZM36.8769 35.8467C36.8769 36.2744 36.9912 36.6128 37.2197 36.8618C37.4541 37.1138 37.7631 37.2397 38.1469 37.2397C38.5337 37.2397 38.8427 37.1152 39.0742 36.8662C39.3056 36.6172 39.4213 36.2847 39.4213 35.8687C39.4213 35.4526 39.3056 35.1201 39.0742 34.8711C38.8398 34.6191 38.5307 34.4932 38.1469 34.4932C37.769 34.4932 37.4629 34.6191 37.2285 34.8711C36.9941 35.123 36.8769 35.4482 36.8769 35.8467Z" fill="black"/>
<path d="M30.801 3.20703H17.6895V26.793H30.801V3.20703Z" fill="#7072C9"/>
<path d="M18.5214 15C18.5193 12.7285 19.0335 10.4863 20.0251 8.44314C21.0166 6.39998 22.4596 4.60942 24.2446 3.20701C22.0341 1.46769 19.3793 0.386033 16.5837 0.0856692C13.7881 -0.214695 10.9645 0.278343 8.43554 1.50845C5.90663 2.73856 3.77446 4.6561 2.28276 7.04188C0.791051 9.42767 0 12.1854 0 15C0 17.8146 0.791051 20.5723 2.28276 22.9581C3.77446 25.3439 5.90663 27.2614 8.43554 28.4916C10.9645 29.7217 13.7881 30.2147 16.5837 29.9143C19.3793 29.614 22.0341 28.5323 24.2446 26.793C22.4596 25.3906 21.0167 23.6 20.0251 21.5569C19.0335 19.5137 18.5193 17.2715 18.5214 15Z" fill="#E5001A"/>
<path d="M48.488 15C48.4881 17.8145 47.6972 20.5723 46.2055 22.9581C44.7139 25.3439 42.5818 27.2614 40.0529 28.4915C37.5241 29.7216 34.7005 30.2147 31.9049 29.9143C29.1094 29.614 26.4546 28.5323 24.2441 26.793C26.0276 25.3892 27.4694 23.5983 28.4608 21.5555C29.4522 19.5126 29.9673 17.2711 29.9673 15C29.9673 12.7289 29.4522 10.4874 28.4608 8.44452C27.4694 6.40168 26.0276 4.61083 24.2441 3.207C26.4546 1.46768 29.1094 0.386025 31.9049 0.0856652C34.7005 -0.214695 37.5241 0.278364 40.0529 1.50848C42.5818 2.7386 44.7139 4.65614 46.2055 7.04193C47.6972 9.42772 48.4881 12.1855 48.488 15Z" fill="#009EDF"/>
<path d="M47.0587 24.2951V23.8122H47.2532V23.7138H46.7578V23.8122H46.9524V24.2951H47.0587ZM48.0204 24.2951V23.7129H47.8686L47.6939 24.1133L47.5192 23.7129H47.3673V24.2951H47.4745V23.8559L47.6383 24.2346H47.7495L47.9133 23.855V24.2951H48.0204Z" fill="#F79E1B"/>
</svg>
