<svg width="49" height="39" viewBox="0 0 49 39" fill="none" xmlns="http://www.w3.org/2000/svg">
<path d="M1.625 33.7197H2.61377V34.1152C2.8042 33.916 2.9668 33.7812 3.10156 33.7109C3.24512 33.6377 3.42529 33.6011 3.64209 33.6011C4.12549 33.6011 4.50781 33.812 4.78906 34.2339C5.09961 33.812 5.52002 33.6011 6.05029 33.6011C7.01416 33.6011 7.49609 34.1855 7.49609 35.3545V38H6.50293V35.6226C6.50293 35.2124 6.45312 34.9224 6.35352 34.7524C6.25098 34.5796 6.08252 34.4932 5.84814 34.4932C5.57568 34.4932 5.37646 34.5957 5.25049 34.8008C5.12744 35.0059 5.06592 35.3354 5.06592 35.7896V38H4.07275V35.6357C4.07275 34.874 3.85303 34.4932 3.41357 34.4932C3.13525 34.4932 2.93164 34.5972 2.80273 34.8052C2.67676 35.0132 2.61377 35.3413 2.61377 35.7896V38H1.625V33.7197Z" fill="black"/>
<path d="M11.9894 33.7197H12.9826V38H11.9894V37.5518C11.5822 37.9326 11.1442 38.123 10.6754 38.123C10.0837 38.123 9.59439 37.9092 9.20768 37.4814C8.82389 37.0449 8.63199 36.5 8.63199 35.8467C8.63199 35.2051 8.82389 34.6704 9.20768 34.2427C9.59146 33.8149 10.0719 33.6011 10.6491 33.6011C11.1471 33.6011 11.5939 33.8062 11.9894 34.2163V33.7197ZM9.64273 35.8467C9.64273 36.2568 9.7526 36.5908 9.97232 36.8486C10.1979 37.1094 10.4821 37.2397 10.8249 37.2397C11.1911 37.2397 11.487 37.1138 11.7126 36.8618C11.9381 36.6011 12.0509 36.27 12.0509 35.8687C12.0509 35.4673 11.9381 35.1362 11.7126 34.8755C11.487 34.6206 11.194 34.4932 10.8337 34.4932C10.4938 34.4932 10.2096 34.6221 9.98111 34.8799C9.75553 35.1406 9.64273 35.4629 9.64273 35.8467Z" fill="black"/>
<path d="M16.8079 34.4492L15.9905 34.8843C15.8616 34.6206 15.702 34.4888 15.5115 34.4888C15.4207 34.4888 15.3431 34.5195 15.2786 34.5811C15.2142 34.6396 15.182 34.7158 15.182 34.8096C15.182 34.9736 15.3724 35.1362 15.7532 35.2974C16.2777 35.5229 16.6307 35.731 16.8123 35.9214C16.994 36.1118 17.0848 36.3682 17.0848 36.6904C17.0848 37.1035 16.9324 37.4492 16.6278 37.7275C16.3319 37.9912 15.9744 38.123 15.5555 38.123C14.8377 38.123 14.3294 37.7729 14.0306 37.0728L14.8743 36.6816C14.9915 36.8867 15.0809 37.0171 15.1424 37.0728C15.2625 37.1841 15.4061 37.2397 15.5731 37.2397C15.9071 37.2397 16.074 37.0874 16.074 36.7827C16.074 36.6069 15.9451 36.4429 15.6873 36.2905C15.5877 36.2407 15.4881 36.1924 15.3885 36.1455C15.2889 36.0986 15.1878 36.0503 15.0853 36.0005C14.7982 35.8599 14.596 35.7192 14.4788 35.5786C14.3294 35.3999 14.2547 35.1699 14.2547 34.8887C14.2547 34.5166 14.3821 34.209 14.637 33.9658C14.8978 33.7227 15.2142 33.6011 15.5863 33.6011C16.1341 33.6011 16.5413 33.8838 16.8079 34.4492Z" fill="black"/>
<path d="M19.0864 34.6426V38H18.0976V34.6426H17.6758V33.7197H18.0976V32.1509H19.0864V33.7197H19.8554V34.6426H19.0864Z" fill="black"/>
<path d="M24.5949 36.0928H21.5275C21.5538 36.4443 21.6681 36.7241 21.8703 36.9321C22.0724 37.1372 22.3317 37.2397 22.6481 37.2397C22.8942 37.2397 23.0978 37.1812 23.2589 37.064C23.4171 36.9468 23.5973 36.73 23.7995 36.4136L24.6344 36.8794C24.5055 37.0991 24.3693 37.2881 24.2257 37.4463C24.0822 37.6016 23.9284 37.7305 23.7643 37.833C23.6002 37.9326 23.423 38.0059 23.2326 38.0527C23.0421 38.0996 22.8356 38.123 22.6129 38.123C21.9743 38.123 21.4616 37.918 21.0748 37.5078C20.6881 37.0947 20.4948 36.5469 20.4948 35.8643C20.4948 35.1875 20.6823 34.6396 21.0573 34.2207C21.4352 33.8076 21.9362 33.6011 22.5602 33.6011C23.1901 33.6011 23.6881 33.8018 24.0543 34.2031C24.4176 34.6016 24.5993 35.1538 24.5993 35.8599L24.5949 36.0928ZM23.5797 35.2842C23.442 34.7568 23.1095 34.4932 22.5822 34.4932C22.4621 34.4932 22.3493 34.5122 22.2438 34.5503C22.1383 34.5854 22.0416 34.6382 21.9538 34.7085C21.8688 34.7759 21.7955 34.8579 21.734 34.9546C21.6725 35.0513 21.6256 35.1611 21.5934 35.2842H23.5797Z" fill="black"/>
<path d="M25.7703 33.7197H26.7591V34.1021C26.9407 33.9116 27.1019 33.7812 27.2425 33.7109C27.386 33.6377 27.556 33.6011 27.7522 33.6011C28.013 33.6011 28.2854 33.686 28.5696 33.856L28.117 34.7612C27.9295 34.6265 27.7464 34.5591 27.5677 34.5591C27.0286 34.5591 26.7591 34.9663 26.7591 35.7808V38H25.7703V33.7197Z" fill="black"/>
<path d="M32.4785 33.9043V35.2183C32.2529 34.9429 32.0507 34.7539 31.872 34.6514C31.6963 34.5459 31.4897 34.4932 31.2524 34.4932C30.8803 34.4932 30.5713 34.6235 30.3252 34.8843C30.0791 35.145 29.956 35.4717 29.956 35.8643C29.956 36.2656 30.0747 36.5952 30.312 36.853C30.5522 37.1108 30.8584 37.2397 31.2304 37.2397C31.4677 37.2397 31.6772 37.1885 31.8588 37.0859C32.0346 36.9863 32.2412 36.793 32.4785 36.5059V37.811C32.0771 38.019 31.6757 38.123 31.2744 38.123C30.6123 38.123 30.0586 37.9092 29.6132 37.4814C29.1679 37.0508 28.9453 36.5161 28.9453 35.8774C28.9453 35.2388 29.1709 34.6997 29.622 34.2603C30.0732 33.8208 30.6269 33.6011 31.2832 33.6011C31.705 33.6011 32.1035 33.7021 32.4785 33.9043Z" fill="black"/>
<path d="M36.6818 33.7197H37.6749V38H36.6818V37.5518C36.2745 37.9326 35.8365 38.123 35.3678 38.123C34.776 38.123 34.2867 37.9092 33.9 37.4814C33.5162 37.0449 33.3243 36.5 33.3243 35.8467C33.3243 35.2051 33.5162 34.6704 33.9 34.2427C34.2838 33.8149 34.7643 33.6011 35.3414 33.6011C35.8395 33.6011 36.2862 33.8062 36.6818 34.2163V33.7197ZM34.3351 35.8467C34.3351 36.2568 34.4449 36.5908 34.6647 36.8486C34.8903 37.1094 35.1744 37.2397 35.5172 37.2397C35.8834 37.2397 36.1793 37.1138 36.4049 36.8618C36.6305 36.6011 36.7433 36.27 36.7433 35.8687C36.7433 35.4673 36.6305 35.1362 36.4049 34.8755C36.1793 34.6206 35.8863 34.4932 35.526 34.4932C35.1861 34.4932 34.902 34.6221 34.6735 34.8799C34.4479 35.1406 34.3351 35.4629 34.3351 35.8467Z" fill="black"/>
<path d="M39.013 33.7197H40.0017V34.1021C40.1834 33.9116 40.3445 33.7812 40.4851 33.7109C40.6287 33.6377 40.7986 33.6011 40.9949 33.6011C41.2556 33.6011 41.5281 33.686 41.8123 33.856L41.3596 34.7612C41.1721 34.6265 40.989 34.5591 40.8103 34.5591C40.2713 34.5591 40.0017 34.9663 40.0017 35.7808V38H39.013V33.7197Z" fill="black"/>
<path d="M45.5629 30.5776H46.5561V38H45.5629V37.5518C45.1733 37.9326 44.7324 38.123 44.2402 38.123C43.6542 38.123 43.1679 37.9092 42.7812 37.4814C42.3974 37.0449 42.2055 36.5 42.2055 35.8467C42.2055 35.208 42.3974 34.6748 42.7812 34.2471C43.1621 33.8164 43.6411 33.6011 44.2182 33.6011C44.7192 33.6011 45.1674 33.8062 45.5629 34.2163V30.5776ZM43.2163 35.8467C43.2163 36.2568 43.3261 36.5908 43.5458 36.8486C43.7714 37.1094 44.0556 37.2397 44.3984 37.2397C44.7646 37.2397 45.0605 37.1138 45.2861 36.8618C45.5117 36.6011 45.6245 36.27 45.6245 35.8687C45.6245 35.4673 45.5117 35.1362 45.2861 34.8755C45.0605 34.6206 44.7675 34.4932 44.4072 34.4932C44.0673 34.4932 43.7831 34.6221 43.5546 34.8799C43.329 35.1406 43.2163 35.4629 43.2163 35.8467Z" fill="black"/>
<path d="M30.801 3.20703H17.6895V26.793H30.801V3.20703Z" fill="#FF5F00"/>
<path d="M18.5214 15C18.5193 12.7285 19.0335 10.4863 20.0251 8.44314C21.0166 6.39998 22.4596 4.60942 24.2446 3.20701C22.0341 1.46769 19.3793 0.386033 16.5837 0.0856692C13.7881 -0.214695 10.9645 0.278343 8.43554 1.50845C5.90663 2.73856 3.77446 4.6561 2.28276 7.04188C0.791051 9.42767 0 12.1854 0 15C0 17.8146 0.791051 20.5723 2.28276 22.9581C3.77446 25.3439 5.90663 27.2614 8.43554 28.4916C10.9645 29.7217 13.7881 30.2147 16.5837 29.9143C19.3793 29.614 22.0341 28.5323 24.2446 26.793C22.4596 25.3906 21.0167 23.6 20.0251 21.5569C19.0335 19.5137 18.5193 17.2715 18.5214 15Z" fill="#EB001B"/>
<path d="M48.488 15C48.4881 17.8145 47.6972 20.5723 46.2055 22.9581C44.7139 25.3439 42.5818 27.2614 40.0529 28.4915C37.5241 29.7216 34.7005 30.2147 31.9049 29.9143C29.1094 29.614 26.4546 28.5323 24.2441 26.793C26.0276 25.3892 27.4694 23.5983 28.4608 21.5555C29.4522 19.5126 29.9673 17.2711 29.9673 15C29.9673 12.7289 29.4522 10.4874 28.4608 8.44452C27.4694 6.40168 26.0276 4.61083 24.2441 3.207C26.4546 1.46768 29.1094 0.386025 31.9049 0.0856652C34.7005 -0.214695 37.5241 0.278364 40.0529 1.50848C42.5818 2.7386 44.7139 4.65614 46.2055 7.04193C47.6972 9.42772 48.4881 12.1855 48.488 15Z" fill="#F79E1B"/>
<path d="M47.0587 24.2951V23.8122H47.2532V23.7138H46.7578V23.8122H46.9524V24.2951H47.0587ZM48.0204 24.2951V23.7129H47.8686L47.6939 24.1133L47.5192 23.7129H47.3673V24.2951H47.4745V23.8559L47.6383 24.2346H47.7495L47.9133 23.855V24.2951H48.0204Z" fill="#F79E1B"/>
</svg>
