<svg width="48" height="14" viewBox="0 0 48 14" fill="none" xmlns="http://www.w3.org/2000/svg">
<g clip-path="url(#clip0_11512_31746)">
<path fill-rule="evenodd" clip-rule="evenodd" d="M34.6367 6.32422V13.9993H38.7484V9.45112H43.4083C45.3695 9.43602 47.0355 8.13681 47.6637 6.32422H34.6367Z" fill="#37A72E"/>
<path fill-rule="evenodd" clip-rule="evenodd" d="M34.0859 0C34.3254 3.13717 37.1874 5.61421 40.6827 5.61421C40.6941 5.61421 47.832 5.61421 47.832 5.61421C47.8848 5.32649 47.9124 5.02954 47.9124 4.72589C47.9124 2.12714 45.8906 0.0192251 43.3895 0.000130757L34.0859 0Z" fill="url(#paint0_linear_11512_31746)"/>
<path fill-rule="evenodd" clip-rule="evenodd" d="M28.0001 5.53956L28.0033 5.5324L28.0038 5.53251C28.0459 5.45407 28.1267 5.40102 28.2194 5.40102C28.3534 5.40102 28.4624 5.51172 28.466 5.64972L28.4661 5.64975V13.9289H32.5778V0H28.4661C27.9447 0.0179976 27.3556 0.414783 27.1366 0.901846L23.8645 8.17878C23.8564 8.20853 23.8438 8.2363 23.8274 8.26123L23.8263 8.26365L23.8259 8.26352C23.7764 8.33741 23.694 8.38579 23.6006 8.38579C23.4492 8.38579 23.3265 8.25852 23.3265 8.10152V0H19.2148V13.9289H23.3265V13.9273C23.8422 13.8994 24.4175 13.5071 24.6333 13.0271L27.9917 5.55833C27.9942 5.55194 27.9971 5.54568 28.0001 5.53956Z" fill="#37A72E"/>
<path fill-rule="evenodd" clip-rule="evenodd" d="M12.6484 5.77766L10.2453 13.9289H7.28749L4.88294 5.77271C4.85975 5.6421 4.74939 5.54315 4.61674 5.54315C4.46724 5.54315 4.34605 5.66883 4.34605 5.82386C4.34605 5.82504 4.34606 5.82623 4.34607 5.82741L4.34605 13.9289H0.234375V0H3.76356H4.81463C5.57119 0 6.36401 0.60888 6.58509 1.3588L8.58614 8.14634C8.6857 8.48406 8.84723 8.48369 8.94669 8.14634L10.9477 1.3588C11.169 0.608356 11.9615 0 12.7182 0L13.769 0H17.2978V13.9289H13.1862V5.82741C13.1861 5.82623 13.1862 5.82504 13.1862 5.82386C13.1862 5.66883 13.065 5.54315 12.9155 5.54315C12.7811 5.54315 12.6697 5.64461 12.6484 5.77766Z" fill="#37A72E"/>
</g>
<defs>
<linearGradient id="paint0_linear_11512_31746" x1="34.0859" y1="2.80711" x2="47.9124" y2="2.80711" gradientUnits="userSpaceOnUse">
<stop stop-color="#00A0E5"/>
<stop offset="1" stop-color="#0077C3"/>
</linearGradient>
<clipPath id="clip0_11512_31746">
<rect width="48" height="14" fill="white"/>
</clipPath>
</defs>
</svg>
