<svg width="85" height="15" viewBox="0 0 85 15" fill="none" xmlns="http://www.w3.org/2000/svg">
<path fill-rule="evenodd" clip-rule="evenodd" d="M78.542 6.12829C77.8971 6.4913 77.1603 6.65811 76.422 6.60827H75.482L76.203 2.84851H76.9C77.5089 2.81245 78.1163 2.94034 78.659 3.21863C78.8776 3.35753 79.0554 3.55193 79.1742 3.7821C79.293 4.01228 79.3485 4.26953 79.335 4.5282C79.3525 4.84016 79.2891 5.1517 79.1511 5.432C79.013 5.71231 78.805 5.95198 78.547 6.12829H78.542ZM22.431 10.8383H15.151L15.621 8.38855H20.188L20.706 5.61853H16.184L16.621 3.18835H23.888L22.431 10.8383ZM82.468 1.08825C80.9981 0.28109 79.3285 -0.0899186 77.655 0.0184304H72.093L70.026 10.8383H62.74L63.207 8.38855H67.597L68.119 5.62829L63.732 5.63855L64.202 3.19861H68.722L69.322 0.0184304H60.14L58.178 10.2885H54.811L56.788 0.0184304H51.988L50.026 10.2885H46.743L48.722 0.0184304H43.922L41.85 10.8485H34.513L34.975 8.38855H39.384L39.903 5.64831L35.503 5.63855L35.97 3.19861H40.541L41.141 0.0184304H12.53L10.902 8.59851L7.65802 0.0184304H2.67902L0 14.0184H4.75403L6.37598 5.20837L9.52399 14.0184H26.565L28.637 3.18835H31.3L29.231 14.0184H74.071L75.371 7.18835L77.476 14.0184H82.233L80.054 8.43835L80.554 8.32849C81.5475 8.16508 82.451 7.65494 83.104 6.88855C83.723 6.08191 84.0413 5.08432 84.004 4.06823C84.0375 3.4795 83.9125 2.89261 83.6422 2.36853C83.3718 1.84445 82.9661 1.40234 82.467 1.08825" fill="#8CC542"/>
</svg>
