<svg width="47" height="46" viewBox="0 0 47 46" fill="none" xmlns="http://www.w3.org/2000/svg">
<path fill-rule="evenodd" clip-rule="evenodd" d="M22.9717 0C53.7135 0 53.7135 45.9998 22.9717 45.9998C-7.65722 46.1128 -7.65722 0 22.9717 0ZM18.9072 15.8237H21.9587L22.7499 15.9367L23.5 16C23.5 16.1042 23.4975 16.2177 23.495 16.3372C23.4836 16.8658 23.4697 17.5102 23.6541 17.9711C23.8801 18.7623 24.2192 19.5534 24.5582 20.3446L27.6098 26.3347L29.4182 29.9514C30.2093 28.5952 30.8874 27.3519 31.4525 25.9957L33.939 21.0227L35.2953 18.0841C35.6344 17.293 35.8604 16.6148 35.8604 16.0497H38.7989L40.0422 15.9367L40.1552 16.2758V16.6148H39.4771C39.025 16.6148 38.5729 16.7279 38.2338 16.9539C38.0078 17.18 37.8948 17.406 37.7818 17.7451L37.6687 19.1013V22.492C37.7817 23.7352 37.8948 25.0915 37.8948 26.4477C37.8948 27.1406 37.9243 27.8335 37.9532 28.5113C37.9808 29.1603 38.0078 29.7954 38.0078 30.4035L38.1208 31.5337C38.1208 31.7598 38.2338 31.9858 38.4599 32.2119C38.6294 32.2684 38.7707 32.3249 38.9119 32.3814C39.0532 32.4379 39.1945 32.4944 39.364 32.5509H40.1552C40.2682 32.6639 40.2683 32.777 40.2683 32.89C40.2683 33.116 40.1552 33.229 40.0422 33.229L38.4599 33.116H35.4083L33.713 33.229C33.5999 33.116 33.487 33.003 33.487 32.89V32.8899C33.487 32.7769 33.487 32.6639 33.6 32.5509L34.2781 32.4379C34.7302 32.4379 35.0693 32.2118 35.1823 32.0988C35.4083 32.0988 35.5214 31.8728 35.5214 31.5337V30.2905V19.4404C35.0693 20.1185 34.7302 20.7967 34.3911 21.5878C34.2968 21.7765 34.2221 21.9652 34.1507 22.1457C34.051 22.3976 33.9577 22.6335 33.826 22.831L31.5656 27.3519C30.7744 28.8212 30.0963 30.2905 29.4182 31.7598L28.74 33.3421C28.627 33.4551 28.401 33.4551 28.2879 33.3421L28.0619 32.6639L27.7228 31.6467L26.7057 29.7254L26.0275 28.1431L23.541 23.1701L22.7499 21.2487L21.8457 19.4404C21.7327 20.2313 21.7327 20.9093 21.7327 21.7002V21.7008L21.5066 23.9613L21.3936 26.7868V30.0644C21.3936 30.6296 21.5067 31.3077 21.6197 31.8728C21.6762 31.9293 21.7045 31.9858 21.7327 32.0423C21.7609 32.0988 21.7892 32.1553 21.8457 32.2119C22.0717 32.4379 22.2978 32.5509 22.6369 32.5509H23.541C23.654 32.6639 23.6541 32.777 23.6541 32.89C23.6541 33.116 23.654 33.116 23.5411 33.229L23.541 33.229L22.1848 33.116H19.3593L18.003 33.229C17.7769 33.116 17.7769 33.003 17.7769 32.89V32.8899C17.7769 32.7769 17.7769 32.6639 17.8899 32.5509L18.455 32.4379H18.4553C18.7942 32.4379 19.0203 32.4379 19.3593 32.3249C19.5853 32.0988 19.8114 31.8728 19.9244 31.6467C20.3765 30.4035 20.4895 26.3347 20.4895 24.6394L20.7155 21.4748L20.8285 18.7623C20.9063 18.3733 20.877 18.0915 20.8512 17.843C20.8395 17.7304 20.8285 17.6247 20.8285 17.519C20.8285 17.293 20.6025 17.067 20.3765 16.841L20.3764 16.8409L19.1332 16.5019L18.7942 16.3888C18.6811 16.2758 18.6811 16.1628 18.6811 16.0497C18.7243 16.0066 18.7509 15.9634 18.7737 15.9265C18.8106 15.8669 18.8373 15.8237 18.9072 15.8237ZM7.49199 31.0816V29.0472L7.60498 26.4477C8.28312 26.5608 8.96124 26.5608 9.86542 26.5608V29.0472C9.7524 29.7254 9.7524 30.4035 9.86542 31.0816C9.86542 31.5337 10.0914 31.7597 10.3175 31.9857L10.3175 31.9858C10.5436 32.2118 10.8826 32.3249 11.5607 32.3249L12.2388 32.4379L12.3519 32.777L12.1259 33.116L8.62221 33.003L5.34455 33.116C5.11851 33.003 5.11851 32.6639 5.34455 32.4379L5.90966 32.3249C6.81383 32.3249 7.37897 31.9858 7.49199 31.0816ZM5.23156 16.0498V16.0497C5.23156 15.9367 5.34455 15.8237 5.90966 15.8237L8.17009 15.7107L11.1086 15.5977C12.2388 15.5977 13.143 15.7107 14.0471 15.8237L14.0472 15.8237C14.9514 15.9367 15.7426 16.2758 16.3077 16.6148C16.8728 16.9539 17.4379 17.519 17.7769 18.1972C18.116 18.8753 18.342 19.7795 18.342 20.5706C18.229 21.3618 18.116 22.0399 17.8899 22.605C17.5509 23.1701 17.2118 23.6222 16.7597 23.9613C16.2831 24.3584 15.7507 24.6439 15.2801 24.8963C15.0812 25.003 14.8933 25.1037 14.7253 25.2045C12.3519 25.8826 9.8654 26.1087 7.37893 25.7696C6.24871 25.6566 4.55339 25.3175 2.29295 24.8654C4.32734 25.0915 6.24871 25.2045 7.94404 25.2045C9.8654 25.2045 11.3347 25.0915 12.4649 24.8654C13.3691 24.7524 14.1603 24.1873 14.8384 23.5092C15.4035 22.718 15.6295 21.8138 15.6295 20.5706C15.6295 19.3274 15.1774 18.1972 14.4993 17.519C13.7081 16.7279 12.6909 16.3888 11.3347 16.3888L10.2045 16.5019C10.0914 16.5019 9.86542 16.6149 9.86542 16.7279L9.75242 17.406V24.6394H7.60498V19.3274L7.49199 17.6321C7.49199 17.18 7.37891 16.9539 7.15287 16.8409C7.1108 16.8199 7.06481 16.7949 7.01563 16.7682C6.80061 16.6516 6.52466 16.5019 6.24871 16.5019L5.34455 16.3888C5.23156 16.2758 5.23156 16.1628 5.23156 16.0498Z" fill="#F01010"/>
</svg>
