<svg width="47" height="25" viewBox="0 0 47 25" fill="none" xmlns="http://www.w3.org/2000/svg">
<path d="M40.2236 9.30078V15.7508H42.4796V11.2008H44.6354V15.7508H46.8412V9.30078H40.2236ZM36.0124 8.95078H38.0679L39.1207 7.05078H35.8119C33.4055 7.10078 31.8012 9.15078 31.8012 11.7008C31.8012 14.7008 33.5058 15.9008 35.5612 15.9008C37.6668 15.9008 39.221 14.5508 39.1708 12.7008C39.1207 11.2508 37.9175 9.85078 36.3132 9.85078C35.4108 9.85078 34.5586 10.1508 34.0071 10.7008C34.0572 9.65078 34.9596 8.95078 36.0124 8.95078ZM35.461 11.5008C36.2631 11.5008 36.8146 12.1508 36.8146 12.9008C36.8146 13.6508 36.213 14.2508 35.4108 14.2508C34.8092 14.2508 34.1074 13.7008 34.1074 12.9008C34.1074 12.1508 34.709 11.5008 35.461 11.5008ZM28.2418 11.0008C29.1943 10.9508 29.9964 11.5008 29.9964 11.5008L30.8487 10.0008C30.0967 9.45078 29.3447 9.15078 28.342 9.15078C26.1362 9.15078 24.582 10.9508 24.582 12.5008C24.582 14.3508 26.2364 15.9008 28.2919 15.9008C29.1943 15.9008 30.0967 15.6008 30.7986 15.0508L29.9964 13.5008C29.9964 13.5008 29.2444 14.0008 28.2418 14.0008C27.59 14.0008 26.7378 13.4508 26.7378 12.5008C26.7378 11.5508 27.59 11.0008 28.2418 11.0008Z" fill="#1B0A40"/>
<path d="M6.78229 12.5L3.52363 14.4L0.515625 19.65L12.8986 12.5H6.78229Z" fill="#874691"/>
<path d="M16.1566 7.09961L12.898 8.99961L9.83984 14.2496L22.2228 7.09961H16.1566Z" fill="#DA1844"/>
<path d="M12.898 5.25L9.83984 0V25L12.898 19.75V5.25Z" fill="#F9B229"/>
<path d="M9.83984 0L12.898 5.25L16.1566 7.1H22.2729L9.83984 0Z" fill="#F07F1A"/>
<path d="M9.83984 10.75V25L12.898 19.75V16L9.83984 10.75Z" fill="#72B22C"/>
<path d="M16.1566 17.9004L12.898 19.7504L9.83984 25.0004L22.2228 17.9004H16.1566Z" fill="#00743E"/>
<path d="M0.515625 5.40039V19.6504L3.57376 14.4004V10.6004L0.515625 5.40039Z" fill="#5F5A94"/>
<path d="M9.84042 10.7504L0.515625 5.40039L3.57376 10.6004L16.1572 17.9004H22.2735L9.84042 10.7504Z" fill="#0D90CD"/>
</svg>
