<svg width="59" height="20" viewBox="0 0 59 20" fill="none" xmlns="http://www.w3.org/2000/svg">
<path fill-rule="evenodd" clip-rule="evenodd" d="M42.0603 4.80505C43.3877 4.80505 44.4637 3.7296 44.4637 2.40343C44.4637 1.07648 43.3877 0 42.0603 0C40.7343 0 39.6589 1.07648 39.6589 2.40343C39.6589 3.7296 40.7343 4.80505 42.0603 4.80505ZM23.6532 6.10205C23.5447 6.37446 22.7641 8.57932 20.8764 10.8645V1.09352L15.8464 2.08764V19.7986H20.8764V14.324C22.3332 16.509 23.0526 19.7986 23.0526 19.7986H29.0774C28.4815 17.3211 25.8746 12.7528 25.8746 12.7528C28.2142 9.78646 29.2419 6.6257 29.4053 6.10205H23.6532ZM36.8767 5.91717C32.3714 6.06176 30.0844 8.08304 30.0844 12.1011V19.7986H34.9995V13.5215C34.9995 11.1155 35.3145 10.0842 38.1695 9.9858V5.98766C37.689 5.88566 36.8767 5.91717 36.8767 5.91717ZM7.41066 8.05231C6.79457 8.01177 5.36821 7.91959 5.36821 6.63551C5.36821 5.08598 7.42176 5.08598 8.192 5.08598C9.54632 5.08598 11.3004 5.48621 12.5529 5.86088C12.5529 5.86088 13.2517 6.10721 13.8463 6.35948L13.9016 6.37446V2.13076L13.8257 2.10829C12.3474 1.5911 10.6285 1.09352 7.44164 1.09352C1.94691 1.09352 0 4.29457 0 7.03677C0 8.61754 0.677546 12.3378 6.97041 12.767C7.50387 12.7998 8.91964 12.8814 8.91964 14.2083C8.91964 15.3039 7.76053 15.95 5.81104 15.95C3.6746 15.95 1.6022 15.4051 0.343421 14.8885V19.2592C2.22785 19.7531 4.35215 20 6.84182 20C12.2144 20 14.6207 16.9714 14.6207 13.9697C14.6207 10.5663 11.9281 8.35494 7.41066 8.05231ZM39.6238 19.7986H44.4991V6.11754H39.6238V19.7986ZM53.679 1.96576V19.7986H58.555V1.09352L53.679 1.96576ZM46.5642 1.96576L51.4356 1.09352V19.7986H46.5642V1.96576Z" fill="url(#paint0_linear_8976_25099)"/>
<defs>
<linearGradient id="paint0_linear_8976_25099" x1="15.8356" y1="1.42642e-07" x2="20.2355" y2="24.6689" gradientUnits="userSpaceOnUse">
<stop stop-color="#6B195F"/>
<stop offset="1" stop-color="#4C255B"/>
</linearGradient>
</defs>
</svg>
