<svg width="55" height="27" viewBox="0 0 55 27" fill="none" xmlns="http://www.w3.org/2000/svg">
<path fill-rule="evenodd" clip-rule="evenodd" d="M0 14.5365V0.0165287H5.34998C6.87869 -0.0838743 8.40258 0.27483 9.72601 1.04656C10.2128 1.37073 10.607 1.81589 10.8699 2.33831C11.1329 2.86072 11.2556 3.44243 11.226 4.02654C11.2448 4.70849 11.244 5.06378 10.694 5.95647C10.144 6.84916 9.133 7.26433 9.133 7.26433C9.133 7.26433 10.5 7.5 10.917 8.24651C11.334 8.99302 11.5537 9.52334 11.529 10.2365C11.5719 10.8433 11.4686 11.4516 11.2276 12.0102C10.9866 12.5688 10.6149 13.0613 10.144 13.4465C8.9334 14.2486 7.49312 14.6316 6.04401 14.5365H0ZM3.59003 6.07659H5.46301C6.05495 6.12797 6.64672 5.97614 7.14099 5.64641C7.30944 5.49922 7.44203 5.31553 7.52869 5.1093C7.61534 4.90307 7.65376 4.6798 7.64099 4.45647C7.66364 4.2074 7.62605 3.95651 7.53137 3.72502C7.43669 3.49354 7.28769 3.28844 7.09698 3.12664C6.57327 2.80295 5.95957 2.65558 5.34601 2.70647H3.586V6.07659H3.59003ZM3.59003 8.36663V11.8466H5.94598C6.47905 11.8834 7.00806 11.731 7.44 11.4164C7.61386 11.2661 7.75107 11.0781 7.84119 10.8666C7.93131 10.6552 7.97198 10.426 7.96002 10.1965C7.99312 9.94752 7.9677 9.69439 7.88586 9.45696C7.80403 9.21953 7.66799 9.00446 7.48853 8.82878C7.30906 8.65311 7.09117 8.52151 6.85205 8.44475C6.61293 8.36799 6.35921 8.34825 6.11102 8.38665L3.59003 8.36663ZM21.979 11.8266H17.059L16.194 14.5365H12.36L17.826 0.0165287H21.187L26.687 14.5365H22.849L21.979 11.8266ZM17.918 9.13665H21.118L19.511 4.0866L17.918 9.13665ZM40.235 14.5365H36.667L31.383 5.49651V14.5365H27.805V0.0165287H31.4L36.668 9.05657V0.0165287H40.249L40.235 14.5365ZM47.572 9.13665L46.099 10.7065V14.5365H42.506V0.0165287H46.1V6.42644L47.362 4.57659L50.562 0.0165287H55L49.964 6.43645L55 14.5365H50.744L47.572 9.13665ZM6.31598 19.2265H3.83502V25.9064H2.46002V19.2265H0V18.1464H6.31598V19.2265ZM10.285 22.9164H8.75702V25.9064H7.35699V18.1366H10.157C10.9163 18.0955 11.6679 18.3063 12.295 18.7365C12.7016 19.1228 12.9606 19.6391 13.027 20.196C13.0935 20.7529 12.9633 21.3154 12.659 21.7865C12.3823 22.1493 12.0115 22.4295 11.587 22.5966L13.374 25.8266V25.8964H11.88L10.285 22.9164ZM8.75702 21.8366H10.178C10.5734 21.8594 10.9632 21.7346 11.272 21.4865C11.4042 21.3696 11.5084 21.2245 11.5767 21.0617C11.6449 20.8989 11.6754 20.7228 11.666 20.5466C11.6781 20.37 11.6521 20.1929 11.5898 20.0273C11.5275 19.8617 11.4304 19.7114 11.305 19.5866C11.0001 19.3354 10.6125 19.2069 10.218 19.2265H8.745L8.75702 21.8366ZM18.807 24.0966H15.721L15.076 25.8866H13.637L16.647 18.1166H17.887L20.9 25.8866H19.455L18.807 24.0966ZM16.107 23.0265H18.414L17.262 19.7865L16.107 23.0265ZM34.089 23.9865C34.0982 23.8344 34.0692 23.6824 34.0046 23.5444C33.9399 23.4064 33.8418 23.287 33.719 23.1967C33.3108 22.9362 32.8615 22.7468 32.39 22.6366C31.8574 22.4884 31.3444 22.2767 30.862 22.0065C30.5397 21.8427 30.2683 21.5941 30.0767 21.2875C29.8852 20.9809 29.7809 20.628 29.775 20.2665C29.7716 19.9641 29.8412 19.6653 29.9778 19.3954C30.1145 19.1256 30.3142 18.8927 30.56 18.7165C31.154 18.296 31.8709 18.0851 32.598 18.1166C33.1073 18.115 33.6115 18.2172 34.08 18.4167C34.4915 18.6012 34.8443 18.8951 35.1 19.2665C35.3461 19.6293 35.4762 20.0582 35.473 20.4965H34.089C34.0983 20.3176 34.0681 20.139 34.0005 19.9731C33.933 19.8072 33.8297 19.658 33.698 19.5365C33.3791 19.2753 32.9722 19.1466 32.561 19.1767C32.1867 19.154 31.8159 19.2596 31.51 19.4765C31.3879 19.5654 31.2897 19.6832 31.2241 19.8193C31.1585 19.9554 31.1275 20.1056 31.134 20.2565C31.136 20.4003 31.1735 20.5413 31.2433 20.6669C31.3131 20.7926 31.413 20.8989 31.534 20.9765C31.9495 21.2246 32.3993 21.41 32.869 21.5265C33.3901 21.6679 33.8919 21.8729 34.363 22.1366C34.6965 22.3313 34.9791 22.602 35.188 22.9267C35.3693 23.2463 35.4602 23.6091 35.451 23.9765C35.4575 24.272 35.3922 24.5648 35.2607 24.8295C35.1292 25.0943 34.9355 25.3231 34.696 25.4965C34.0884 25.9101 33.3621 26.1139 32.628 26.0766C32.0797 26.0882 31.5349 25.986 31.028 25.7765C30.5814 25.5967 30.1917 25.2997 29.9 24.9167C29.6288 24.5384 29.4883 24.0819 29.5 23.6166H30.884C30.8731 23.8115 30.908 24.0061 30.986 24.185C31.0639 24.3639 31.1828 24.5221 31.333 24.6467C31.7089 24.9088 32.1626 25.0356 32.62 25.0065C33.0046 25.0295 33.386 24.9239 33.704 24.7065C33.82 24.6247 33.9153 24.5172 33.9825 24.3923C34.0497 24.2673 34.0868 24.1283 34.091 23.9865H34.089ZM28.289 25.9162H26.905L23.357 20.4062V25.9162H21.979V18.1464H23.363L26.923 23.6762V18.1562H28.295V25.9162H28.289ZM41.094 22.6166H37.883V25.9064H36.499V18.1366H41.559V19.2265H37.883V21.5265H41.088L41.094 22.6166ZM47.312 22.4465H44.04V24.8366H47.862V25.9064H42.668V18.1366H47.835V19.2265H44.04V21.3766H47.312V22.4465ZM51.912 22.9164H50.384V25.9064H49V18.1366H51.8C52.5596 18.0953 53.3117 18.3061 53.939 18.7365C54.3465 19.1223 54.606 19.6388 54.6723 20.196C54.7386 20.7532 54.6076 21.3159 54.302 21.7865C54.0253 22.1493 53.6545 22.4295 53.23 22.5966L54.993 25.8366V25.9064H53.511L51.912 22.9164ZM50.384 21.8366H51.805C52.2004 21.8594 52.5902 21.7346 52.899 21.4865C53.0313 21.3696 53.1354 21.2245 53.2036 21.0617C53.2718 20.8989 53.3024 20.7228 53.293 20.5466C53.3046 20.3698 53.278 20.1926 53.2152 20.027C53.1524 19.8614 53.0548 19.7113 52.929 19.5866C52.6252 19.3356 52.2386 19.2071 51.845 19.2265H50.384V21.8366Z" fill="#B68756"/>
</svg>
