<svg width="60" height="38" viewBox="0 0 60 38" fill="none" xmlns="http://www.w3.org/2000/svg">
<path d="M11.7285 0H26.6766C28.7632 0 30.061 1.72345 29.5742 3.84491L22.6148 34.1228C22.1237 36.2368 20.0345 37.9618 17.9464 37.9618H2.99977C0.916064 37.9618 -0.384658 36.2368 0.102111 34.1228L7.06444 3.84491C7.55121 1.72345 9.63928 0 11.7285 0Z" fill="#E21836"/>
<path d="M25.4326 0H42.6225C44.7088 0 43.768 1.72345 43.2773 3.84491L36.319 34.1228C35.8307 36.2368 35.983 37.9618 33.8924 37.9618H16.7025C14.6118 37.9618 13.318 36.2368 13.8092 34.1228L20.7671 3.84491C21.2612 1.72345 23.3449 0 25.4326 0Z" fill="#00447C"/>
<path d="M41.9417 0H56.8898C58.9793 0 60.2771 1.72345 59.7863 3.84491L52.828 34.1228C52.3369 36.2368 50.2462 37.9618 48.1571 37.9618H33.2159C31.1253 37.9618 29.8285 36.2368 30.3182 34.1228L37.2776 3.84491C37.7644 1.72345 39.851 0 41.9417 0Z" fill="#007B84"/>
<path d="M15.6321 9.70336C14.0949 9.71924 13.6409 9.70336 13.4959 9.66866C13.4402 9.93707 12.4029 14.7859 12.4 14.7899C12.1766 15.7709 12.0141 16.4702 11.4621 16.9217C11.1488 17.1842 10.783 17.3109 10.3589 17.3109C9.67718 17.3109 9.28004 16.9679 9.21337 16.3173L9.20062 16.0939C9.20062 16.0939 9.40829 14.7799 9.40829 14.7726C9.40829 14.7726 10.497 10.3539 10.6919 9.76982C10.7021 9.73659 10.705 9.71924 10.7076 9.70336C8.58851 9.72219 8.21287 9.70336 8.187 9.66866C8.17279 9.71628 8.12032 9.99024 8.12032 9.99024L7.0087 14.9705L6.91324 15.3928L6.72852 16.7744C6.72852 17.1842 6.80794 17.5187 6.96607 17.8015C7.47251 18.6983 8.91715 18.8327 9.73439 18.8327C10.7874 18.8327 11.7751 18.606 12.4426 18.1921C13.6012 17.4984 13.9043 16.4141 14.1747 15.4504L14.3 14.9561C14.3 14.9561 15.4215 10.3668 15.612 9.76982C15.6193 9.73659 15.6222 9.71924 15.6321 9.70336ZM19.4478 13.4055C19.1774 13.4055 18.6834 13.472 18.2396 13.6924C18.0786 13.7762 17.9263 13.873 17.7656 13.9693L17.9106 13.4388L17.8312 13.3494C16.8901 13.5425 16.6795 13.5684 15.8101 13.6924L15.7373 13.7415C15.6364 14.5896 15.5467 15.2272 15.1725 16.8942C15.0301 17.5085 14.8821 18.1288 14.7339 18.7417L14.7739 18.8196C15.6648 18.7719 15.9351 18.7719 16.7094 18.7849L16.772 18.7158C16.8704 18.2052 16.8831 18.0856 17.101 17.0514C17.2034 16.5611 17.4169 15.4838 17.5222 15.1002C17.7157 15.0094 17.9066 14.92 18.0888 14.92C18.5227 14.92 18.4699 15.3036 18.4531 15.4565C18.4345 15.7131 18.2764 16.5512 18.1143 17.2708L18.0061 17.7352C17.9306 18.0782 17.8479 18.4116 17.7725 18.7516L17.8053 18.8196C18.6834 18.7719 18.9512 18.7719 19.701 18.7849L19.7892 18.7158C19.9247 17.9183 19.9644 17.7049 20.2049 16.5438L20.3259 16.0103C20.5609 14.9662 20.6789 14.4367 20.5011 14.0055C20.3131 13.5222 19.8621 13.4055 19.4478 13.4055ZM23.7104 14.4987C23.2436 14.5895 22.946 14.6501 22.6501 14.6892C22.3568 14.7369 22.0708 14.7801 21.6197 14.8436L21.584 14.8764L21.5512 14.9026C21.5042 15.243 21.4715 15.5373 21.4092 15.8832C21.3563 16.241 21.2751 16.6475 21.1428 17.2316C21.0404 17.6787 20.9876 17.8345 20.9293 17.9918C20.8725 18.1491 20.8098 18.3019 20.6947 18.7416L20.7216 18.7822L20.7442 18.8195C21.1658 18.7992 21.4416 18.7848 21.725 18.7822C22.0081 18.7719 22.3014 18.7822 22.7554 18.7848L22.7951 18.752L22.8378 18.7158C22.9033 18.3193 22.9132 18.2126 22.9533 18.0191C22.993 17.8116 23.0615 17.5244 23.2294 16.7572C23.3089 16.3968 23.3974 16.0376 23.4797 15.6698C23.5654 15.3036 23.655 14.9429 23.7402 14.5825L23.7275 14.539L23.7104 14.4987ZM23.7203 13.0248C23.2962 12.7711 22.5519 12.8516 22.0509 13.202C21.5514 13.5454 21.4945 14.0327 21.9172 14.2897C22.334 14.5363 23.0813 14.4628 23.5779 14.1095C24.0763 13.7588 24.1386 13.2758 23.7203 13.0248ZM26.2851 18.899C27.1432 18.899 28.0227 18.6594 28.6847 17.9483C29.1941 17.3716 29.4276 16.5136 29.5085 16.1603C29.772 14.9891 29.5668 14.4423 29.3092 14.1093C28.9179 13.6017 28.2264 13.4388 27.509 13.4388C27.0776 13.4388 26.0501 13.482 25.2475 14.2319C24.6711 14.7728 24.4047 15.5068 24.2441 16.2105C24.0819 16.9275 23.8954 18.2182 25.0668 18.6985C25.4282 18.8558 25.9492 18.899 26.2851 18.899ZM26.2181 16.264C26.4159 15.3772 26.6495 14.6329 27.2456 14.6329C27.7127 14.6329 27.7465 15.1867 27.5389 16.0764C27.5017 16.274 27.3312 17.0083 27.1006 17.321C26.9395 17.5518 26.749 17.6917 26.5384 17.6917C26.4757 17.6917 26.103 17.6917 26.0971 17.1309C26.0942 16.854 26.15 16.5712 26.2181 16.264ZM31.6535 18.785L31.7205 18.7159C31.8156 18.2053 31.8313 18.0853 32.0418 17.0516C32.1471 16.5613 32.365 15.4839 32.4674 15.1003C32.6612 15.0091 32.8489 14.9198 33.0369 14.9198C33.4679 14.9198 33.4154 15.3034 33.3983 15.4562C33.3826 15.7132 33.2245 16.5509 33.0595 17.2705L32.9571 17.735C32.8788 18.0783 32.7935 18.4113 32.7181 18.7518L32.7509 18.8197C33.6319 18.7721 33.8895 18.7721 34.6437 18.785L34.7347 18.7159C34.867 17.9181 34.9027 17.7047 35.1505 16.5439L35.2685 16.01C35.5046 14.9659 35.6241 14.4368 35.4492 14.0056C35.2558 13.5223 34.8018 13.4056 34.3933 13.4056C34.1226 13.4056 33.626 13.4717 33.1848 13.6925C33.027 13.7763 32.8689 13.8727 32.7137 13.9694L32.8489 13.4389L32.7764 13.3492C31.8356 13.5426 31.6207 13.5685 30.7524 13.6925L30.6857 13.7416C30.5804 14.5897 30.4948 15.2269 30.1206 16.8943C29.9782 17.5086 29.8303 18.1289 29.6823 18.7418L29.722 18.8197C30.6143 18.7721 30.8807 18.7721 31.6535 18.785ZM38.1263 18.8195C38.1817 18.5456 38.5107 16.9218 38.5136 16.9218C38.5136 16.9218 38.7938 15.7304 38.8109 15.6872C38.8109 15.6872 38.8991 15.5631 38.9872 15.514H39.1169C40.3408 15.514 41.7228 15.514 42.806 14.7065C43.543 14.1527 44.0469 13.3349 44.2717 12.341C44.33 12.0974 44.373 11.8075 44.373 11.5177C44.373 11.1371 44.2976 10.7605 44.0797 10.4662C43.5274 9.68313 42.4274 9.66873 41.1576 9.66282C41.1536 9.66282 40.5317 9.66873 40.5317 9.66873C38.9063 9.68904 38.2545 9.68313 37.9867 9.6499C37.9641 9.76989 37.9215 9.9833 37.9215 9.9833C37.9215 9.9833 37.3393 12.7176 37.3393 12.7221C37.3393 12.7221 35.946 18.5356 35.8804 18.8095C37.2996 18.7922 37.8814 18.7922 38.1263 18.8195ZM39.2051 13.9622C39.2051 13.9622 39.8241 11.2334 39.8212 11.2438L39.8413 11.1038L39.85 10.9971L40.0974 11.023C40.0974 11.023 41.3741 11.1341 41.4039 11.1371C41.9078 11.3346 42.1155 11.8437 41.9705 12.5083C41.8382 13.1156 41.4495 13.6263 40.95 13.8729C40.5386 14.0819 40.0347 14.0992 39.5155 14.0992H39.1796L39.2051 13.9622ZM43.0593 16.3145C42.8957 17.0212 42.7077 18.312 43.8733 18.772C44.2449 18.9322 44.5779 18.9798 44.9164 18.9625C45.2738 18.9429 45.605 18.7613 45.9118 18.4999C45.8841 18.6073 45.8564 18.7148 45.8287 18.8226L45.8816 18.8916C46.7199 18.8558 46.9801 18.8558 47.8884 18.8628L47.9707 18.7993C48.1034 18.0092 48.2283 17.242 48.573 15.7305C48.741 15.0065 48.9086 14.2895 49.0809 13.5684L49.0539 13.489C48.1161 13.6651 47.8654 13.7028 46.9633 13.8324L46.8948 13.8889C46.8857 13.9623 46.8762 14.0329 46.8675 14.1034C46.7272 13.8737 46.5239 13.6777 46.2102 13.5555C45.8091 13.3956 44.8669 13.6016 44.0569 14.3489C43.4878 14.8824 43.2145 15.6134 43.0593 16.3145ZM45.029 16.3577C45.2297 15.4868 45.4604 14.7499 46.0579 14.7499C46.4357 14.7499 46.6347 15.1032 46.5942 15.7057C46.5622 15.856 46.5276 16.0144 46.4864 16.1934C46.4266 16.4523 46.3618 16.7089 46.2987 16.9658C46.2346 17.1416 46.1599 17.3073 46.0779 17.4177C45.9242 17.6385 45.5584 17.7755 45.3478 17.7755C45.288 17.7755 44.9193 17.7755 44.9066 17.2246C44.9037 16.9503 44.9594 16.6679 45.029 16.3577ZM55.3147 13.482L55.2422 13.3982C54.3142 13.5887 54.1463 13.6189 53.2937 13.7356L53.231 13.7991C53.2281 13.8094 53.2255 13.8253 53.2212 13.8397L53.2183 13.8253C52.5836 15.3092 52.6021 14.9891 52.0855 16.1572C52.0826 16.1041 52.0826 16.0708 52.0797 16.0143L51.9503 13.482L51.8691 13.3982C50.897 13.5887 50.874 13.6189 49.9763 13.7356L49.9063 13.7991C49.8965 13.8294 49.8965 13.8626 49.8907 13.8988L49.8965 13.9117C50.0087 14.4929 49.9818 14.3633 50.0943 15.2804C50.1468 15.7304 50.2168 16.1831 50.2692 16.6276C50.3578 17.3715 50.4073 17.7378 50.5155 18.8731C49.9092 19.8869 49.7657 20.2706 49.182 21.1603L49.186 21.1692L48.775 21.8279C48.728 21.8973 48.6854 21.9449 48.6257 21.9652C48.5601 21.9981 48.4748 22.004 48.3564 22.004H48.1287L47.7902 23.1448L48.9514 23.1651C49.6331 23.1622 50.0615 22.8391 50.2922 22.4049L51.0223 21.1371H51.0107L51.0876 21.0477C51.5787 19.9763 55.3147 13.482 55.3147 13.482ZM43.0593 28.4653H42.5667L44.3899 22.3545H44.9947L45.1867 21.725L45.2053 22.4251C45.1827 22.8578 45.5186 23.2414 46.4011 23.1779H47.4216L47.7729 22.0012H47.3888C47.168 22.0012 47.0657 21.9447 47.0784 21.8236L47.0598 21.1114H45.17V21.1151C44.5589 21.128 42.7343 21.1746 42.3648 21.2742C41.9178 21.3909 41.4467 21.7343 41.4467 21.7343L41.6318 21.104H39.864L39.4956 22.3545L37.648 28.5587H37.2895L36.9379 29.7268H40.4589L40.3409 30.1164H42.0759L42.1911 29.7268H42.6778L43.0593 28.4653ZM41.6147 23.5962C41.3316 23.6756 40.8047 23.9163 40.8047 23.9163L41.2733 22.3545H42.6778L42.339 23.4924C42.339 23.4924 41.905 23.5183 41.6147 23.5962ZM41.6416 25.8273C41.6416 25.8273 41.2004 25.8834 40.91 25.9499C40.624 26.0377 40.0877 26.3146 40.0877 26.3146L40.5715 24.6894H41.9834L41.6416 25.8273ZM40.8546 28.4797H39.4457L39.8541 27.1081H41.2587L40.8546 28.4797ZM44.2476 24.6894H46.2785L45.9867 25.6471H43.9288L43.6199 26.6942H45.4205L44.0571 28.6395C43.9616 28.7824 43.876 28.833 43.7809 28.8732C43.6855 28.9223 43.5601 28.9799 43.4151 28.9799H42.9156L42.5724 30.1267H43.8789C44.5581 30.1267 44.9592 29.8136 45.2554 29.4027L46.1904 28.106L46.3911 29.4226C46.4337 29.6692 46.6086 29.8136 46.727 29.8697C46.8578 29.9362 46.993 30.0503 47.1839 30.0672C47.3887 30.0761 47.5366 30.0831 47.635 30.0831H48.277L48.6625 28.7998H48.4092C48.2639 28.7998 48.0135 28.775 47.9709 28.7289C47.9283 28.6728 47.9283 28.5864 47.9053 28.4549L47.7017 27.1354H46.8677L47.2335 26.6942H49.2873L49.6032 25.6471H47.7017L47.9979 24.6894H49.8936L50.2452 23.5083H44.5934L44.2476 24.6894ZM27.0948 28.7463L27.5688 27.1484H29.517L29.873 25.9599H27.923L28.2206 24.9764H30.1262L30.4792 23.8256H25.7114L25.3656 24.9764H26.4488L26.1599 25.9599H25.0738L24.7138 27.1687H25.7966L25.1649 29.2828C25.0796 29.5627 25.2049 29.6694 25.2844 29.7993C25.3656 29.926 25.448 30.0098 25.633 30.0574C25.824 30.1006 25.9548 30.1264 26.1326 30.1264H28.3288L28.7202 28.8098L27.7466 28.9453C27.5586 28.9453 27.038 28.9225 27.0948 28.7463ZM27.3183 21.0968L26.8246 22.001C26.7189 22.1985 26.6238 22.3211 26.5382 22.3776C26.4628 22.4252 26.3134 22.4452 26.097 22.4452H25.8394L25.4951 23.6019H26.3505C26.7619 23.6019 27.0778 23.449 27.2286 23.3726C27.3908 23.2848 27.4334 23.335 27.5587 23.2124L27.8477 22.9587H30.5191L30.8736 21.7544H28.9181L29.2595 21.0968H27.3183ZM31.2621 28.7696C31.2166 28.7031 31.2494 28.5861 31.3189 28.3424L32.0491 25.8935H34.6465C35.0251 25.8879 35.2984 25.8835 35.4762 25.8706C35.6671 25.8503 35.8747 25.7812 36.101 25.6572C36.3346 25.5272 36.4541 25.3902 36.555 25.2329C36.6676 25.076 36.8483 24.7327 37.0035 24.2032L37.9213 21.1041L35.2258 21.12C35.2258 21.12 34.3959 21.244 34.0304 21.381C33.6617 21.5339 33.1349 21.9607 33.1349 21.9607L33.3782 21.1111H31.7132L29.3821 28.9453C29.2994 29.2495 29.244 29.4703 29.2312 29.6029C29.2269 29.7457 29.409 29.8872 29.5271 29.9939C29.6666 30.1006 29.8728 30.0832 30.0707 30.1006C30.2787 30.1164 30.5746 30.1264 30.983 30.1264H32.2626L32.6554 28.7825L31.5099 28.8921C31.3874 28.8921 31.2989 28.8257 31.2621 28.7696ZM32.5202 24.2394H35.2484L35.075 24.7903C35.0506 24.8032 34.9923 24.7629 34.7147 24.7962H32.3522L32.5202 24.2394ZM33.0667 22.3919H35.8179L35.6201 23.0554C35.6201 23.0554 34.3234 23.0424 34.1157 23.0812C33.2019 23.2414 32.6681 23.7362 32.6681 23.7362L33.0667 22.3919ZM35.1361 26.6349C35.1135 26.7173 35.0778 26.7675 35.0279 26.8051C34.9725 26.8413 34.8828 26.8542 34.7491 26.8542H34.3604L34.3833 26.1834H32.7664L32.7008 29.463C32.6982 29.6997 32.7208 29.8367 32.8917 29.9463C33.0626 30.0833 33.5891 30.1007 34.2977 30.1007H35.311L35.6768 28.8731L34.7947 28.9222L34.5014 28.9395C34.4613 28.9222 34.423 28.9063 34.3804 28.8631C34.3432 28.8258 34.2806 28.8487 34.2908 28.612L34.2977 27.7713L35.2228 27.7326C35.7223 27.7326 35.9358 27.5679 36.118 27.411C36.2918 27.2607 36.3486 27.0879 36.4142 26.8542L36.5694 26.1099H35.2982L35.1361 26.6349Z" fill="#FEFEFE"/>
</svg>
