<svg width="96" height="127" viewBox="0 0 96 127" fill="none" xmlns="http://www.w3.org/2000/svg">
<path d="M68.8157 61.9782C67.6702 61.9782 66.7405 61.0485 66.7405 59.9031V47.7288C66.7405 44.6686 65.9796 41.6305 64.5436 38.9467C64.0013 37.9368 64.3831 36.6778 65.3931 36.1383C66.403 35.596 67.6619 35.9778 68.2014 36.9877C69.9612 40.272 70.8881 43.9879 70.8881 47.7288V59.9031C70.8909 61.0513 69.9612 61.9782 68.8157 61.9782Z" fill="#DFE6E9"/>
<path d="M27.3134 61.4248C26.168 61.4248 25.2383 60.4952 25.2383 59.3497V47.7288C25.2383 35.1422 35.4785 24.902 48.0651 24.902C52.5336 24.902 56.8665 26.1996 60.5935 28.6539C61.5509 29.2847 61.8165 30.5713 61.1856 31.5286C60.5548 32.486 59.2682 32.7516 58.3108 32.1208C55.2617 30.1148 51.7201 29.0523 48.0651 29.0523C37.7667 29.0523 29.3886 37.4304 29.3886 47.7288V59.3497C29.3886 60.4979 28.4589 61.4248 27.3134 61.4248Z" fill="#DFE6E9"/>
<path d="M60.5162 67.7451C59.3707 67.7451 58.441 66.8154 58.441 65.6699V47.7288C58.441 44.9563 57.3619 42.3527 55.403 40.391C53.4413 38.432 50.8349 37.3529 48.0652 37.3529C42.3433 37.3529 37.6894 42.0068 37.6894 47.7288V55.6699C37.6894 56.8154 36.7597 57.7451 35.6142 57.7451C34.4687 57.7451 33.5391 56.8154 33.5391 55.6699V47.7288C33.5391 39.7186 40.0551 33.2026 48.0652 33.2026C51.9416 33.2026 55.5884 34.7133 58.3359 37.4553C61.0806 40.2001 62.5914 43.8468 62.5914 47.7288V65.6699C62.5914 66.8182 61.6617 67.7451 60.5162 67.7451Z" fill="#ED1C24"/>
<path d="M93.7171 72.5394C92.5716 72.5394 91.6419 71.6097 91.6419 70.4643V47.7288C91.6419 37.8178 88.3853 28.4712 82.2262 20.7018C81.5151 19.8026 81.6645 18.4994 82.5638 17.7855C83.463 17.0744 84.7662 17.2239 85.4801 18.1231C92.2285 26.634 95.795 36.8715 95.795 47.7288V70.4643C95.7922 71.6097 94.8626 72.5394 93.7171 72.5394Z" fill="#DFE6E9"/>
<path d="M8.98328 26.2162C8.61805 26.2162 8.24729 26.1194 7.90973 25.9146C6.93025 25.3198 6.61759 24.0442 7.20971 23.0648C11.3905 16.1614 17.295 10.3841 24.2814 6.35277C31.4919 2.19691 39.7151 0 48.0628 0C58.624 0 68.6373 3.3922 77.0237 9.81414C77.9341 10.5114 78.1056 11.8146 77.4111 12.7221C76.7139 13.6324 75.4134 13.8068 74.5031 13.1095C66.8471 7.24924 57.7026 4.15033 48.0628 4.15033C32.6982 4.15033 18.7531 12.0249 10.7624 25.2174C10.3723 25.8621 9.68607 26.2162 8.98328 26.2162Z" fill="#DFE6E9"/>
<path d="M19.0401 116.563C18.5752 116.563 18.1076 116.408 17.7203 116.087C6.6721 106.965 0.335938 93.5484 0.335938 79.2712V47.7288C0.335938 42.1009 1.30988 36.5893 3.23287 31.3433C3.62853 30.2669 4.82106 29.7163 5.89461 30.1092C6.97093 30.5049 7.5243 31.6947 7.12864 32.771C5.37443 37.5577 4.48626 42.5907 4.48626 47.7288V79.2712C4.48626 92.3033 10.2718 104.555 20.3626 112.886C21.2453 113.617 21.3726 114.923 20.6421 115.808C20.2326 116.306 19.6377 116.563 19.0401 116.563Z" fill="#DFE6E9"/>
<path d="M48.0645 127C40.7184 127 33.6656 125.368 27.1026 122.147C26.0733 121.643 25.65 120.398 26.1535 119.369C26.6571 118.34 27.9022 117.916 28.9315 118.42C34.919 121.361 41.3576 122.85 48.0645 122.85C72.0949 122.85 91.6429 103.302 91.6429 79.2712C91.6429 78.1257 92.5726 77.1961 93.7181 77.1961C94.8636 77.1961 95.7932 78.1257 95.7932 79.2712C95.7932 105.59 74.3831 127 48.0645 127Z" fill="#DFE6E9"/>
<path d="M48.0648 118.699C26.3226 118.699 8.63672 101.013 8.63672 79.2712V75.8126C8.63672 74.6672 9.56639 73.7375 10.7119 73.7375C11.8574 73.7375 12.787 74.6672 12.787 75.8126V79.2712C12.787 98.7224 28.6136 114.549 48.0648 114.549C52.0962 114.549 56.0528 113.871 59.8241 112.535C60.9032 112.153 62.0902 112.717 62.472 113.796C62.8538 114.876 62.2894 116.063 61.2103 116.447C56.9936 117.941 52.5693 118.699 48.0648 118.699Z" fill="#DFE6E9"/>
<path d="M67.8903 112.994C67.2014 112.994 66.5262 112.651 66.1306 112.023C65.5219 111.052 65.8124 109.771 66.7836 109.162C77.1539 102.646 83.3434 91.4704 83.3434 79.2712V51.1874C83.3434 50.0419 84.273 49.1122 85.4185 49.1122C86.564 49.1122 87.4937 50.0419 87.4937 51.1874V79.2712C87.4937 92.9064 80.5765 105.393 68.9943 112.676C68.6512 112.892 68.2694 112.994 67.8903 112.994Z" fill="#DFE6E9"/>
<path d="M85.0417 44.5109C84.0263 44.5109 83.1381 43.7638 82.9887 42.729C80.9827 28.6483 70.3496 16.8918 56.5262 13.4775C55.4139 13.2036 54.7361 12.0775 55.01 10.9652C55.2839 9.85288 56.41 9.175 57.5223 9.44892C65.1202 11.3276 71.9378 15.4033 77.2419 21.2358C82.5765 27.1072 85.9853 34.337 87.0975 42.1424C87.258 43.2768 86.4695 44.3283 85.335 44.4887C85.2382 44.5053 85.1386 44.5109 85.0417 44.5109Z" fill="#DFE6E9"/>
<path d="M10.7119 69.8611C9.56639 69.8611 8.63672 68.9314 8.63672 67.7859V47.7288C8.63672 25.9866 26.3226 8.30066 48.0648 8.30066C49.2103 8.30066 50.14 9.23033 50.14 10.3758C50.14 11.5213 49.2103 12.451 48.0648 12.451C28.6136 12.451 12.787 28.2776 12.787 47.7288V67.7859C12.787 68.9314 11.8574 69.8611 10.7119 69.8611Z" fill="#DFE6E9"/>
<path d="M74.2304 93.9662C73.926 93.9662 73.6189 93.8998 73.3284 93.7587C72.2963 93.2606 71.8647 92.0183 72.3655 90.9862C74.1418 87.3146 75.0439 83.3745 75.0439 79.274V47.7315C75.0439 32.8568 62.9415 20.7544 48.0667 20.7544C43.2856 20.7544 38.5874 22.0272 34.4786 24.4344C33.4908 25.0126 32.218 24.6806 31.6397 23.6928C31.0615 22.7051 31.3935 21.4323 32.3813 20.854C37.1237 18.0705 42.5468 16.6013 48.064 16.6013C65.227 16.6013 79.1914 30.5658 79.1914 47.7288V79.2712C79.1914 84.0054 78.1511 88.5541 76.098 92.793C75.7411 93.5345 74.9996 93.9662 74.2304 93.9662Z" fill="#DFE6E9"/>
<path d="M48.065 110.399C30.902 110.399 16.9375 96.437 16.9375 79.2712V47.7288C16.9375 39.7629 19.9534 32.1816 25.4346 26.3767C26.2204 25.5439 27.5347 25.5051 28.3675 26.2909C29.2003 27.0767 29.2391 28.391 28.4533 29.2238C23.7025 34.2568 21.0878 40.8281 21.0878 47.7288V79.2712C21.0878 94.146 33.1902 106.248 48.065 106.248C55.5079 106.248 62.699 103.116 67.7928 97.6517C68.5759 96.8133 69.8874 96.7663 70.7257 97.5493C71.5641 98.3323 71.6111 99.6438 70.8281 100.482C64.9512 106.785 56.6561 110.399 48.065 110.399Z" fill="#DFE6E9"/>
<path d="M48 101C60.1503 101 70 91.1503 70 79C70 66.8497 60.1503 57 48 57C35.8497 57 26 66.8497 26 79C26 91.1503 35.8497 101 48 101Z" fill="#ED1C24"/>
<path d="M56.9097 69H40V69.7985C41.9586 69.8883 42.5814 70.1528 42.5814 72.1892V85.9005C42.5814 88.022 41.9586 88.2015 40 88.2913V89H49.5221V88.2913C47.1166 88.2015 46.5842 87.9369 46.5842 85.9005V79.352H50.0545C52.6359 79.352 53.8814 79.9709 54.3283 82.2719H55.1317V75.1942H54.3283C53.9718 77.3156 53.2587 77.8495 50.0545 77.8495H46.5842V71.4758C46.5842 70.6773 46.7601 70.5025 47.7394 70.5025H50.7676C54.7752 70.5025 55.4835 71.2112 56.1966 73.4224H57L56.9097 69Z" fill="white"/>
</svg>
