<svg width="25" height="25" viewBox="0 0 25 25" fill="none" xmlns="http://www.w3.org/2000/svg">
<path d="M0 0H25V25H0V0Z" fill="#000066"/>
<path fill-rule="evenodd" clip-rule="evenodd" d="M2.68066 17.998L4.66309 18.75L5.31738 16.7285L5.9668 18.75L7.9541 17.998L6.77734 19.7705L8.60352 20.8545L6.48926 21.0352L6.78223 23.1396L5.31738 21.6016L3.85254 23.1396L4.14551 21.04L2.02637 20.8545L3.85742 19.7705L2.68066 17.998ZM19.7266 23.2617L18.7988 23.3398L18.9307 24.2578L18.2959 23.5889L17.6611 24.2578L17.7734 23.3398L16.8555 23.2617L17.6514 22.793L17.1387 22.0215L18.0029 22.3486L18.2861 21.4697L18.5645 22.3486L19.4336 22.0215L18.9258 22.793L19.7266 23.2617ZM19.7168 9.58984L18.7988 9.66797L18.9258 10.5859L18.291 9.91699L17.6562 10.5859L17.7734 9.66797L16.8555 9.58984L17.6514 9.12109L17.1387 8.34961L18.0029 8.67676L18.2861 7.79785L18.5645 8.67676L19.4336 8.34961L18.9258 9.12109L19.7168 9.58984ZM14.5898 15.1465L13.6719 15.2246L13.7988 16.1377L13.1641 15.4687L12.5293 16.1377L12.6514 15.2246L11.7334 15.1465L12.5293 14.6729L12.0166 13.9062L12.8809 14.2334L13.1641 13.3545L13.4424 14.2334L14.3066 13.9062L13.7988 14.6729L14.5898 15.1465ZM24.2676 13.7793L23.3496 13.8574L23.4766 14.7705L22.8418 14.1016L22.207 14.7705L22.3291 13.8574L21.4111 13.7793L22.207 13.3057L21.6943 12.5391L22.5586 12.8662L22.8418 11.9873L23.125 12.8662L23.9844 12.5391L23.4766 13.3057L24.2676 13.7793ZM20.3418 17.334L19.8389 17.6465L19.9805 17.0703L19.5264 16.6895L20.1123 16.6455L20.3418 16.0986L20.5566 16.6504L21.1475 16.6992L20.6982 17.0752L20.8398 17.6514" fill="white"/>
<path d="M0 0H12.5V12.5H0V0Z" fill="#000066"/>
<path d="M12.5 0V1.5625L7.86133 6.25L12.5 10.8154V12.5H10.8643L6.20117 7.91016L1.66016 12.5H0V10.8398L4.54102 6.27441L0 1.80664V0H1.51367L6.20117 4.58984L10.7422 0H12.5Z" fill="white"/>
<path d="M4.49219 7.91016L4.76074 8.74023L1.02539 12.5H0V12.4268L4.49219 7.91016ZM7.51953 7.61719L8.83789 7.8125L12.5 11.4014V12.5L7.51953 7.61719ZM12.5 0L7.8125 4.78516L7.71484 3.71094L11.377 0H12.5ZM0 0.0244141L4.71191 4.63867L3.27148 4.44336L0 1.19629V0.0244141Z" fill="#C8102E"/>
<path d="M4.29688 0V12.5H8.20312V0H4.29688ZM0 4.29688V8.20312H12.5V4.29688H0Z" fill="white"/>
<path d="M0 5.07812V7.42188H12.5V5.07812H0ZM5.07812 0V12.5H7.42188V0H5.07812Z" fill="#C8102E"/>
</svg>
