<svg width="25" height="25" viewBox="0 0 25 25" fill="none" xmlns="http://www.w3.org/2000/svg">
<path d="M0 0H25V25H0V0Z" fill="#F9F1F1"/>
<path d="M11.8653 20.7617C11.8598 20.7595 11.8548 20.7562 11.8507 20.752V20.7471L11.7823 20.6787C11.7139 20.6017 11.6488 20.5219 11.587 20.4395L11.3282 20.1172L11.294 20.0732L10.9718 19.9756L10.7374 19.8633L10.8595 19.7217L11.2989 19.9072L11.6212 19.9756L12.2169 20.415C12.1023 20.5149 11.9915 20.6192 11.8849 20.7275C11.8809 20.7337 11.8777 20.7402 11.8751 20.7471L11.9142 20.7227L11.9532 20.7568L11.8702 20.7617H11.8653ZM9.64364 20.0928C9.36044 20.0928 9.08212 20.0146 8.81357 19.8584C8.54501 19.7021 8.85263 19.7949 8.93564 19.7314C9.01376 19.6729 9.16024 19.5996 9.3995 19.5996C9.68271 19.5996 10.0245 19.6973 10.42 19.8828C10.4054 19.8926 10.0929 20.0928 9.64364 20.0928ZM8.42294 19.8242C8.36923 19.8242 8.32528 19.7998 8.28622 19.7656C8.25658 19.7306 8.23641 19.6886 8.22763 19.6436C8.21473 19.5876 8.20979 19.53 8.21298 19.4727C8.23425 19.4617 8.25748 19.455 8.28134 19.4531C8.38876 19.4531 8.47177 19.5508 8.50595 19.6387C8.52548 19.6875 8.53036 19.7314 8.5206 19.7656C8.51083 19.7998 8.46689 19.8193 8.42294 19.8193V19.8242ZM10.5714 19.5703C9.84872 19.4727 9.54599 19.209 9.41415 19.0039C9.33103 18.8822 9.29146 18.7359 9.30185 18.5889C9.30185 18.5889 9.35067 18.5791 9.41415 18.5791C9.60946 18.5791 10.0977 18.6768 10.5714 19.5703ZM9.09189 19.4287C8.78427 19.4287 8.54501 19.3799 8.39364 19.2725C8.32623 19.2295 8.27212 19.1687 8.23739 19.0967C8.22505 19.0704 8.21682 19.0424 8.21298 19.0137C8.33084 18.9662 8.45704 18.943 8.58407 18.9453C8.82821 18.9453 9.18954 19.0234 9.5704 19.3945C9.41162 19.4144 9.25189 19.4258 9.09189 19.4287ZM7.59775 19.3701C7.2706 19.3701 6.82138 19.2725 6.54306 18.9941C6.77514 18.9391 7.01256 18.9096 7.25107 18.9063C7.55868 18.9063 7.78817 18.9648 7.94442 19.082C8.00302 19.1211 8.03232 19.1602 8.0372 19.1992C8.04208 19.2285 8.02743 19.2627 7.99325 19.2871C7.92489 19.3359 7.79794 19.3701 7.62216 19.3701H7.59775ZM6.53817 18.833C6.51935 18.8323 6.5009 18.8276 6.48405 18.8192C6.46721 18.8108 6.45236 18.7988 6.44052 18.7842C6.4157 18.7529 6.39894 18.716 6.39169 18.6768C6.37216 18.5986 6.37704 18.5254 6.37704 18.5254C6.39173 18.5163 6.40858 18.5112 6.42587 18.5107C6.4747 18.5107 6.51376 18.5352 6.53817 18.5596C6.56856 18.5899 6.5919 18.6266 6.60653 18.667C6.62118 18.7158 6.62607 18.75 6.6163 18.7793C6.60653 18.8037 6.57724 18.8281 6.53817 18.8281V18.833ZM8.97958 18.7744C8.92587 18.7744 8.88192 18.7549 8.84774 18.7207C8.81811 18.6857 8.79794 18.6437 8.78915 18.5986C8.77578 18.5411 8.77085 18.4818 8.7745 18.4229C8.7946 18.4142 8.81611 18.4092 8.83798 18.4082C8.9454 18.4082 9.03329 18.501 9.06259 18.5889C9.08212 18.6377 9.087 18.6865 9.07724 18.7158C9.06259 18.75 9.02353 18.7744 8.97958 18.7744ZM7.78817 18.7256C7.13388 18.7012 6.79208 18.5156 6.62607 18.3643C6.55169 18.3 6.49036 18.2221 6.4454 18.1348C6.43058 18.1035 6.41912 18.0708 6.41122 18.0371C6.41122 18.0371 6.46982 18.0127 6.57235 18.0127H6.587C6.80673 18.0127 7.26083 18.1055 7.78817 18.7256ZM8.50107 18.6572C8.12708 18.6171 7.77938 18.4459 7.51962 18.1738C7.4216 18.0703 7.3467 17.9472 7.29989 17.8125C7.29989 17.8125 7.36825 17.7979 7.46591 17.793C7.48055 17.7926 7.49521 17.7926 7.50985 17.793C7.77353 17.7979 8.25693 17.9199 8.50107 18.6572ZM5.79599 18.4033C5.62021 18.4033 5.45419 18.3887 5.29794 18.3447C5.01962 18.2764 4.90243 18.1738 4.84872 18.0957C4.828 18.0632 4.81467 18.0265 4.80966 17.9883C4.80782 17.9737 4.80782 17.9589 4.80966 17.9443C4.80966 17.9443 4.99032 17.8955 5.24423 17.8906C5.37366 17.8883 5.50297 17.8998 5.62997 17.9248C5.89611 17.98 6.13353 18.129 6.29892 18.3447C6.29892 18.3447 6.08896 18.4033 5.79599 18.4033ZM7.01669 17.9639C6.96786 17.9639 6.91903 17.9395 6.88485 17.9053C6.85522 17.8703 6.83505 17.8282 6.82626 17.7832C6.81323 17.7272 6.80829 17.6697 6.81161 17.6123C6.83171 17.6036 6.85322 17.5987 6.87509 17.5977H6.87997C6.98739 17.5977 7.0704 17.6855 7.10458 17.7783C7.12411 17.8271 7.12899 17.8662 7.11435 17.9053C7.0997 17.9395 7.06552 17.959 7.01669 17.959V17.9639ZM6.09872 17.832C6.09384 17.832 5.8497 17.7734 5.60067 17.6172C5.3663 17.4707 5.08798 17.2266 5.04892 16.8359C5.00985 16.4453 5.07333 16.8262 5.10751 16.8262H5.11728C5.18564 16.8262 5.32724 16.8457 5.49814 16.9727C5.71786 17.1387 5.91806 17.4316 6.09872 17.8369V17.832ZM6.69931 17.8125C6.69931 17.8125 6.52353 17.7441 6.30868 17.5586C5.99922 17.2963 5.75796 16.9629 5.60556 16.5869C5.60556 16.5869 5.65439 16.5625 5.72763 16.5576C5.73251 16.5574 5.7374 16.5574 5.74228 16.5576H5.76181C5.85946 16.5576 6.01083 16.6016 6.18173 16.7871C6.42619 17.0876 6.60275 17.4374 6.69931 17.8125ZM5.13681 17.7637C4.94149 17.7637 4.87314 17.6563 4.84872 17.6123C4.82959 17.5626 4.82288 17.509 4.82919 17.4561C4.86109 17.4475 4.89385 17.4426 4.92685 17.4414H4.93661C5.09286 17.4414 5.21982 17.5244 5.27353 17.6025C5.28329 17.6172 5.31747 17.6758 5.28817 17.7148C5.26864 17.749 5.21982 17.7637 5.14169 17.7637H5.13681ZM4.69735 17.207C4.58505 17.207 4.41415 17.1973 4.23349 17.168C4.05282 17.1338 3.95028 16.9824 3.89657 16.8604C3.86057 16.7778 3.83593 16.6907 3.82333 16.6016C4.37509 16.6162 4.63876 16.7773 4.76083 16.9092C4.83656 16.9892 4.88303 17.0924 4.89267 17.2021H4.69735V17.207ZM5.27353 16.6309C5.22838 16.5744 5.18601 16.5157 5.14657 16.4551C5.07821 16.3525 5.01962 16.2451 5.01962 16.1621C5.01512 16.0413 5.00535 15.9207 4.99032 15.8008L4.95614 15.5566C4.97079 15.5664 5.30282 15.6885 5.30282 16.001C5.30282 16.3135 5.27353 16.626 5.27353 16.6309ZM4.84384 16.6016H4.82919C4.73153 16.582 4.56064 16.5039 4.37021 16.3965C4.18947 16.3004 4.02475 16.1769 3.88192 16.0303C3.79403 15.9277 3.73544 15.7617 3.72567 15.542C3.71774 15.4445 3.71774 15.3465 3.72567 15.249C3.74418 15.2407 3.76402 15.2357 3.78427 15.2344C3.85751 15.2344 3.93075 15.2686 4.03817 15.3418C4.13576 15.4103 4.22724 15.4871 4.31161 15.5713C4.41681 15.6765 4.51624 15.7874 4.60946 15.9033C4.71325 16.0968 4.803 16.2975 4.87802 16.5039V16.5771C4.8741 16.5858 4.86716 16.5928 4.85849 16.5967C4.85204 16.598 4.8454 16.598 4.83896 16.5967L4.84384 16.6016Z" fill="#435125"/>
<path d="M10.7275 20.7617C10.7329 20.7595 10.7379 20.7562 10.7421 20.752V20.7471L10.8105 20.6787C10.8789 20.6017 10.944 20.5219 11.0058 20.4395L11.2646 20.1172L11.2987 20.0732L11.621 19.9756L11.8554 19.8633L11.7333 19.7217L11.2939 19.9072L10.9716 19.9756L10.3759 20.415C10.4905 20.5149 10.6013 20.6192 10.7079 20.7275C10.7118 20.7337 10.7151 20.7402 10.7177 20.7471L10.6786 20.7227L10.6396 20.7568L10.7226 20.7617H10.7275ZM12.9491 20.0928C13.2323 20.0928 13.5107 20.0146 13.7792 19.8584C14.0478 19.7021 13.7401 19.7949 13.6571 19.7314C13.579 19.6729 13.4325 19.5996 13.1933 19.5996C12.9101 19.5996 12.5683 19.6973 12.1728 19.8828C12.1874 19.8926 12.4999 20.0928 12.9491 20.0928ZM14.1698 19.8242C14.2235 19.8242 14.2675 19.7998 14.3066 19.7656C14.3362 19.7306 14.3564 19.6886 14.3651 19.6436C14.378 19.5876 14.383 19.53 14.3798 19.4727C14.3585 19.4617 14.3353 19.455 14.3114 19.4531C14.204 19.4531 14.121 19.5508 14.0868 19.6387C14.0673 19.6875 14.0624 19.7314 14.0722 19.7656C14.0819 19.7998 14.1259 19.8193 14.1698 19.8193V19.8242ZM12.0214 19.5703C12.7441 19.4727 13.0468 19.209 13.1786 19.0039C13.2617 18.8822 13.3013 18.7359 13.2909 18.5889C13.2909 18.5889 13.2421 18.5791 13.1786 18.5791C12.9833 18.5791 12.495 18.6768 12.0214 19.5703ZM13.5009 19.4287C13.8085 19.4287 14.0478 19.3799 14.1991 19.2725C14.2665 19.2295 14.3207 19.1687 14.3554 19.0967C14.3677 19.0704 14.376 19.0424 14.3798 19.0137C14.2619 18.9662 14.1357 18.943 14.0087 18.9453C13.7646 18.9453 13.4032 19.0234 13.0224 19.3945C13.1812 19.4144 13.3409 19.4258 13.5009 19.4287ZM14.995 19.3701C15.3222 19.3701 15.7714 19.2725 16.0497 18.9941C15.8176 18.9391 15.5802 18.9096 15.3417 18.9063C15.0341 18.9063 14.8046 18.9648 14.6483 19.082C14.5898 19.1211 14.5605 19.1602 14.5556 19.1992C14.5507 19.2285 14.5653 19.2627 14.5995 19.2871C14.6679 19.3359 14.7948 19.3701 14.9706 19.3701H14.995ZM16.0546 18.833C16.0734 18.8323 16.0919 18.8276 16.1087 18.8192C16.1256 18.8108 16.1404 18.7988 16.1523 18.7842C16.1771 18.7529 16.1938 18.716 16.2011 18.6768C16.2206 18.5986 16.2157 18.5254 16.2157 18.5254C16.201 18.5163 16.1842 18.5112 16.1669 18.5107C16.1181 18.5107 16.079 18.5352 16.0546 18.5596C16.0242 18.5899 16.0009 18.6266 15.9862 18.667C15.9716 18.7158 15.9667 18.75 15.9765 18.7793C15.9862 18.8037 16.0155 18.8281 16.0546 18.8281V18.833ZM13.6132 18.7744C13.6669 18.7744 13.7108 18.7549 13.745 18.7207C13.7747 18.6857 13.7948 18.6437 13.8036 18.5986C13.817 18.5411 13.8219 18.4818 13.8183 18.4229C13.7982 18.4142 13.7767 18.4092 13.7548 18.4082C13.6474 18.4082 13.5595 18.501 13.5302 18.5889C13.5107 18.6377 13.5058 18.6865 13.5155 18.7158C13.5302 18.75 13.5692 18.7744 13.6132 18.7744ZM14.8046 18.7256C15.4589 18.7012 15.8007 18.5156 15.9667 18.3643C16.0411 18.3 16.1024 18.2221 16.1474 18.1348C16.1622 18.1035 16.1736 18.0708 16.1816 18.0371C16.1816 18.0371 16.123 18.0127 16.0204 18.0127H16.0058C15.786 18.0127 15.3319 18.1055 14.8046 18.7256ZM14.0917 18.6572C14.4657 18.6171 14.8134 18.4459 15.0732 18.1738C15.1712 18.0703 15.2461 17.9472 15.2929 17.8125C15.2929 17.8125 15.2245 17.7979 15.1269 17.793C15.1122 17.7926 15.0976 17.7926 15.0829 17.793C14.8192 17.7979 14.3358 17.9199 14.0917 18.6572ZM16.7968 18.4033C16.9726 18.4033 17.1386 18.3887 17.2948 18.3447C17.5732 18.2764 17.6903 18.1738 17.7441 18.0957C17.7648 18.0632 17.7781 18.0265 17.7831 17.9883C17.785 17.9737 17.785 17.9589 17.7831 17.9443C17.7831 17.9443 17.6025 17.8955 17.3485 17.8906C17.2191 17.8883 17.0898 17.8998 16.9628 17.9248C16.6967 17.98 16.4592 18.129 16.2939 18.3447C16.2939 18.3447 16.5038 18.4033 16.7968 18.4033ZM15.5761 17.9639C15.6249 17.9639 15.6737 17.9395 15.7079 17.9053C15.7376 17.8703 15.7577 17.8282 15.7665 17.7832C15.7795 17.7272 15.7845 17.6697 15.7812 17.6123C15.7611 17.6036 15.7396 17.5987 15.7177 17.5977H15.7128C15.6054 17.5977 15.5224 17.6855 15.4882 17.7783C15.4687 17.8271 15.4638 17.8662 15.4784 17.9053C15.4931 17.9395 15.5273 17.959 15.5761 17.959V17.9639ZM16.4941 17.832C16.4989 17.832 16.7431 17.7734 16.9921 17.6172C17.2265 17.4707 17.5048 17.2266 17.5439 16.8359C17.5829 16.4453 17.5194 16.8262 17.4853 16.8262H17.4755C17.4071 16.8262 17.2655 16.8457 17.0946 16.9727C16.8749 17.1387 16.6747 17.4316 16.4941 17.8369V17.832ZM15.8935 17.8125C15.8935 17.8125 16.0692 17.7441 16.2841 17.5586C16.5936 17.2963 16.8348 16.9629 16.9872 16.5869C16.9872 16.5869 16.9384 16.5625 16.8651 16.5576C16.8603 16.5574 16.8554 16.5574 16.8505 16.5576H16.831C16.7333 16.5576 16.5819 16.6016 16.411 16.7871C16.1666 17.0876 15.99 17.4374 15.8935 17.8125ZM17.456 17.7637C17.6513 17.7637 17.7196 17.6563 17.7441 17.6123C17.7632 17.5626 17.7699 17.509 17.7636 17.4561C17.7317 17.4475 17.6989 17.4426 17.6659 17.4414H17.6562C17.4999 17.4414 17.373 17.5244 17.3192 17.6025C17.3095 17.6172 17.2753 17.6758 17.3046 17.7148C17.3241 17.749 17.373 17.7637 17.4511 17.7637H17.456ZM17.8954 17.207C18.0077 17.207 18.1786 17.1973 18.3593 17.168C18.54 17.1338 18.6425 16.9824 18.6962 16.8604C18.7322 16.7778 18.7568 16.6907 18.7694 16.6016C18.2177 16.6162 17.954 16.7773 17.8319 16.9092C17.7562 16.9892 17.7097 17.0924 17.7001 17.2021H17.8954V17.207ZM17.3192 16.6309C17.3644 16.5744 17.4068 16.5157 17.4462 16.4551C17.5146 16.3525 17.5732 16.2451 17.5732 16.1621C17.5777 16.0413 17.5874 15.9207 17.6025 15.8008L17.6366 15.5566C17.622 15.5664 17.29 15.6885 17.29 16.001C17.29 16.3135 17.3192 16.626 17.3192 16.6309ZM17.7489 16.6016H17.7636C17.8612 16.582 18.0321 16.5039 18.2226 16.3965C18.4033 16.3004 18.568 16.1769 18.7108 16.0303C18.7987 15.9277 18.8573 15.7617 18.8671 15.542C18.875 15.4445 18.875 15.3465 18.8671 15.249C18.8486 15.2407 18.8288 15.2357 18.8085 15.2344C18.7353 15.2344 18.662 15.2686 18.5546 15.3418C18.457 15.4103 18.3655 15.4871 18.2812 15.5713C18.176 15.6765 18.0765 15.7874 17.9833 15.9033C17.8795 16.0968 17.7898 16.2975 17.7148 16.5039V16.5771C17.7187 16.5858 17.7256 16.5928 17.7343 16.5967C17.7407 16.598 17.7474 16.598 17.7538 16.5967L17.7489 16.6016Z" fill="#435125"/>
<path d="M22.8662 3.97949L22.7686 4.01855L22.7295 4.0332L22.6123 4.02344L22.5 4.07715L22.3047 4.21387L22.2949 4.21875L22.2217 4.23828L22.1533 4.20898L22.1143 4.22852L22.0996 4.30664L22.0654 4.36523L22.0166 4.39941L21.8604 4.41406L21.7285 4.48242L21.5527 4.43359L21.4746 4.46777L21.3037 4.61914L21.2158 4.66309H21.1865L21.0693 4.65332L21.0205 4.67285L20.9473 4.73633L20.8105 4.74609L20.7666 4.77539L20.6982 4.91211L20.625 4.99023L20.5859 4.99512L20.5371 4.98047L20.5029 4.98535L20.4883 5.07324L20.459 5.1123L20.3613 5.1416L20.293 5.20508L20.2246 5.23437H20.1172L20.0342 5.2832L19.8682 5.29785L19.8047 5.36133L19.7852 5.37598L19.7559 5.39551L19.707 5.4248L19.6924 5.43457L19.6289 5.41992L19.5557 5.44922L19.5264 5.40039L19.4775 5.43457H19.4092L19.3262 5.40039L19.2627 5.37109L19.2139 5.38086L19.1992 5.45898V5.46875L19.1504 5.53223L19.0576 5.58594L19.0479 5.60547L18.9453 5.7373L18.75 5.94727L18.5791 6.03027L18.4082 6.0791L18.2861 6.17676L17.9688 6.33789L17.4707 6.58691L17.3682 6.62109L17.2217 6.64062L16.9629 6.73828L16.7285 6.80664L16.7139 6.81152L16.6699 6.82617L16.3477 6.92383L16.1963 6.90918L16.1035 6.94336L15.8691 6.91406L15.708 6.91895L15.6104 6.93848L15.415 7.03613L15.0879 7.1875L14.9805 7.28516L14.8096 7.37793L14.6143 7.43652V7.35352L14.5459 7.37305L14.4971 7.3877L14.3359 7.41211H14.248L14.1943 7.39746H14.1846L13.8574 7.50977L13.4961 7.54395L13.3154 7.60254H13.1787L13.0908 7.62207L12.9248 7.64648L12.8662 7.62695H12.8516L12.3633 7.64648L12.1387 7.62207L12.0312 7.64648L11.8555 7.58301L11.5918 7.55371L11.5332 7.53418L11.3965 7.49512L11.333 7.5293L11.2842 7.53418L11.1768 7.49512H11.1328L11.0449 7.5293L10.9912 7.51465L10.9424 7.47559L10.8252 7.46094L10.7568 7.39746L10.3662 7.45117L10.2588 7.42188L9.90234 7.31445L9.84375 7.31934L9.77539 7.36816L9.66797 7.41211L9.5752 7.43652H9.44824L9.30176 7.40234L9.15527 7.3291L9.09668 7.31445L8.97461 7.3291H8.93555L8.71094 7.20703L8.41797 7.02637L8.21777 6.92871L8.13965 6.91895L8.12988 6.95312L8.16895 7.07031L8.18359 7.1875L8.17871 7.29004V7.3584L8.19336 7.41699L8.2666 7.49512L8.2959 7.57812L8.32031 7.79785V8.02246L8.28125 8.37891L8.27148 8.42773L8.22754 8.61816L8.19336 8.78418L8.04688 9.23828L8.00293 9.29199L7.90527 9.36035L7.67578 9.5166L7.50977 9.61426L7.46094 9.63379L7.32422 9.64355L7.24121 9.63867L7.13379 9.58008L7.03613 9.55566L6.89941 9.45801L6.74805 9.42871L6.58203 9.33105L6.54297 9.28223L6.4502 9.27246L6.32813 9.2334L6.2793 9.22363L6.25 9.21387L6.09375 9.20898L5.94727 9.14062L5.86914 9.12109L5.76172 9.11621L5.64941 9.16504L5.5957 9.19434L5.52246 9.16504H5.47363L5.41016 9.25781L5.40527 9.27246L5.36621 9.29199H5.27344L5.23437 9.30664L5.17578 9.33105L5.12695 9.35547L5.10254 9.36523H5.08301L5.05859 9.375H5.02441L4.96582 9.3457L4.93652 9.32617L4.88281 9.31641L4.85352 9.33594V9.43359L4.82422 9.4873L4.73633 9.57031L4.65332 9.64355L4.59473 9.73145L4.44336 10.0781L4.3457 10.2246L4.31641 10.2539L4.21875 10.3662L4.12598 10.4346L3.9209 10.5908L3.72559 10.6641L3.55957 10.6982H3.48145L3.3252 10.6787L3.18848 10.6348L3.03711 10.5371L2.86621 10.4053L2.62695 10.166L2.59277 10.1465H2.58789L2.51465 10.0977H2.45605L2.43652 10.1318L2.42187 10.1807L2.41211 10.2295L2.3877 10.498V10.5127L2.40234 10.6201L2.58789 10.8789L2.6416 11.0156L2.65137 11.0303L2.69043 11.0937L2.71973 11.1426L2.7832 11.3281L2.73926 11.4355L2.76367 11.5039L2.70508 11.5479L2.69531 11.6064L2.86133 11.8164L2.89551 11.9043L2.85645 12.0312L2.79297 12.0996L2.77344 12.1191L2.7832 12.1729L2.86133 12.2412L2.98828 12.3584L3.05664 12.5293L3.10547 12.5732L3.16895 12.5586L3.20312 12.5879H3.25195L3.30078 12.6367L3.33496 12.6514L3.38867 12.6758L3.42773 12.7295L3.4375 12.8906L3.51562 13.0957V13.2227L3.56445 13.3008L3.5791 13.3643L3.55469 13.5352L3.61328 13.5889L3.67676 13.5742L3.7207 13.584L3.78906 13.6377L3.87207 13.7646L3.9502 13.7549L3.99902 13.7793L4.24316 13.999L4.30176 14.0283L4.35059 14.0479L4.39941 14.0967L4.47266 14.0479H4.48242L4.56543 14.0381L4.60449 14.0625L4.67285 14.1113H4.77051L4.96582 14.1748L5.05859 14.1943L5.23437 14.3066L5.3125 14.3555L5.35645 14.3896L5.41504 14.4385L5.53223 14.4873L5.62988 14.5117L5.68848 14.5264L5.73242 14.541L5.95215 14.6289L6.06934 14.6533L6.18164 14.6973L6.25977 14.7266H6.31836L6.40137 14.6533H6.48438L6.55273 14.668L6.61621 14.6582L6.71875 14.5947L6.74316 14.5605L6.81641 14.5264L7.06055 14.4971L7.13379 14.5215L7.31934 14.4385L7.44629 14.4727L7.55371 14.4336L7.79785 14.4873L7.86133 14.5361L7.92969 14.6143H8.01758L7.98828 14.6729L8.09082 14.7852L8.18848 14.9316V14.9463L8.26172 15.1465L8.31055 15.2197L8.34961 15.3174V15.3857L8.2959 15.4297L8.28613 15.4541V15.4639L8.2959 15.4883L8.31543 15.4785L8.35449 15.4541L8.40332 15.4492L8.49121 15.459H8.54492L8.63769 15.4199L8.69629 15.3906L8.79395 15.4297H8.89648L8.94043 15.4492L9.06738 15.5029L9.13086 15.5127L9.15527 15.4932L9.16992 15.459L9.16016 15.4199L9.11133 15.3613L9.00879 15.2393L8.95996 15.1758L8.93066 15.0879L8.9209 14.9707L8.91113 14.8926L8.92578 14.79L8.95508 14.751L8.97461 14.668L8.97949 14.6484L9.03809 14.5703L9.19434 14.4727L9.36035 14.3262L9.49219 14.2334L9.62891 14.1748V14.1602L9.64844 14.165L9.99023 14.0479H10L10.1514 14.0186L11.1914 14.0918L11.2305 14.082L11.2646 13.9844L11.2842 13.9648L11.2939 13.9551L11.4111 13.9062L11.46 13.8965L11.6064 13.9355L11.6699 13.9502L11.7676 13.8965H11.8359L11.9824 13.8184H12.0703L12.0996 13.8086L12.2705 13.6816L12.4365 13.6328L12.4854 13.6133L12.4951 13.6035L12.666 13.5156L12.7734 13.4326L12.8662 13.3838L12.9639 13.3594L13.2324 13.3398L13.2861 13.252L13.3984 13.2324L13.4717 13.1543L13.5498 13.125L13.6035 13.042L13.6523 12.9736L13.7207 12.9346L13.9307 12.9248L14.1846 12.9541L14.2188 12.9346L14.2725 12.7295L14.3311 12.6904L14.4922 12.4609V12.3047L14.5215 12.2021L14.502 12.0166L14.5264 11.8311L14.624 11.5967L14.7119 11.499L14.8535 11.4063L14.9268 11.377L15.0244 11.3574H15.0439L15.0684 11.3525L15.4199 11.3477H15.5469L15.6641 11.3428L15.957 11.3916L15.9814 11.4014L16.0791 11.4307L16.1963 11.5234L16.3184 11.6406L16.3428 11.665L16.4209 11.6943L16.4453 11.709L16.5137 11.6943L16.6064 11.6455L16.6748 11.5869L16.7725 11.5381V11.5332L16.8262 11.4502L16.8506 11.416L17.0361 11.3428L17.2559 11.333L17.2803 11.3184L17.2949 11.3135L17.3486 11.2451H17.4023L17.5342 11.2939L17.627 11.2744L17.7002 11.3037L17.7539 11.2939L17.8613 11.2842L17.9785 11.3623L18.0469 11.3721L18.2812 11.5088H18.3008L18.3105 11.5137L18.3398 11.5088L18.3838 11.4941L18.3936 11.499L18.418 11.5381L18.457 11.543L18.501 11.4844L18.4814 11.46L18.4766 11.4502L18.3936 11.4307L18.3154 11.3037L18.3887 11.2256L18.2764 11.0889L18.2568 11.0645L18.252 11.0547L18.2129 10.9961L18.0176 10.6934L17.7539 10.4883L17.666 10.415L17.6318 10.3906L17.4951 10.249L17.3975 10.1221L17.3828 10.0928L17.3633 10.0439L17.3047 9.92188L17.207 9.83887L17.1191 9.75098V9.74609L16.9434 9.51172L16.9141 9.47266L16.875 9.44824H16.7871L16.7773 9.43848V9.43359L16.8164 9.38477L16.8652 9.375L16.8848 9.33105L16.7969 9.07715V9.06738L16.7871 8.98926L16.8604 8.61816L16.8701 8.56934L16.9922 8.3252L17.0703 8.26172L17.1484 8.10059L17.2217 7.99805L17.29 7.92969L17.2998 7.9248L17.4219 7.85156L17.5244 7.83691L17.6221 7.82227L17.793 7.87109H17.9883L18.0615 7.86133L18.1836 7.82227L18.2422 7.78809L18.2715 7.73926L18.3301 7.53418L18.3545 7.46582L18.3887 7.39746L18.6133 7.13867L18.7793 6.9873L19.1553 6.70898L19.3408 6.60156L19.4336 6.54297L20.2734 6.17188L20.4883 5.95215L20.6006 5.83496L20.8057 5.70313L21.04 5.60547L21.2402 5.44434L21.2842 5.39062L21.3428 5.20996L21.3867 5.2002L21.4307 5.10742L21.4404 5.08301L21.6064 4.96582L21.626 4.95605L22.2656 4.63867L22.3633 4.64844L22.4121 4.5752L22.5977 4.5459L22.627 4.53613L22.6758 4.5166L22.7148 4.44824V4.43359L22.7197 4.25781L22.7588 4.20898L22.7832 4.0918L22.8027 4.0625L22.8223 4.03809L22.876 3.99902L22.8662 3.97461V3.97949Z" fill="#D47600"/>
</svg>
