<svg width="25" height="25" viewBox="0 0 25 25" fill="none" xmlns="http://www.w3.org/2000/svg">
<path d="M0 0H25V25H0V0Z" fill="#CC0000"/>
<path d="M0.0195312 2.0752H24.9805V4.07715H0.0195312V2.0752ZM0.0195312 6.17676H24.9805V8.17871H0.0195312V6.17676ZM0.0195312 10.2832H24.9805V12.2852H0.0195312V10.2832Z" fill="white"/>
<path d="M0 0H12.5V14.585H0V0Z" fill="#000066"/>
<path d="M8.42308 4.23828L8.69652 6.10352L9.7512 4.54102L9.1848 6.33789L10.8108 5.39063L9.52171 6.7627L11.4016 6.61621L9.64378 7.29004L11.4016 7.97363L9.52171 7.82227L10.8108 9.18945L9.17992 8.25195L9.74632 10.0439L8.69163 8.48633L8.4182 10.3467L8.14476 8.49121L7.09495 10.0439L7.65648 8.25195L6.03538 9.19922L7.31956 7.82715L5.44456 7.97363L7.20238 7.29492L5.44456 6.61621L7.31956 6.76758L6.03538 5.39551L7.65648 6.34277L7.09984 4.54102L8.14964 6.10352L8.42308 4.23828ZM6.89964 4.31641C6.40378 4.096 5.86071 4.00298 5.31977 4.0458C4.77882 4.08862 4.25715 4.26593 3.80215 4.56161C3.34714 4.85729 2.97323 5.26197 2.71438 5.73889C2.45553 6.21581 2.31994 6.74985 2.31994 7.29248C2.31994 7.83512 2.45553 8.36916 2.71438 8.84607C2.97323 9.32299 3.34714 9.72767 3.80215 10.0234C4.25715 10.319 4.77882 10.4963 5.31977 10.5392C5.86071 10.582 6.40378 10.489 6.89964 10.2686C6.35236 10.661 5.70747 10.8949 5.03587 10.9446C4.36427 10.9943 3.69198 10.8578 3.0929 10.5502C2.49382 10.2426 1.99116 9.7758 1.64018 9.20106C1.28921 8.62631 1.10352 7.96592 1.10352 7.29248C1.10352 6.61905 1.28921 5.95865 1.64018 5.38391C1.99116 4.80916 2.49382 4.34232 3.0929 4.03472C3.69198 3.72712 4.36427 3.59066 5.03587 3.64036C5.70747 3.69005 6.35236 3.92398 6.89964 4.31641Z" fill="#FFCC00"/>
<path d="M0.0195312 14.3848H24.9805V16.3867H0.0195312V14.3848ZM0.0195312 18.4619H24.9805V20.4639H0.0195312V18.4619ZM0 22.998H24.9609V25H0V22.998Z" fill="white"/>
</svg>
