<svg width="292" height="241" viewBox="0 0 292 241" fill="none" xmlns="http://www.w3.org/2000/svg">
<rect y="21" width="270" height="220" rx="20" fill="url(#paint0_linear_10426_26007)"/>
<path d="M235 19.0155L272.028 56.0128L272 94.0117L197 19.0155L235 19.0155Z" fill="#B68756"/>
<path d="M272 94.0117H270V92.0117L272 94.0117Z" fill="#005833"/>
<path d="M199 21.0117H197V19.0117L199 21.0117Z" fill="#005833"/>
<path d="M230.506 26.0534L227.987 28.5724L227.161 27.7465L231.404 23.5039L232.197 24.2966L231.506 24.9872L231.559 25.0396C231.881 24.9126 232.214 24.885 232.558 24.9568C232.905 25.0304 233.237 25.2266 233.556 25.5451C233.845 25.8342 234.037 26.1482 234.133 26.487C234.23 26.824 234.22 27.1711 234.102 27.5283C233.985 27.8856 233.751 28.2391 233.401 28.589L230.702 31.2876L229.876 30.4617L232.476 27.8626C232.783 27.555 232.943 27.2346 232.956 26.9013C232.971 26.5662 232.838 26.2587 232.558 25.9788C232.367 25.7873 232.155 25.6584 231.923 25.5921C231.693 25.5276 231.454 25.5322 231.208 25.6059C230.965 25.6795 230.731 25.8287 230.506 26.0534ZM233.475 34.2316C233.057 33.8136 232.786 33.3643 232.663 32.8837C232.543 32.4031 232.564 31.9178 232.726 31.428C232.892 30.9382 233.195 30.4732 233.635 30.0331C234.07 29.5986 234.534 29.2966 235.027 29.1272C235.523 28.9596 236.01 28.9292 236.488 29.036C236.969 29.1447 237.406 29.396 237.801 29.7901C238.04 30.0295 238.232 30.3011 238.378 30.6049C238.523 30.9087 238.601 31.2347 238.61 31.5827C238.619 31.9307 238.54 32.2917 238.372 32.6655C238.207 33.0374 237.931 33.4158 237.546 33.8007L237.254 34.0935L233.881 30.7209L234.5 30.1022L237.063 32.6655C237.28 32.4482 237.429 32.2116 237.508 31.9556C237.589 31.6978 237.598 31.44 237.535 31.1822C237.475 30.9262 237.337 30.6915 237.124 30.4779C236.892 30.2458 236.632 30.1004 236.345 30.0414C236.061 29.9825 235.781 29.9972 235.505 30.0856C235.233 30.174 234.99 30.3241 234.779 30.5359L234.295 31.0192C234.012 31.3028 233.82 31.5938 233.721 31.8921C233.623 32.1922 233.612 32.485 233.688 32.7704C233.765 33.054 233.924 33.3164 234.166 33.5576C234.322 33.7142 234.487 33.8348 234.66 33.9195C234.835 34.0023 235.014 34.0456 235.199 34.0493C235.383 34.053 235.566 34.0134 235.748 33.9305L236.389 34.8531C236.096 35.0206 235.782 35.11 235.447 35.121C235.116 35.1321 234.781 35.0639 234.442 34.9166C234.107 34.7693 233.784 34.541 233.475 34.2316ZM237.132 37.717L240.126 32.2258L240.979 33.0793L238.695 37.0264L238.736 37.0679L242.686 34.7863L243.54 35.6398L241.267 39.5704L241.308 39.6118L245.236 37.3358L246.089 38.1893L240.601 41.1862L239.758 40.3438L241.96 36.4188L241.896 36.3552L237.971 38.5567L237.132 37.717ZM251.016 40.2876L245.359 45.9445L244.533 45.1186L250.19 39.4618L251.016 40.2876ZM248.094 48.8505C247.696 48.4528 247.44 48.0145 247.326 47.5357C247.212 47.057 247.237 46.5717 247.401 46.0801C247.564 45.5884 247.866 45.1235 248.304 44.6852C248.744 44.2451 249.211 43.9422 249.704 43.7765C250.198 43.6107 250.684 43.585 251.163 43.6991C251.641 43.8133 252.08 44.0692 252.477 44.467C252.875 44.8647 253.131 45.303 253.245 45.7818C253.359 46.2605 253.334 46.7467 253.168 47.2402C253.002 47.7337 252.699 48.2005 252.259 48.6406C251.821 49.0788 251.356 49.3799 250.864 49.5438C250.373 49.7077 249.887 49.7325 249.409 49.6184C248.93 49.5042 248.492 49.2482 248.094 48.8505ZM248.79 48.16C249.048 48.4178 249.33 48.5632 249.635 48.5964C249.941 48.6295 250.247 48.5734 250.555 48.4279C250.864 48.2843 251.155 48.0762 251.428 47.8037C251.698 47.533 251.906 47.2429 252.049 46.9336C252.197 46.6242 252.255 46.3158 252.223 46.0083C252.192 45.7007 252.047 45.4181 251.79 45.1603C251.53 44.9006 251.246 44.7543 250.936 44.7211C250.629 44.6898 250.319 44.7469 250.008 44.8924C249.701 45.0378 249.411 45.2459 249.141 45.5166C248.868 45.7891 248.659 46.0792 248.514 46.3867C248.37 46.696 248.315 47.0036 248.348 47.3092C248.383 47.6167 248.53 47.9003 248.79 48.16ZM251.792 52.3773L254.786 46.8862L255.64 47.7397L253.355 51.6868L253.397 51.7282L257.347 49.4467L258.2 50.3002L255.927 54.2307L255.968 54.2721L259.896 51.9961L260.75 52.8496L255.261 55.8465L254.419 55.0041L256.62 51.0791L256.557 51.0156L252.632 53.217L251.792 52.3773ZM258.827 59.5833C258.409 59.1653 258.138 58.716 258.015 58.2354C257.895 57.7547 257.916 57.2695 258.078 56.7797C258.244 56.2899 258.547 55.8249 258.987 55.3848C259.421 54.9503 259.885 54.6483 260.379 54.4788C260.874 54.3113 261.361 54.2809 261.84 54.3877C262.321 54.4963 262.758 54.7477 263.152 55.1418C263.392 55.3811 263.584 55.6528 263.729 55.9566C263.875 56.2604 263.952 56.5864 263.961 56.9344C263.971 57.2824 263.892 57.6433 263.724 58.0171C263.558 58.3891 263.283 58.7675 262.898 59.1524L262.605 59.4452L259.233 56.0726L259.851 55.4539L262.415 58.0171C262.632 57.7999 262.78 57.5632 262.859 57.3073C262.94 57.0495 262.95 56.7917 262.887 56.5339C262.826 56.2779 262.689 56.0431 262.475 55.8295C262.243 55.5975 261.984 55.452 261.697 55.3931C261.413 55.3342 261.133 55.3489 260.857 55.4373C260.584 55.5257 260.342 55.6758 260.13 55.8875L259.647 56.3709C259.363 56.6545 259.172 56.9454 259.073 57.2437C258.975 57.5439 258.964 57.8367 259.039 58.1221C259.117 58.4057 259.276 58.6681 259.517 58.9093C259.674 59.0658 259.839 59.1865 260.012 59.2712C260.187 59.354 260.366 59.3973 260.55 59.401C260.734 59.4047 260.918 59.3651 261.1 59.2822L261.741 60.2048C261.448 60.3723 261.134 60.4616 260.799 60.4727C260.467 60.4837 260.132 60.4156 259.793 60.2683C259.458 60.121 259.136 59.8926 258.827 59.5833ZM261.571 62.1565L265.814 57.9138L266.612 58.7121L265.938 59.386L265.982 59.4302C266.288 59.2792 266.604 59.236 266.93 59.3004C267.259 59.3649 267.548 59.5214 267.797 59.77C267.849 59.8215 267.907 59.8841 267.974 59.9578C268.042 60.0333 268.093 60.0941 268.128 60.1401L267.338 60.9301C267.315 60.8877 267.266 60.8187 267.192 60.7229C267.12 60.6253 267.042 60.5342 266.957 60.4495C266.762 60.2543 266.547 60.1217 266.311 60.0517C266.079 59.9817 265.846 59.9753 265.612 60.0324C265.38 60.0876 265.172 60.2073 264.988 60.3915L262.397 62.9823L261.571 62.1565ZM218.601 33.5001C218.191 33.0894 217.93 32.6429 217.82 32.1604C217.713 31.678 217.745 31.1928 217.916 30.7048C218.088 30.2168 218.386 29.7601 218.811 29.3348C219.242 28.9039 219.703 28.6046 220.195 28.4371C220.689 28.2677 221.176 28.2373 221.656 28.3459C222.137 28.4546 222.577 28.7087 222.977 29.1083C223.299 29.4305 223.526 29.7776 223.659 30.1496C223.793 30.5197 223.831 30.8889 223.772 31.2572C223.715 31.6273 223.558 31.9698 223.302 32.2847L222.499 31.4809C222.653 31.2379 222.723 30.9654 222.709 30.6634C222.696 30.3632 222.558 30.0815 222.294 29.8181C222.064 29.588 221.802 29.4471 221.507 29.3955C221.216 29.344 220.911 29.3817 220.593 29.5088C220.276 29.634 219.967 29.8476 219.665 30.1496C219.355 30.459 219.135 30.7729 219.005 31.0915C218.874 31.4101 218.832 31.7167 218.88 32.0113C218.93 32.3077 219.072 32.5729 219.306 32.8068C219.462 32.9633 219.633 33.0765 219.817 33.1465C220.005 33.2165 220.196 33.2404 220.391 33.2183C220.588 33.1981 220.781 33.129 220.968 33.0112L221.772 33.815C221.468 34.0599 221.134 34.2155 220.77 34.2818C220.405 34.348 220.036 34.3177 219.662 34.1906C219.29 34.0654 218.936 33.8352 218.601 33.5001ZM222.937 37.8355C222.539 37.4377 222.283 36.9995 222.169 36.5207C222.055 36.0419 222.08 35.5567 222.243 35.0651C222.407 34.5734 222.708 34.1084 223.147 33.6702C223.587 33.2301 224.054 32.9272 224.547 32.7614C225.041 32.5957 225.527 32.5699 226.005 32.6841C226.484 32.7983 226.923 33.0542 227.32 33.452C227.718 33.8497 227.974 34.288 228.088 34.7668C228.202 35.2455 228.177 35.7317 228.011 36.2252C227.845 36.7187 227.542 37.1855 227.102 37.6256C226.664 38.0638 226.199 38.3649 225.707 38.5288C225.216 38.6927 224.73 38.7175 224.252 38.6034C223.773 38.4892 223.335 38.2332 222.937 37.8355ZM223.633 37.145C223.891 37.4028 224.172 37.5482 224.478 37.5814C224.784 37.6145 225.09 37.5584 225.398 37.4129C225.707 37.2693 225.998 37.0612 226.271 36.7886C226.541 36.518 226.749 36.2279 226.892 35.9186C227.039 35.6092 227.097 35.3008 227.066 34.9933C227.035 34.6857 226.89 34.4031 226.632 34.1453C226.373 33.8856 226.088 33.7392 225.779 33.7061C225.471 33.6748 225.162 33.7319 224.851 33.8774C224.543 34.0228 224.254 34.2309 223.984 34.5016C223.711 34.7741 223.502 35.0641 223.357 35.3717C223.213 35.681 223.158 35.9885 223.191 36.2942C223.226 36.6017 223.373 36.8853 223.633 37.145ZM225.844 40.5716L230.087 36.329L230.88 37.1217L230.189 37.8123L230.241 37.8647C230.564 37.7193 230.891 37.6815 231.222 37.7515C231.555 37.8196 231.862 37.9936 232.142 38.2735C232.425 38.5571 232.597 38.861 232.656 39.185C232.716 39.511 232.677 39.836 232.537 40.1601L232.581 40.2043C232.909 40.0791 233.25 40.0597 233.606 40.1463C233.963 40.231 234.294 40.4262 234.6 40.7318C234.985 41.1167 235.178 41.5513 235.18 42.0356C235.184 42.5217 234.943 43.0078 234.456 43.494L231.611 46.339L230.786 45.5131L233.553 42.7454C233.841 42.4582 233.97 42.1718 233.943 41.8864C233.915 41.601 233.793 41.3496 233.575 41.1323C233.307 40.8635 233.015 40.7374 232.7 40.7539C232.387 40.7687 232.101 40.9049 231.844 41.1627L229.139 43.8669L228.316 43.0437L231.136 40.2236C231.367 39.9934 231.48 39.7366 231.476 39.453C231.472 39.1694 231.356 38.9125 231.125 38.6823C230.969 38.5258 230.783 38.4227 230.567 38.373C230.356 38.3233 230.137 38.3306 229.91 38.3951C229.685 38.4614 229.477 38.5903 229.286 38.7818L226.67 41.3975L225.844 40.5716ZM232.641 47.3681L236.883 43.1255L237.676 43.9182L236.985 44.6087L237.038 44.6612C237.36 44.5158 237.687 44.478 238.019 44.548C238.352 44.6161 238.658 44.7901 238.938 45.07C239.222 45.3536 239.393 45.6574 239.452 45.9815C239.513 46.3075 239.473 46.6325 239.333 46.9566L239.377 47.0008C239.705 46.8755 240.047 46.8562 240.402 46.9428C240.759 47.0275 241.091 47.2226 241.397 47.5283C241.781 47.9132 241.975 48.3478 241.977 48.8321C241.98 49.3182 241.739 49.8043 241.253 50.2905L238.408 53.1355L237.582 52.3096L240.35 49.5419C240.637 49.2547 240.767 48.9683 240.739 48.6829C240.712 48.3975 240.589 48.1461 240.372 47.9288C240.103 47.66 239.811 47.5338 239.496 47.5504C239.183 47.5652 238.898 47.7014 238.64 47.9592L235.936 50.6633L235.113 49.8402L237.933 47.0201C238.163 46.7899 238.276 46.533 238.273 46.2495C238.269 45.9659 238.152 45.709 237.922 45.4788C237.765 45.3223 237.579 45.2192 237.364 45.1695C237.152 45.1197 236.933 45.1271 236.707 45.1916C236.482 45.2578 236.274 45.3867 236.082 45.5783L233.467 48.194L232.641 47.3681ZM239.437 54.1646L243.68 49.922L244.506 50.7478L240.263 54.9905L239.437 54.1646ZM244.751 49.6844C244.608 49.5408 244.532 49.3695 244.525 49.1707C244.521 48.9718 244.587 48.8051 244.721 48.6707C244.857 48.5344 245.024 48.4691 245.221 48.4746C245.422 48.4801 245.594 48.5547 245.738 48.6983C245.881 48.842 245.955 49.0132 245.959 49.2121C245.966 49.411 245.901 49.5785 245.765 49.7148C245.631 49.8492 245.463 49.9137 245.262 49.9082C245.065 49.9026 244.895 49.828 244.751 49.6844ZM247.682 55.9961L246.801 55.3802C246.866 55.2531 246.907 55.1123 246.926 54.9576C246.946 54.8047 246.926 54.6436 246.868 54.4742C246.809 54.3048 246.694 54.1345 246.522 53.9632C246.288 53.7294 246.041 53.5866 245.779 53.5351C245.52 53.4817 245.308 53.5369 245.144 53.7008C245.002 53.8426 244.94 54.0093 244.959 54.2008C244.977 54.3923 245.076 54.6326 245.254 54.9217L245.774 55.7503C246.074 56.2309 246.226 56.6609 246.229 57.0402C246.233 57.4196 246.085 57.7593 245.785 58.0595C245.531 58.3136 245.23 58.4664 244.884 58.518C244.542 58.5695 244.184 58.5207 243.81 58.3716C243.438 58.2243 243.081 57.9794 242.738 57.6369C242.263 57.1618 241.977 56.6729 241.879 56.1702C241.783 55.6656 241.889 55.1914 242.197 54.7477L243.117 55.4244C242.958 55.6822 242.903 55.9418 242.951 56.2033C243.001 56.4629 243.15 56.7171 243.398 56.9657C243.669 57.2363 243.941 57.3966 244.216 57.4463C244.492 57.4941 244.712 57.4361 244.876 57.2723C245.009 57.1397 245.07 56.9785 245.061 56.7889C245.054 56.6011 244.972 56.3828 244.815 56.1343L244.255 55.2587C243.949 54.7725 243.8 54.3361 243.807 53.9494C243.816 53.5645 243.972 53.2211 244.274 52.9191C244.524 52.6687 244.813 52.5195 245.141 52.4717C245.469 52.4238 245.809 52.4707 246.16 52.6125C246.514 52.7525 246.85 52.9817 247.169 53.3003C247.627 53.7588 247.889 54.2192 247.953 54.6814C248.019 55.1417 247.929 55.58 247.682 55.9961ZM251.775 60.0885L250.894 59.4725C250.958 59.3455 250.999 59.2046 251.018 59.0499C251.038 58.8971 251.019 58.736 250.96 58.5666C250.901 58.3972 250.786 58.2268 250.615 58.0556C250.381 57.8217 250.133 57.679 249.872 57.6274C249.612 57.574 249.4 57.6293 249.236 57.7932C249.095 57.935 249.033 58.1016 249.051 58.2931C249.07 58.4846 249.168 58.7249 249.347 59.014L249.866 59.8427C250.166 60.3233 250.318 60.7533 250.322 61.1326C250.325 61.5119 250.177 61.8517 249.877 62.1518C249.623 62.4059 249.323 62.5588 248.977 62.6103C248.634 62.6619 248.276 62.6131 247.902 62.4639C247.53 62.3166 247.173 62.0717 246.83 61.7292C246.355 61.2541 246.069 60.7652 245.971 60.2625C245.876 59.758 245.982 59.2838 246.289 58.84L247.209 59.5167C247.051 59.7745 246.995 60.0342 247.043 60.2957C247.093 60.5553 247.242 60.8094 247.491 61.058C247.761 61.3287 248.034 61.4889 248.308 61.5386C248.584 61.5865 248.804 61.5285 248.968 61.3646C249.101 61.232 249.163 61.0709 249.153 60.8812C249.146 60.6934 249.064 60.4752 248.908 60.2266L248.347 59.351C248.041 58.8649 247.892 58.4285 247.899 58.0418C247.909 57.6569 248.064 57.3135 248.366 57.0115C248.617 56.761 248.906 56.6119 249.234 56.564C249.561 56.5161 249.901 56.5631 250.253 56.7049C250.606 56.8448 250.942 57.0741 251.261 57.3927C251.719 57.8512 251.981 58.3115 252.045 58.7737C252.112 59.2341 252.021 59.6723 251.775 60.0885ZM249.481 64.2085L253.724 59.9658L254.55 60.7917L250.307 65.0344L249.481 64.2085ZM254.795 59.7283C254.652 59.5847 254.576 59.4134 254.569 59.2145C254.565 59.0157 254.631 58.849 254.765 58.7146C254.901 58.5783 255.068 58.5129 255.265 58.5185C255.466 58.524 255.638 58.5986 255.781 58.7422C255.925 58.8858 255.999 59.0571 256.002 59.256C256.01 59.4548 255.945 59.6224 255.809 59.7587C255.675 59.8931 255.507 59.9575 255.306 59.952C255.109 59.9465 254.939 59.8719 254.795 59.7283ZM253.042 67.9404C252.644 67.5426 252.388 67.1044 252.274 66.6256C252.16 66.1468 252.184 65.6616 252.348 65.1699C252.512 64.6783 252.813 64.2133 253.252 63.7751C253.692 63.335 254.158 63.0321 254.652 62.8663C255.145 62.7006 255.632 62.6748 256.11 62.789C256.589 62.9032 257.027 63.1591 257.425 63.5569C257.823 63.9546 258.079 64.3929 258.193 64.8716C258.307 65.3504 258.281 65.8365 258.116 66.33C257.95 66.8235 257.647 67.2903 257.207 67.7304C256.769 68.1687 256.304 68.4698 255.812 68.6337C255.32 68.7975 254.835 68.8224 254.356 68.7082C253.878 68.5941 253.439 68.3381 253.042 67.9404ZM253.738 67.2498C253.995 67.5076 254.277 67.6531 254.583 67.6863C254.889 67.7194 255.195 67.6632 255.503 67.5178C255.812 67.3741 256.103 67.166 256.376 66.8935C256.646 66.6228 256.853 66.3328 256.997 66.0234C257.144 65.7141 257.202 65.4056 257.171 65.0981C257.14 64.7906 256.995 64.508 256.737 64.2502C256.478 63.9905 256.193 63.8441 255.884 63.811C255.576 63.7797 255.267 63.8368 254.956 63.9822C254.648 64.1277 254.359 64.3358 254.088 64.6065C253.816 64.879 253.607 65.169 253.461 65.4765C253.318 65.7859 253.263 66.0934 253.296 66.3991C253.331 66.7066 253.478 66.9902 253.738 67.2498ZM259.294 68.9833L256.775 71.5024L255.949 70.6765L260.192 66.4339L260.984 67.2266L260.294 67.9171L260.346 67.9696C260.669 67.8426 261.002 67.8149 261.346 67.8868C261.692 67.9604 262.025 68.1565 262.343 68.4751C262.632 68.7642 262.825 69.0782 262.921 69.417C263.018 69.754 263.008 70.1011 262.89 70.4583C262.772 70.8155 262.539 71.1691 262.189 71.519L259.49 74.2176L258.664 73.3917L261.263 70.7925C261.571 70.485 261.731 70.1646 261.744 69.8313C261.759 69.4962 261.626 69.1886 261.346 68.9087C261.155 68.7172 260.943 68.5883 260.711 68.522C260.481 68.4576 260.242 68.4622 259.996 68.5359C259.752 68.6095 259.519 68.7587 259.294 68.9833Z" fill="white"/>
<defs>
<linearGradient id="paint0_linear_10426_26007" x1="270" y1="21" x2="2.86985e-07" y2="241" gradientUnits="userSpaceOnUse">
<stop stop-color="#F1F1F1"/>
<stop offset="0.230833" stop-color="#F1F1F1" stop-opacity="0.82"/>
<stop offset="0.329843" stop-color="#F1F1F1" stop-opacity="0"/>
</linearGradient>
</defs>
</svg>
