<svg width="150" height="150" viewBox="0 0 150 150" fill="none" xmlns="http://www.w3.org/2000/svg">
<g clip-path="url(#clip0_12470_32271)">
<path d="M150 0H0V150H150V0Z" fill="white"/>
<path d="M13.9009 9.375H9.375V13.9009H13.9009V9.375Z" fill="black"/>
<path d="M18.4267 9.375H13.9009V13.9009H18.4267V9.375Z" fill="black"/>
<path d="M22.9526 9.375H18.4267V13.9009H22.9526V9.375Z" fill="black"/>
<path d="M27.4784 9.375H22.9526V13.9009H27.4784V9.375Z" fill="black"/>
<path d="M32.0043 9.375H27.4784V13.9009H32.0043V9.375Z" fill="black"/>
<path d="M36.5302 9.375H32.0043V13.9009H36.5302V9.375Z" fill="black"/>
<path d="M41.056 9.375H36.5302V13.9009H41.056V9.375Z" fill="black"/>
<path d="M50.1078 9.375H45.5819V13.9009H50.1078V9.375Z" fill="black"/>
<path d="M54.6336 9.375H50.1078V13.9009H54.6336V9.375Z" fill="black"/>
<path d="M59.1595 9.375H54.6336V13.9009H59.1595V9.375Z" fill="black"/>
<path d="M63.6853 9.375H59.1595V13.9009H63.6853V9.375Z" fill="black"/>
<path d="M72.7371 9.375H68.2112V13.9009H72.7371V9.375Z" fill="black"/>
<path d="M90.8405 9.375H86.3147V13.9009H90.8405V9.375Z" fill="black"/>
<path d="M95.3664 9.375H90.8405V13.9009H95.3664V9.375Z" fill="black"/>
<path d="M99.8923 9.375H95.3664V13.9009H99.8923V9.375Z" fill="black"/>
<path d="M104.418 9.375H99.8923V13.9009H104.418V9.375Z" fill="black"/>
<path d="M113.47 9.375H108.944V13.9009H113.47V9.375Z" fill="black"/>
<path d="M117.996 9.375H113.47V13.9009H117.996V9.375Z" fill="black"/>
<path d="M122.522 9.375H117.996V13.9009H122.522V9.375Z" fill="black"/>
<path d="M127.047 9.375H122.522V13.9009H127.047V9.375Z" fill="black"/>
<path d="M131.573 9.375H127.047V13.9009H131.573V9.375Z" fill="black"/>
<path d="M136.099 9.375H131.573V13.9009H136.099V9.375Z" fill="black"/>
<path d="M140.625 9.375H136.099V13.9009H140.625V9.375Z" fill="black"/>
<path d="M13.9009 13.9009H9.375V18.4267H13.9009V13.9009Z" fill="black"/>
<path d="M41.056 13.9009H36.5302V18.4267H41.056V13.9009Z" fill="black"/>
<path d="M81.7888 13.9009H77.2629V18.4267H81.7888V13.9009Z" fill="black"/>
<path d="M86.3147 13.9009H81.7888V18.4267H86.3147V13.9009Z" fill="black"/>
<path d="M95.3664 13.9009H90.8405V18.4267H95.3664V13.9009Z" fill="black"/>
<path d="M99.8923 13.9009H95.3664V18.4267H99.8923V13.9009Z" fill="black"/>
<path d="M104.418 13.9009H99.8923V18.4267H104.418V13.9009Z" fill="black"/>
<path d="M113.47 13.9009H108.944V18.4267H113.47V13.9009Z" fill="black"/>
<path d="M140.625 13.9009H136.099V18.4267H140.625V13.9009Z" fill="black"/>
<path d="M13.9009 18.4267H9.375V22.9526H13.9009V18.4267Z" fill="black"/>
<path d="M22.9526 18.4267H18.4267V22.9526H22.9526V18.4267Z" fill="black"/>
<path d="M27.4784 18.4267H22.9526V22.9526H27.4784V18.4267Z" fill="black"/>
<path d="M32.0043 18.4267H27.4784V22.9526H32.0043V18.4267Z" fill="black"/>
<path d="M41.056 18.4267H36.5302V22.9526H41.056V18.4267Z" fill="black"/>
<path d="M72.7371 18.4267H68.2112V22.9526H72.7371V18.4267Z" fill="black"/>
<path d="M77.2629 18.4267H72.7371V22.9526H77.2629V18.4267Z" fill="black"/>
<path d="M81.7888 18.4267H77.2629V22.9526H81.7888V18.4267Z" fill="black"/>
<path d="M99.8923 18.4267H95.3664V22.9526H99.8923V18.4267Z" fill="black"/>
<path d="M113.47 18.4267H108.944V22.9526H113.47V18.4267Z" fill="black"/>
<path d="M122.522 18.4267H117.996V22.9526H122.522V18.4267Z" fill="black"/>
<path d="M127.047 18.4267H122.522V22.9526H127.047V18.4267Z" fill="black"/>
<path d="M131.573 18.4267H127.047V22.9526H131.573V18.4267Z" fill="black"/>
<path d="M140.625 18.4267H136.099V22.9526H140.625V18.4267Z" fill="black"/>
<path d="M13.9009 22.9526H9.375V27.4784H13.9009V22.9526Z" fill="black"/>
<path d="M22.9526 22.9526H18.4267V27.4784H22.9526V22.9526Z" fill="black"/>
<path d="M27.4784 22.9526H22.9526V27.4784H27.4784V22.9526Z" fill="black"/>
<path d="M32.0043 22.9526H27.4784V27.4784H32.0043V22.9526Z" fill="black"/>
<path d="M41.056 22.9526H36.5302V27.4784H41.056V22.9526Z" fill="black"/>
<path d="M50.1078 22.9526H45.5819V27.4784H50.1078V22.9526Z" fill="black"/>
<path d="M59.1595 22.9526H54.6336V27.4784H59.1595V22.9526Z" fill="black"/>
<path d="M63.6853 22.9526H59.1595V27.4784H63.6853V22.9526Z" fill="black"/>
<path d="M68.2112 22.9526H63.6853V27.4784H68.2112V22.9526Z" fill="black"/>
<path d="M72.7371 22.9526H68.2112V27.4784H72.7371V22.9526Z" fill="black"/>
<path d="M77.2629 22.9526H72.7371V27.4784H77.2629V22.9526Z" fill="black"/>
<path d="M86.3147 22.9526H81.7888V27.4784H86.3147V22.9526Z" fill="black"/>
<path d="M90.8405 22.9526H86.3147V27.4784H90.8405V22.9526Z" fill="black"/>
<path d="M99.8923 22.9526H95.3664V27.4784H99.8923V22.9526Z" fill="black"/>
<path d="M113.47 22.9526H108.944V27.4784H113.47V22.9526Z" fill="black"/>
<path d="M122.522 22.9526H117.996V27.4784H122.522V22.9526Z" fill="black"/>
<path d="M127.047 22.9526H122.522V27.4784H127.047V22.9526Z" fill="black"/>
<path d="M131.573 22.9526H127.047V27.4784H131.573V22.9526Z" fill="black"/>
<path d="M140.625 22.9526H136.099V27.4784H140.625V22.9526Z" fill="black"/>
<path d="M13.9009 27.4784H9.375V32.0043H13.9009V27.4784Z" fill="black"/>
<path d="M22.9526 27.4784H18.4267V32.0043H22.9526V27.4784Z" fill="black"/>
<path d="M27.4784 27.4784H22.9526V32.0043H27.4784V27.4784Z" fill="black"/>
<path d="M32.0043 27.4784H27.4784V32.0043H32.0043V27.4784Z" fill="black"/>
<path d="M41.056 27.4784H36.5302V32.0043H41.056V27.4784Z" fill="black"/>
<path d="M50.1078 27.4784H45.5819V32.0043H50.1078V27.4784Z" fill="black"/>
<path d="M54.6336 27.4784H50.1078V32.0043H54.6336V27.4784Z" fill="black"/>
<path d="M59.1595 27.4784H54.6336V32.0043H59.1595V27.4784Z" fill="black"/>
<path d="M72.7371 27.4784H68.2112V32.0043H72.7371V27.4784Z" fill="black"/>
<path d="M104.418 27.4784H99.8923V32.0043H104.418V27.4784Z" fill="black"/>
<path d="M113.47 27.4784H108.944V32.0043H113.47V27.4784Z" fill="black"/>
<path d="M122.522 27.4784H117.996V32.0043H122.522V27.4784Z" fill="black"/>
<path d="M127.047 27.4784H122.522V32.0043H127.047V27.4784Z" fill="black"/>
<path d="M131.573 27.4784H127.047V32.0043H131.573V27.4784Z" fill="black"/>
<path d="M140.625 27.4784H136.099V32.0043H140.625V27.4784Z" fill="black"/>
<path d="M13.9009 32.0043H9.375V36.5302H13.9009V32.0043Z" fill="black"/>
<path d="M41.056 32.0043H36.5302V36.5302H41.056V32.0043Z" fill="black"/>
<path d="M50.1078 32.0043H45.5819V36.5302H50.1078V32.0043Z" fill="black"/>
<path d="M54.6336 32.0043H50.1078V36.5302H54.6336V32.0043Z" fill="black"/>
<path d="M63.6853 32.0043H59.1595V36.5302H63.6853V32.0043Z" fill="black"/>
<path d="M72.7371 32.0043H68.2112V36.5302H72.7371V32.0043Z" fill="black"/>
<path d="M86.3147 32.0043H81.7888V36.5302H86.3147V32.0043Z" fill="black"/>
<path d="M95.3664 32.0043H90.8405V36.5302H95.3664V32.0043Z" fill="black"/>
<path d="M104.418 32.0043H99.8923V36.5302H104.418V32.0043Z" fill="black"/>
<path d="M113.47 32.0043H108.944V36.5302H113.47V32.0043Z" fill="black"/>
<path d="M140.625 32.0043H136.099V36.5302H140.625V32.0043Z" fill="black"/>
<path d="M13.9009 36.5302H9.375V41.056H13.9009V36.5302Z" fill="black"/>
<path d="M18.4267 36.5302H13.9009V41.056H18.4267V36.5302Z" fill="black"/>
<path d="M22.9526 36.5302H18.4267V41.056H22.9526V36.5302Z" fill="black"/>
<path d="M27.4784 36.5302H22.9526V41.056H27.4784V36.5302Z" fill="black"/>
<path d="M32.0043 36.5302H27.4784V41.056H32.0043V36.5302Z" fill="black"/>
<path d="M36.5302 36.5302H32.0043V41.056H36.5302V36.5302Z" fill="black"/>
<path d="M41.056 36.5302H36.5302V41.056H41.056V36.5302Z" fill="black"/>
<path d="M50.1078 36.5302H45.5819V41.056H50.1078V36.5302Z" fill="black"/>
<path d="M59.1595 36.5302H54.6336V41.056H59.1595V36.5302Z" fill="black"/>
<path d="M68.2112 36.5302H63.6853V41.056H68.2112V36.5302Z" fill="black"/>
<path d="M77.2629 36.5302H72.7371V41.056H77.2629V36.5302Z" fill="black"/>
<path d="M86.3147 36.5302H81.7888V41.056H86.3147V36.5302Z" fill="black"/>
<path d="M95.3664 36.5302H90.8405V41.056H95.3664V36.5302Z" fill="black"/>
<path d="M104.418 36.5302H99.8923V41.056H104.418V36.5302Z" fill="black"/>
<path d="M113.47 36.5302H108.944V41.056H113.47V36.5302Z" fill="black"/>
<path d="M117.996 36.5302H113.47V41.056H117.996V36.5302Z" fill="black"/>
<path d="M122.522 36.5302H117.996V41.056H122.522V36.5302Z" fill="black"/>
<path d="M127.047 36.5302H122.522V41.056H127.047V36.5302Z" fill="black"/>
<path d="M131.573 36.5302H127.047V41.056H131.573V36.5302Z" fill="black"/>
<path d="M136.099 36.5302H131.573V41.056H136.099V36.5302Z" fill="black"/>
<path d="M140.625 36.5302H136.099V41.056H140.625V36.5302Z" fill="black"/>
<path d="M50.1078 41.056H45.5819V45.5819H50.1078V41.056Z" fill="black"/>
<path d="M68.2112 41.056H63.6853V45.5819H68.2112V41.056Z" fill="black"/>
<path d="M72.7371 41.056H68.2112V45.5819H72.7371V41.056Z" fill="black"/>
<path d="M77.2629 41.056H72.7371V45.5819H77.2629V41.056Z" fill="black"/>
<path d="M81.7888 41.056H77.2629V45.5819H81.7888V41.056Z" fill="black"/>
<path d="M90.8405 41.056H86.3147V45.5819H90.8405V41.056Z" fill="black"/>
<path d="M99.8923 41.056H95.3664V45.5819H99.8923V41.056Z" fill="black"/>
<path d="M13.9009 45.5819H9.375V50.1078H13.9009V45.5819Z" fill="black"/>
<path d="M18.4267 45.5819H13.9009V50.1078H18.4267V45.5819Z" fill="black"/>
<path d="M22.9526 45.5819H18.4267V50.1078H22.9526V45.5819Z" fill="black"/>
<path d="M32.0043 45.5819H27.4784V50.1078H32.0043V45.5819Z" fill="black"/>
<path d="M41.056 45.5819H36.5302V50.1078H41.056V45.5819Z" fill="black"/>
<path d="M50.1078 45.5819H45.5819V50.1078H50.1078V45.5819Z" fill="black"/>
<path d="M54.6336 45.5819H50.1078V50.1078H54.6336V45.5819Z" fill="black"/>
<path d="M63.6853 45.5819H59.1595V50.1078H63.6853V45.5819Z" fill="black"/>
<path d="M77.2629 45.5819H72.7371V50.1078H77.2629V45.5819Z" fill="black"/>
<path d="M86.3147 45.5819H81.7888V50.1078H86.3147V45.5819Z" fill="black"/>
<path d="M95.3664 45.5819H90.8405V50.1078H95.3664V45.5819Z" fill="black"/>
<path d="M99.8923 45.5819H95.3664V50.1078H99.8923V45.5819Z" fill="black"/>
<path d="M108.944 45.5819H104.418V50.1078H108.944V45.5819Z" fill="black"/>
<path d="M113.47 45.5819H108.944V50.1078H113.47V45.5819Z" fill="black"/>
<path d="M117.996 45.5819H113.47V50.1078H117.996V45.5819Z" fill="black"/>
<path d="M122.522 45.5819H117.996V50.1078H122.522V45.5819Z" fill="black"/>
<path d="M127.047 45.5819H122.522V50.1078H127.047V45.5819Z" fill="black"/>
<path d="M140.625 45.5819H136.099V50.1078H140.625V45.5819Z" fill="black"/>
<path d="M22.9526 50.1078H18.4267V54.6336H22.9526V50.1078Z" fill="black"/>
<path d="M32.0043 50.1078H27.4784V54.6336H32.0043V50.1078Z" fill="black"/>
<path d="M45.5819 50.1078H41.056V54.6336H45.5819V50.1078Z" fill="black"/>
<path d="M54.6336 50.1078H50.1078V54.6336H54.6336V50.1078Z" fill="black"/>
<path d="M63.6853 50.1078H59.1595V54.6336H63.6853V50.1078Z" fill="black"/>
<path d="M68.2112 50.1078H63.6853V54.6336H68.2112V50.1078Z" fill="black"/>
<path d="M77.2629 50.1078H72.7371V54.6336H77.2629V50.1078Z" fill="black"/>
<path d="M81.7888 50.1078H77.2629V54.6336H81.7888V50.1078Z" fill="black"/>
<path d="M99.8923 50.1078H95.3664V54.6336H99.8923V50.1078Z" fill="black"/>
<path d="M108.944 50.1078H104.418V54.6336H108.944V50.1078Z" fill="black"/>
<path d="M117.996 50.1078H113.47V54.6336H117.996V50.1078Z" fill="black"/>
<path d="M122.522 50.1078H117.996V54.6336H122.522V50.1078Z" fill="black"/>
<path d="M127.047 50.1078H122.522V54.6336H127.047V50.1078Z" fill="black"/>
<path d="M131.573 50.1078H127.047V54.6336H131.573V50.1078Z" fill="black"/>
<path d="M27.4784 54.6336H22.9526V59.1595H27.4784V54.6336Z" fill="black"/>
<path d="M32.0043 54.6336H27.4784V59.1595H32.0043V54.6336Z" fill="black"/>
<path d="M36.5302 54.6336H32.0043V59.1595H36.5302V54.6336Z" fill="black"/>
<path d="M41.056 54.6336H36.5302V59.1595H41.056V54.6336Z" fill="black"/>
<path d="M45.5819 54.6336H41.056V59.1595H45.5819V54.6336Z" fill="black"/>
<path d="M54.6336 54.6336H50.1078V59.1595H54.6336V54.6336Z" fill="black"/>
<path d="M59.1595 54.6336H54.6336V59.1595H59.1595V54.6336Z" fill="black"/>
<path d="M63.6853 54.6336H59.1595V59.1595H63.6853V54.6336Z" fill="black"/>
<path d="M68.2112 54.6336H63.6853V59.1595H68.2112V54.6336Z" fill="black"/>
<path d="M72.7371 54.6336H68.2112V59.1595H72.7371V54.6336Z" fill="black"/>
<path d="M86.3147 54.6336H81.7888V59.1595H86.3147V54.6336Z" fill="black"/>
<path d="M95.3664 54.6336H90.8405V59.1595H95.3664V54.6336Z" fill="black"/>
<path d="M99.8923 54.6336H95.3664V59.1595H99.8923V54.6336Z" fill="black"/>
<path d="M113.47 54.6336H108.944V59.1595H113.47V54.6336Z" fill="black"/>
<path d="M131.573 54.6336H127.047V59.1595H131.573V54.6336Z" fill="black"/>
<path d="M13.9009 59.1595H9.375V63.6853H13.9009V59.1595Z" fill="black"/>
<path d="M18.4267 59.1595H13.9009V63.6853H18.4267V59.1595Z" fill="black"/>
<path d="M27.4784 59.1595H22.9526V63.6853H27.4784V59.1595Z" fill="black"/>
<path d="M45.5819 59.1595H41.056V63.6853H45.5819V59.1595Z" fill="black"/>
<path d="M59.1595 59.1595H54.6336V63.6853H59.1595V59.1595Z" fill="black"/>
<path d="M72.7371 59.1595H68.2112V63.6853H72.7371V59.1595Z" fill="black"/>
<path d="M86.3147 59.1595H81.7888V63.6853H86.3147V59.1595Z" fill="black"/>
<path d="M95.3664 59.1595H90.8405V63.6853H95.3664V59.1595Z" fill="black"/>
<path d="M99.8923 59.1595H95.3664V63.6853H99.8923V59.1595Z" fill="black"/>
<path d="M104.418 59.1595H99.8923V63.6853H104.418V59.1595Z" fill="black"/>
<path d="M117.996 59.1595H113.47V63.6853H117.996V59.1595Z" fill="black"/>
<path d="M122.522 59.1595H117.996V63.6853H122.522V59.1595Z" fill="black"/>
<path d="M127.047 59.1595H122.522V63.6853H127.047V59.1595Z" fill="black"/>
<path d="M136.099 59.1595H131.573V63.6853H136.099V59.1595Z" fill="black"/>
<path d="M22.9526 63.6853H18.4267V68.2112H22.9526V63.6853Z" fill="black"/>
<path d="M32.0043 63.6853H27.4784V68.2112H32.0043V63.6853Z" fill="black"/>
<path d="M41.056 63.6853H36.5302V68.2112H41.056V63.6853Z" fill="black"/>
<path d="M50.1078 63.6853H45.5819V68.2112H50.1078V63.6853Z" fill="black"/>
<path d="M63.6853 63.6853H59.1595V68.2112H63.6853V63.6853Z" fill="black"/>
<path d="M99.8923 63.6853H95.3664V68.2112H99.8923V63.6853Z" fill="black"/>
<path d="M108.944 63.6853H104.418V68.2112H108.944V63.6853Z" fill="black"/>
<path d="M113.47 63.6853H108.944V68.2112H113.47V63.6853Z" fill="black"/>
<path d="M122.522 63.6853H117.996V68.2112H122.522V63.6853Z" fill="black"/>
<path d="M140.625 63.6853H136.099V68.2112H140.625V63.6853Z" fill="black"/>
<path d="M45.5819 68.2112H41.056V72.7371H45.5819V68.2112Z" fill="black"/>
<path d="M50.1078 68.2112H45.5819V72.7371H50.1078V68.2112Z" fill="black"/>
<path d="M54.6336 68.2112H50.1078V72.7371H54.6336V68.2112Z" fill="black"/>
<path d="M59.1595 68.2112H54.6336V72.7371H59.1595V68.2112Z" fill="black"/>
<path d="M63.6853 68.2112H59.1595V72.7371H63.6853V68.2112Z" fill="black"/>
<path d="M68.2112 68.2112H63.6853V72.7371H68.2112V68.2112Z" fill="black"/>
<path d="M72.7371 68.2112H68.2112V72.7371H72.7371V68.2112Z" fill="black"/>
<path d="M77.2629 68.2112H72.7371V72.7371H77.2629V68.2112Z" fill="black"/>
<path d="M90.8405 68.2112H86.3147V72.7371H90.8405V68.2112Z" fill="black"/>
<path d="M104.418 68.2112H99.8923V72.7371H104.418V68.2112Z" fill="black"/>
<path d="M122.522 68.2112H117.996V72.7371H122.522V68.2112Z" fill="black"/>
<path d="M127.047 68.2112H122.522V72.7371H127.047V68.2112Z" fill="black"/>
<path d="M131.573 68.2112H127.047V72.7371H131.573V68.2112Z" fill="black"/>
<path d="M32.0043 72.7371H27.4784V77.2629H32.0043V72.7371Z" fill="black"/>
<path d="M41.056 72.7371H36.5302V77.2629H41.056V72.7371Z" fill="black"/>
<path d="M72.7371 72.7371H68.2112V77.2629H72.7371V72.7371Z" fill="black"/>
<path d="M86.3147 72.7371H81.7888V77.2629H86.3147V72.7371Z" fill="black"/>
<path d="M90.8405 72.7371H86.3147V77.2629H90.8405V72.7371Z" fill="black"/>
<path d="M99.8923 72.7371H95.3664V77.2629H99.8923V72.7371Z" fill="black"/>
<path d="M104.418 72.7371H99.8923V77.2629H104.418V72.7371Z" fill="black"/>
<path d="M108.944 72.7371H104.418V77.2629H108.944V72.7371Z" fill="black"/>
<path d="M113.47 72.7371H108.944V77.2629H113.47V72.7371Z" fill="black"/>
<path d="M117.996 72.7371H113.47V77.2629H117.996V72.7371Z" fill="black"/>
<path d="M122.522 72.7371H117.996V77.2629H122.522V72.7371Z" fill="black"/>
<path d="M131.573 72.7371H127.047V77.2629H131.573V72.7371Z" fill="black"/>
<path d="M140.625 72.7371H136.099V77.2629H140.625V72.7371Z" fill="black"/>
<path d="M13.9009 77.2629H9.375V81.7888H13.9009V77.2629Z" fill="black"/>
<path d="M22.9526 77.2629H18.4267V81.7888H22.9526V77.2629Z" fill="black"/>
<path d="M32.0043 77.2629H27.4784V81.7888H32.0043V77.2629Z" fill="black"/>
<path d="M36.5302 77.2629H32.0043V81.7888H36.5302V77.2629Z" fill="black"/>
<path d="M45.5819 77.2629H41.056V81.7888H45.5819V77.2629Z" fill="black"/>
<path d="M59.1595 77.2629H54.6336V81.7888H59.1595V77.2629Z" fill="black"/>
<path d="M68.2112 77.2629H63.6853V81.7888H68.2112V77.2629Z" fill="black"/>
<path d="M81.7888 77.2629H77.2629V81.7888H81.7888V77.2629Z" fill="black"/>
<path d="M95.3664 77.2629H90.8405V81.7888H95.3664V77.2629Z" fill="black"/>
<path d="M108.944 77.2629H104.418V81.7888H108.944V77.2629Z" fill="black"/>
<path d="M113.47 77.2629H108.944V81.7888H113.47V77.2629Z" fill="black"/>
<path d="M122.522 77.2629H117.996V81.7888H122.522V77.2629Z" fill="black"/>
<path d="M127.047 77.2629H122.522V81.7888H127.047V77.2629Z" fill="black"/>
<path d="M131.573 77.2629H127.047V81.7888H131.573V77.2629Z" fill="black"/>
<path d="M136.099 77.2629H131.573V81.7888H136.099V77.2629Z" fill="black"/>
<path d="M13.9009 81.7888H9.375V86.3147H13.9009V81.7888Z" fill="black"/>
<path d="M18.4267 81.7888H13.9009V86.3147H18.4267V81.7888Z" fill="black"/>
<path d="M22.9526 81.7888H18.4267V86.3147H22.9526V81.7888Z" fill="black"/>
<path d="M27.4784 81.7888H22.9526V86.3147H27.4784V81.7888Z" fill="black"/>
<path d="M32.0043 81.7888H27.4784V86.3147H32.0043V81.7888Z" fill="black"/>
<path d="M36.5302 81.7888H32.0043V86.3147H36.5302V81.7888Z" fill="black"/>
<path d="M41.056 81.7888H36.5302V86.3147H41.056V81.7888Z" fill="black"/>
<path d="M45.5819 81.7888H41.056V86.3147H45.5819V81.7888Z" fill="black"/>
<path d="M54.6336 81.7888H50.1078V86.3147H54.6336V81.7888Z" fill="black"/>
<path d="M59.1595 81.7888H54.6336V86.3147H59.1595V81.7888Z" fill="black"/>
<path d="M63.6853 81.7888H59.1595V86.3147H63.6853V81.7888Z" fill="black"/>
<path d="M68.2112 81.7888H63.6853V86.3147H68.2112V81.7888Z" fill="black"/>
<path d="M72.7371 81.7888H68.2112V86.3147H72.7371V81.7888Z" fill="black"/>
<path d="M77.2629 81.7888H72.7371V86.3147H77.2629V81.7888Z" fill="black"/>
<path d="M90.8405 81.7888H86.3147V86.3147H90.8405V81.7888Z" fill="black"/>
<path d="M95.3664 81.7888H90.8405V86.3147H95.3664V81.7888Z" fill="black"/>
<path d="M99.8923 81.7888H95.3664V86.3147H99.8923V81.7888Z" fill="black"/>
<path d="M104.418 81.7888H99.8923V86.3147H104.418V81.7888Z" fill="black"/>
<path d="M127.047 81.7888H122.522V86.3147H127.047V81.7888Z" fill="black"/>
<path d="M131.573 81.7888H127.047V86.3147H131.573V81.7888Z" fill="black"/>
<path d="M18.4267 86.3147H13.9009V90.8405H18.4267V86.3147Z" fill="black"/>
<path d="M32.0043 86.3147H27.4784V90.8405H32.0043V86.3147Z" fill="black"/>
<path d="M36.5302 86.3147H32.0043V90.8405H36.5302V86.3147Z" fill="black"/>
<path d="M50.1078 86.3147H45.5819V90.8405H50.1078V86.3147Z" fill="black"/>
<path d="M54.6336 86.3147H50.1078V90.8405H54.6336V86.3147Z" fill="black"/>
<path d="M59.1595 86.3147H54.6336V90.8405H59.1595V86.3147Z" fill="black"/>
<path d="M63.6853 86.3147H59.1595V90.8405H63.6853V86.3147Z" fill="black"/>
<path d="M90.8405 86.3147H86.3147V90.8405H90.8405V86.3147Z" fill="black"/>
<path d="M95.3664 86.3147H90.8405V90.8405H95.3664V86.3147Z" fill="black"/>
<path d="M104.418 86.3147H99.8923V90.8405H104.418V86.3147Z" fill="black"/>
<path d="M108.944 86.3147H104.418V90.8405H108.944V86.3147Z" fill="black"/>
<path d="M113.47 86.3147H108.944V90.8405H113.47V86.3147Z" fill="black"/>
<path d="M117.996 86.3147H113.47V90.8405H117.996V86.3147Z" fill="black"/>
<path d="M131.573 86.3147H127.047V90.8405H131.573V86.3147Z" fill="black"/>
<path d="M13.9009 90.8405H9.375V95.3664H13.9009V90.8405Z" fill="black"/>
<path d="M32.0043 90.8405H27.4784V95.3664H32.0043V90.8405Z" fill="black"/>
<path d="M36.5302 90.8405H32.0043V95.3664H36.5302V90.8405Z" fill="black"/>
<path d="M41.056 90.8405H36.5302V95.3664H41.056V90.8405Z" fill="black"/>
<path d="M45.5819 90.8405H41.056V95.3664H45.5819V90.8405Z" fill="black"/>
<path d="M50.1078 90.8405H45.5819V95.3664H50.1078V90.8405Z" fill="black"/>
<path d="M59.1595 90.8405H54.6336V95.3664H59.1595V90.8405Z" fill="black"/>
<path d="M63.6853 90.8405H59.1595V95.3664H63.6853V90.8405Z" fill="black"/>
<path d="M68.2112 90.8405H63.6853V95.3664H68.2112V90.8405Z" fill="black"/>
<path d="M86.3147 90.8405H81.7888V95.3664H86.3147V90.8405Z" fill="black"/>
<path d="M95.3664 90.8405H90.8405V95.3664H95.3664V90.8405Z" fill="black"/>
<path d="M99.8923 90.8405H95.3664V95.3664H99.8923V90.8405Z" fill="black"/>
<path d="M113.47 90.8405H108.944V95.3664H113.47V90.8405Z" fill="black"/>
<path d="M136.099 90.8405H131.573V95.3664H136.099V90.8405Z" fill="black"/>
<path d="M18.4267 95.3664H13.9009V99.8923H18.4267V95.3664Z" fill="black"/>
<path d="M22.9526 95.3664H18.4267V99.8923H22.9526V95.3664Z" fill="black"/>
<path d="M32.0043 95.3664H27.4784V99.8923H32.0043V95.3664Z" fill="black"/>
<path d="M54.6336 95.3664H50.1078V99.8923H54.6336V95.3664Z" fill="black"/>
<path d="M77.2629 95.3664H72.7371V99.8923H77.2629V95.3664Z" fill="black"/>
<path d="M90.8405 95.3664H86.3147V99.8923H90.8405V95.3664Z" fill="black"/>
<path d="M95.3664 95.3664H90.8405V99.8923H95.3664V95.3664Z" fill="black"/>
<path d="M113.47 95.3664H108.944V99.8923H113.47V95.3664Z" fill="black"/>
<path d="M122.522 95.3664H117.996V99.8923H122.522V95.3664Z" fill="black"/>
<path d="M127.047 95.3664H122.522V99.8923H127.047V95.3664Z" fill="black"/>
<path d="M131.573 95.3664H127.047V99.8923H131.573V95.3664Z" fill="black"/>
<path d="M136.099 95.3664H131.573V99.8923H136.099V95.3664Z" fill="black"/>
<path d="M140.625 95.3664H136.099V99.8923H140.625V95.3664Z" fill="black"/>
<path d="M13.9009 99.8923H9.375V104.418H13.9009V99.8923Z" fill="black"/>
<path d="M18.4267 99.8923H13.9009V104.418H18.4267V99.8923Z" fill="black"/>
<path d="M36.5302 99.8923H32.0043V104.418H36.5302V99.8923Z" fill="black"/>
<path d="M41.056 99.8923H36.5302V104.418H41.056V99.8923Z" fill="black"/>
<path d="M54.6336 99.8923H50.1078V104.418H54.6336V99.8923Z" fill="black"/>
<path d="M68.2112 99.8923H63.6853V104.418H68.2112V99.8923Z" fill="black"/>
<path d="M90.8405 99.8923H86.3147V104.418H90.8405V99.8923Z" fill="black"/>
<path d="M104.418 99.8923H99.8923V104.418H104.418V99.8923Z" fill="black"/>
<path d="M108.944 99.8923H104.418V104.418H108.944V99.8923Z" fill="black"/>
<path d="M113.47 99.8923H108.944V104.418H113.47V99.8923Z" fill="black"/>
<path d="M117.996 99.8923H113.47V104.418H117.996V99.8923Z" fill="black"/>
<path d="M122.522 99.8923H117.996V104.418H122.522V99.8923Z" fill="black"/>
<path d="M136.099 99.8923H131.573V104.418H136.099V99.8923Z" fill="black"/>
<path d="M140.625 99.8923H136.099V104.418H140.625V99.8923Z" fill="black"/>
<path d="M50.1078 104.418H45.5819V108.944H50.1078V104.418Z" fill="black"/>
<path d="M81.7888 104.418H77.2629V108.944H81.7888V104.418Z" fill="black"/>
<path d="M99.8923 104.418H95.3664V108.944H99.8923V104.418Z" fill="black"/>
<path d="M104.418 104.418H99.8923V108.944H104.418V104.418Z" fill="black"/>
<path d="M122.522 104.418H117.996V108.944H122.522V104.418Z" fill="black"/>
<path d="M131.573 104.418H127.047V108.944H131.573V104.418Z" fill="black"/>
<path d="M136.099 104.418H131.573V108.944H136.099V104.418Z" fill="black"/>
<path d="M13.9009 108.944H9.375V113.47H13.9009V108.944Z" fill="black"/>
<path d="M18.4267 108.944H13.9009V113.47H18.4267V108.944Z" fill="black"/>
<path d="M22.9526 108.944H18.4267V113.47H22.9526V108.944Z" fill="black"/>
<path d="M27.4784 108.944H22.9526V113.47H27.4784V108.944Z" fill="black"/>
<path d="M32.0043 108.944H27.4784V113.47H32.0043V108.944Z" fill="black"/>
<path d="M36.5302 108.944H32.0043V113.47H36.5302V108.944Z" fill="black"/>
<path d="M41.056 108.944H36.5302V113.47H41.056V108.944Z" fill="black"/>
<path d="M59.1595 108.944H54.6336V113.47H59.1595V108.944Z" fill="black"/>
<path d="M68.2112 108.944H63.6853V113.47H68.2112V108.944Z" fill="black"/>
<path d="M72.7371 108.944H68.2112V113.47H72.7371V108.944Z" fill="black"/>
<path d="M81.7888 108.944H77.2629V113.47H81.7888V108.944Z" fill="black"/>
<path d="M95.3664 108.944H90.8405V113.47H95.3664V108.944Z" fill="black"/>
<path d="M104.418 108.944H99.8923V113.47H104.418V108.944Z" fill="black"/>
<path d="M113.47 108.944H108.944V113.47H113.47V108.944Z" fill="black"/>
<path d="M122.522 108.944H117.996V113.47H122.522V108.944Z" fill="black"/>
<path d="M140.625 108.944H136.099V113.47H140.625V108.944Z" fill="black"/>
<path d="M13.9009 113.47H9.375V117.996H13.9009V113.47Z" fill="black"/>
<path d="M41.056 113.47H36.5302V117.996H41.056V113.47Z" fill="black"/>
<path d="M68.2112 113.47H63.6853V117.996H68.2112V113.47Z" fill="black"/>
<path d="M72.7371 113.47H68.2112V117.996H72.7371V113.47Z" fill="black"/>
<path d="M81.7888 113.47H77.2629V117.996H81.7888V113.47Z" fill="black"/>
<path d="M86.3147 113.47H81.7888V117.996H86.3147V113.47Z" fill="black"/>
<path d="M104.418 113.47H99.8923V117.996H104.418V113.47Z" fill="black"/>
<path d="M122.522 113.47H117.996V117.996H122.522V113.47Z" fill="black"/>
<path d="M131.573 113.47H127.047V117.996H131.573V113.47Z" fill="black"/>
<path d="M13.9009 117.996H9.375V122.522H13.9009V117.996Z" fill="black"/>
<path d="M22.9526 117.996H18.4267V122.522H22.9526V117.996Z" fill="black"/>
<path d="M27.4784 117.996H22.9526V122.522H27.4784V117.996Z" fill="black"/>
<path d="M32.0043 117.996H27.4784V122.522H32.0043V117.996Z" fill="black"/>
<path d="M41.056 117.996H36.5302V122.522H41.056V117.996Z" fill="black"/>
<path d="M50.1078 117.996H45.5819V122.522H50.1078V117.996Z" fill="black"/>
<path d="M54.6336 117.996H50.1078V122.522H54.6336V117.996Z" fill="black"/>
<path d="M59.1595 117.996H54.6336V122.522H59.1595V117.996Z" fill="black"/>
<path d="M63.6853 117.996H59.1595V122.522H63.6853V117.996Z" fill="black"/>
<path d="M72.7371 117.996H68.2112V122.522H72.7371V117.996Z" fill="black"/>
<path d="M90.8405 117.996H86.3147V122.522H90.8405V117.996Z" fill="black"/>
<path d="M95.3664 117.996H90.8405V122.522H95.3664V117.996Z" fill="black"/>
<path d="M104.418 117.996H99.8923V122.522H104.418V117.996Z" fill="black"/>
<path d="M108.944 117.996H104.418V122.522H108.944V117.996Z" fill="black"/>
<path d="M113.47 117.996H108.944V122.522H113.47V117.996Z" fill="black"/>
<path d="M117.996 117.996H113.47V122.522H117.996V117.996Z" fill="black"/>
<path d="M122.522 117.996H117.996V122.522H122.522V117.996Z" fill="black"/>
<path d="M131.573 117.996H127.047V122.522H131.573V117.996Z" fill="black"/>
<path d="M136.099 117.996H131.573V122.522H136.099V117.996Z" fill="black"/>
<path d="M13.9009 122.522H9.375V127.047H13.9009V122.522Z" fill="black"/>
<path d="M22.9526 122.522H18.4267V127.047H22.9526V122.522Z" fill="black"/>
<path d="M27.4784 122.522H22.9526V127.047H27.4784V122.522Z" fill="black"/>
<path d="M32.0043 122.522H27.4784V127.047H32.0043V122.522Z" fill="black"/>
<path d="M41.056 122.522H36.5302V127.047H41.056V122.522Z" fill="black"/>
<path d="M63.6853 122.522H59.1595V127.047H63.6853V122.522Z" fill="black"/>
<path d="M72.7371 122.522H68.2112V127.047H72.7371V122.522Z" fill="black"/>
<path d="M86.3147 122.522H81.7888V127.047H86.3147V122.522Z" fill="black"/>
<path d="M95.3664 122.522H90.8405V127.047H95.3664V122.522Z" fill="black"/>
<path d="M99.8923 122.522H95.3664V127.047H99.8923V122.522Z" fill="black"/>
<path d="M104.418 122.522H99.8923V127.047H104.418V122.522Z" fill="black"/>
<path d="M108.944 122.522H104.418V127.047H108.944V122.522Z" fill="black"/>
<path d="M113.47 122.522H108.944V127.047H113.47V122.522Z" fill="black"/>
<path d="M122.522 122.522H117.996V127.047H122.522V122.522Z" fill="black"/>
<path d="M136.099 122.522H131.573V127.047H136.099V122.522Z" fill="black"/>
<path d="M13.9009 127.047H9.375V131.573H13.9009V127.047Z" fill="black"/>
<path d="M22.9526 127.047H18.4267V131.573H22.9526V127.047Z" fill="black"/>
<path d="M27.4784 127.047H22.9526V131.573H27.4784V127.047Z" fill="black"/>
<path d="M32.0043 127.047H27.4784V131.573H32.0043V127.047Z" fill="black"/>
<path d="M41.056 127.047H36.5302V131.573H41.056V127.047Z" fill="black"/>
<path d="M50.1078 127.047H45.5819V131.573H50.1078V127.047Z" fill="black"/>
<path d="M54.6336 127.047H50.1078V131.573H54.6336V127.047Z" fill="black"/>
<path d="M59.1595 127.047H54.6336V131.573H59.1595V127.047Z" fill="black"/>
<path d="M72.7371 127.047H68.2112V131.573H72.7371V127.047Z" fill="black"/>
<path d="M77.2629 127.047H72.7371V131.573H77.2629V127.047Z" fill="black"/>
<path d="M81.7888 127.047H77.2629V131.573H81.7888V127.047Z" fill="black"/>
<path d="M90.8405 127.047H86.3147V131.573H90.8405V127.047Z" fill="black"/>
<path d="M99.8923 127.047H95.3664V131.573H99.8923V127.047Z" fill="black"/>
<path d="M104.418 127.047H99.8923V131.573H104.418V127.047Z" fill="black"/>
<path d="M131.573 127.047H127.047V131.573H131.573V127.047Z" fill="black"/>
<path d="M136.099 127.047H131.573V131.573H136.099V127.047Z" fill="black"/>
<path d="M13.9009 131.573H9.375V136.099H13.9009V131.573Z" fill="black"/>
<path d="M41.056 131.573H36.5302V136.099H41.056V131.573Z" fill="black"/>
<path d="M50.1078 131.573H45.5819V136.099H50.1078V131.573Z" fill="black"/>
<path d="M54.6336 131.573H50.1078V136.099H54.6336V131.573Z" fill="black"/>
<path d="M72.7371 131.573H68.2112V136.099H72.7371V131.573Z" fill="black"/>
<path d="M90.8405 131.573H86.3147V136.099H90.8405V131.573Z" fill="black"/>
<path d="M104.418 131.573H99.8923V136.099H104.418V131.573Z" fill="black"/>
<path d="M122.522 131.573H117.996V136.099H122.522V131.573Z" fill="black"/>
<path d="M131.573 131.573H127.047V136.099H131.573V131.573Z" fill="black"/>
<path d="M13.9009 136.099H9.375V140.625H13.9009V136.099Z" fill="black"/>
<path d="M18.4267 136.099H13.9009V140.625H18.4267V136.099Z" fill="black"/>
<path d="M22.9526 136.099H18.4267V140.625H22.9526V136.099Z" fill="black"/>
<path d="M27.4784 136.099H22.9526V140.625H27.4784V136.099Z" fill="black"/>
<path d="M32.0043 136.099H27.4784V140.625H32.0043V136.099Z" fill="black"/>
<path d="M36.5302 136.099H32.0043V140.625H36.5302V136.099Z" fill="black"/>
<path d="M41.056 136.099H36.5302V140.625H41.056V136.099Z" fill="black"/>
<path d="M50.1078 136.099H45.5819V140.625H50.1078V136.099Z" fill="black"/>
<path d="M63.6853 136.099H59.1595V140.625H63.6853V136.099Z" fill="black"/>
<path d="M68.2112 136.099H63.6853V140.625H68.2112V136.099Z" fill="black"/>
<path d="M72.7371 136.099H68.2112V140.625H72.7371V136.099Z" fill="black"/>
<path d="M77.2629 136.099H72.7371V140.625H77.2629V136.099Z" fill="black"/>
<path d="M81.7888 136.099H77.2629V140.625H81.7888V136.099Z" fill="black"/>
<path d="M95.3664 136.099H90.8405V140.625H95.3664V136.099Z" fill="black"/>
<path d="M117.996 136.099H113.47V140.625H117.996V136.099Z" fill="black"/>
<path d="M122.522 136.099H117.996V140.625H122.522V136.099Z" fill="black"/>
<path d="M127.047 136.099H122.522V140.625H127.047V136.099Z" fill="black"/>
<path d="M131.573 136.099H127.047V140.625H131.573V136.099Z" fill="black"/>
<path d="M136.099 136.099H131.573V140.625H136.099V136.099Z" fill="black"/>
</g>
<defs>
<clipPath id="clip0_12470_32271">
<rect width="150" height="150" fill="white"/>
</clipPath>
</defs>
</svg>
