<svg width="162" height="162" viewBox="0 0 162 162" fill="none" xmlns="http://www.w3.org/2000/svg">
<path d="M72.7027 7.17232C77.4675 3.05354 84.5325 3.05354 89.2973 7.17232C92.6776 10.0943 97.3457 11.0229 101.587 9.6169C107.565 7.63504 114.092 10.3387 116.918 15.9673C118.923 19.9605 122.881 22.6048 127.337 22.9289C133.619 23.3857 138.614 28.3814 139.071 34.663C139.395 39.1194 142.039 43.0769 146.033 45.0817C151.661 47.9076 154.365 54.4348 152.383 60.413C150.977 64.6543 151.906 69.3224 154.828 72.7027C158.946 77.4675 158.946 84.5325 154.828 89.2973C151.906 92.6776 150.977 97.3457 152.383 101.587C154.365 107.565 151.661 114.092 146.033 116.918C142.039 118.923 139.395 122.881 139.071 127.337C138.614 133.619 133.619 138.614 127.337 139.071C122.881 139.395 118.923 142.039 116.918 146.033C114.092 151.661 107.565 154.365 101.587 152.383C97.3457 150.977 92.6776 151.906 89.2973 154.828C84.5325 158.946 77.4675 158.946 72.7027 154.828C69.3224 151.906 64.6543 150.977 60.413 152.383C54.4348 154.365 47.9076 151.661 45.0817 146.033C43.0769 142.039 39.1194 139.395 34.663 139.071C28.3814 138.614 23.3857 133.619 22.9289 127.337C22.6048 122.881 19.9605 118.923 15.9673 116.918C10.3387 114.092 7.63504 107.565 9.61689 101.587C11.0229 97.3457 10.0943 92.6776 7.17232 89.2973C3.05354 84.5325 3.05354 77.4675 7.17232 72.7027C10.0943 69.3224 11.0229 64.6543 9.61689 60.413C7.63504 54.4348 10.3387 47.9076 15.9673 45.0817C19.9605 43.0769 22.6048 39.1194 22.9289 34.663C23.3857 28.3814 28.3814 23.3857 34.663 22.9289C39.1194 22.6048 43.0769 19.9605 45.0817 15.9673C47.9076 10.3387 54.4348 7.63504 60.413 9.61689C64.6543 11.0229 69.3224 10.0943 72.7027 7.17232Z" fill="#FBF9F7"/>
<path d="M73.8295 17.1983C77.9473 13.6389 84.0527 13.6389 88.1705 17.1983C91.0917 19.7235 95.1259 20.526 98.7912 19.3109C103.958 17.5982 109.598 19.9347 112.041 24.7989C113.773 28.2498 117.193 30.535 121.044 30.8151C126.473 31.2099 130.79 35.5271 131.185 40.9557C131.465 44.8069 133.75 48.2269 137.201 49.9595C142.065 52.4016 144.402 58.0424 142.689 63.2088C141.474 66.8741 142.276 70.9083 144.802 73.8295C148.361 77.9472 148.361 84.0527 144.802 88.1705C142.276 91.0917 141.474 95.1259 142.689 98.7912C144.402 103.958 142.065 109.598 137.201 112.041C133.75 113.773 131.465 117.193 131.185 121.044C130.79 126.473 126.473 130.79 121.044 131.185C117.193 131.465 113.773 133.75 112.041 137.201C109.598 142.065 103.958 144.402 98.7912 142.689C95.1259 141.474 91.0917 142.276 88.1705 144.802C84.0527 148.361 77.9472 148.361 73.8295 144.802C70.9083 142.276 66.8741 141.474 63.2088 142.689C58.0424 144.402 52.4016 142.065 49.9595 137.201C48.2269 133.75 44.8069 131.465 40.9557 131.185C35.5271 130.79 31.2099 126.473 30.8151 121.044C30.535 117.193 28.2498 113.773 24.7989 112.041C19.9347 109.598 17.5982 103.958 19.3109 98.7912C20.526 95.1259 19.7235 91.0917 17.1983 88.1705C13.6389 84.0527 13.6389 77.9473 17.1983 73.8295C19.7235 70.9083 20.526 66.8741 19.3109 63.2088C17.5982 58.0424 19.9347 52.4016 24.7989 49.9595C28.2498 48.2269 30.535 44.8069 30.8151 40.9557C31.2099 35.5271 35.5271 31.2099 40.9557 30.8151C44.8069 30.535 48.2269 28.2498 49.9595 24.7989C52.4016 19.9347 58.0424 17.5982 63.2088 19.3109C66.8741 20.526 70.9083 19.7235 73.8295 17.1983Z" fill="#F6F1EC"/>
</svg>
