<svg width="231" height="170" viewBox="0 0 231 170" fill="none" xmlns="http://www.w3.org/2000/svg">
<path d="M16.5764 104.244H3.53571C2.08674 104.244 1 103.157 1 101.708V37.5914C1 36.1424 2.08674 35.0557 3.53571 35.0557H55.6986C57.1476 35.0557 58.2343 36.1424 58.2343 37.5914V101.708C58.2343 103.157 57.1476 104.244 55.6986 104.244H41.5711" stroke="#D2B596" stroke-miterlimit="10" stroke-linecap="round" stroke-linejoin="round"/>
<path d="M11.5 47.0088H32.1478" stroke="#D2B596" stroke-miterlimit="10" stroke-linecap="round" stroke-linejoin="round"/>
<path d="M11.5 53.5308H47.362" stroke="#D2B596" stroke-miterlimit="10" stroke-linecap="round" stroke-linejoin="round"/>
<path d="M11.5 65.8467H47.362" stroke="#D2B596" stroke-miterlimit="10" stroke-linecap="round" stroke-linejoin="round"/>
<path d="M11.5 73.0908H47.362" stroke="#D2B596" stroke-miterlimit="10" stroke-linecap="round" stroke-linejoin="round"/>
<path d="M11.5 80.3359H47.362" stroke="#D2B596" stroke-miterlimit="10" stroke-linecap="round" stroke-linejoin="round"/>
<path d="M29.2547 99.1726C32.8558 99.1726 35.7751 96.2533 35.7751 92.6522C35.7751 89.0511 32.8558 86.1318 29.2547 86.1318C25.6537 86.1318 22.7344 89.0511 22.7344 92.6522C22.7344 96.2533 25.6537 99.1726 29.2547 99.1726Z" stroke="#D2B596" stroke-miterlimit="10" stroke-linecap="round" stroke-linejoin="round"/>
<path d="M24.5469 98.811V112.938L29.256 108.229L34.6897 112.938V101.709" stroke="#D2B596" stroke-miterlimit="10" stroke-linecap="round" stroke-linejoin="round"/>
<path d="M102.576 70.1883H89.5357C88.0867 70.1883 87 69.1016 87 67.6526V3.53574C87 2.08677 88.0867 1 89.5357 1H141.699C143.148 1 144.234 2.08677 144.234 3.53574V67.6526C144.234 69.1016 143.148 70.1883 141.699 70.1883H127.571" stroke="#D2B596" stroke-miterlimit="10" stroke-linecap="round" stroke-linejoin="round"/>
<path d="M97.5 12.9531H118.148" stroke="#D2B596" stroke-miterlimit="10" stroke-linecap="round" stroke-linejoin="round"/>
<path d="M97.5 19.4751H133.362" stroke="#D2B596" stroke-miterlimit="10" stroke-linecap="round" stroke-linejoin="round"/>
<path d="M97.5 31.7905H133.362" stroke="#D2B596" stroke-miterlimit="10" stroke-linecap="round" stroke-linejoin="round"/>
<path d="M97.5 39.0352H133.362" stroke="#D2B596" stroke-miterlimit="10" stroke-linecap="round" stroke-linejoin="round"/>
<path d="M97.5 46.2803H133.362" stroke="#D2B596" stroke-miterlimit="10" stroke-linecap="round" stroke-linejoin="round"/>
<path d="M115.255 65.1169C118.856 65.1169 121.775 62.1976 121.775 58.5965C121.775 54.9954 118.856 52.0762 115.255 52.0762C111.654 52.0762 108.734 54.9954 108.734 58.5965C108.734 62.1976 111.654 65.1169 115.255 65.1169Z" stroke="#D2B596" stroke-miterlimit="10" stroke-linecap="round" stroke-linejoin="round"/>
<path d="M110.547 64.7549V78.8823L115.256 74.1732L120.69 78.8823V67.6528" stroke="#D2B596" stroke-miterlimit="10" stroke-linecap="round" stroke-linejoin="round"/>
<path d="M188.576 160.288H175.536C174.087 160.288 173 159.201 173 157.752V93.6353C173 92.1864 174.087 91.0996 175.536 91.0996H227.699C229.148 91.0996 230.234 92.1864 230.234 93.6353V157.752C230.234 159.201 229.148 160.288 227.699 160.288H213.571" stroke="#D2B596" stroke-miterlimit="10" stroke-linecap="round" stroke-linejoin="round"/>
<path d="M183.5 103.053H204.148" stroke="#D2B596" stroke-miterlimit="10" stroke-linecap="round" stroke-linejoin="round"/>
<path d="M183.5 109.575H219.362" stroke="#D2B596" stroke-miterlimit="10" stroke-linecap="round" stroke-linejoin="round"/>
<path d="M183.5 121.89H219.362" stroke="#D2B596" stroke-miterlimit="10" stroke-linecap="round" stroke-linejoin="round"/>
<path d="M183.5 129.135H219.362" stroke="#D2B596" stroke-miterlimit="10" stroke-linecap="round" stroke-linejoin="round"/>
<path d="M183.5 136.38H219.362" stroke="#D2B596" stroke-miterlimit="10" stroke-linecap="round" stroke-linejoin="round"/>
<path d="M201.255 155.217C204.856 155.217 207.775 152.297 207.775 148.696C207.775 145.095 204.856 142.176 201.255 142.176C197.654 142.176 194.734 145.095 194.734 148.696C194.734 152.297 197.654 155.217 201.255 155.217Z" stroke="#D2B596" stroke-miterlimit="10" stroke-linecap="round" stroke-linejoin="round"/>
<path d="M196.547 154.854V168.982L201.256 164.273L206.69 168.982V157.752" stroke="#D2B596" stroke-miterlimit="10" stroke-linecap="round" stroke-linejoin="round"/>
</svg>
