<svg width="232" height="170" viewBox="0 0 232 170" fill="none" xmlns="http://www.w3.org/2000/svg">
<path d="M17.2447 101.373H3.6445C2.13337 101.373 1 100.24 1 98.7289V31.8613C1 30.3502 2.13337 29.2168 3.6445 29.2168H58.0452C59.5564 29.2168 60.6897 30.3502 60.6897 31.8613V98.7289C60.6897 100.24 59.5564 101.373 58.0452 101.373H43.3117" stroke="#D2B596" stroke-miterlimit="10" stroke-linecap="round" stroke-linejoin="round"/>
<path d="M11.9531 41.6831H33.4868" stroke="#D2B596" stroke-miterlimit="10" stroke-linecap="round" stroke-linejoin="round"/>
<path d="M11.9531 48.4844H49.3536" stroke="#D2B596" stroke-miterlimit="10" stroke-linecap="round" stroke-linejoin="round"/>
<path d="M11.9531 61.3286H49.3536" stroke="#D2B596" stroke-miterlimit="10" stroke-linecap="round" stroke-linejoin="round"/>
<path d="M11.9531 68.8843H49.3536" stroke="#D2B596" stroke-miterlimit="10" stroke-linecap="round" stroke-linejoin="round"/>
<path d="M11.9531 76.4395H49.3536" stroke="#D2B596" stroke-miterlimit="10" stroke-linecap="round" stroke-linejoin="round"/>
<path d="M30.4642 96.0846C34.2198 96.0846 37.2643 93.0401 37.2643 89.2845C37.2643 85.5289 34.2198 82.4844 30.4642 82.4844C26.7086 82.4844 23.6641 85.5289 23.6641 89.2845C23.6641 93.0401 26.7086 96.0846 30.4642 96.0846Z" stroke="#D2B596" stroke-miterlimit="10" stroke-linecap="round" stroke-linejoin="round"/>
<path d="M25.5547 95.707V110.441L30.4659 105.529L36.1326 110.441V98.7293" stroke="#D2B596" stroke-miterlimit="10" stroke-linecap="round" stroke-linejoin="round"/>
<path d="M97.8619 159.822H84.2617C82.7506 159.822 81.6172 158.689 81.6172 157.178V90.3101C81.6172 88.7989 82.7506 87.6655 84.2617 87.6655H138.662C140.174 87.6655 141.307 88.7989 141.307 90.3101V157.178C141.307 158.689 140.174 159.822 138.662 159.822H123.929" stroke="#D2B596" stroke-miterlimit="10" stroke-linecap="round" stroke-linejoin="round"/>
<path d="M92.5703 100.132H114.104" stroke="#D2B596" stroke-miterlimit="10" stroke-linecap="round" stroke-linejoin="round"/>
<path d="M92.5703 106.933H129.971" stroke="#D2B596" stroke-miterlimit="10" stroke-linecap="round" stroke-linejoin="round"/>
<path d="M92.5703 119.777H129.971" stroke="#D2B596" stroke-miterlimit="10" stroke-linecap="round" stroke-linejoin="round"/>
<path d="M92.5703 127.333H129.971" stroke="#D2B596" stroke-miterlimit="10" stroke-linecap="round" stroke-linejoin="round"/>
<path d="M92.5703 134.888H129.971" stroke="#D2B596" stroke-miterlimit="10" stroke-linecap="round" stroke-linejoin="round"/>
<path d="M111.081 154.533C114.837 154.533 117.881 151.489 117.881 147.733C117.881 143.978 114.837 140.933 111.081 140.933C107.326 140.933 104.281 143.978 104.281 147.733C104.281 151.489 107.326 154.533 111.081 154.533Z" stroke="#D2B596" stroke-miterlimit="10" stroke-linecap="round" stroke-linejoin="round"/>
<path d="M106.172 154.155V168.889L111.083 163.978L116.75 168.889V157.178" stroke="#D2B596" stroke-miterlimit="10" stroke-linecap="round" stroke-linejoin="round"/>
<path d="M187.557 73.1565H173.957C172.446 73.1565 171.312 72.0232 171.312 70.5121V3.64453C171.312 2.13339 172.446 1 173.957 1H228.358C229.869 1 231.002 2.13339 231.002 3.64453V70.5121C231.002 72.0232 229.869 73.1565 228.358 73.1565H213.624" stroke="#D2B596" stroke-miterlimit="10" stroke-linecap="round" stroke-linejoin="round"/>
<path d="M182.266 13.4663H203.799" stroke="#D2B596" stroke-miterlimit="10" stroke-linecap="round" stroke-linejoin="round"/>
<path d="M182.266 20.2676H219.666" stroke="#D2B596" stroke-miterlimit="10" stroke-linecap="round" stroke-linejoin="round"/>
<path d="M182.266 33.1118H219.666" stroke="#D2B596" stroke-miterlimit="10" stroke-linecap="round" stroke-linejoin="round"/>
<path d="M182.266 40.6675H219.666" stroke="#D2B596" stroke-miterlimit="10" stroke-linecap="round" stroke-linejoin="round"/>
<path d="M182.266 48.2227H219.666" stroke="#D2B596" stroke-miterlimit="10" stroke-linecap="round" stroke-linejoin="round"/>
<path d="M200.777 67.8678C204.532 67.8678 207.577 64.8233 207.577 61.0677C207.577 57.3121 204.532 54.2676 200.777 54.2676C197.021 54.2676 193.977 57.3121 193.977 61.0677C193.977 64.8233 197.021 67.8678 200.777 67.8678Z" stroke="#D2B596" stroke-miterlimit="10" stroke-linecap="round" stroke-linejoin="round"/>
<path d="M195.867 67.4897V82.2233L200.778 77.3121L206.445 82.2233V70.512" stroke="#D2B596" stroke-miterlimit="10" stroke-linecap="round" stroke-linejoin="round"/>
</svg>
