<svg width="170" height="170" viewBox="0 0 170 170" fill="none" xmlns="http://www.w3.org/2000/svg">
<rect width="170" height="170" rx="9" fill="#F8F8F8"/>
<path d="M129.739 40.2632H40.2656V129.737H129.739V40.2632Z" fill="#F41112"/>
<path d="M67.9287 70.5352H53.6875V71.2062C55.3279 71.2808 55.8498 71.5045 55.8498 73.2194V84.7764C55.8498 86.5659 55.3279 86.715 53.6875 86.7895V87.386H61.6656V86.7895C59.6524 86.715 59.205 86.4913 59.205 84.7764V79.2588H62.1129C64.2752 79.2588 65.3191 79.7808 65.6919 81.7194H66.3629V75.7545H65.6919C65.3936 77.5439 64.7972 77.9913 62.1129 77.9913H59.205V72.6229C59.205 71.9518 59.3542 71.8027 60.1743 71.8027H62.7094C66.0647 71.8027 66.6612 72.3992 67.2577 74.2632H67.9287V70.5352Z" fill="white"/>
<path d="M78.7375 85.6712L75.4568 80.8247L77.2463 78.5878C78.4393 77.1712 79.1104 76.4255 80.1542 76.351V75.6799H75.5314V76.351C76.3516 76.351 76.7244 76.5747 76.7244 77.0966C76.7244 77.544 76.2025 78.1405 75.7551 78.5878L74.7112 79.7808L73.5182 77.9913C73.22 77.6185 72.9963 77.3203 72.9963 76.9475C72.9963 76.5747 73.4437 76.351 74.1893 76.351V75.6799H68.0007V76.351C68.8954 76.5747 69.2682 77.0966 69.7156 77.7677L72.7726 82.2413L70.2375 85.2238C69.3428 86.2677 68.8954 86.6405 67.8516 86.7896V87.3861H72.3998V86.7896C71.8033 86.7896 71.1323 86.6405 71.1323 86.2677C71.1323 85.8948 71.5796 85.3729 72.3253 84.4782L73.3691 83.2106L74.6367 85.0747C75.084 85.7457 75.3077 86.044 75.3077 86.2677C75.3077 86.5659 74.8603 86.715 74.0402 86.715V87.3115H80.3779V86.715C79.856 86.8641 79.4086 86.715 78.7375 85.6712Z" fill="white"/>
<path d="M89.3999 70.5352H81.4219V71.2062C83.1368 71.2808 83.5842 71.5045 83.5842 73.2194V84.7764C83.5842 86.5659 83.1368 86.715 81.4219 86.7895V87.386H89.2508V86.7895C87.4613 86.715 87.014 86.4913 87.014 84.7764V80.3773H89.2508C93.5754 80.3773 95.8868 78.6623 95.8868 75.4562C95.8122 72.6974 94.0228 70.5352 89.3999 70.5352ZM86.9394 79.408V72.4738C86.9394 71.8773 87.1631 71.5045 88.3561 71.5045C90.5929 71.5045 92.3078 72.772 92.3078 75.0834C92.3078 77.7676 90.8912 79.408 86.9394 79.408Z" fill="white"/>
<path d="M103.795 75.4562C102.378 75.4562 101.484 76.5746 101.036 77.6185H100.962V75.829C100.962 75.6053 100.962 75.4562 100.813 75.4562C100.589 75.4562 97.83 76.2018 96.5625 76.4255V77.0965C97.6809 77.0965 97.9792 77.3202 97.9792 78.5878V85.3728C97.9792 86.4167 97.5318 86.6404 96.5625 86.7895V87.386H102.751V86.7895C101.633 86.7895 100.962 86.4913 100.962 85.2237V78.6623C101.334 78.0658 101.782 77.693 102.229 77.693C102.527 77.693 102.751 77.8421 102.9 77.9167C103.124 78.0658 103.422 78.4386 104.093 78.4386C104.839 78.4386 105.435 77.8421 105.435 77.0965C105.51 76.3509 104.988 75.4562 103.795 75.4562Z" fill="white"/>
<path d="M110.948 75.4562C107.593 75.4562 105.281 78.0658 105.281 81.6448C105.281 85.2237 107.593 87.8334 110.948 87.8334C114.303 87.8334 116.615 85.2237 116.615 81.6448C116.615 78.0658 114.303 75.4562 110.948 75.4562ZM110.948 86.7895C109.158 86.7895 108.487 85.2237 108.487 81.6448C108.487 78.0658 109.233 76.5 110.948 76.5C112.737 76.5 113.408 78.0658 113.408 81.6448C113.483 85.2237 112.737 86.7895 110.948 86.7895Z" fill="white"/>
<path d="M53.6797 93.1845H58.1347V93.8983H56.2941V98.862H55.5122V93.8983H53.6797V93.1845Z" fill="white"/>
<path d="M59.352 95.4961C59.4932 95.1879 59.6941 94.9553 59.9547 94.7985C60.2154 94.6363 60.5249 94.5525 60.8832 94.5471V95.2771C60.4434 95.2609 60.0878 95.3744 59.8163 95.6177C59.5448 95.861 59.39 96.1882 59.352 96.5991V98.862H58.5946V94.5714H59.352V95.4961Z" fill="white"/>
<path d="M64.1443 98.862V98.2618C63.8239 98.6836 63.3217 98.8944 62.6375 98.8944C62.3389 98.8944 62.0756 98.8377 61.8475 98.7241C61.6249 98.6106 61.4511 98.4538 61.3263 98.2537C61.2068 98.0536 61.1471 97.8292 61.1471 97.5805C61.1471 97.1966 61.2883 96.8938 61.5706 96.6721C61.8584 96.445 62.2575 96.3288 62.7678 96.3233H64.1361V96.1206C64.1361 95.8178 64.0411 95.5853 63.8511 95.4231C63.6665 95.2554 63.395 95.1716 63.0366 95.1716C62.6022 95.1716 62.1597 95.3257 61.7091 95.6339L61.3914 95.1149C61.7009 94.9148 61.986 94.7715 62.2466 94.685C62.5126 94.5931 62.8276 94.5471 63.1914 94.5471C63.7289 94.5471 64.1443 94.6796 64.4375 94.9445C64.7307 95.2041 64.88 95.5691 64.8854 96.0395L64.8936 98.862H64.1443ZM62.7923 98.2699C63.1452 98.2699 63.4438 98.1861 63.6882 98.0185C63.9379 97.8455 64.0873 97.6184 64.1361 97.3372V96.9073H62.8737C62.5317 96.9073 62.2765 96.9587 62.1081 97.0614C61.9452 97.1642 61.8638 97.3264 61.8638 97.5481C61.8638 97.7698 61.948 97.9455 62.1163 98.0753C62.2846 98.205 62.5099 98.2699 62.7923 98.2699Z" fill="white"/>
<path d="M70.2613 92.8439V98.862H69.5038V98.0104C69.3409 98.2969 69.121 98.5186 68.8441 98.6754C68.5726 98.8268 68.255 98.9025 67.8912 98.9025C67.484 98.9025 67.1229 98.8106 66.808 98.6268C66.4985 98.4375 66.2569 98.178 66.0831 97.8482C65.9094 97.5129 65.8225 97.1317 65.8225 96.7046C65.8225 96.2828 65.9094 95.9097 66.0831 95.5853C66.2569 95.2554 66.4985 94.9986 66.808 94.8148C67.1229 94.6309 67.4813 94.539 67.8831 94.539C68.2523 94.539 68.5753 94.6147 68.8523 94.7661C69.1292 94.9175 69.3464 95.1365 69.5038 95.4231V92.8439H70.2613ZM68.0459 98.2537C68.3283 98.2537 68.5781 98.1888 68.7952 98.059C69.0179 97.9293 69.1916 97.7481 69.3165 97.5156C69.4414 97.2831 69.5038 97.0209 69.5038 96.7289C69.5038 96.4315 69.4414 96.1665 69.3165 95.934C69.1916 95.7015 69.0179 95.5204 68.7952 95.3906C68.5781 95.2609 68.3283 95.196 68.0459 95.196C67.7636 95.196 67.5111 95.2636 67.2885 95.3987C67.0713 95.5285 66.9003 95.7096 66.7754 95.9421C66.6505 96.1747 66.5881 96.4369 66.5881 96.7289C66.5881 97.0209 66.6505 97.2831 66.7754 97.5156C66.9003 97.7481 67.0713 97.9293 67.2885 98.059C67.5111 98.1888 67.7636 98.2537 68.0459 98.2537Z" fill="white"/>
<path d="M73.5084 94.5471C74.1762 94.5471 74.6812 94.7445 75.0233 95.1392C75.3653 95.5285 75.5364 96.0719 75.5364 96.7694C75.5364 96.8776 75.5337 96.9587 75.5282 97.0128H72.1238C72.1835 97.3967 72.3437 97.7022 72.6043 97.9293C72.8704 98.1564 73.1962 98.2699 73.5817 98.2699C73.8369 98.2699 74.0731 98.2239 74.2903 98.132C74.5129 98.0401 74.7056 97.9103 74.8685 97.7427L75.2839 98.1726C75.0721 98.3997 74.8169 98.5754 74.5183 98.6998C74.2197 98.8241 73.8885 98.8863 73.5247 98.8863C73.1012 98.8863 72.7238 98.7971 72.3926 98.6187C72.0668 98.4348 71.8116 98.178 71.627 97.8482C71.4478 97.5183 71.3582 97.1425 71.3582 96.7208C71.3582 96.299 71.4478 95.9259 71.627 95.6015C71.8116 95.2717 72.0668 95.0148 72.3926 94.831C72.7184 94.6417 73.0903 94.5471 73.5084 94.5471ZM74.8522 96.4288C74.8305 96.0395 74.7002 95.734 74.4613 95.5123C74.2224 95.2852 73.9075 95.1716 73.5165 95.1716C73.1364 95.1716 72.8188 95.2852 72.5636 95.5123C72.3139 95.7394 72.1645 96.0449 72.1157 96.4288H74.8522Z" fill="white"/>
<path d="M78.7747 93.1845H79.5566V98.1564H82.0488V98.862H78.7747V93.1845Z" fill="white"/>
<path d="M82.9725 94.5714H83.73V98.862H82.9725V94.5714ZM83.3472 92.8601C83.4829 92.8601 83.5942 92.9061 83.6811 92.998C83.7734 93.0899 83.8196 93.2061 83.8196 93.3467C83.8196 93.4873 83.7734 93.6036 83.6811 93.6955C83.5942 93.7874 83.4829 93.8334 83.3472 93.8334C83.2114 93.8334 83.0974 93.7874 83.0051 93.6955C82.9182 93.6036 82.8748 93.4873 82.8748 93.3467C82.8748 93.2061 82.9182 93.0899 83.0051 92.998C83.0974 92.9061 83.2114 92.8601 83.3472 92.8601Z" fill="white"/>
<path d="M88.221 98.862L86.8446 96.7775L86.0057 97.6454V98.862H85.2482V92.8439H86.0057V96.6802L88.0907 94.5714H88.9784L87.3739 96.2341L89.1332 98.862H88.221Z" fill="white"/>
<path d="M91.4757 94.5471C92.1435 94.5471 92.6485 94.7445 92.9906 95.1392C93.3326 95.5285 93.5037 96.0719 93.5037 96.7694C93.5037 96.8776 93.5009 96.9587 93.4955 97.0128H90.0911C90.1508 97.3967 90.311 97.7022 90.5716 97.9293C90.8377 98.1564 91.1635 98.2699 91.549 98.2699C91.8042 98.2699 92.0404 98.2239 92.2575 98.132C92.4802 98.0401 92.6729 97.9103 92.8358 97.7427L93.2512 98.1726C93.0394 98.3997 92.7842 98.5754 92.4856 98.6998C92.187 98.8241 91.8558 98.8863 91.492 98.8863C91.0685 98.8863 90.6911 98.7971 90.3599 98.6187C90.0341 98.4348 89.7789 98.178 89.5943 97.8482C89.4151 97.5183 89.3255 97.1425 89.3255 96.7208C89.3255 96.299 89.4151 95.9259 89.5943 95.6015C89.7789 95.2717 90.0341 95.0148 90.3599 94.831C90.6857 94.6417 91.0576 94.5471 91.4757 94.5471ZM92.8195 96.4288C92.7978 96.0395 92.6675 95.734 92.4286 95.5123C92.1897 95.2852 91.8748 95.1716 91.4838 95.1716C91.1037 95.1716 90.7861 95.2852 90.5309 95.5123C90.2811 95.7394 90.1318 96.0449 90.083 96.4288H92.8195Z" fill="white"/>
<path d="M99.2994 98.862V98.2618C98.979 98.6836 98.4768 98.8944 97.7927 98.8944C97.494 98.8944 97.2307 98.8377 97.0026 98.7241C96.78 98.6106 96.6063 98.4538 96.4814 98.2537C96.3619 98.0536 96.3022 97.8292 96.3022 97.5805C96.3022 97.1966 96.4434 96.8938 96.7257 96.6721C97.0135 96.445 97.4126 96.3288 97.923 96.3233H99.2912V96.1206C99.2912 95.8178 99.1962 95.5853 99.0062 95.4231C98.8216 95.2554 98.5501 95.1716 98.1917 95.1716C97.7574 95.1716 97.3148 95.3257 96.8642 95.6339L96.5465 95.1149C96.856 94.9148 97.1411 94.7715 97.4017 94.685C97.6678 94.5931 97.9827 94.5471 98.3465 94.5471C98.884 94.5471 99.2994 94.6796 99.5926 94.9445C99.8858 95.2041 100.035 95.5691 100.041 96.0395L100.049 98.862H99.2994ZM97.9474 98.2699C98.3003 98.2699 98.599 98.1861 98.8433 98.0185C99.0931 97.8455 99.2424 97.6184 99.2912 97.3372V96.9073H98.0288C97.6868 96.9073 97.4316 96.9587 97.2633 97.0614C97.1004 97.1642 97.0189 97.3264 97.0189 97.5481C97.0189 97.7698 97.1031 97.9455 97.2714 98.0753C97.4397 98.205 97.6651 98.2699 97.9474 98.2699Z" fill="white"/>
<path d="M105.805 93.1845C106.516 93.1845 107.065 93.3521 107.45 93.6874C107.841 94.0226 108.037 94.493 108.037 95.0986C108.037 95.7313 107.841 96.2233 107.45 96.5748C107.059 96.9208 106.511 97.0939 105.805 97.0939H104.388V98.862H103.606V93.1845H105.805ZM105.772 96.3882C106.261 96.3882 106.636 96.2828 106.896 96.0719C107.157 95.8556 107.287 95.5393 107.287 95.123C107.287 94.7174 107.157 94.4119 106.896 94.2065C106.636 93.9956 106.261 93.8901 105.772 93.8901L104.388 93.8983V96.3882H105.772Z" fill="white"/>
<path d="M109.754 95.4961C109.895 95.1879 110.096 94.9553 110.357 94.7985C110.618 94.6363 110.927 94.5525 111.285 94.5471V95.2771C110.846 95.2609 110.49 95.3744 110.219 95.6177C109.947 95.861 109.792 96.1882 109.754 96.5991V98.862H108.997V94.5714H109.754V95.4961Z" fill="white"/>
<path d="M113.899 94.5471C114.327 94.5471 114.708 94.639 115.039 94.8229C115.375 95.0067 115.636 95.2636 115.821 95.5934C116.011 95.9178 116.106 96.2909 116.106 96.7127C116.106 97.1344 116.011 97.5102 115.821 97.84C115.636 98.1699 115.375 98.4267 115.039 98.6106C114.708 98.7944 114.327 98.8863 113.899 98.8863C113.464 98.8863 113.079 98.7944 112.742 98.6106C112.411 98.4267 112.15 98.1726 111.96 97.8482C111.776 97.5183 111.683 97.1398 111.683 96.7127C111.683 96.2909 111.776 95.9178 111.96 95.5934C112.15 95.2636 112.411 95.0067 112.742 94.8229C113.079 94.639 113.464 94.5471 113.899 94.5471ZM113.899 95.2041C113.616 95.2041 113.364 95.269 113.141 95.3987C112.924 95.5285 112.753 95.7096 112.628 95.9421C112.509 96.1692 112.449 96.4288 112.449 96.7208C112.449 97.0182 112.509 97.2831 112.628 97.5156C112.753 97.7481 112.924 97.9293 113.141 98.059C113.364 98.1834 113.616 98.2456 113.899 98.2456C114.175 98.2456 114.422 98.1834 114.64 98.059C114.862 97.9293 115.033 97.7481 115.153 97.5156C115.278 97.2831 115.34 97.0182 115.34 96.7208C115.34 96.4288 115.278 96.1692 115.153 95.9421C115.033 95.7096 114.862 95.5285 114.64 95.3987C114.422 95.269 114.175 95.2041 113.899 95.2041Z" fill="white"/>
</svg>
