<svg width="170" height="170" viewBox="0 0 170 170" fill="none" xmlns="http://www.w3.org/2000/svg">
<rect width="170" height="170" rx="9" fill="#F8F8F8"/>
<path d="M133.315 44.7368H37.5781V124.518H133.315V44.7368Z" fill="#ED1C24"/>
<path d="M67.6077 70.6842H52.8359V71.4022C54.5374 71.482 55.0788 71.7214 55.0788 73.5563V85.9223C55.0788 87.8371 54.5374 87.9966 52.8359 88.0764V88.7146H61.1112V88.0764C59.0231 87.9966 58.559 87.7573 58.559 85.9223V80.0185H61.5752C63.8181 80.0185 64.9008 80.577 65.2875 82.6513H65.9836V76.2689H65.2875C64.9782 78.1836 64.3595 78.6623 61.5752 78.6623H58.559V72.9181C58.559 72.2 58.7137 72.0405 59.5644 72.0405H62.194C65.6742 72.0405 66.2929 72.6787 66.9116 74.6732H67.6077V70.6842Z" fill="white"/>
<path d="M78.8306 86.8797L75.4276 81.694L77.2838 79.3005C78.5212 77.7847 79.2173 76.9869 80.3 76.9071V76.1891H75.505V76.9071C76.3557 76.9071 76.7424 77.1465 76.7424 77.7049C76.7424 78.1836 76.201 78.8219 75.737 79.3005L74.6543 80.577L73.4168 78.6623C73.1075 78.2634 72.8755 77.9443 72.8755 77.5454C72.8755 77.1465 73.3395 76.9071 74.1129 76.9071V76.1891H67.6937V76.9071C68.6218 77.1465 69.0085 77.7049 69.4725 78.4229L72.6434 83.2098L70.0139 86.401C69.0858 87.5179 68.6218 87.9168 67.5391 88.0764V88.7147H72.2567V88.0764C71.638 88.0764 70.942 87.9168 70.942 87.5179C70.942 87.119 71.406 86.5606 72.1794 85.6032L73.2622 84.2469L74.5769 86.2415C75.0409 86.9595 75.273 87.2786 75.273 87.5179C75.273 87.8371 74.8089 87.9966 73.9582 87.9966V88.6349H80.532V87.9966C79.9906 88.1562 79.5266 87.9966 78.8306 86.8797Z" fill="white"/>
<path d="M89.8768 70.6842H81.6016V71.4022C83.3804 71.482 83.8444 71.7214 83.8444 73.5563V85.9223C83.8444 87.8371 83.3804 87.9966 81.6016 88.0764V88.7146H89.7222V88.0764C87.866 87.9966 87.402 87.7573 87.402 85.9223V81.2153H89.7222C94.2078 81.2153 96.6053 79.3803 96.6053 75.9497C96.528 72.9978 94.6719 70.6842 89.8768 70.6842ZM87.3246 80.1781V72.7585C87.3246 72.1203 87.5567 71.7214 88.7941 71.7214C91.1143 71.7214 92.8931 73.0776 92.8931 75.5508C92.8931 78.4229 91.4236 80.1781 87.3246 80.1781Z" fill="white"/>
<path d="M104.807 75.9496C103.337 75.9496 102.409 77.1463 101.945 78.2632H101.868V76.3485C101.868 76.1091 101.868 75.9496 101.713 75.9496C101.481 75.9496 98.6195 76.7474 97.3047 76.9867V77.7048C98.4648 77.7048 98.7741 77.9441 98.7741 79.3004V86.5604C98.7741 87.6773 98.3101 87.9167 97.3047 88.0763V88.7145H103.724V88.0763C102.564 88.0763 101.868 87.7571 101.868 86.4009V79.3802C102.254 78.7419 102.718 78.343 103.182 78.343C103.492 78.343 103.724 78.5026 103.879 78.5823C104.111 78.7419 104.42 79.1408 105.116 79.1408C105.889 79.1408 106.508 78.5026 106.508 77.7048C106.585 76.907 106.044 75.9496 104.807 75.9496Z" fill="white"/>
<path d="M112.229 75.9496C108.749 75.9496 106.352 78.7419 106.352 82.5714C106.352 86.4009 108.749 89.1932 112.229 89.1932C115.71 89.1932 118.107 86.4009 118.107 82.5714C118.107 78.7419 115.71 75.9496 112.229 75.9496ZM112.229 88.0763C110.373 88.0763 109.677 86.4009 109.677 82.5714C109.677 78.7419 110.451 77.0665 112.229 77.0665C114.085 77.0665 114.782 78.7419 114.782 82.5714C114.859 86.4009 114.085 88.0763 112.229 88.0763Z" fill="white"/>
<path d="M56.7191 95.1496H56.4997C56.4806 95.0815 56.4456 95.0012 56.3948 94.9086C56.346 94.8141 56.2909 94.7253 56.2294 94.6421C56.1658 94.5552 56.0959 94.4796 56.0196 94.4153C55.9454 94.3492 55.8733 94.3114 55.8033 94.3019C55.7376 94.2944 55.655 94.2887 55.5553 94.2849C55.4557 94.2811 55.3635 94.2792 55.2787 94.2792H55.0943V97.497C55.0943 97.5594 55.1091 97.617 55.1388 97.6699C55.1685 97.721 55.2204 97.7607 55.2946 97.789C55.3328 97.8022 55.4123 97.8202 55.5331 97.8429C55.656 97.8656 55.7514 97.8778 55.8192 97.8797V98.081H53.6889V97.8797C53.7482 97.8759 53.8383 97.8684 53.9592 97.857C54.0821 97.8457 54.1669 97.8315 54.2135 97.8145C54.2835 97.79 54.3344 97.755 54.3662 97.7096C54.4001 97.6624 54.417 97.6 54.417 97.5225V94.2792H54.2326C54.1669 94.2792 54.0853 94.2811 53.9878 94.2849C53.8903 94.2868 53.797 94.2925 53.708 94.3019C53.638 94.3095 53.5649 94.3473 53.4886 94.4153C53.4144 94.4815 53.3455 94.5571 53.2819 94.6421C53.2183 94.7272 53.1621 94.8179 53.1134 94.9143C53.0646 95.0088 53.0307 95.0872 53.0116 95.1496H52.7891V94.0581H56.7191V95.1496Z" fill="white"/>
<path d="M59.4027 95.6457C59.4027 95.7421 59.3762 95.8281 59.3232 95.9037C59.2702 95.9774 59.1886 96.0143 59.0784 96.0143C58.9596 96.0143 58.8685 95.9869 58.8049 95.9321C58.7434 95.8772 58.7127 95.8168 58.7127 95.7506C58.7127 95.709 58.7159 95.6712 58.7222 95.6372C58.7307 95.6032 58.7381 95.5692 58.7445 95.5352C58.6449 95.5352 58.5283 95.5711 58.3947 95.6429C58.2612 95.7147 58.1478 95.8168 58.0545 95.9491V97.5764C58.0545 97.6425 58.0683 97.6964 58.0959 97.738C58.1255 97.7796 58.1711 97.8107 58.2326 97.8315C58.2856 97.8504 58.3534 97.8646 58.4361 97.8741C58.5209 97.8835 58.594 97.8901 58.6555 97.8939V98.081H57.0021V97.8939C57.0508 97.8901 57.1006 97.8863 57.1515 97.8826C57.2045 97.8788 57.2501 97.8712 57.2882 97.8599C57.3476 97.8429 57.391 97.8136 57.4186 97.772C57.4483 97.7285 57.4631 97.6728 57.4631 97.6047V95.8782C57.4631 95.8196 57.4472 95.762 57.4154 95.7053C57.3857 95.6486 57.3433 95.6032 57.2882 95.5692C57.248 95.5465 57.2003 95.5304 57.1451 95.521C57.09 95.5096 57.0307 95.5021 56.9671 95.4983V95.314L58.01 95.2517L58.0545 95.2913V95.6854H58.0704C58.2018 95.5323 58.3481 95.4161 58.5092 95.3367C58.6703 95.2573 58.8176 95.2176 58.9512 95.2176C59.0847 95.2176 59.1928 95.2564 59.2755 95.3339C59.3603 95.4114 59.4027 95.5153 59.4027 95.6457Z" fill="white"/>
<path d="M62.6427 98.03C62.5431 98.0621 62.4551 98.0876 62.3788 98.1065C62.3046 98.1273 62.2198 98.1377 62.1244 98.1377C61.9591 98.1377 61.8266 98.1037 61.727 98.0357C61.6295 97.9657 61.5669 97.8646 61.5394 97.7323H61.5203C61.3825 97.8684 61.2341 97.9723 61.0752 98.0442C60.9183 98.116 60.7286 98.1519 60.506 98.1519C60.2707 98.1519 60.0768 98.0876 59.9241 97.9591C59.7736 97.8306 59.6984 97.6624 59.6984 97.4545C59.6984 97.3467 59.7153 97.2504 59.7493 97.1653C59.7832 97.0802 59.834 97.0037 59.9019 96.9357C59.9549 96.879 60.0248 96.8289 60.1117 96.7854C60.1986 96.74 60.2803 96.7041 60.3566 96.6777C60.452 96.6455 60.6448 96.586 60.9353 96.4991C61.2278 96.4121 61.4249 96.3441 61.5267 96.2949V96.0143C61.5267 95.9897 61.5203 95.9425 61.5076 95.8725C61.497 95.8026 61.4726 95.7364 61.4345 95.6741C61.3921 95.6041 61.3316 95.5437 61.2532 95.4926C61.1769 95.4397 61.0677 95.4132 60.9257 95.4132C60.8282 95.4132 60.7371 95.4284 60.6523 95.4586C60.5696 95.487 60.5113 95.5172 60.4774 95.5493C60.4774 95.5871 60.4869 95.6429 60.506 95.7166C60.5272 95.7903 60.5378 95.8583 60.5378 95.9207C60.5378 95.9869 60.5039 96.0474 60.4361 96.1022C60.3703 96.157 60.2781 96.1844 60.1594 96.1844C60.0534 96.1844 59.975 96.1513 59.9241 96.0852C59.8754 96.0171 59.851 95.9415 59.851 95.8583C59.851 95.7714 59.8849 95.6882 59.9528 95.6089C60.0227 95.5295 60.1128 95.4586 60.223 95.3962C60.3184 95.3433 60.4339 95.2989 60.5696 95.263C60.7053 95.2252 60.8377 95.2063 60.967 95.2063C61.1451 95.2063 61.2998 95.2176 61.4313 95.2403C61.5648 95.2611 61.6856 95.3074 61.7938 95.3792C61.9019 95.4492 61.9835 95.5446 62.0386 95.6656C62.0958 95.7846 62.1244 95.9387 62.1244 96.1277C62.1244 96.398 62.1213 96.638 62.1149 96.8478C62.1085 97.0557 62.1054 97.2834 62.1054 97.531C62.1054 97.6047 62.1191 97.6633 62.1467 97.7068C62.1764 97.7503 62.2209 97.7871 62.2802 97.8174C62.312 97.8344 62.3618 97.8438 62.4297 97.8457C62.4996 97.8476 62.5706 97.8485 62.6427 97.8485V98.03ZM61.533 96.5331C61.3528 96.5803 61.1949 96.6266 61.0593 96.672C60.9236 96.7174 60.7975 96.7741 60.6809 96.8421C60.5749 96.9064 60.4912 96.9829 60.4297 97.0717C60.3682 97.1587 60.3375 97.2626 60.3375 97.3836C60.3375 97.5405 60.3831 97.6558 60.4742 97.7295C60.5675 97.8032 60.6851 97.84 60.8271 97.84C60.9776 97.84 61.1101 97.8079 61.2246 97.7436C61.3391 97.6775 61.4355 97.6 61.5139 97.5112L61.533 96.5331Z" fill="white"/>
<path d="M66.3883 98.03L65.2945 98.0924L65.2468 98.0527V97.7918L65.2214 97.7862C65.1112 97.8958 64.9744 97.9856 64.8112 98.0555C64.6501 98.1254 64.4837 98.1604 64.312 98.1604C64.134 98.1604 63.9612 98.1254 63.7937 98.0555C63.6284 97.9837 63.4843 97.8835 63.3613 97.755C63.2362 97.6246 63.1366 97.4677 63.0624 97.2844C62.9903 97.101 62.9543 96.8988 62.9543 96.6777C62.9543 96.4754 62.9935 96.2836 63.072 96.1022C63.1504 95.9207 63.2585 95.762 63.3963 95.6259C63.5256 95.4992 63.6835 95.3981 63.87 95.3225C64.0587 95.2469 64.2505 95.2091 64.4456 95.2091C64.5918 95.2091 64.7349 95.2261 64.8748 95.2602C65.0168 95.2923 65.1387 95.3339 65.2405 95.3849V94.4125C65.2405 94.3331 65.2256 94.2613 65.1959 94.197C65.1663 94.1309 65.1249 94.0808 65.0719 94.0468C65.0126 94.0109 64.932 93.9853 64.8303 93.9702C64.7307 93.9532 64.6226 93.9409 64.506 93.9334V93.7576L65.7874 93.6924L65.8351 93.7349V97.5055C65.8351 97.5717 65.8488 97.6284 65.8764 97.6756C65.9061 97.721 65.9485 97.7597 66.0036 97.7918C66.0438 97.8145 66.1021 97.8287 66.1784 97.8344C66.2548 97.84 66.3247 97.8438 66.3883 97.8457V98.03ZM65.2405 97.5395V95.9037C65.2235 95.8546 65.1959 95.8016 65.1578 95.7449C65.1196 95.6882 65.0719 95.6363 65.0147 95.589C64.9532 95.5418 64.8812 95.503 64.7985 95.4728C64.7158 95.4407 64.6194 95.4246 64.5091 95.4246C64.382 95.4246 64.2643 95.4539 64.1562 95.5125C64.0502 95.5711 63.9559 95.6552 63.8732 95.7648C63.7948 95.8706 63.7323 96.0058 63.6856 96.1702C63.6411 96.3327 63.6189 96.5132 63.6189 96.7117C63.6189 96.8705 63.6358 97.015 63.6697 97.1455C63.7036 97.274 63.7609 97.394 63.8414 97.5055C63.9156 97.6113 64.0099 97.6964 64.1244 97.7607C64.241 97.8249 64.3788 97.857 64.5378 97.857C64.7073 97.857 64.8472 97.824 64.9575 97.7578C65.0698 97.6917 65.1642 97.6189 65.2405 97.5395Z" fill="white"/>
<path d="M69.4789 97.4233C69.3475 97.6463 69.1715 97.824 68.9511 97.9563C68.7306 98.0886 68.4773 98.1547 68.1911 98.1547C67.9389 98.1547 67.7174 98.115 67.5266 98.0357C67.338 97.9563 67.1821 97.8485 67.0592 97.7125C66.9363 97.5764 66.8441 97.4176 66.7826 97.2362C66.7232 97.0547 66.6935 96.8629 66.6935 96.6607C66.6935 96.4792 66.7253 96.3016 66.7889 96.1277C66.8546 95.9519 66.95 95.7941 67.0751 95.6542C67.1959 95.52 67.3454 95.4123 67.5234 95.331C67.7036 95.2479 67.905 95.2063 68.1276 95.2063C68.3565 95.2063 68.5526 95.2384 68.7158 95.3027C68.879 95.3669 69.0115 95.4548 69.1132 95.5663C69.2107 95.6722 69.2828 95.7969 69.3295 95.9406C69.3782 96.0842 69.4026 96.2401 69.4026 96.4083V96.5955H67.3263C67.3263 96.7788 67.3454 96.9451 67.3835 97.0944C67.4238 97.2437 67.4863 97.3751 67.5711 97.4885C67.6538 97.5981 67.7619 97.6851 67.8954 97.7493C68.029 97.8117 68.188 97.8429 68.3724 97.8429C68.561 97.8429 68.7232 97.8041 68.8589 97.7266C68.9967 97.6473 69.1291 97.5055 69.2563 97.3014L69.4789 97.4233ZM68.7762 96.3573C68.7762 96.2515 68.7656 96.1381 68.7444 96.0171C68.7253 95.8961 68.6935 95.795 68.649 95.7138C68.6003 95.6268 68.5335 95.5559 68.4487 95.5011C68.3639 95.4463 68.2547 95.4189 68.1212 95.4189C67.8986 95.4189 67.7131 95.5021 67.5648 95.6684C67.4185 95.8328 67.339 96.0625 67.3263 96.3573H68.7762Z" fill="white"/>
<path d="M74.9955 95.0645H74.7571C74.7126 94.9152 74.6193 94.7555 74.4773 94.5854C74.3374 94.4153 74.2028 94.3218 74.0735 94.3048C74.0077 94.2972 73.9293 94.2915 73.8382 94.2877C73.7491 94.284 73.6474 94.2821 73.5329 94.2821H72.7762V95.898H73.2944C73.4513 95.898 73.5732 95.8839 73.6601 95.8555C73.747 95.8253 73.8212 95.7799 73.8827 95.7194C73.9251 95.6779 73.9632 95.6136 73.9971 95.5267C74.0332 95.4378 74.0565 95.3433 74.0671 95.2431H74.3087V96.8223H74.0671C74.0607 96.7391 74.0385 96.6446 74.0003 96.5388C73.9643 96.4329 73.9251 96.3564 73.8827 96.3091C73.8191 96.2392 73.7385 96.1919 73.641 96.1674C73.5456 96.1409 73.4301 96.1277 73.2944 96.1277H72.7762V97.514C72.7762 97.5764 72.7899 97.6321 72.8175 97.6813C72.8451 97.7304 72.8938 97.7701 72.9638 97.8003C72.9956 97.8136 73.0644 97.8296 73.1704 97.8485C73.2764 97.8674 73.357 97.8778 73.4121 97.8797V98.081H71.4566V97.8797C71.5202 97.8759 71.605 97.8703 71.711 97.8627C71.817 97.8533 71.8859 97.8419 71.9177 97.8287C71.9813 97.8041 72.0268 97.7682 72.0544 97.721C72.0841 97.6718 72.0989 97.6132 72.0989 97.5452V94.6421C72.0989 94.5797 72.0872 94.5249 72.0639 94.4777C72.0406 94.4285 71.9919 94.3889 71.9177 94.3586C71.8604 94.334 71.7831 94.3123 71.6856 94.2934C71.5902 94.2745 71.5139 94.2632 71.4566 94.2594V94.0581H74.9955V95.0645Z" fill="white"/>
<path d="M78.3723 96.655C78.3723 96.8516 78.3373 97.0453 78.2674 97.2362C78.1974 97.4252 78.0978 97.5858 77.9685 97.7181C77.8222 97.8693 77.6526 97.9818 77.4597 98.0555C77.2668 98.1292 77.0506 98.1661 76.8111 98.1661C76.6118 98.1661 76.4221 98.133 76.242 98.0668C76.0618 97.9988 75.9017 97.9005 75.7618 97.772C75.624 97.6454 75.5138 97.4913 75.4311 97.3099C75.3506 97.1266 75.3103 96.9215 75.3103 96.6947C75.3103 96.2581 75.4523 95.9009 75.7364 95.623C76.0226 95.3452 76.3967 95.2063 76.8588 95.2063C77.2976 95.2063 77.659 95.3386 77.943 95.6032C78.2292 95.8659 78.3723 96.2165 78.3723 96.655ZM77.7141 96.6607C77.7141 96.5189 77.6982 96.3696 77.6664 96.2127C77.6346 96.054 77.5869 95.9198 77.5233 95.8102C77.4555 95.693 77.3665 95.5994 77.2563 95.5295C77.146 95.4577 77.0114 95.4218 76.8524 95.4218C76.6892 95.4218 76.5493 95.4577 76.4327 95.5295C76.3183 95.6013 76.225 95.6996 76.1529 95.8243C76.0851 95.9396 76.0374 96.071 76.0098 96.2184C75.9823 96.3658 75.9685 96.5085 75.9685 96.6465C75.9685 96.8279 75.9844 96.9961 76.0162 97.1511C76.0501 97.3042 76.1031 97.4412 76.1752 97.5622C76.2473 97.6832 76.3373 97.7786 76.4454 97.8485C76.5557 97.9166 76.6913 97.9506 76.8524 97.9506C77.1174 97.9506 77.3273 97.8363 77.482 97.6076C77.6367 97.3789 77.7141 97.0632 77.7141 96.6607Z" fill="white"/>
<path d="M81.2276 95.6457C81.2276 95.7421 81.2011 95.8281 81.1481 95.9037C81.0951 95.9774 81.0135 96.0143 80.9033 96.0143C80.7846 96.0143 80.6934 95.9869 80.6298 95.9321C80.5684 95.8772 80.5376 95.8168 80.5376 95.7506C80.5376 95.709 80.5408 95.6712 80.5472 95.6372C80.5556 95.6032 80.5631 95.5692 80.5694 95.5352C80.4698 95.5352 80.3532 95.5711 80.2197 95.6429C80.0861 95.7147 79.9727 95.8168 79.8794 95.9491V97.5764C79.8794 97.6425 79.8932 97.6964 79.9208 97.738C79.9505 97.7796 79.996 97.8107 80.0575 97.8315C80.1105 97.8504 80.1783 97.8646 80.261 97.8741C80.3458 97.8835 80.4189 97.8901 80.4804 97.8939V98.081H78.827V97.8939C78.8757 97.8901 78.9256 97.8863 78.9764 97.8826C79.0294 97.8788 79.075 97.8712 79.1131 97.8599C79.1725 97.8429 79.216 97.8136 79.2435 97.772C79.2732 97.7285 79.288 97.6728 79.288 97.6047V95.8782C79.288 95.8196 79.2721 95.762 79.2403 95.7053C79.2107 95.6486 79.1683 95.6032 79.1131 95.5692C79.0729 95.5465 79.0252 95.5304 78.9701 95.521C78.915 95.5096 78.8556 95.5021 78.792 95.4983V95.314L79.8349 95.2517L79.8794 95.2913V95.6854H79.8953C80.0268 95.5323 80.173 95.4161 80.3341 95.3367C80.4952 95.2573 80.6425 95.2176 80.7761 95.2176C80.9096 95.2176 81.0177 95.2564 81.1004 95.3339C81.1852 95.4114 81.2276 95.5153 81.2276 95.6457Z" fill="white"/>
<path d="M84.2832 97.4233C84.1518 97.6463 83.9759 97.824 83.7554 97.9563C83.5349 98.0886 83.2816 98.1547 82.9955 98.1547C82.7432 98.1547 82.5217 98.115 82.3309 98.0357C82.1423 97.9563 81.9865 97.8485 81.8635 97.7125C81.7406 97.5764 81.6484 97.4176 81.5869 97.2362C81.5275 97.0547 81.4979 96.8629 81.4979 96.6607C81.4979 96.4792 81.5297 96.3016 81.5933 96.1277C81.659 95.9519 81.7544 95.7941 81.8794 95.6542C82.0002 95.52 82.1497 95.4123 82.3277 95.331C82.5079 95.2479 82.7093 95.2063 82.9319 95.2063C83.1608 95.2063 83.3569 95.2384 83.5201 95.3027C83.6833 95.3669 83.8158 95.4548 83.9176 95.5663C84.0151 95.6722 84.0871 95.7969 84.1338 95.9406C84.1825 96.0842 84.2069 96.2401 84.2069 96.4083V96.5955H82.1306C82.1306 96.7788 82.1497 96.9451 82.1878 97.0944C82.2281 97.2437 82.2907 97.3751 82.3754 97.4885C82.4581 97.5981 82.5662 97.6851 82.6998 97.7493C82.8333 97.8117 82.9923 97.8429 83.1767 97.8429C83.3654 97.8429 83.5275 97.8041 83.6632 97.7266C83.801 97.6473 83.9335 97.5055 84.0606 97.3014L84.2832 97.4233ZM83.5805 96.3573C83.5805 96.2515 83.5699 96.1381 83.5487 96.0171C83.5296 95.8961 83.4978 95.795 83.4533 95.7138C83.4046 95.6268 83.3378 95.5559 83.253 95.5011C83.1682 95.4463 83.0591 95.4189 82.9255 95.4189C82.7029 95.4189 82.5175 95.5021 82.3691 95.6684C82.2228 95.8328 82.1433 96.0625 82.1306 96.3573H83.5805Z" fill="white"/>
<path d="M87.6663 98.081H86.2291V97.8939C86.3245 97.8845 86.4051 97.875 86.4708 97.8656C86.5386 97.8561 86.5725 97.8315 86.5725 97.7918C86.5725 97.7748 86.5619 97.7484 86.5407 97.7125C86.5196 97.6766 86.4984 97.6435 86.4772 97.6132C86.4242 97.5395 86.351 97.4412 86.2578 97.3184C86.1666 97.1937 86.0543 97.0453 85.9207 96.8733C85.8105 96.9961 85.7087 97.1162 85.6155 97.2333C85.5222 97.3486 85.4247 97.4715 85.323 97.6019C85.3081 97.6208 85.2922 97.6444 85.2753 97.6728C85.2604 97.7011 85.253 97.7238 85.253 97.7408C85.253 97.7824 85.2827 97.8174 85.342 97.8457C85.4035 97.8722 85.4947 97.8901 85.6155 97.8996V98.081H84.4549V97.9052C84.5991 97.8674 84.7146 97.8221 84.8015 97.7692C84.8905 97.7144 84.9721 97.6473 85.0463 97.5679C85.112 97.4923 85.2032 97.3883 85.3198 97.256C85.4385 97.1237 85.5911 96.9442 85.7776 96.7174C85.6695 96.5794 85.537 96.4112 85.3802 96.2127C85.2254 96.0124 85.0972 95.8461 84.9954 95.7138C84.9403 95.6419 84.8767 95.5843 84.8047 95.5408C84.7347 95.4955 84.6351 95.4728 84.5058 95.4728V95.2857H85.8698V95.4728C85.802 95.4728 85.7352 95.4766 85.6695 95.4841C85.6038 95.4917 85.571 95.5087 85.571 95.5352C85.571 95.5522 85.5773 95.5711 85.59 95.5919C85.6028 95.6126 85.6187 95.6353 85.6377 95.6599C85.6844 95.7242 85.7564 95.8234 85.8539 95.9576C85.9536 96.0918 86.0606 96.2335 86.1751 96.3828C86.2493 96.2921 86.3351 96.1863 86.4326 96.0653C86.5323 95.9443 86.6234 95.8291 86.7061 95.7194C86.7146 95.7062 86.723 95.6901 86.7315 95.6712C86.74 95.6504 86.7442 95.6306 86.7442 95.6117C86.7442 95.572 86.7071 95.5408 86.633 95.5181C86.5609 95.4936 86.492 95.4766 86.4263 95.4671V95.2857H87.5837V95.4614C87.4204 95.4992 87.2933 95.5446 87.2021 95.5975C87.111 95.6486 87.0336 95.7081 86.97 95.7761C86.9 95.8536 86.8163 95.9491 86.7188 96.0625C86.6234 96.1759 86.4888 96.3346 86.315 96.5388C86.5079 96.7807 86.6648 96.9791 86.7856 97.1341C86.9064 97.2891 87.0283 97.4488 87.1512 97.6132C87.2127 97.6964 87.2805 97.7625 87.3547 97.8117C87.431 97.8589 87.5349 97.8863 87.6663 97.8939V98.081Z" fill="white"/>
<path d="M93.2084 96.8846L93.113 98.081H89.5868V97.8797C89.6377 97.8759 89.7108 97.8693 89.8062 97.8599C89.9037 97.8504 89.9716 97.8381 90.0097 97.823C90.0733 97.7985 90.1189 97.7625 90.1464 97.7153C90.1761 97.668 90.191 97.6076 90.191 97.5339V94.6535C90.191 94.5892 90.1782 94.5325 90.1528 94.4834C90.1295 94.4342 90.0818 94.3945 90.0097 94.3643C89.961 94.3416 89.8921 94.3199 89.803 94.2991C89.7161 94.2764 89.6441 94.2632 89.5868 94.2594V94.0581H91.4914V94.2594C91.4321 94.2613 91.3547 94.2707 91.2593 94.2877C91.166 94.3048 91.0982 94.3199 91.0558 94.3331C90.9837 94.3558 90.9339 94.3945 90.9064 94.4493C90.8809 94.5041 90.8682 94.5627 90.8682 94.6251V97.3269C90.8682 97.4516 90.8746 97.549 90.8873 97.6189C90.9021 97.6869 90.935 97.7399 90.9859 97.7777C91.0346 97.8117 91.1067 97.8344 91.2021 97.8457C91.2996 97.8552 91.4352 97.8599 91.6091 97.8599C91.6875 97.8599 91.7691 97.858 91.8539 97.8542C91.9387 97.8504 92.0192 97.8429 92.0955 97.8315C92.1697 97.8202 92.2376 97.8051 92.299 97.7862C92.3626 97.7654 92.4093 97.7399 92.4389 97.7096C92.5259 97.6227 92.6265 97.4913 92.741 97.3156C92.8576 97.1379 92.9381 96.9943 92.9827 96.8846H93.2084Z" fill="white"/>
<path d="M94.9572 98.081H93.4405V97.8939C93.4893 97.8901 93.5391 97.8863 93.59 97.8826C93.643 97.8788 93.6885 97.8712 93.7267 97.8599C93.786 97.8429 93.8295 97.8136 93.8571 97.772C93.8867 97.7285 93.9016 97.6728 93.9016 97.6047V95.8782C93.9016 95.8177 93.8857 95.7629 93.8539 95.7138C93.8242 95.6627 93.7818 95.6202 93.7267 95.5862C93.6864 95.5635 93.6281 95.5446 93.5518 95.5295C93.4755 95.5125 93.4055 95.5021 93.342 95.4983V95.314L94.4485 95.2517L94.493 95.2913V97.5707C94.493 97.6369 94.5068 97.6917 94.5343 97.7351C94.564 97.7786 94.6096 97.8107 94.671 97.8315C94.7177 97.8485 94.7632 97.8627 94.8078 97.8741C94.8523 97.8835 94.9021 97.8901 94.9572 97.8939V98.081ZM94.5566 94.1488C94.5566 94.2566 94.5163 94.3511 94.4357 94.4323C94.3573 94.5117 94.2598 94.5514 94.1432 94.5514C94.0351 94.5514 93.9408 94.5136 93.8602 94.438C93.7818 94.3605 93.7426 94.2726 93.7426 94.1743C93.7426 94.0704 93.7818 93.9797 93.8602 93.9022C93.9408 93.8247 94.0351 93.7859 94.1432 93.7859C94.264 93.7859 94.3626 93.8228 94.4389 93.8965C94.5174 93.9683 94.5566 94.0524 94.5566 94.1488Z" fill="white"/>
<path d="M98.6646 98.081H97.7171C97.5518 97.8674 97.3748 97.6388 97.1861 97.3949C96.9975 97.1511 96.8014 96.9139 96.5979 96.6833L96.3372 96.9016V97.565C96.3372 97.6331 96.3509 97.6898 96.3785 97.7351C96.4061 97.7786 96.4506 97.8107 96.512 97.8315C96.5629 97.8504 96.6117 97.8646 96.6583 97.8741C96.7049 97.8835 96.759 97.8901 96.8205 97.8939V98.081H95.2815V97.8939C95.3303 97.8901 95.3812 97.8863 95.4341 97.8826C95.4871 97.8769 95.5317 97.8693 95.5677 97.8599C95.627 97.8429 95.6716 97.8136 95.7012 97.772C95.7309 97.7285 95.7458 97.6728 95.7458 97.6047V94.3558C95.7458 94.2858 95.7288 94.2206 95.6949 94.1602C95.6631 94.0978 95.6207 94.0505 95.5677 94.0184C95.5232 93.9882 95.4532 93.9683 95.3578 93.9589C95.2646 93.9494 95.1893 93.9428 95.1321 93.939V93.7576L96.2926 93.6924L96.3372 93.7349V96.6918C96.5025 96.5444 96.6806 96.3866 96.8713 96.2184C97.0642 96.0483 97.2264 95.8971 97.3578 95.7648C97.3748 95.7478 97.3928 95.726 97.4119 95.6996C97.4331 95.6712 97.4437 95.6486 97.4437 95.6315C97.4437 95.5805 97.397 95.5427 97.3038 95.5181C97.2126 95.4936 97.1246 95.4766 97.0399 95.4671V95.2857H98.4198V95.4614C98.2418 95.5087 98.0838 95.5682 97.946 95.6401C97.8104 95.71 97.7065 95.7733 97.6344 95.83C97.5836 95.8678 97.5115 95.9292 97.4182 96.0143C97.325 96.0993 97.1946 96.2108 97.0271 96.3488C97.201 96.5397 97.396 96.7684 97.6122 97.0349C97.8305 97.3014 97.9895 97.4942 98.0891 97.6132C98.1824 97.7247 98.2661 97.7975 98.3403 97.8315C98.4145 97.8656 98.5226 97.8863 98.6646 97.8939V98.081Z" fill="white"/>
<path d="M101.619 97.4233C101.487 97.6463 101.311 97.824 101.091 97.9563C100.87 98.0886 100.617 98.1547 100.331 98.1547C100.079 98.1547 99.857 98.115 99.6662 98.0357C99.4776 97.9563 99.3218 97.8485 99.1988 97.7125C99.0759 97.5764 98.9837 97.4176 98.9222 97.2362C98.8628 97.0547 98.8332 96.8629 98.8332 96.6607C98.8332 96.4792 98.865 96.3016 98.9286 96.1277C98.9943 95.9519 99.0897 95.7941 99.2147 95.6542C99.3355 95.52 99.485 95.4123 99.663 95.331C99.8432 95.2479 100.045 95.2063 100.267 95.2063C100.496 95.2063 100.692 95.2384 100.855 95.3027C101.019 95.3669 101.151 95.4548 101.253 95.5663C101.35 95.6722 101.422 95.7969 101.469 95.9406C101.518 96.0842 101.542 96.2401 101.542 96.4083V96.5955H99.4659C99.4659 96.7788 99.485 96.9451 99.5231 97.0944C99.5634 97.2437 99.6259 97.3751 99.7107 97.4885C99.7934 97.5981 99.9015 97.6851 100.035 97.7493C100.169 97.8117 100.328 97.8429 100.512 97.8429C100.701 97.8429 100.863 97.8041 100.998 97.7266C101.136 97.6473 101.269 97.5055 101.396 97.3014L101.619 97.4233ZM100.916 96.3573C100.916 96.2515 100.905 96.1381 100.884 96.0171C100.865 95.8961 100.833 95.795 100.789 95.7138C100.74 95.6268 100.673 95.5559 100.588 95.5011C100.504 95.4463 100.394 95.4189 100.261 95.4189C100.038 95.4189 99.8528 95.5021 99.7044 95.6684C99.5581 95.8328 99.4786 96.0625 99.4659 96.3573H100.916Z" fill="white"/>
<path d="M106.521 98.03C106.422 98.0621 106.334 98.0876 106.258 98.1065C106.183 98.1273 106.099 98.1377 106.003 98.1377C105.838 98.1377 105.705 98.1037 105.606 98.0357C105.508 97.9657 105.446 97.8646 105.418 97.7323H105.399C105.261 97.8684 105.113 97.9723 104.954 98.0442C104.797 98.116 104.607 98.1519 104.385 98.1519C104.149 98.1519 103.956 98.0876 103.803 97.9591C103.652 97.8306 103.577 97.6624 103.577 97.4545C103.577 97.3467 103.594 97.2504 103.628 97.1653C103.662 97.0802 103.713 97.0037 103.781 96.9357C103.834 96.879 103.904 96.8289 103.991 96.7854C104.077 96.74 104.159 96.7041 104.235 96.6777C104.331 96.6455 104.524 96.586 104.814 96.4991C105.107 96.4121 105.304 96.3441 105.405 96.2949V96.0143C105.405 95.9897 105.399 95.9425 105.386 95.8725C105.376 95.8026 105.351 95.7364 105.313 95.6741C105.271 95.6041 105.21 95.5437 105.132 95.4926C105.056 95.4397 104.947 95.4132 104.804 95.4132C104.707 95.4132 104.616 95.4284 104.531 95.4586C104.448 95.487 104.39 95.5172 104.356 95.5493C104.356 95.5871 104.366 95.6429 104.385 95.7166C104.406 95.7903 104.417 95.8583 104.417 95.9207C104.417 95.9869 104.383 96.0474 104.315 96.1022C104.249 96.157 104.157 96.1844 104.038 96.1844C103.932 96.1844 103.854 96.1513 103.803 96.0852C103.754 96.0171 103.73 95.9415 103.73 95.8583C103.73 95.7714 103.764 95.6882 103.832 95.6089C103.901 95.5295 103.992 95.4586 104.102 95.3962C104.197 95.3433 104.313 95.2989 104.448 95.263C104.584 95.2252 104.717 95.2063 104.846 95.2063C105.024 95.2063 105.179 95.2176 105.31 95.2403C105.444 95.2611 105.564 95.3074 105.673 95.3792C105.781 95.4492 105.862 95.5446 105.917 95.6656C105.975 95.7846 106.003 95.9387 106.003 96.1277C106.003 96.398 106 96.638 105.994 96.8478C105.987 97.0557 105.984 97.2834 105.984 97.531C105.984 97.6047 105.998 97.6633 106.025 97.7068C106.055 97.7503 106.1 97.7871 106.159 97.8174C106.191 97.8344 106.241 97.8438 106.308 97.8457C106.378 97.8476 106.449 97.8485 106.521 97.8485V98.03ZM105.412 96.5331C105.232 96.5803 105.074 96.6266 104.938 96.672C104.802 96.7174 104.676 96.7741 104.56 96.8421C104.454 96.9064 104.37 96.9829 104.308 97.0717C104.247 97.1587 104.216 97.2626 104.216 97.3836C104.216 97.5405 104.262 97.6558 104.353 97.7295C104.446 97.8032 104.564 97.84 104.706 97.84C104.856 97.84 104.989 97.8079 105.103 97.7436C105.218 97.6775 105.314 97.6 105.393 97.5112L105.412 96.5331Z" fill="white"/>
<path d="M111.94 95.0504C111.94 95.2602 111.893 95.4463 111.8 95.6089C111.709 95.7695 111.581 95.9028 111.418 96.0086C111.257 96.1144 111.08 96.1919 110.887 96.2411C110.694 96.2902 110.49 96.3148 110.273 96.3148H109.768V97.5339C109.768 97.6 109.78 97.6586 109.803 97.7096C109.828 97.7588 109.879 97.7966 109.955 97.823C109.994 97.8363 110.06 97.8485 110.156 97.8599C110.253 97.8712 110.342 97.8778 110.423 97.8797V98.081H108.486V97.8797C108.537 97.8759 108.611 97.8693 108.706 97.8599C108.803 97.8504 108.871 97.8381 108.909 97.823C108.973 97.7985 109.019 97.7625 109.046 97.7153C109.076 97.668 109.091 97.6076 109.091 97.5339V94.6308C109.091 94.5646 109.08 94.5051 109.059 94.4522C109.038 94.3993 108.988 94.3596 108.909 94.3331C108.829 94.3085 108.748 94.2915 108.668 94.2821C108.589 94.2707 108.521 94.2632 108.464 94.2594V94.0581H110.525C110.944 94.0581 111.285 94.1488 111.545 94.3303C111.808 94.5098 111.94 94.7499 111.94 95.0504ZM110.973 95.7364C111.045 95.6457 111.093 95.5522 111.116 95.4558C111.139 95.3575 111.151 95.2696 111.151 95.1921C111.151 95.0844 111.136 94.9748 111.107 94.8633C111.079 94.7517 111.03 94.6544 110.96 94.5712C110.886 94.4824 110.789 94.4134 110.668 94.3643C110.547 94.3151 110.396 94.2906 110.216 94.2906H109.768V96.0681H110.092C110.321 96.0681 110.507 96.037 110.649 95.9746C110.793 95.9103 110.901 95.8309 110.973 95.7364Z" fill="white"/>
<path d="M114.779 95.6457C114.779 95.7421 114.752 95.8281 114.699 95.9037C114.646 95.9774 114.565 96.0143 114.455 96.0143C114.336 96.0143 114.245 95.9869 114.181 95.9321C114.12 95.8772 114.089 95.8168 114.089 95.7506C114.089 95.709 114.092 95.6712 114.099 95.6372C114.107 95.6032 114.114 95.5692 114.121 95.5352C114.021 95.5352 113.905 95.5711 113.771 95.6429C113.637 95.7147 113.524 95.8168 113.431 95.9491V97.5764C113.431 97.6425 113.445 97.6964 113.472 97.738C113.502 97.7796 113.547 97.8107 113.609 97.8315C113.662 97.8504 113.73 97.8646 113.812 97.8741C113.897 97.8835 113.97 97.8901 114.032 97.8939V98.081H112.378V97.8939C112.427 97.8901 112.477 97.8863 112.528 97.8826C112.581 97.8788 112.626 97.8712 112.665 97.8599C112.724 97.8429 112.767 97.8136 112.795 97.772C112.825 97.7285 112.839 97.6728 112.839 97.6047V95.8782C112.839 95.8196 112.823 95.762 112.792 95.7053C112.762 95.6486 112.72 95.6032 112.665 95.5692C112.624 95.5465 112.577 95.5304 112.521 95.521C112.466 95.5096 112.407 95.5021 112.343 95.4983V95.314L113.386 95.2517L113.431 95.2913V95.6854H113.447C113.578 95.5323 113.724 95.4161 113.885 95.3367C114.047 95.2573 114.194 95.2176 114.327 95.2176C114.461 95.2176 114.569 95.2564 114.652 95.3339C114.737 95.4114 114.779 95.5153 114.779 95.6457Z" fill="white"/>
<path d="M118.105 96.655C118.105 96.8516 118.07 97.0453 118 97.2362C117.93 97.4252 117.83 97.5858 117.701 97.7181C117.555 97.8693 117.385 97.9818 117.192 98.0555C116.999 98.1292 116.783 98.1661 116.544 98.1661C116.344 98.1661 116.155 98.133 115.975 98.0668C115.794 97.9988 115.634 97.9005 115.494 97.772C115.357 97.6454 115.246 97.4913 115.164 97.3099C115.083 97.1266 115.043 96.9215 115.043 96.6947C115.043 96.2581 115.185 95.9009 115.469 95.623C115.755 95.3452 116.129 95.2063 116.591 95.2063C117.03 95.2063 117.392 95.3386 117.676 95.6032C117.962 95.8659 118.105 96.2165 118.105 96.655ZM117.447 96.6607C117.447 96.5189 117.431 96.3696 117.399 96.2127C117.367 96.054 117.319 95.9198 117.256 95.8102C117.188 95.693 117.099 95.5994 116.989 95.5295C116.879 95.4577 116.744 95.4218 116.585 95.4218C116.422 95.4218 116.282 95.4577 116.165 95.5295C116.051 95.6013 115.958 95.6996 115.885 95.8243C115.818 95.9396 115.77 96.071 115.742 96.2184C115.715 96.3658 115.701 96.5085 115.701 96.6465C115.701 96.8279 115.717 96.9961 115.749 97.1511C115.783 97.3042 115.836 97.4412 115.908 97.5622C115.98 97.6832 116.07 97.7786 116.178 97.8485C116.288 97.9166 116.424 97.9506 116.585 97.9506C116.85 97.9506 117.06 97.8363 117.215 97.6076C117.369 97.3789 117.447 97.0632 117.447 96.6607Z" fill="white"/>
</svg>
