<svg width="170" height="170" viewBox="0 0 170 170" fill="none" xmlns="http://www.w3.org/2000/svg">
<rect width="170" height="170" rx="9" fill="#F8F8F8"/>
<path d="M56.1511 62.6316H32.2734V63.7922C35.0237 63.9212 35.8988 64.3081 35.8988 67.2742V87.2631C35.8988 90.3581 35.0237 90.616 32.2734 90.745V91.7767H45.6499V90.745C42.2745 90.616 41.5245 90.2292 41.5245 87.2631V77.72H46.4C50.0254 77.72 51.7756 78.6227 52.4007 81.9757H53.5258V71.6588H52.4007C51.9006 74.7539 50.9005 75.5276 46.4 75.5276H41.5245V66.2425C41.5245 65.0818 41.7745 64.8239 43.1496 64.8239H47.4001C53.0257 64.8239 54.0258 65.8556 55.0259 69.0796H56.1511V62.6316Z" fill="#ED1C24"/>
<path d="M74.2833 88.8105L68.7827 80.4281L71.783 76.5592C73.7832 74.109 74.9083 72.8194 76.6585 72.6904V71.5298H68.9077V72.6904C70.2828 72.6904 70.9079 73.0773 70.9079 73.98C70.9079 74.7538 70.0328 75.7855 69.2827 76.5592L67.5325 78.6226L65.5323 75.5276C65.0322 74.8828 64.6572 74.3669 64.6572 73.7221C64.6572 73.0773 65.4073 72.6904 66.6574 72.6904V71.5298H56.2813V72.6904C57.7814 73.0773 58.4065 73.98 59.1566 75.1407L64.2822 82.8783L60.0317 88.0367C58.5315 89.8422 57.7814 90.487 56.0312 90.7449V91.7766H63.6571V90.7449C62.657 90.7449 61.5319 90.487 61.5319 89.8422C61.5319 89.1974 62.2819 88.2947 63.5321 86.7471L65.2823 84.5548L67.4075 87.7788C68.1576 88.9395 68.5326 89.4553 68.5326 89.8422C68.5326 90.358 67.7825 90.6159 66.4074 90.6159V91.6476H77.0336V90.6159C76.1585 90.8739 75.4084 90.6159 74.2833 88.8105Z" fill="#ED1C24"/>
<path d="M92.1499 62.6316H78.7734V63.7922C81.6488 63.9212 82.3988 64.3081 82.3988 67.2742V87.2631C82.3988 90.3581 81.6488 90.616 78.7734 90.745V91.7767H91.8999V90.745C88.8995 90.616 88.1495 90.2292 88.1495 87.2631V79.6544H91.8999C99.1507 79.6544 103.026 76.6883 103.026 71.143C102.901 66.3715 99.9008 62.6316 92.1499 62.6316ZM88.0245 77.9779V65.9846C88.0245 64.9529 88.3995 64.3081 90.3997 64.3081C94.1501 64.3081 97.0254 66.5004 97.0254 70.4982C97.0254 75.1408 94.6502 77.9779 88.0245 77.9779Z" fill="#ED1C24"/>
<path d="M116.283 71.1428C113.907 71.1428 112.407 73.0772 111.657 74.8827H111.532V71.7876C111.532 71.4007 111.532 71.1428 111.282 71.1428C110.907 71.1428 106.281 72.4324 104.156 72.8193V73.98C106.031 73.98 106.532 74.3668 106.532 76.5592V88.2946C106.532 90.1 105.781 90.4869 104.156 90.7448V91.7765H114.532V90.7448C112.657 90.7448 111.532 90.229 111.532 88.0367V76.6881C112.157 75.6564 112.907 75.0116 113.657 75.0116C114.157 75.0116 114.532 75.2696 114.782 75.3985C115.157 75.6564 115.658 76.3012 116.783 76.3012C118.033 76.3012 119.033 75.2696 119.033 73.98C119.158 72.6904 118.283 71.1428 116.283 71.1428Z" fill="#ED1C24"/>
<path d="M128.275 71.1428C122.649 71.1428 118.773 75.6564 118.773 81.8466C118.773 88.0367 122.649 92.5503 128.275 92.5503C133.9 92.5503 137.776 88.0367 137.776 81.8466C137.776 75.6564 133.9 71.1428 128.275 71.1428ZM128.275 90.7448C125.274 90.7448 124.149 88.0367 124.149 81.8466C124.149 75.6564 125.399 72.9483 128.275 72.9483C131.275 72.9483 132.4 75.6564 132.4 81.8466C132.525 88.0367 131.275 90.7448 128.275 90.7448Z" fill="#ED1C24"/>
<path d="M38.5636 101.044H38.2089C38.1781 100.922 38.1215 100.777 38.0393 100.61C37.9605 100.44 37.8714 100.28 37.7721 100.131C37.6693 99.9741 37.5562 99.838 37.4328 99.7223C37.3129 99.6032 37.1964 99.5352 37.0833 99.5182C36.9771 99.5046 36.8435 99.4944 36.6824 99.4876C36.5214 99.4808 36.3724 99.4774 36.2353 99.4774H35.9372V105.269C35.9372 105.382 35.9612 105.485 36.0091 105.581C36.0571 105.672 36.1411 105.744 36.261 105.795C36.3227 105.819 36.4512 105.851 36.6465 105.892C36.8452 105.933 36.9994 105.955 37.109 105.958V106.321H33.6655V105.958C33.7614 105.951 33.907 105.938 34.1023 105.917C34.3011 105.897 34.4381 105.871 34.5135 105.841C34.6266 105.797 34.7088 105.734 34.7602 105.652C34.815 105.567 34.8424 105.455 34.8424 105.315V99.4774H34.5443C34.4381 99.4774 34.3062 99.4808 34.1486 99.4876C33.991 99.491 33.8402 99.5012 33.6963 99.5182C33.5832 99.5318 33.465 99.5998 33.3417 99.7223C33.2217 99.8414 33.1104 99.9775 33.0076 100.131C32.9048 100.284 32.814 100.447 32.7352 100.62C32.6564 100.791 32.6016 100.932 32.5707 101.044H32.2109V99.0793H38.5636V101.044Z" fill="#1D1D1D"/>
<path d="M42.9014 101.937C42.9014 102.111 42.8586 102.265 42.7729 102.401C42.6873 102.534 42.5554 102.6 42.3772 102.6C42.1853 102.6 42.038 102.551 41.9352 102.452C41.8358 102.354 41.7861 102.245 41.7861 102.126C41.7861 102.051 41.7913 101.983 41.8015 101.922C41.8153 101.86 41.8272 101.799 41.8375 101.738C41.6765 101.738 41.488 101.803 41.2722 101.932C41.0563 102.061 40.873 102.245 40.7222 102.483V105.412C40.7222 105.531 40.7445 105.628 40.789 105.703C40.837 105.778 40.9107 105.834 41.01 105.871C41.0957 105.906 41.2053 105.931 41.339 105.948C41.476 105.965 41.5942 105.977 41.6936 105.984V106.321H39.021V105.984C39.0998 105.977 39.1803 105.97 39.2626 105.963C39.3482 105.957 39.4219 105.943 39.4836 105.923C39.5795 105.892 39.6497 105.839 39.6943 105.764C39.7423 105.686 39.7662 105.586 39.7662 105.463V102.355C39.7662 102.25 39.7405 102.146 39.6891 102.044C39.6412 101.942 39.5726 101.86 39.4836 101.799C39.4185 101.758 39.3414 101.73 39.2523 101.712C39.1632 101.692 39.0672 101.678 38.9645 101.672V101.34L40.6503 101.228L40.7222 101.299V102.008H40.7479C40.9604 101.733 41.1968 101.524 41.4572 101.381C41.7176 101.238 41.9557 101.166 42.1716 101.166C42.3875 101.166 42.5622 101.236 42.6958 101.376C42.8329 101.515 42.9014 101.702 42.9014 101.937Z" fill="#1D1D1D"/>
<path d="M48.1388 106.229C47.9777 106.287 47.8355 106.332 47.7122 106.366C47.5922 106.404 47.4552 106.423 47.301 106.423C47.0337 106.423 46.8196 106.361 46.6585 106.239C46.5009 106.113 46.3998 105.931 46.3553 105.693H46.3245C46.1017 105.938 45.8619 106.125 45.6049 106.254C45.3513 106.383 45.0447 106.448 44.6849 106.448C44.3046 106.448 43.991 106.332 43.7443 106.101C43.5011 105.87 43.3794 105.567 43.3794 105.193C43.3794 104.999 43.4068 104.825 43.4617 104.672C43.5165 104.519 43.5987 104.381 43.7084 104.259C43.794 104.157 43.9071 104.067 44.0476 103.988C44.1881 103.907 44.32 103.842 44.4433 103.795C44.5975 103.737 44.9093 103.63 45.3788 103.473C45.8516 103.317 46.1703 103.194 46.3347 103.106V102.6C46.3347 102.556 46.3245 102.471 46.3039 102.345C46.2868 102.219 46.2474 102.1 46.1857 101.988C46.1172 101.862 46.0195 101.753 45.8927 101.661C45.7694 101.566 45.5929 101.519 45.3633 101.519C45.2057 101.519 45.0584 101.546 44.9213 101.6C44.7877 101.651 44.6935 101.706 44.6386 101.764C44.6386 101.832 44.6541 101.932 44.6849 102.065C44.7192 102.197 44.7363 102.32 44.7363 102.432C44.7363 102.551 44.6815 102.66 44.5718 102.759C44.4656 102.857 44.3166 102.907 44.1247 102.907C43.9534 102.907 43.8266 102.847 43.7443 102.728C43.6655 102.606 43.6261 102.469 43.6261 102.32C43.6261 102.163 43.681 102.014 43.7906 101.871C43.9037 101.728 44.0493 101.6 44.2275 101.488C44.3817 101.393 44.5684 101.313 44.7877 101.248C45.007 101.18 45.2211 101.146 45.4301 101.146C45.718 101.146 45.9681 101.166 46.1805 101.207C46.3964 101.245 46.5917 101.328 46.7665 101.457C46.9412 101.583 47.0731 101.755 47.1622 101.973C47.2547 102.187 47.301 102.464 47.301 102.805C47.301 103.291 47.2958 103.723 47.2856 104.101C47.2753 104.475 47.2701 104.885 47.2701 105.331C47.2701 105.463 47.2924 105.569 47.337 105.647C47.3849 105.725 47.4569 105.792 47.5528 105.846C47.6042 105.877 47.6847 105.894 47.7944 105.897C47.9075 105.9 48.0223 105.902 48.1388 105.902V106.229ZM46.345 103.534C46.0538 103.619 45.7985 103.703 45.5792 103.784C45.3599 103.866 45.156 103.968 44.9676 104.091C44.7963 104.206 44.6609 104.344 44.5615 104.504C44.4622 104.66 44.4125 104.847 44.4125 105.065C44.4125 105.348 44.4862 105.555 44.6335 105.688C44.7843 105.82 44.9744 105.887 45.204 105.887C45.4473 105.887 45.6614 105.829 45.8465 105.713C46.0315 105.594 46.1874 105.455 46.3142 105.295L46.345 103.534Z" fill="#1D1D1D"/>
<path d="M54.1933 106.229L52.4252 106.341L52.3481 106.27V105.8L52.307 105.79C52.1288 105.987 51.9078 106.149 51.644 106.275C51.3836 106.401 51.1146 106.463 50.8371 106.463C50.5493 106.463 50.27 106.401 49.9993 106.275C49.732 106.145 49.4991 105.965 49.3003 105.734C49.0982 105.499 48.9371 105.217 48.8172 104.887C48.7007 104.557 48.6424 104.193 48.6424 103.795C48.6424 103.431 48.7058 103.085 48.8326 102.759C48.9594 102.432 49.1341 102.146 49.3569 101.901C49.5659 101.673 49.8211 101.491 50.1227 101.355C50.4276 101.219 50.7377 101.151 51.0529 101.151C51.2894 101.151 51.5207 101.182 51.7468 101.243C51.9764 101.301 52.1734 101.376 52.3379 101.468V99.7172C52.3379 99.5743 52.3139 99.445 52.2659 99.3294C52.2179 99.2103 52.1511 99.1201 52.0655 99.0589C51.9695 98.9943 51.8393 98.9483 51.6748 98.9211C51.5138 98.8905 51.339 98.8684 51.1506 98.8548V98.5384L53.2219 98.421L53.299 98.4976V105.285C53.299 105.404 53.3212 105.506 53.3658 105.591C53.4138 105.672 53.4823 105.742 53.5714 105.8C53.6365 105.841 53.7307 105.866 53.8541 105.877C53.9774 105.887 54.0905 105.894 54.1933 105.897V106.229ZM52.3379 105.346V102.401C52.3104 102.313 52.2659 102.218 52.2042 102.116C52.1425 102.014 52.0655 101.92 51.9729 101.835C51.8736 101.75 51.7571 101.68 51.6234 101.626C51.4898 101.568 51.3339 101.539 51.1557 101.539C50.9501 101.539 50.76 101.592 50.5852 101.697C50.4139 101.803 50.2614 101.954 50.1278 102.151C50.001 102.342 49.8999 102.585 49.8246 102.881C49.7526 103.174 49.7166 103.499 49.7166 103.856C49.7166 104.142 49.744 104.402 49.7989 104.637C49.8537 104.868 49.9462 105.084 50.0764 105.285C50.1963 105.475 50.3488 105.628 50.5338 105.744C50.7223 105.86 50.945 105.917 51.202 105.917C51.4761 105.917 51.7022 105.858 51.8804 105.739C52.062 105.62 52.2145 105.489 52.3379 105.346Z" fill="#1D1D1D"/>
<path d="M59.189 105.137C58.9766 105.538 58.6922 105.858 58.3358 106.096C57.9795 106.334 57.57 106.453 57.1075 106.453C56.6997 106.453 56.3417 106.382 56.0333 106.239C55.7283 106.096 55.4765 105.902 55.2777 105.657C55.079 105.412 54.93 105.126 54.8306 104.8C54.7347 104.473 54.6867 104.128 54.6867 103.764C54.6867 103.437 54.7381 103.118 54.8409 102.805C54.9471 102.488 55.1013 102.204 55.3034 101.952C55.4987 101.711 55.7403 101.517 56.0281 101.371C56.3194 101.221 56.6449 101.146 57.0047 101.146C57.3747 101.146 57.6917 101.204 57.9555 101.32C58.2193 101.435 58.4335 101.593 58.598 101.794C58.7556 101.985 58.8721 102.209 58.9475 102.468C59.0263 102.726 59.0657 103.007 59.0657 103.31V103.647H55.7095C55.7095 103.977 55.7403 104.276 55.802 104.545C55.8671 104.813 55.9682 105.05 56.1052 105.254C56.2389 105.451 56.4136 105.608 56.6295 105.724C56.8453 105.836 57.1023 105.892 57.4004 105.892C57.7054 105.892 57.9675 105.822 58.1868 105.683C58.4095 105.54 58.6237 105.285 58.8292 104.917L59.189 105.137ZM58.0532 103.218C58.0532 103.027 58.036 102.823 58.0018 102.606C57.9709 102.388 57.9195 102.206 57.8476 102.06C57.7688 101.903 57.6608 101.775 57.5238 101.677C57.3867 101.578 57.2103 101.529 56.9944 101.529C56.6346 101.529 56.3348 101.678 56.0949 101.978C55.8585 102.274 55.73 102.687 55.7095 103.218H58.0532Z" fill="#1D1D1D"/>
<path d="M68.1063 100.891H67.7209C67.6489 100.622 67.4981 100.335 67.2686 100.028C67.0424 99.7223 66.8249 99.5539 66.6158 99.5233C66.5096 99.5097 66.3828 99.4995 66.2355 99.4927C66.0916 99.4859 65.9271 99.4825 65.7421 99.4825H64.5189V102.391H65.3566C65.6102 102.391 65.8072 102.366 65.9477 102.315C66.0882 102.26 66.2081 102.179 66.3075 102.07C66.376 101.995 66.4377 101.879 66.4925 101.723C66.5507 101.563 66.5884 101.393 66.6056 101.212H66.9962V104.055H66.6056C66.5953 103.905 66.5593 103.735 66.4976 103.544C66.4394 103.354 66.376 103.216 66.3075 103.131C66.2047 103.005 66.0745 102.92 65.9168 102.876C65.7627 102.828 65.5759 102.805 65.3566 102.805H64.5189V105.3C64.5189 105.412 64.5411 105.513 64.5857 105.601C64.6302 105.689 64.709 105.761 64.8221 105.815C64.8735 105.839 64.9849 105.868 65.1562 105.902C65.3275 105.936 65.4577 105.955 65.5468 105.958V106.321H62.3859V105.958C62.4887 105.951 62.6257 105.941 62.7971 105.928C62.9684 105.911 63.0798 105.89 63.1311 105.866C63.2339 105.822 63.3076 105.758 63.3521 105.672C63.4001 105.584 63.4241 105.479 63.4241 105.356V100.131C63.4241 100.018 63.4053 99.9196 63.3676 99.8346C63.3299 99.7461 63.2511 99.6747 63.1311 99.6202C63.0386 99.576 62.9136 99.5369 62.756 99.5029C62.6018 99.4688 62.4784 99.4484 62.3859 99.4416V99.0793H68.1063V100.891Z" fill="#1D1D1D"/>
<path d="M73.5647 103.754C73.5647 104.108 73.5081 104.456 73.3951 104.8C73.282 105.14 73.1209 105.429 72.9119 105.667C72.6755 105.94 72.4014 106.142 72.0896 106.275C71.7778 106.407 71.4283 106.474 71.0411 106.474C70.719 106.474 70.4123 106.414 70.1211 106.295C69.8298 106.173 69.5711 105.996 69.345 105.764C69.1223 105.536 68.9441 105.259 68.8105 104.933C68.6803 104.603 68.6152 104.233 68.6152 103.825C68.6152 103.039 68.8447 102.396 69.3039 101.896C69.7665 101.396 70.3712 101.146 71.1182 101.146C71.8275 101.146 72.4117 101.384 72.8708 101.86C73.3334 102.333 73.5647 102.964 73.5647 103.754ZM72.5008 103.764C72.5008 103.509 72.4751 103.24 72.4237 102.958C72.3723 102.672 72.2952 102.43 72.1924 102.233C72.0827 102.022 71.9388 101.854 71.7606 101.728C71.5825 101.599 71.3649 101.534 71.1079 101.534C70.8441 101.534 70.6179 101.599 70.4295 101.728C70.2444 101.857 70.0937 102.034 69.9772 102.259C69.8675 102.466 69.7904 102.702 69.7459 102.968C69.7013 103.233 69.6791 103.49 69.6791 103.738C69.6791 104.065 69.7048 104.368 69.7562 104.647C69.811 104.922 69.8967 105.169 70.0132 105.387C70.1297 105.604 70.2753 105.776 70.45 105.902C70.6282 106.025 70.8475 106.086 71.1079 106.086C71.5362 106.086 71.8754 105.88 72.1256 105.468C72.3757 105.057 72.5008 104.489 72.5008 103.764Z" fill="#1D1D1D"/>
<path d="M78.1801 101.937C78.1801 102.111 78.1372 102.265 78.0516 102.401C77.9659 102.534 77.834 102.6 77.6558 102.6C77.464 102.6 77.3166 102.551 77.2138 102.452C77.1145 102.354 77.0648 102.245 77.0648 102.126C77.0648 102.051 77.0699 101.983 77.0802 101.922C77.0939 101.86 77.1059 101.799 77.1162 101.738C76.9551 101.738 76.7667 101.803 76.5508 101.932C76.3349 102.061 76.1516 102.245 76.0009 102.483V105.412C76.0009 105.531 76.0231 105.628 76.0677 105.703C76.1156 105.778 76.1893 105.834 76.2887 105.871C76.3743 105.906 76.484 105.931 76.6176 105.948C76.7547 105.965 76.8729 105.977 76.9723 105.984V106.321H74.2996V105.984C74.3784 105.977 74.459 105.97 74.5412 105.963C74.6269 105.957 74.7005 105.943 74.7622 105.923C74.8581 105.892 74.9284 105.839 74.9729 105.764C75.0209 105.686 75.0449 105.586 75.0449 105.463V102.355C75.0449 102.25 75.0192 102.146 74.9678 102.044C74.9198 101.942 74.8513 101.86 74.7622 101.799C74.6971 101.758 74.62 101.73 74.5309 101.712C74.4418 101.692 74.3459 101.678 74.2431 101.672V101.34L75.9289 101.228L76.0009 101.299V102.008H76.0266C76.239 101.733 76.4754 101.524 76.7358 101.381C76.9962 101.238 77.2344 101.166 77.4502 101.166C77.6661 101.166 77.8409 101.236 77.9745 101.376C78.1115 101.515 78.1801 101.702 78.1801 101.937Z" fill="#1D1D1D"/>
<path d="M83.1193 105.137C82.9069 105.538 82.6225 105.858 82.2661 106.096C81.9098 106.334 81.5003 106.453 81.0377 106.453C80.63 106.453 80.2719 106.382 79.9635 106.239C79.6586 106.096 79.4067 105.902 79.208 105.657C79.0093 105.412 78.8602 105.126 78.7609 104.8C78.6649 104.473 78.617 104.128 78.617 103.764C78.617 103.437 78.6683 103.118 78.7711 102.805C78.8774 102.488 79.0315 102.204 79.2337 101.952C79.429 101.711 79.6706 101.517 79.9584 101.371C80.2496 101.221 80.5752 101.146 80.9349 101.146C81.305 101.146 81.6219 101.204 81.8858 101.32C82.1496 101.435 82.3638 101.593 82.5282 101.794C82.6858 101.985 82.8023 102.209 82.8777 102.468C82.9565 102.726 82.9959 103.007 82.9959 103.31V103.647H79.6397C79.6397 103.977 79.6706 104.276 79.7323 104.545C79.7974 104.813 79.8984 105.05 80.0355 105.254C80.1691 105.451 80.3439 105.608 80.5597 105.724C80.7756 105.836 81.0326 105.892 81.3307 105.892C81.6356 105.892 81.8978 105.822 82.1171 105.683C82.3398 105.54 82.5539 105.285 82.7595 104.917L83.1193 105.137ZM81.9834 103.218C81.9834 103.027 81.9663 102.823 81.932 102.606C81.9012 102.388 81.8498 102.206 81.7778 102.06C81.699 101.903 81.5911 101.775 81.454 101.677C81.317 101.578 81.1405 101.529 80.9247 101.529C80.5649 101.529 80.2651 101.678 80.0252 101.978C79.7888 102.274 79.6603 102.687 79.6397 103.218H81.9834Z" fill="#1D1D1D"/>
<path d="M88.5879 106.321H86.2648V105.984C86.419 105.967 86.5492 105.95 86.6554 105.933C86.765 105.916 86.8199 105.871 86.8199 105.8C86.8199 105.769 86.8027 105.722 86.7685 105.657C86.7342 105.593 86.6999 105.533 86.6657 105.479C86.58 105.346 86.4618 105.169 86.311 104.948C86.1637 104.723 85.9821 104.456 85.7662 104.147C85.588 104.368 85.4236 104.584 85.2728 104.795C85.1221 105.002 84.9644 105.223 84.8 105.458C84.776 105.492 84.7503 105.535 84.7229 105.586C84.6989 105.637 84.6869 105.678 84.6869 105.708C84.6869 105.783 84.7349 105.846 84.8308 105.897C84.9302 105.945 85.0775 105.977 85.2728 105.994V106.321H83.3968V106.004C83.6298 105.936 83.8166 105.854 83.9571 105.759C84.101 105.661 84.2329 105.54 84.3528 105.397C84.459 105.261 84.6064 105.074 84.7948 104.836C84.9867 104.597 85.2334 104.274 85.5349 103.866C85.3602 103.618 85.146 103.315 84.8925 102.958C84.6423 102.597 84.435 102.298 84.2706 102.06C84.1815 101.93 84.0787 101.826 83.9622 101.748C83.8491 101.667 83.6881 101.626 83.4791 101.626V101.289H85.684V101.626C85.5743 101.626 85.4664 101.633 85.3602 101.646C85.254 101.66 85.2009 101.69 85.2009 101.738C85.2009 101.769 85.2111 101.803 85.2317 101.84C85.2523 101.877 85.278 101.918 85.3088 101.963C85.3842 102.078 85.5007 102.257 85.6583 102.498C85.8193 102.74 85.9924 102.995 86.1774 103.264C86.2973 103.101 86.4361 102.91 86.5937 102.692C86.7547 102.475 86.9021 102.267 87.0357 102.07C87.0494 102.046 87.0631 102.017 87.0768 101.983C87.0905 101.946 87.0974 101.91 87.0974 101.876C87.0974 101.804 87.0374 101.748 86.9175 101.707C86.801 101.663 86.6896 101.633 86.5834 101.616V101.289H88.4543V101.605C88.1904 101.673 87.9848 101.755 87.8375 101.85C87.6902 101.942 87.5651 102.049 87.4623 102.172C87.3492 102.311 87.2139 102.483 87.0563 102.687C86.9021 102.891 86.6845 103.177 86.4035 103.544C86.7153 103.98 86.9689 104.337 87.1642 104.616C87.3595 104.895 87.5565 105.183 87.7553 105.479C87.8546 105.628 87.9643 105.747 88.0842 105.836C88.2076 105.921 88.3755 105.97 88.5879 105.984V106.321Z" fill="#1D1D1D"/>
<path d="M97.5463 104.167L97.3921 106.321H91.6923V105.958C91.7745 105.951 91.8927 105.94 92.0469 105.923C92.2045 105.906 92.3141 105.883 92.3758 105.856C92.4786 105.812 92.5523 105.747 92.5968 105.662C92.6448 105.577 92.6688 105.468 92.6688 105.336V100.151C92.6688 100.035 92.6482 99.9332 92.6071 99.8448C92.5694 99.7563 92.4923 99.6849 92.3758 99.6304C92.297 99.5896 92.1857 99.5505 92.0417 99.5131C91.9013 99.4723 91.7848 99.4484 91.6923 99.4416V99.0793H94.7709V99.4416C94.675 99.445 94.5499 99.462 94.3957 99.4927C94.2449 99.5233 94.1353 99.5505 94.0668 99.5743C93.9503 99.6151 93.8698 99.6849 93.8252 99.7835C93.7841 99.8822 93.7635 99.9877 93.7635 100.1V104.963C93.7635 105.188 93.7738 105.363 93.7944 105.489C93.8184 105.611 93.8715 105.706 93.9537 105.775C94.0325 105.836 94.149 105.877 94.3032 105.897C94.4608 105.914 94.6801 105.923 94.9611 105.923C95.0879 105.923 95.2198 105.919 95.3568 105.912C95.4939 105.906 95.6241 105.892 95.7474 105.871C95.8674 105.851 95.977 105.824 96.0764 105.79C96.1792 105.752 96.2546 105.706 96.3025 105.652C96.443 105.496 96.6058 105.259 96.7908 104.943C96.9792 104.623 97.1095 104.364 97.1814 104.167H97.5463Z" fill="#1D1D1D"/>
<path d="M100.373 106.321H97.9215V105.984C98.0003 105.977 98.0809 105.97 98.1631 105.963C98.2487 105.957 98.3224 105.943 98.3841 105.923C98.48 105.892 98.5503 105.839 98.5948 105.764C98.6428 105.686 98.6668 105.586 98.6668 105.463V102.355C98.6668 102.247 98.6411 102.148 98.5897 102.06C98.5417 101.968 98.4732 101.891 98.3841 101.83C98.319 101.789 98.2248 101.755 98.1014 101.728C97.9781 101.697 97.865 101.678 97.7622 101.672V101.34L99.5508 101.228L99.6227 101.299V105.402C99.6227 105.521 99.645 105.62 99.6896 105.698C99.7375 105.776 99.8112 105.834 99.9106 105.871C99.986 105.902 100.06 105.928 100.132 105.948C100.204 105.965 100.284 105.977 100.373 105.984V106.321ZM99.7255 99.2426C99.7255 99.4365 99.6604 99.6066 99.5302 99.7529C99.4035 99.8958 99.2458 99.9672 99.0574 99.9672C98.8826 99.9672 98.7302 99.8992 98.6 99.7631C98.4732 99.6236 98.4098 99.4654 98.4098 99.2885C98.4098 99.1014 98.4732 98.9381 98.6 98.7986C98.7302 98.6592 98.8826 98.5894 99.0574 98.5894C99.2527 98.5894 99.412 98.6558 99.5354 98.7884C99.6622 98.9177 99.7255 99.0691 99.7255 99.2426Z" fill="#1D1D1D"/>
<path d="M106.366 106.321H104.834C104.567 105.936 104.281 105.524 103.976 105.086C103.671 104.647 103.354 104.22 103.025 103.805L102.604 104.198V105.392C102.604 105.514 102.626 105.616 102.671 105.698C102.715 105.776 102.787 105.834 102.886 105.871C102.969 105.906 103.047 105.931 103.123 105.948C103.198 105.965 103.286 105.977 103.385 105.984V106.321H100.897V105.984C100.976 105.977 101.058 105.97 101.144 105.963C101.23 105.953 101.302 105.94 101.36 105.923C101.456 105.892 101.528 105.839 101.576 105.764C101.624 105.686 101.648 105.586 101.648 105.463V99.6151C101.648 99.4893 101.62 99.3719 101.566 99.263C101.514 99.1508 101.446 99.0657 101.36 99.0079C101.288 98.9534 101.175 98.9177 101.021 98.9007C100.87 98.8837 100.748 98.8718 100.656 98.865V98.5384L102.532 98.421L102.604 98.4976V103.82C102.871 103.555 103.159 103.271 103.467 102.968C103.779 102.662 104.041 102.39 104.254 102.151C104.281 102.121 104.31 102.082 104.341 102.034C104.375 101.983 104.392 101.942 104.392 101.912C104.392 101.82 104.317 101.752 104.166 101.707C104.019 101.663 103.877 101.633 103.74 101.616V101.289H105.97V101.605C105.682 101.69 105.427 101.798 105.204 101.927C104.985 102.053 104.817 102.167 104.701 102.269C104.618 102.337 104.502 102.447 104.351 102.6C104.2 102.754 103.99 102.954 103.719 103.203C104 103.546 104.315 103.958 104.665 104.438C105.018 104.917 105.275 105.264 105.436 105.479C105.586 105.679 105.722 105.81 105.842 105.871C105.962 105.933 106.136 105.97 106.366 105.984V106.321Z" fill="#1D1D1D"/>
<path d="M111.141 105.137C110.928 105.538 110.644 105.858 110.288 106.096C109.931 106.334 109.522 106.453 109.059 106.453C108.651 106.453 108.293 106.382 107.985 106.239C107.68 106.096 107.428 105.902 107.229 105.657C107.031 105.412 106.882 105.126 106.782 104.8C106.686 104.473 106.638 104.128 106.638 103.764C106.638 103.437 106.69 103.118 106.793 102.805C106.899 102.488 107.053 102.204 107.255 101.952C107.45 101.711 107.692 101.517 107.98 101.371C108.271 101.221 108.597 101.146 108.956 101.146C109.326 101.146 109.643 101.204 109.907 101.32C110.171 101.435 110.385 101.593 110.55 101.794C110.707 101.985 110.824 102.209 110.899 102.468C110.978 102.726 111.017 103.007 111.017 103.31V103.647H107.661C107.661 103.977 107.692 104.276 107.754 104.545C107.819 104.813 107.92 105.05 108.057 105.254C108.191 105.451 108.365 105.608 108.581 105.724C108.797 105.836 109.054 105.892 109.352 105.892C109.657 105.892 109.919 105.822 110.138 105.683C110.361 105.54 110.575 105.285 110.781 104.917L111.141 105.137ZM110.005 103.218C110.005 103.027 109.988 102.823 109.953 102.606C109.923 102.388 109.871 102.206 109.799 102.06C109.72 101.903 109.613 101.775 109.475 101.677C109.338 101.578 109.162 101.529 108.946 101.529C108.586 101.529 108.287 101.678 108.047 101.978C107.81 102.274 107.682 102.687 107.661 103.218H110.005Z" fill="#1D1D1D"/>
<path d="M119.066 106.229C118.905 106.287 118.763 106.332 118.64 106.366C118.52 106.404 118.383 106.423 118.228 106.423C117.961 106.423 117.747 106.361 117.586 106.239C117.428 106.113 117.327 105.931 117.283 105.693H117.252C117.029 105.938 116.789 106.125 116.532 106.254C116.279 106.383 115.972 106.448 115.612 106.448C115.232 106.448 114.918 106.332 114.672 106.101C114.428 105.87 114.307 105.567 114.307 105.193C114.307 104.999 114.334 104.825 114.389 104.672C114.444 104.519 114.526 104.381 114.636 104.259C114.721 104.157 114.834 104.067 114.975 103.988C115.115 103.907 115.247 103.842 115.371 103.795C115.525 103.737 115.837 103.63 116.306 103.473C116.779 103.317 117.098 103.194 117.262 103.106V102.6C117.262 102.556 117.252 102.471 117.231 102.345C117.214 102.219 117.175 102.1 117.113 101.988C117.044 101.862 116.947 101.753 116.82 101.661C116.697 101.566 116.52 101.519 116.291 101.519C116.133 101.519 115.986 101.546 115.849 101.6C115.715 101.651 115.621 101.706 115.566 101.764C115.566 101.832 115.581 101.932 115.612 102.065C115.646 102.197 115.664 102.32 115.664 102.432C115.664 102.551 115.609 102.66 115.499 102.759C115.393 102.857 115.244 102.907 115.052 102.907C114.881 102.907 114.754 102.847 114.672 102.728C114.593 102.606 114.553 102.469 114.553 102.32C114.553 102.163 114.608 102.014 114.718 101.871C114.831 101.728 114.977 101.6 115.155 101.488C115.309 101.393 115.496 101.313 115.715 101.248C115.934 101.18 116.148 101.146 116.357 101.146C116.645 101.146 116.895 101.166 117.108 101.207C117.324 101.245 117.519 101.328 117.694 101.457C117.869 101.583 118 101.755 118.09 101.973C118.182 102.187 118.228 102.464 118.228 102.805C118.228 103.291 118.223 103.723 118.213 104.101C118.203 104.475 118.197 104.885 118.197 105.331C118.197 105.463 118.22 105.569 118.264 105.647C118.312 105.725 118.384 105.792 118.48 105.846C118.532 105.877 118.612 105.894 118.722 105.897C118.835 105.9 118.95 105.902 119.066 105.902V106.229ZM117.272 103.534C116.981 103.619 116.726 103.703 116.507 103.784C116.287 103.866 116.083 103.968 115.895 104.091C115.724 104.206 115.588 104.344 115.489 104.504C115.39 104.66 115.34 104.847 115.34 105.065C115.34 105.348 115.414 105.555 115.561 105.688C115.712 105.82 115.902 105.887 116.131 105.887C116.375 105.887 116.589 105.829 116.774 105.713C116.959 105.594 117.115 105.455 117.242 105.295L117.272 103.534Z" fill="#1D1D1D"/>
<path d="M127.824 100.865C127.824 101.243 127.749 101.578 127.598 101.871C127.451 102.16 127.245 102.4 126.981 102.59C126.721 102.781 126.435 102.92 126.123 103.009C125.811 103.097 125.48 103.141 125.131 103.141H124.314V105.336C124.314 105.455 124.333 105.56 124.37 105.652C124.411 105.741 124.494 105.809 124.617 105.856C124.679 105.88 124.787 105.902 124.941 105.923C125.098 105.943 125.242 105.955 125.372 105.958V106.321H122.242V105.958C122.325 105.951 122.443 105.94 122.597 105.923C122.755 105.906 122.864 105.883 122.926 105.856C123.029 105.812 123.102 105.747 123.147 105.662C123.195 105.577 123.219 105.468 123.219 105.336V100.11C123.219 99.9911 123.202 99.8839 123.168 99.7886C123.133 99.6934 123.053 99.6219 122.926 99.5743C122.796 99.5301 122.666 99.4995 122.535 99.4825C122.409 99.462 122.299 99.4484 122.206 99.4416V99.0793H125.537C126.215 99.0793 126.765 99.2426 127.187 99.5692C127.612 99.8924 127.824 100.324 127.824 100.865ZM126.262 102.1C126.378 101.937 126.455 101.769 126.493 101.595C126.531 101.418 126.549 101.26 126.549 101.121C126.549 100.927 126.525 100.729 126.477 100.529C126.433 100.328 126.354 100.153 126.241 100.003C126.121 99.8431 125.964 99.7189 125.768 99.6304C125.573 99.542 125.33 99.4978 125.038 99.4978H124.314V102.697H124.838C125.208 102.697 125.508 102.641 125.737 102.529C125.97 102.413 126.145 102.27 126.262 102.1Z" fill="#1D1D1D"/>
<path d="M132.414 101.937C132.414 102.111 132.371 102.265 132.285 102.401C132.2 102.534 132.068 102.6 131.89 102.6C131.698 102.6 131.55 102.551 131.448 102.452C131.348 102.354 131.298 102.245 131.298 102.126C131.298 102.051 131.304 101.983 131.314 101.922C131.328 101.86 131.34 101.799 131.35 101.738C131.189 101.738 131 101.803 130.785 101.932C130.569 102.061 130.385 102.245 130.235 102.483V105.412C130.235 105.531 130.257 105.628 130.301 105.703C130.349 105.778 130.423 105.834 130.522 105.871C130.608 105.906 130.718 105.931 130.851 105.948C130.988 105.965 131.107 105.977 131.206 105.984V106.321H128.533V105.984C128.612 105.977 128.693 105.97 128.775 105.963C128.861 105.957 128.934 105.943 128.996 105.923C129.092 105.892 129.162 105.839 129.207 105.764C129.255 105.686 129.279 105.586 129.279 105.463V102.355C129.279 102.25 129.253 102.146 129.202 102.044C129.154 101.942 129.085 101.86 128.996 101.799C128.931 101.758 128.854 101.73 128.765 101.712C128.676 101.692 128.58 101.678 128.477 101.672V101.34L130.163 101.228L130.235 101.299V102.008H130.26C130.473 101.733 130.709 101.524 130.97 101.381C131.23 101.238 131.468 101.166 131.684 101.166C131.9 101.166 132.075 101.236 132.208 101.376C132.345 101.515 132.414 101.702 132.414 101.937Z" fill="#1D1D1D"/>
<path d="M137.79 103.754C137.79 104.108 137.733 104.456 137.62 104.8C137.507 105.14 137.346 105.429 137.137 105.667C136.901 105.94 136.627 106.142 136.315 106.275C136.003 106.407 135.653 106.474 135.266 106.474C134.944 106.474 134.638 106.414 134.346 106.295C134.055 106.173 133.796 105.996 133.57 105.764C133.348 105.536 133.169 105.259 133.036 104.933C132.905 104.603 132.84 104.233 132.84 103.825C132.84 103.039 133.07 102.396 133.529 101.896C133.992 101.396 134.596 101.146 135.343 101.146C136.053 101.146 136.637 101.384 137.096 101.86C137.559 102.333 137.79 102.964 137.79 103.754ZM136.726 103.764C136.726 103.509 136.7 103.24 136.649 102.958C136.597 102.672 136.52 102.43 136.418 102.233C136.308 102.022 136.164 101.854 135.986 101.728C135.808 101.599 135.59 101.534 135.333 101.534C135.069 101.534 134.843 101.599 134.655 101.728C134.47 101.857 134.319 102.034 134.202 102.259C134.093 102.466 134.016 102.702 133.971 102.968C133.927 103.233 133.904 103.49 133.904 103.738C133.904 104.065 133.93 104.368 133.981 104.647C134.036 104.922 134.122 105.169 134.238 105.387C134.355 105.604 134.5 105.776 134.675 105.902C134.853 106.025 135.073 106.086 135.333 106.086C135.761 106.086 136.101 105.88 136.351 105.468C136.601 105.057 136.726 104.489 136.726 103.764Z" fill="#1D1D1D"/>
</svg>
