<svg width="170" height="170" viewBox="0 0 170 170" fill="none" xmlns="http://www.w3.org/2000/svg">
<rect width="170" height="170" rx="9" fill="#F8F8F8"/>
<path fill-rule="evenodd" clip-rule="evenodd" d="M60.5464 78.8399H60.5013L61.1299 75.9306C61.501 74.2453 61.8679 72.8916 62.234 71.8869C62.44 71.3218 62.6677 70.81 62.9219 70.3615C62.0644 70.7715 61.3064 71.2843 60.6432 71.8989L60.6352 71.9063C59.8701 72.5981 59.2164 73.3869 58.6729 74.2753C58.1421 75.1495 57.783 76.0299 57.5856 76.9181C57.5856 76.9184 57.5855 76.9187 57.5854 76.9191L57.1985 78.6825H57.2002L54.1549 93.1635C54.1548 93.1639 54.1547 93.1644 54.1546 93.1649C53.8136 94.8156 53.439 96.1709 53.0234 97.2109C52.7905 97.7997 52.5394 98.3285 52.2652 98.7855C53.0743 98.4132 53.8338 97.9154 54.5447 97.2874L54.547 97.2853C55.2924 96.6315 55.9429 95.8483 56.4969 94.9291L56.5026 94.9196C57.0681 94.0073 57.4656 93.0873 57.7036 92.1585M51.2214 100.113C50.9802 100.176 50.7373 100.227 50.4926 100.267C50.0823 100.333 49.667 100.366 49.2468 100.366C48.2914 100.366 47.5197 100.271 46.9317 100.081C46.3332 99.8911 45.866 99.6481 45.53 99.3524C45.2045 99.0566 44.984 98.7291 44.8686 98.3699C44.7531 98.0108 44.6953 97.6569 44.6953 97.3083C44.6953 96.6956 44.9158 96.1516 45.3568 95.6762C45.7873 95.2114 46.37 94.979 47.1049 94.979C47.6719 94.979 48.1654 95.1269 48.5854 95.4227C48.9949 95.729 49.3466 96.0935 49.6406 96.516C49.9346 96.928 50.197 97.3875 50.428 97.8946C50.4676 97.9855 50.5056 98.0729 50.5421 98.1567C50.7092 98.5402 50.8444 98.8489 50.9478 99.083C51.1549 98.8547 51.3563 98.5716 51.5519 98.2337C51.7726 97.8524 51.986 97.4013 52.1919 96.8805C52.5804 95.9086 52.9427 94.6093 53.2786 92.9825L56.0978 79.5773H53.0424L53.4204 77.9452H56.4442L56.712 76.7251C56.9325 75.7321 57.3314 74.7603 57.9089 73.8095C58.4969 72.8483 59.2056 71.9926 60.0351 71.2426C60.833 70.5031 61.7517 69.901 62.7912 69.4362C63.1674 69.2697 63.5436 69.133 63.9198 69.0261C64.1747 68.9537 64.4296 68.895 64.6844 68.85C65.1033 68.776 65.5222 68.739 65.941 68.739C66.8545 68.739 67.6104 68.8288 68.2089 69.0084C68.8179 69.1774 69.2956 69.4151 69.6421 69.7214C69.9571 70.0066 70.1671 70.3288 70.2721 70.688C70.3875 71.0366 70.4453 71.3852 70.4453 71.7338C70.4453 71.9662 70.398 72.225 70.3036 72.5102C70.2196 72.7954 70.0831 73.0542 69.8941 73.2866C69.6631 73.5507 69.4163 73.7567 69.1539 73.9046C68.9019 74.0525 68.5291 74.1265 68.0357 74.1265C67.4687 74.1265 66.9805 73.9786 66.571 73.6828C66.1615 73.3764 65.815 73.0173 65.5315 72.6053C65.227 72.1722 64.9698 71.7074 64.7598 71.2109C64.723 71.1238 64.6873 71.0399 64.6527 70.959C64.4902 70.5786 64.3527 70.2664 64.2401 70.0225C64.0337 70.2606 63.8369 70.5509 63.6498 70.8934C63.4467 71.2652 63.255 71.6985 63.0747 72.1933C62.7282 73.144 62.3712 74.4539 62.0037 76.123L61.61 77.9452H65.5945L65.2166 79.5773H61.3107C60.7858 82.1865 60.329 84.4524 59.9406 86.375C59.5626 88.287 59.1059 90.2888 58.5704 92.3804C58.3079 93.405 57.8722 94.4086 57.2632 95.391C56.6647 96.384 55.956 97.2396 55.137 97.958C54.2761 98.7185 53.3416 99.3101 52.3337 99.7326C51.9672 99.8879 51.5964 100.015 51.2214 100.113ZM66.432 78.2948C66.1576 78.4006 65.8785 78.516 65.5945 78.641C65.5579 78.6572 65.5211 78.6735 65.4843 78.6899L65.1378 80.116C65.1635 80.1067 65.1897 80.0974 65.2166 80.088C65.4558 80.0043 65.7428 79.9166 66.0776 79.825C66.0898 79.8216 66.102 79.8183 66.1143 79.815C66.1205 79.8131 66.1268 79.8112 66.1331 79.8094C66.5141 79.6969 66.8596 79.6407 67.1695 79.6407C67.8834 79.6407 68.4189 79.7991 68.7759 80.116C69.1329 80.4224 69.4058 80.8608 69.5948 81.4312C69.8258 82.139 70.0516 82.852 70.2721 83.5703C70.4925 84.2886 70.776 85.3556 71.1225 86.7711C70.734 87.3204 70.3718 87.7799 70.0358 88.1496C69.7103 88.5194 69.4688 88.7676 69.3113 88.8944C68.9019 88.7465 68.4661 88.6144 68.0042 88.4982C67.5422 88.3715 67.0592 88.3081 66.5552 88.3081C65.7153 88.3081 65.0013 88.5828 64.4133 89.1321C63.8359 89.6708 63.5471 90.4103 63.5471 91.3504C63.5471 92.0476 63.7729 92.6128 64.2243 93.0459C64.6758 93.479 65.2218 93.6955 65.8623 93.6955C66.7127 93.6955 67.4424 93.4262 68.0514 92.8874C68.6604 92.3381 69.3796 91.4244 70.2091 90.1462C70.4687 89.7491 70.6667 89.4399 70.8031 89.2185C70.8046 89.2161 70.806 89.2137 70.8075 89.2113C70.944 88.9895 71.1645 88.6514 71.469 88.1972C71.5649 88.5446 71.6608 88.9404 71.7567 89.3848C71.7658 89.4269 71.7749 89.4694 71.784 89.5124C71.889 90.0088 72.0045 90.4525 72.1305 90.8434C72.3195 91.4666 72.5452 91.9525 72.8077 92.3011C73.0807 92.6497 73.4114 92.9402 73.7999 93.1726C74.1569 93.3945 74.5506 93.5476 74.9811 93.6322C75.4115 93.7167 75.8473 93.7589 76.2883 93.7589C76.8972 93.7589 77.5902 93.6586 78.3671 93.4579C79.1441 93.2571 80.0523 92.935 81.0918 92.4913L81.4382 91.0652C81.1781 91.1699 80.8457 91.2746 80.4412 91.3793C80.4375 91.3802 80.4339 91.3812 80.4303 91.3821C80.0208 91.4877 79.6796 91.5406 79.4066 91.5406C78.6611 91.5406 78.1152 91.3821 77.7687 91.0652C77.4222 90.7483 77.1597 90.3099 76.9812 89.75C76.7712 89.0528 76.5507 88.3662 76.3198 87.6901C76.0888 87.0035 75.7843 85.8521 75.4063 84.2358C75.8158 83.676 76.1833 83.2006 76.5087 82.8097C76.8342 82.4189 77.081 82.1654 77.249 82.0492C77.6059 82.1759 78.0259 82.3027 78.5089 82.4295C79.0024 82.5562 79.5011 82.6196 80.0051 82.6196C80.845 82.6196 81.5537 82.3502 82.1312 81.8115C82.7192 81.2622 83.0132 80.528 83.0132 79.609C83.0132 78.9118 82.7927 78.3466 82.3517 77.9135C81.9107 77.4698 81.3595 77.248 80.698 77.248C79.8896 77.248 79.1651 77.5279 78.5246 78.0878C77.8842 78.6371 77.1597 79.5509 76.3512 80.8291C76.1837 81.103 75.9796 81.419 75.7389 81.777C75.7383 81.778 75.7376 81.7789 75.737 81.7798C75.506 82.139 75.2803 82.4875 75.0598 82.8256C74.9863 82.4981 74.8971 82.1073 74.7921 81.653C74.7888 81.6386 74.7854 81.6243 74.7821 81.6099C74.6798 81.171 74.5676 80.747 74.4456 80.3379C74.2671 79.7252 74.0361 79.2445 73.7526 78.8959C73.4796 78.5368 73.1542 78.241 72.7762 78.0086C72.3667 77.7656 71.9782 77.6072 71.6107 77.5332C71.2433 77.4593 70.8023 77.4223 70.2878 77.4223C69.7208 77.4223 69.0121 77.5279 68.1617 77.7392C67.6079 77.8785 67.0314 78.0637 66.432 78.2948ZM68.3788 78.6072C68.1769 78.658 67.971 78.7156 67.7609 78.78C68.3636 78.8532 68.9213 79.0513 69.364 79.4417C69.8712 79.8791 70.2188 80.4697 70.4442 81.1498L70.4454 81.1536C70.6781 81.8664 70.9054 82.5845 71.1274 83.3078C71.3557 84.0514 71.644 85.1385 71.9916 86.5584L72.0886 86.9546L72.0638 86.9897L72.3315 87.9591C72.4424 88.361 72.5516 88.8177 72.6594 89.3272C72.7594 89.8002 72.8674 90.2132 72.982 90.5689L72.9844 90.5763L72.9867 90.5837C73.1572 91.1459 73.3426 91.5218 73.5176 91.7564C73.7202 92.0135 73.9655 92.2291 74.2592 92.4048L74.2657 92.4087L74.2721 92.4127C74.5331 92.5749 74.8245 92.6896 75.1534 92.7542C75.5268 92.8275 75.9048 92.8642 76.2883 92.8642C76.8022 92.8642 77.4178 92.779 78.1434 92.5916C78.3502 92.5381 78.5689 92.4749 78.7996 92.4017C78.1811 92.329 77.6076 92.1304 77.1648 91.7254C76.6773 91.2795 76.343 90.6937 76.1288 90.0218L76.1266 90.015L76.1245 90.0081C75.9176 89.3211 75.7005 88.6449 75.4731 87.9794L75.4717 87.9754C75.2579 87.3398 74.9934 86.3578 74.6789 85.0472L74.651 85.09L74.1868 83.0215C74.1138 82.6965 74.025 82.3076 73.9203 81.8545C73.8193 81.4175 73.7085 80.9972 73.5882 80.5935L73.5865 80.5881C73.4285 80.0455 73.2419 79.6861 73.0585 79.4604L73.0492 79.449L73.0403 79.4373C72.8345 79.1666 72.5931 78.9473 72.3134 78.7744C71.9709 78.5719 71.6789 78.4596 71.4342 78.4104C71.1418 78.3515 70.7632 78.317 70.2878 78.317C69.8219 78.317 69.1918 78.4053 68.3788 78.6072ZM77.2418 81.0971L77.5484 81.206C77.875 81.322 78.269 81.4414 78.7338 81.5634C79.1546 81.6713 79.5778 81.7249 80.0051 81.7249C80.6343 81.7249 81.1203 81.531 81.5209 81.1572C81.901 80.8019 82.1184 80.3186 82.1184 79.609C82.1184 79.1183 81.9719 78.7946 81.7248 78.5519L81.7171 78.5443C81.4545 78.2801 81.1365 78.1427 80.698 78.1427C80.1182 78.1427 79.6002 78.336 79.1135 78.7614L79.1072 78.767C78.5985 79.2033 77.9754 79.9619 77.2418 81.0971ZM69.3316 89.853L69.0074 89.7359C68.6285 89.5991 68.2216 89.4755 67.7859 89.366L67.7766 89.3636L67.7674 89.3611C67.3865 89.2566 66.9834 89.2028 66.5552 89.2028C65.9311 89.2028 65.4386 89.3987 65.0242 89.7859C64.6624 90.1233 64.4419 90.6071 64.4419 91.3504C64.4419 91.8346 64.5892 92.156 64.8438 92.4002C65.1243 92.6693 65.4466 92.8008 65.8623 92.8008C66.5038 92.8008 67.0188 92.6051 67.4554 92.22C67.9488 91.7741 68.574 91.0014 69.3316 89.853ZM69.2095 72.7103C69.3191 72.5725 69.3964 72.4233 69.4453 72.2575L69.4495 72.2431L69.4542 72.2288C69.527 72.0092 69.5506 71.8473 69.5506 71.7338C69.5506 71.4858 69.5098 71.2321 69.4227 70.9694L69.4177 70.9543L69.4133 70.9391C69.361 70.7603 69.2524 70.5767 69.0455 70.3883C68.8307 70.1998 68.49 70.015 67.9696 69.8705L67.9607 69.868L67.9517 69.8654C67.4655 69.7195 66.8037 69.6338 65.941 69.6338C65.6534 69.6338 65.3644 69.6537 65.0739 69.6941C65.2124 69.9964 65.3827 70.3867 65.5839 70.8624C65.7696 71.3015 65.9962 71.7105 66.2635 72.0907L66.2687 72.0981C66.4942 72.4259 66.7701 72.7133 67.1005 72.9615C67.3382 73.1314 67.6359 73.2317 68.0357 73.2317C68.4668 73.2317 68.6509 73.1624 68.701 73.133L68.7078 73.129L68.7147 73.1251C68.8722 73.0363 69.0384 72.9035 69.2095 72.7103ZM49.6107 98.2586C49.4019 97.8014 49.1685 97.3948 48.9123 97.0357L48.9061 97.0271C48.6691 96.6864 48.3879 96.3942 48.0603 96.1473C47.8086 95.973 47.5023 95.8738 47.1049 95.8738C46.5755 95.8738 46.2468 96.032 46.0132 96.2842C45.7159 96.6047 45.59 96.9353 45.59 97.3083C45.59 97.5566 45.631 97.8181 45.7203 98.096C45.78 98.2815 45.9009 98.479 46.1264 98.6853C46.3401 98.8717 46.6822 99.0632 47.2026 99.2285L47.207 99.2299C47.6714 99.3801 48.3397 99.4717 49.2468 99.4717C49.5396 99.4717 49.8297 99.4536 50.1172 99.4172C49.992 99.1333 49.823 98.7469 49.6107 98.2586ZM60.5464 78.8399L60.4336 79.4008C59.9086 82.0098 59.452 84.2755 59.0635 86.1977L59.0628 86.2014C58.6884 88.0956 58.2354 90.0813 57.7036 92.1585" fill="black"/>
<path fill-rule="evenodd" clip-rule="evenodd" d="M89.8604 88.577H93.045C97.2912 88.577 98.5217 87.0689 99.0524 84.1005L99.3661 82.3051C99.4385 81.9221 99.5108 81.4194 99.5108 81.0842C99.5108 78.81 97.8461 77.4934 94.3961 77.4934H88.2681L85.4453 93.4366H88.9919L89.8604 88.577ZM88.2429 92.5418L89.1114 87.6823H93.045C95.0892 87.6823 96.2048 87.3139 96.8719 86.7624C97.5298 86.2183 97.9184 85.3587 98.1714 83.9448C98.1715 83.9442 98.1716 83.9436 98.1717 83.943L98.4868 82.1389C98.5572 81.7667 98.6161 81.3319 98.6161 81.0842C98.6161 80.1931 98.3063 79.5833 97.7226 79.1608C97.0914 78.7039 96.0303 78.3882 94.3961 78.3882H89.0183L86.5124 92.5418H88.2429ZM112.438 84.0287L112.775 82.1136L112.792 81.987C112.834 81.6802 112.872 81.4062 112.872 81.1321C112.872 78.7861 111.183 77.4934 107.733 77.4934H101.581L98.758 93.4366H102.305L103.173 88.4573H105.61L108.433 93.4366H112.413L109.374 87.9786C109.677 87.8733 109.951 87.7548 110.199 87.6226C111.587 86.883 112.151 85.7143 112.438 84.0287ZM113.149 88.6967L114.307 82.1136C114.838 79.1452 116.671 77.254 121.207 77.254C125.019 77.254 126.804 79.4085 126.804 81.5869C126.804 81.8024 126.78 82.0657 126.732 82.3051L125.574 88.8164C125.043 91.8566 123.234 93.676 118.481 93.676C114.693 93.676 113.077 91.5933 113.077 89.4388C113.077 89.1994 113.101 88.9361 113.149 88.6967ZM115.188 82.2694C115.188 82.2699 115.188 82.2705 115.188 82.2711L114.028 88.8626L114.026 88.8735C113.99 89.0504 113.971 89.2542 113.971 89.4388C113.971 90.2875 114.286 91.0961 114.957 91.7003C115.631 92.3073 116.749 92.7812 118.481 92.7812C120.76 92.7812 122.178 92.3422 123.074 91.6706C123.947 91.0154 124.452 90.0408 124.692 88.6625L124.693 88.6597L125.853 82.1383L125.855 82.1283C125.891 81.9488 125.91 81.7447 125.91 81.5869C125.91 80.7484 125.569 79.9124 124.845 79.2757C124.118 78.6377 122.945 78.1488 121.207 78.1488C119.052 78.1488 117.681 78.5993 116.802 79.2786C115.938 79.9467 115.428 80.931 115.188 82.2694ZM110.891 92.5418L108.073 87.4824L109.08 87.1332C109.944 86.8337 110.46 86.439 110.806 85.9628C111.164 85.4692 111.397 84.8092 111.555 83.8787L111.556 83.8733L111.891 81.9762C111.896 81.9391 111.901 81.9034 111.906 81.869C111.949 81.5513 111.977 81.3415 111.977 81.1321C111.977 80.2009 111.658 79.5816 111.072 79.1583C110.436 78.6991 109.37 78.3882 107.733 78.3882H102.331L99.8251 92.5418H101.552L102.421 87.5626H106.131L108.954 92.5418H110.891ZM96.4345 83.9251C96.3229 84.5406 96.1406 85.2525 95.5799 85.7621C95.0072 86.2825 94.226 86.4316 93.3346 86.4316H89.3492L90.5329 79.7107H94.2755C94.8919 79.7107 95.524 79.8134 96.0128 80.1899C96.5528 80.606 96.7384 81.2099 96.7384 81.8024C96.7384 82.0405 96.7058 82.3347 96.6537 82.6448L96.6532 82.6475L96.4345 83.9251ZM104.572 80.6054H107.516C108.746 80.6054 109.253 80.9406 109.253 81.7545C109.253 81.8742 109.229 82.1615 109.181 82.4248L108.963 83.6217C108.746 84.8426 108.336 85.4171 106.768 85.4171H103.728L104.572 80.6054ZM109.844 83.7784C109.844 83.779 109.844 83.7796 109.844 83.7802C109.729 84.4241 109.532 85.1315 108.974 85.6391C108.403 86.1587 107.634 86.3119 106.768 86.3119H102.663L103.821 79.7107H107.516C108.17 79.7107 108.83 79.7914 109.339 80.1285C109.938 80.5248 110.148 81.1393 110.148 81.7545C110.148 81.9392 110.116 82.2809 110.061 82.585C110.061 82.5854 110.061 82.5857 110.061 82.5861L109.844 83.7784ZM124.045 82.5672L122.957 88.661C122.802 89.5335 122.393 90.2793 121.66 90.7836C120.954 91.2688 120.051 91.4587 119.036 91.4587C118.107 91.4587 117.294 91.318 116.695 90.906C116.024 90.4442 115.777 89.756 115.777 89.0558C115.777 88.831 115.807 88.5912 115.829 88.4164L115.835 88.3706L116.926 82.2576C117.084 81.4294 117.495 80.6987 118.209 80.1905C118.907 79.6942 119.808 79.4713 120.845 79.4713C121.776 79.4713 122.593 79.6286 123.194 80.0627C123.853 80.5389 124.104 81.2349 124.104 81.946C124.104 82.1554 124.072 82.3787 124.05 82.5285L124.045 82.5672ZM122.076 88.5052L123.161 82.4248C123.185 82.2572 123.209 82.0896 123.209 81.946C123.209 80.9645 122.558 80.3661 120.845 80.3661C119.012 80.3661 118.046 81.156 117.805 82.4248L116.72 88.5052C116.695 88.6967 116.671 88.8882 116.671 89.0558C116.671 90.0133 117.299 90.5639 119.036 90.5639C120.869 90.5639 121.834 89.8697 122.076 88.5052ZM95.5542 83.7654L95.7713 82.4966C95.8195 82.2093 95.8437 81.9699 95.8437 81.8024C95.8437 80.9885 95.3611 80.6054 94.2755 80.6054H91.2838L90.4153 85.5368H93.3346C94.9751 85.5368 95.337 84.9623 95.5542 83.7654Z" fill="black"/>
<path fill-rule="evenodd" clip-rule="evenodd" d="M133.05 37.398H37.8458V131.707H133.05V37.398ZM37.3984 36.5033V132.602H133.497V36.5033H37.3984Z" fill="black"/>
<path fill-rule="evenodd" clip-rule="evenodd" d="M126.364 138.684V30.4211H126.812V138.684H126.364ZM44.5411 138.684V30.4211H44.0938V138.684H44.5411Z" fill="black"/>
<path fill-rule="evenodd" clip-rule="evenodd" d="M31.3228 100.527L139.586 100.527L139.586 100.975L31.3228 100.975L31.3228 100.527ZM31.3228 68.5782L139.586 68.5782L139.586 68.1309L31.3228 68.1309L31.3228 68.5782Z" fill="black"/>
<path fill-rule="evenodd" clip-rule="evenodd" d="M85.449 31.3233L85.449 30.4211L86.3438 30.4211L86.3438 31.3233L85.449 31.3233ZM85.449 34.9321L85.449 33.1277L86.3438 33.1277L86.3438 34.9321L85.449 34.9321ZM85.449 38.5409L85.449 36.7365L86.3438 36.7365L86.3438 38.5409L85.449 38.5409ZM85.449 42.1497L85.449 40.3453L86.3438 40.3453L86.3438 42.1497L85.449 42.1497ZM85.449 45.7584L85.449 43.954L86.3438 43.954L86.3438 45.7584L85.449 45.7584ZM85.449 49.3672L85.449 47.5628L86.3438 47.5628L86.3438 49.3672L85.449 49.3672ZM85.449 52.976L85.449 51.1716L86.3438 51.1716L86.3438 52.976L85.449 52.976ZM85.449 56.5847L85.449 54.7804L86.3438 54.7804L86.3438 56.5847L85.449 56.5847ZM85.449 60.1935L85.449 58.3891L86.3438 58.3891L86.3438 60.1935L85.449 60.1935ZM85.449 63.8023L85.449 61.9979L86.3438 61.9979L86.3438 63.8023L85.449 63.8023ZM85.449 67.4111L85.449 65.6067L86.3438 65.6067L86.3438 67.4111L85.449 67.4111ZM85.449 71.0198L85.449 69.2154L86.3438 69.2154L86.3438 71.0198L85.449 71.0198ZM85.449 74.6286L85.449 72.8242L86.3438 72.8242L86.3438 74.6286L85.449 74.6286ZM85.449 78.2374L85.449 76.433L86.3438 76.433L86.3438 78.2374L85.449 78.2374ZM85.449 81.8461L85.449 80.0418L86.3438 80.0418L86.3438 81.8461L85.449 81.8461ZM85.449 85.4549L85.449 83.6505L86.3438 83.6505L86.3438 85.4549L85.449 85.4549ZM85.449 89.0637L85.449 87.2593L86.3438 87.2593L86.3438 89.0637L85.449 89.0637ZM85.449 92.6725L85.449 90.8681L86.3438 90.8681L86.3438 92.6725L85.449 92.6725ZM85.449 96.2812L85.449 94.4769L86.3438 94.4769L86.3438 96.2812L85.449 96.2812ZM85.449 99.89L85.449 98.0856L86.3438 98.0856L86.3438 99.89L85.449 99.89ZM85.449 103.499L85.449 101.694L86.3438 101.694L86.3438 103.499L85.449 103.499ZM85.449 107.108L85.449 105.303L86.3438 105.303L86.3438 107.108L85.449 107.108ZM85.449 110.716L85.449 108.912L86.3438 108.912L86.3438 110.716L85.449 110.716ZM85.449 114.325L85.449 112.521L86.3438 112.521L86.3438 114.325L85.449 114.325ZM85.449 117.934L85.449 116.13L86.3438 116.13L86.3438 117.934L85.449 117.934ZM85.449 121.543L85.449 119.738L86.3438 119.738L86.3438 121.543L85.449 121.543ZM85.449 125.151L85.449 123.347L86.3438 123.347L86.3438 125.151L85.449 125.151ZM85.449 128.76L85.449 126.956L86.3438 126.956L86.3438 128.76L85.449 128.76ZM85.449 132.369L85.449 130.565L86.3438 130.565L86.3438 132.369L85.449 132.369ZM85.449 135.978L85.449 134.173L86.3438 134.173L86.3438 135.978L85.449 135.978ZM85.449 138.684L85.449 137.782L86.3438 137.782L86.3438 138.684L85.449 138.684Z" fill="black"/>
<path fill-rule="evenodd" clip-rule="evenodd" d="M34.3573 100.975L34.3573 68.1309L34.8047 68.1309L34.8047 100.975L34.3573 100.975Z" fill="black"/>
<path fill-rule="evenodd" clip-rule="evenodd" d="M44.7028 33.4623L126.812 33.4623V33.9097L44.7028 33.9097V33.4623Z" fill="black"/>
<path fill-rule="evenodd" clip-rule="evenodd" d="M44.7028 135.643H126.812V136.091H44.7028V135.643Z" fill="black"/>
<path fill-rule="evenodd" clip-rule="evenodd" d="M136.545 100.975L136.545 68.1309L136.992 68.1309L136.992 100.975L136.545 100.975Z" fill="black"/>
<path fill-rule="evenodd" clip-rule="evenodd" d="M138.684 84.5528L139.586 84.5528L139.586 85.4475L138.684 85.4475L138.684 84.5528ZM135.075 84.5528L136.879 84.5528L136.879 85.4475L135.075 85.4475L135.075 84.5528ZM131.466 84.5528L133.271 84.5528L133.271 85.4475L131.466 85.4475L131.466 84.5528ZM127.857 84.5528L129.662 84.5528L129.662 85.4475L127.857 85.4475L127.857 84.5528ZM124.249 84.5528L126.053 84.5528L126.053 85.4475L124.249 85.4475L124.249 84.5528ZM120.64 84.5528L122.444 84.5528L122.444 85.4475L120.64 85.4475L120.64 84.5528ZM117.031 84.5528L118.835 84.5528L118.835 85.4475L117.031 85.4475L117.031 84.5528ZM113.422 84.5528L115.227 84.5528L115.227 85.4475L113.422 85.4475L113.422 84.5528ZM109.814 84.5528L111.618 84.5528L111.618 85.4475L109.814 85.4475L109.814 84.5528ZM106.205 84.5528L108.009 84.5528L108.009 85.4475L106.205 85.4475L106.205 84.5528ZM102.596 84.5528L104.4 84.5528L104.4 85.4475L102.596 85.4475L102.596 84.5528ZM98.9873 84.5528L100.792 84.5528L100.792 85.4475L98.9873 85.4475L98.9873 84.5528ZM95.3785 84.5528L97.1829 84.5528L97.1829 85.4475L95.3785 85.4475L95.3785 84.5528ZM91.7697 84.5528L93.5741 84.5528L93.5741 85.4475L91.7697 85.4475L91.7697 84.5528ZM88.1609 84.5528L89.9653 84.5528L89.9653 85.4475L88.1609 85.4475L88.1609 84.5528ZM84.5522 84.5528L86.3566 84.5528L86.3566 85.4475L84.5522 85.4475L84.5522 84.5528ZM80.9434 84.5528L82.7478 84.5528L82.7478 85.4475L80.9434 85.4475L80.9434 84.5528ZM77.3346 84.5528L79.139 84.5528L79.139 85.4475L77.3346 85.4475L77.3346 84.5528ZM73.7258 84.5528L75.5302 84.5528L75.5302 85.4475L73.7258 85.4475L73.7258 84.5528ZM70.1171 84.5528L71.9214 84.5528L71.9214 85.4475L70.1171 85.4475L70.1171 84.5528ZM66.5083 84.5528L68.3127 84.5528L68.3127 85.4475L66.5083 85.4475L66.5083 84.5528ZM62.8995 84.5528L64.7039 84.5528L64.7039 85.4475L62.8995 85.4475L62.8995 84.5528ZM59.2907 84.5528L61.0951 84.5528L61.0951 85.4475L59.2907 85.4475L59.2907 84.5528ZM55.6819 84.5528L57.4863 84.5528L57.4863 85.4475L55.6819 85.4475L55.6819 84.5528ZM52.0732 84.5528L53.8776 84.5528L53.8776 85.4475L52.0732 85.4475L52.0732 84.5528ZM48.4644 84.5528L50.2688 84.5528L50.2688 85.4475L48.4644 85.4475L48.4644 84.5528ZM44.8556 84.5528L46.66 84.5528L46.66 85.4475L44.8556 85.4475L44.8556 84.5528ZM41.2468 84.5528L43.0512 84.5528L43.0512 85.4475L41.2468 85.4475L41.2468 84.5528ZM37.6381 84.5528L39.4424 84.5528L39.4424 85.4475L37.6381 85.4475L37.6381 84.5528ZM34.0293 84.5528L35.8337 84.5528L35.8337 85.4475L34.0293 85.4475L34.0293 84.5528ZM31.3228 84.5528L32.2249 84.5528L32.2249 85.4475L31.3228 85.4475L31.3228 84.5528Z" fill="black"/>
</svg>
