<svg width="606" height="92" viewBox="0 0 606 92" fill="none" xmlns="http://www.w3.org/2000/svg">
<path d="M29.7267 74.9943C25.9862 74.9706 22.3759 74.3433 18.8958 73.1122C15.4393 71.8812 12.338 69.8807 9.5918 67.1108C6.84558 64.3409 4.66755 60.6714 3.05771 56.1023C1.47153 51.5331 0.678445 45.9223 0.678445 39.2699C0.702119 33.1619 1.40051 27.705 2.77362 22.8991C4.1704 18.0696 6.15903 13.974 8.73952 10.6122C11.3437 7.25047 14.4569 4.69365 18.079 2.94176C21.7012 1.16619 25.7613 0.278406 30.2594 0.278406C35.1126 0.278406 39.3977 1.22538 43.1145 3.11932C46.8314 4.98958 49.8143 7.53456 52.0634 10.7543C54.3361 13.974 55.7092 17.5843 56.1827 21.5852H41.0194C40.4275 19.0521 39.1846 17.0634 37.2907 15.6193C35.3967 14.1752 33.053 13.4531 30.2594 13.4531C25.5246 13.4531 21.9261 15.5128 19.464 19.6321C17.0255 23.7514 15.7826 29.3504 15.7353 36.429H16.2324C17.3214 34.2746 18.7892 32.4399 20.6358 30.9247C22.5061 29.3859 24.6249 28.214 26.9924 27.4091C29.3835 26.5805 31.9048 26.1662 34.5563 26.1662C38.865 26.1662 42.7002 27.1842 46.062 29.2202C49.4237 31.2325 52.0752 34.0024 54.0165 37.5298C55.9578 41.0573 56.9284 45.0937 56.9284 49.6392C56.9284 54.5634 55.7802 58.9432 53.4838 62.7784C51.2111 66.6136 48.0269 69.6203 43.9313 71.7983C39.8593 73.9527 35.1245 75.018 29.7267 74.9943ZM29.6557 62.9205C32.0231 62.9205 34.142 62.3523 36.0123 61.2159C37.8825 60.0795 39.3503 58.5407 40.4157 56.5994C41.481 54.6581 42.0137 52.4801 42.0137 50.0653C42.0137 47.6506 41.481 45.4844 40.4157 43.5668C39.374 41.6491 37.9299 40.1222 36.0833 38.9858C34.2367 37.8494 32.1297 37.2812 29.7623 37.2812C27.9867 37.2812 26.3413 37.6127 24.8262 38.2756C23.3347 38.9384 22.0208 39.8617 20.8844 41.0455C19.7717 42.2292 18.8958 43.6023 18.2566 45.1648C17.6174 46.7036 17.2978 48.349 17.2978 50.1009C17.2978 52.4446 17.8304 54.5871 18.8958 56.5284C19.9848 58.4697 21.4526 60.0204 23.2992 61.1804C25.1694 62.3404 27.2883 62.9205 29.6557 62.9205ZM89.7125 74.9943C84.4095 74.9943 79.6865 74.0829 75.5435 72.2599C71.4242 70.4134 68.169 67.8802 65.7779 64.6605C63.4105 61.4171 62.1912 57.6766 62.1202 53.4389H77.6032C77.6979 55.2145 78.2779 56.777 79.3432 58.1264C80.4322 59.4522 81.8764 60.482 83.6756 61.2159C85.4748 61.9498 87.499 62.3168 89.748 62.3168C92.0918 62.3168 94.1633 61.9025 95.9625 61.0739C97.7618 60.2453 99.1704 59.0971 100.188 57.6293C101.206 56.1615 101.715 54.4687 101.715 52.5511C101.715 50.6098 101.171 48.8935 100.082 47.402C99.0165 45.8868 97.4777 44.7031 95.4654 43.8509C93.4767 42.9986 91.1093 42.5724 88.3631 42.5724H81.5804V31.2798H88.3631C90.6832 31.2798 92.731 30.8774 94.5066 30.0724C96.3058 29.2675 97.7026 28.1548 98.6969 26.7344C99.6912 25.2902 100.188 23.6094 100.188 21.6918C100.188 19.8688 99.7504 18.2708 98.8745 16.8977C98.0222 15.5009 96.8148 14.4119 95.2523 13.6307C93.7135 12.8494 91.9142 12.4588 89.8546 12.4588C87.7712 12.4588 85.8655 12.8376 84.1373 13.5952C82.409 14.3291 81.0241 15.3826 79.9824 16.7557C78.9408 18.1288 78.3844 19.7386 78.3134 21.5852H63.5762C63.6472 17.3949 64.8427 13.7017 67.1628 10.5057C69.4829 7.30966 72.6079 4.81202 76.5378 3.01278C80.4914 1.18986 84.954 0.278406 89.9256 0.278406C94.9445 0.278406 99.3361 1.18986 103.1 3.01278C106.865 4.8357 109.788 7.29782 111.872 10.3991C113.979 13.4768 115.02 16.9332 114.997 20.7685C115.02 24.8404 113.754 28.2377 111.197 30.9602C108.664 33.6828 105.361 35.411 101.289 36.1449V36.7131C106.64 37.3996 110.712 39.258 113.505 42.2884C116.322 45.295 117.719 49.0592 117.695 53.581C117.719 57.724 116.524 61.4053 114.109 64.625C111.718 67.8447 108.415 70.3778 104.201 72.2244C99.9872 74.071 95.1576 74.9943 89.7125 74.9943ZM150.311 74.9943C145.292 74.9943 140.818 74.071 136.888 72.2244C132.981 70.3778 129.88 67.8329 127.584 64.5895C125.287 61.3461 124.092 57.6293 123.997 53.4389H138.912C139.077 56.2562 140.261 58.5407 142.463 60.2926C144.665 62.0445 147.281 62.9205 150.311 62.9205C152.726 62.9205 154.856 62.3878 156.703 61.3224C158.573 60.2334 160.029 58.7301 161.071 56.8125C162.136 54.8712 162.669 52.6458 162.669 50.1364C162.669 47.5795 162.124 45.3305 161.035 43.3892C159.97 41.4479 158.49 39.9328 156.596 38.8438C154.702 37.7547 152.536 37.1984 150.098 37.1747C147.967 37.1747 145.896 37.6127 143.883 38.4886C141.895 39.3646 140.344 40.5601 139.231 42.0753L125.559 39.625L129.004 1.27273H173.464V13.8438H141.682L139.8 32.0611H140.226C141.504 30.2618 143.434 28.7704 146.014 27.5866C148.595 26.4029 151.483 25.8111 154.679 25.8111C159.059 25.8111 162.965 26.8409 166.398 28.9006C169.83 30.9602 172.541 33.7893 174.53 37.3878C176.518 40.9626 177.501 45.0819 177.477 49.7457C177.501 54.6463 176.364 59.0024 174.068 62.8139C171.795 66.6018 168.611 69.5848 164.515 71.7628C160.443 73.9171 155.709 74.9943 150.311 74.9943Z" fill="#B68756"/>
<path d="M199.785 64.0568L199.395 67.9631C199.087 71.0881 198.495 74.2012 197.619 77.3026C196.767 80.4276 195.867 83.2566 194.92 85.7898C193.997 88.3229 193.251 90.3116 192.683 91.7557H182.882C183.237 90.3589 183.722 88.4058 184.338 85.8963C184.953 83.4105 185.533 80.617 186.078 77.5156C186.622 74.4143 186.966 71.2538 187.108 68.0341L187.285 64.0568H199.785ZM234.061 75.598C227.953 75.5743 222.697 74.071 218.294 71.0881C213.914 68.1051 210.541 63.7846 208.173 58.1264C205.829 52.4683 204.669 45.6619 204.693 37.7074C204.693 29.7765 205.865 23.0175 208.209 17.4304C210.576 11.8433 213.95 7.59375 218.329 4.68182C222.733 1.74621 227.977 0.278406 234.061 0.278406C240.145 0.278406 245.377 1.74621 249.757 4.68182C254.16 7.61742 257.546 11.8788 259.913 17.4659C262.281 23.0294 263.452 29.7765 263.429 37.7074C263.429 45.6856 262.245 52.5038 259.878 58.1619C257.534 63.8201 254.172 68.1406 249.792 71.1236C245.413 74.1065 240.169 75.598 234.061 75.598ZM234.061 62.8494C238.228 62.8494 241.554 60.7543 244.04 56.5639C246.525 52.3736 247.756 46.0881 247.733 37.7074C247.733 32.1913 247.165 27.5985 246.028 23.929C244.916 20.2595 243.329 17.5014 241.27 15.6548C239.234 13.8082 236.831 12.8849 234.061 12.8849C229.918 12.8849 226.604 14.9564 224.118 19.0994C221.632 23.2424 220.377 29.4451 220.354 37.7074C220.354 43.2945 220.91 47.9583 222.023 51.6989C223.159 55.4157 224.757 58.2093 226.817 60.0795C228.876 61.9261 231.291 62.8494 234.061 62.8494ZM297.909 75.598C291.801 75.5743 286.545 74.071 282.142 71.0881C277.762 68.1051 274.388 63.7846 272.021 58.1264C269.677 52.4683 268.517 45.6619 268.541 37.7074C268.541 29.7765 269.713 23.0175 272.056 17.4304C274.424 11.8433 277.797 7.59375 282.177 4.68182C286.58 1.74621 291.824 0.278406 297.909 0.278406C303.993 0.278406 309.225 1.74621 313.605 4.68182C318.008 7.61742 321.393 11.8788 323.761 17.4659C326.128 23.0294 327.3 29.7765 327.276 37.7074C327.276 45.6856 326.093 52.5038 323.725 58.1619C321.382 63.8201 318.02 68.1406 313.64 71.1236C309.26 74.1065 304.017 75.598 297.909 75.598ZM297.909 62.8494C302.075 62.8494 305.401 60.7543 307.887 56.5639C310.373 52.3736 311.604 46.0881 311.58 37.7074C311.58 32.1913 311.012 27.5985 309.876 23.929C308.763 20.2595 307.177 17.5014 305.117 15.6548C303.081 13.8082 300.678 12.8849 297.909 12.8849C293.766 12.8849 290.451 14.9564 287.965 19.0994C285.48 23.2424 284.225 29.4451 284.201 37.7074C284.201 43.2945 284.758 47.9583 285.87 51.6989C287.007 55.4157 288.605 58.2093 290.664 60.0795C292.724 61.9261 295.139 62.8494 297.909 62.8494ZM361.756 75.598C355.648 75.5743 350.393 74.071 345.989 71.0881C341.609 68.1051 338.236 63.7846 335.868 58.1264C333.525 52.4683 332.365 45.6619 332.388 37.7074C332.388 29.7765 333.56 23.0175 335.904 17.4304C338.271 11.8433 341.645 7.59375 346.025 4.68182C350.428 1.74621 355.672 0.278406 361.756 0.278406C367.84 0.278406 373.073 1.74621 377.452 4.68182C381.856 7.61742 385.241 11.8788 387.608 17.4659C389.976 23.0294 391.148 29.7765 391.124 37.7074C391.124 45.6856 389.94 52.5038 387.573 58.1619C385.229 63.8201 381.867 68.1406 377.488 71.1236C373.108 74.1065 367.864 75.598 361.756 75.598ZM361.756 62.8494C365.923 62.8494 369.249 60.7543 371.735 56.5639C374.221 52.3736 375.452 46.0881 375.428 37.7074C375.428 32.1913 374.86 27.5985 373.724 23.929C372.611 20.2595 371.025 17.5014 368.965 15.6548C366.929 13.8082 364.526 12.8849 361.756 12.8849C357.613 12.8849 354.299 14.9564 351.813 19.0994C349.327 23.2424 348.073 29.4451 348.049 37.7074C348.049 43.2945 348.605 47.9583 349.718 51.6989C350.854 55.4157 352.452 58.2093 354.512 60.0795C356.572 61.9261 358.986 62.8494 361.756 62.8494Z" fill="#B68756" fill-opacity="0.8"/>
<path d="M413.672 64.0568L413.281 67.9631C412.974 71.0881 412.382 74.2012 411.506 77.3026C410.654 80.4276 409.754 83.2566 408.807 85.7898C407.884 88.3229 407.138 90.3116 406.57 91.7557H396.769C397.124 90.3589 397.609 88.4058 398.225 85.8963C398.84 83.4105 399.42 80.617 399.965 77.5156C400.509 74.4143 400.852 71.2538 400.994 68.0341L401.172 64.0568H413.672ZM447.948 75.598C441.84 75.5743 436.584 74.071 432.181 71.0881C427.801 68.1051 424.427 63.7846 422.06 58.1264C419.716 52.4683 418.556 45.6619 418.58 37.7074C418.58 29.7765 419.752 23.0175 422.095 17.4304C424.463 11.8433 427.836 7.59375 432.216 4.68182C436.619 1.74621 441.863 0.278406 447.948 0.278406C454.032 0.278406 459.264 1.74621 463.644 4.68182C468.047 7.61742 471.432 11.8788 473.8 17.4659C476.167 23.0294 477.339 29.7765 477.316 37.7074C477.316 45.6856 476.132 52.5038 473.764 58.1619C471.421 63.8201 468.059 68.1406 463.679 71.1236C459.299 74.1065 454.056 75.598 447.948 75.598ZM447.948 62.8494C452.114 62.8494 455.441 60.7543 457.926 56.5639C460.412 52.3736 461.643 46.0881 461.619 37.7074C461.619 32.1913 461.051 27.5985 459.915 23.929C458.802 20.2595 457.216 17.5014 455.156 15.6548C453.12 13.8082 450.718 12.8849 447.948 12.8849C443.805 12.8849 440.49 14.9564 438.004 19.0994C435.519 23.2424 434.264 29.4451 434.24 37.7074C434.24 43.2945 434.797 47.9583 435.909 51.6989C437.046 55.4157 438.644 58.2093 440.703 60.0795C442.763 61.9261 445.178 62.8494 447.948 62.8494ZM511.795 75.598C505.687 75.5743 500.432 74.071 496.028 71.0881C491.648 68.1051 488.275 63.7846 485.907 58.1264C483.564 52.4683 482.404 45.6619 482.427 37.7074C482.427 29.7765 483.599 23.0175 485.943 17.4304C488.31 11.8433 491.684 7.59375 496.064 4.68182C500.467 1.74621 505.711 0.278406 511.795 0.278406C517.88 0.278406 523.112 1.74621 527.491 4.68182C531.895 7.61742 535.28 11.8788 537.648 17.4659C540.015 23.0294 541.187 29.7765 541.163 37.7074C541.163 45.6856 539.979 52.5038 537.612 58.1619C535.268 63.8201 531.907 68.1406 527.527 71.1236C523.147 74.1065 517.903 75.598 511.795 75.598ZM511.795 62.8494C515.962 62.8494 519.288 60.7543 521.774 56.5639C524.26 52.3736 525.491 46.0881 525.467 37.7074C525.467 32.1913 524.899 27.5985 523.763 23.929C522.65 20.2595 521.064 17.5014 519.004 15.6548C516.968 13.8082 514.565 12.8849 511.795 12.8849C507.652 12.8849 504.338 14.9564 501.852 19.0994C499.366 23.2424 498.112 29.4451 498.088 37.7074C498.088 43.2945 498.644 47.9583 499.757 51.6989C500.893 55.4157 502.491 58.2093 504.551 60.0795C506.611 61.9261 509.025 62.8494 511.795 62.8494ZM575.643 75.598C569.535 75.5743 564.279 74.071 559.876 71.0881C555.496 68.1051 552.123 63.7846 549.755 58.1264C547.411 52.4683 546.251 45.6619 546.275 37.7074C546.275 29.7765 547.447 23.0175 549.791 17.4304C552.158 11.8433 555.532 7.59375 559.911 4.68182C564.315 1.74621 569.559 0.278406 575.643 0.278406C581.727 0.278406 586.959 1.74621 591.339 4.68182C595.742 7.61742 599.128 11.8788 601.495 17.4659C603.863 23.0294 605.035 29.7765 605.011 37.7074C605.011 45.6856 603.827 52.5038 601.46 58.1619C599.116 63.8201 595.754 68.1406 591.374 71.1236C586.995 74.1065 581.751 75.598 575.643 75.598ZM575.643 62.8494C579.81 62.8494 583.136 60.7543 585.622 56.5639C588.107 52.3736 589.338 46.0881 589.315 37.7074C589.315 32.1913 588.747 27.5985 587.61 23.929C586.498 20.2595 584.911 17.5014 582.852 15.6548C580.816 13.8082 578.413 12.8849 575.643 12.8849C571.5 12.8849 568.186 14.9564 565.7 19.0994C563.214 23.2424 561.959 29.4451 561.936 37.7074C561.936 43.2945 562.492 47.9583 563.605 51.6989C564.741 55.4157 566.339 58.2093 568.399 60.0795C570.458 61.9261 572.873 62.8494 575.643 62.8494Z" fill="#B68756" fill-opacity="0.6"/>
</svg>
