<svg width="211" height="258" viewBox="0 0 211 258" fill="none" xmlns="http://www.w3.org/2000/svg">
<path d="M29.8068 74.9943C26.0663 74.9706 22.456 74.3433 18.9759 73.1122C15.5194 71.8812 12.4181 69.8807 9.67188 67.1108C6.92566 64.3409 4.74763 60.6714 3.13778 56.1023C1.55161 51.5331 0.758523 45.9223 0.758523 39.2699C0.782197 33.1619 1.48059 27.705 2.85369 22.8991C4.25047 18.0696 6.23911 13.974 8.8196 10.6122C11.4238 7.25047 14.5369 4.69365 18.1591 2.94176C21.7813 1.16619 25.8414 0.278406 30.3395 0.278406C35.1927 0.278406 39.4777 1.22538 43.1946 3.11932C46.9115 4.98958 49.8944 7.53456 52.1435 10.7543C54.4162 13.974 55.7893 17.5843 56.2628 21.5852H41.0994C40.5076 19.0521 39.2647 17.0634 37.3707 15.6193C35.4768 14.1752 33.1331 13.4531 30.3395 13.4531C25.6046 13.4531 22.0062 15.5128 19.544 19.6321C17.1056 23.7514 15.8627 29.3504 15.8153 36.429H16.3125C17.4015 34.2746 18.8693 32.4399 20.7159 30.9247C22.5862 29.3859 24.705 28.214 27.0724 27.4091C29.4635 26.5805 31.9848 26.1662 34.6364 26.1662C38.9451 26.1662 42.7803 27.1842 46.142 29.2202C49.5038 31.2325 52.1553 34.0024 54.0966 37.5298C56.0379 41.0573 57.0085 45.0937 57.0085 49.6392C57.0085 54.5634 55.8603 58.9432 53.5639 62.7784C51.2912 66.6136 48.107 69.6203 44.0114 71.7983C39.9394 73.9527 35.2045 75.018 29.8068 74.9943ZM29.7358 62.9205C32.1032 62.9205 34.2221 62.3523 36.0923 61.2159C37.9626 60.0795 39.4304 58.5407 40.4957 56.5994C41.5611 54.6581 42.0938 52.4801 42.0938 50.0653C42.0938 47.6506 41.5611 45.4844 40.4957 43.5668C39.4541 41.6491 38.0099 40.1222 36.1634 38.9858C34.3168 37.8494 32.2098 37.2812 29.8423 37.2812C28.0668 37.2812 26.4214 37.6127 24.9062 38.2756C23.4148 38.9384 22.1009 39.8617 20.9645 41.0455C19.8518 42.2292 18.9759 43.6023 18.3366 45.1648C17.6974 46.7036 17.3778 48.349 17.3778 50.1009C17.3778 52.4446 17.9105 54.5871 18.9759 56.5284C20.0649 58.4697 21.5327 60.0204 23.3793 61.1804C25.2495 62.3404 27.3684 62.9205 29.7358 62.9205ZM89.7926 74.9943C84.4896 74.9943 79.7666 74.0829 75.6236 72.2599C71.5043 70.4134 68.2491 67.8802 65.858 64.6605C63.4905 61.4171 62.2713 57.6766 62.2003 53.4389H77.6832C77.7779 55.2145 78.358 56.777 79.4233 58.1264C80.5123 59.4522 81.9564 60.482 83.7557 61.2159C85.5549 61.9498 87.5791 62.3168 89.8281 62.3168C92.1719 62.3168 94.2434 61.9025 96.0426 61.0739C97.8419 60.2453 99.2505 59.0971 100.268 57.6293C101.286 56.1615 101.795 54.4687 101.795 52.5511C101.795 50.6098 101.251 48.8935 100.162 47.402C99.0966 45.8868 97.5578 44.7031 95.5455 43.8509C93.5568 42.9986 91.1894 42.5724 88.4432 42.5724H81.6605V31.2798H88.4432C90.7633 31.2798 92.8111 30.8774 94.5866 30.0724C96.3859 29.2675 97.7827 28.1548 98.777 26.7344C99.7713 25.2902 100.268 23.6094 100.268 21.6918C100.268 19.8688 99.8305 18.2708 98.9545 16.8977C98.1023 15.5009 96.8949 14.4119 95.3324 13.6307C93.7936 12.8494 91.9943 12.4588 89.9347 12.4588C87.8513 12.4588 85.9455 12.8376 84.2173 13.5952C82.4891 14.3291 81.1042 15.3826 80.0625 16.7557C79.0208 18.1288 78.4645 19.7386 78.3935 21.5852H63.6562C63.7273 17.3949 64.9228 13.7017 67.2429 10.5057C69.563 7.30966 72.688 4.81202 76.6179 3.01278C80.5715 1.18986 85.0341 0.278406 90.0057 0.278406C95.0246 0.278406 99.4162 1.18986 103.18 3.01278C106.945 4.8357 109.868 7.29782 111.952 10.3991C114.059 13.4768 115.1 16.9332 115.077 20.7685C115.1 24.8404 113.834 28.2377 111.277 30.9602C108.744 33.6828 105.441 35.411 101.369 36.1449V36.7131C106.72 37.3996 110.792 39.258 113.585 42.2884C116.402 45.295 117.799 49.0592 117.776 53.581C117.799 57.724 116.604 61.4053 114.189 64.625C111.798 67.8447 108.495 70.3778 104.281 72.2244C100.067 74.071 95.2377 74.9943 89.7926 74.9943ZM150.391 74.9943C145.372 74.9943 140.898 74.071 136.968 72.2244C133.061 70.3778 129.96 67.8329 127.664 64.5895C125.367 61.3461 124.172 57.6293 124.077 53.4389H138.992C139.158 56.2562 140.341 58.5407 142.543 60.2926C144.745 62.0445 147.361 62.9205 150.391 62.9205C152.806 62.9205 154.936 62.3878 156.783 61.3224C158.653 60.2334 160.109 58.7301 161.151 56.8125C162.216 54.8712 162.749 52.6458 162.749 50.1364C162.749 47.5795 162.204 45.3305 161.115 43.3892C160.05 41.4479 158.57 39.9328 156.676 38.8438C154.783 37.7547 152.616 37.1984 150.178 37.1747C148.047 37.1747 145.976 37.6127 143.963 38.4886C141.975 39.3646 140.424 40.5601 139.311 42.0753L125.64 39.625L129.084 1.27273H173.544V13.8438H141.762L139.88 32.0611H140.306C141.584 30.2618 143.514 28.7704 146.094 27.5866C148.675 26.4029 151.563 25.8111 154.759 25.8111C159.139 25.8111 163.045 26.8409 166.478 28.9006C169.91 30.9602 172.621 33.7893 174.61 37.3878C176.598 40.9626 177.581 45.0819 177.557 49.7457C177.581 54.6463 176.444 59.0024 174.148 62.8139C171.875 66.6018 168.691 69.5848 164.596 71.7628C160.524 73.9171 155.789 74.9943 150.391 74.9943Z" fill="#B68756"/>
<path d="M199.865 64.0568L199.475 67.9631C199.167 71.0881 198.575 74.2012 197.699 77.3026C196.847 80.4276 195.947 83.2566 195 85.7898C194.077 88.3229 193.331 90.3116 192.763 91.7557H182.962C183.317 90.3589 183.802 88.4058 184.418 85.8963C185.033 83.4105 185.614 80.617 186.158 77.5156C186.703 74.4143 187.046 71.2538 187.188 68.0341L187.365 64.0568H199.865ZM30.4105 166.598C24.3026 166.574 19.0469 165.071 14.6435 162.088C10.2637 159.105 6.89015 154.785 4.52273 149.126C2.17898 143.468 1.01894 136.662 1.04261 128.707C1.04261 120.777 2.21449 114.018 4.55824 108.43C6.92566 102.843 10.2992 98.5937 14.679 95.6818C19.0824 92.7462 24.3262 91.2784 30.4105 91.2784C36.4948 91.2784 41.7268 92.7462 46.1065 95.6818C50.5099 98.6174 53.8954 102.879 56.2628 108.466C58.6302 114.029 59.8021 120.777 59.7784 128.707C59.7784 136.686 58.5947 143.504 56.2273 149.162C53.8835 154.82 50.5218 159.141 46.142 162.124C41.7623 165.107 36.5185 166.598 30.4105 166.598ZM30.4105 153.849C34.5772 153.849 37.9034 151.754 40.3892 147.564C42.875 143.374 44.1061 137.088 44.0824 128.707C44.0824 123.191 43.5142 118.598 42.3778 114.929C41.2652 111.259 39.679 108.501 37.6193 106.655C35.5833 104.808 33.1804 103.885 30.4105 103.885C26.2675 103.885 22.9531 105.956 20.4673 110.099C17.9815 114.242 16.7268 120.445 16.7031 128.707C16.7031 134.295 17.2595 138.958 18.3722 142.699C19.5085 146.416 21.1065 149.209 23.1662 151.08C25.2259 152.926 27.6406 153.849 30.4105 153.849ZM94.2582 166.598C88.1502 166.574 82.8945 165.071 78.4911 162.088C74.1114 159.105 70.7378 154.785 68.3704 149.126C66.0266 143.468 64.8666 136.662 64.8903 128.707C64.8903 120.777 66.0621 114.018 68.4059 108.43C70.7733 102.843 74.1469 98.5937 78.5266 95.6818C82.93 92.7462 88.1739 91.2784 94.2582 91.2784C100.342 91.2784 105.574 92.7462 109.954 95.6818C114.358 98.6174 117.743 102.879 120.11 108.466C122.478 114.029 123.65 120.777 123.626 128.707C123.626 136.686 122.442 143.504 120.075 149.162C117.731 154.82 114.369 159.141 109.99 162.124C105.61 165.107 100.366 166.598 94.2582 166.598ZM94.2582 153.849C98.4248 153.849 101.751 151.754 104.237 147.564C106.723 143.374 107.954 137.088 107.93 128.707C107.93 123.191 107.362 118.598 106.225 114.929C105.113 111.259 103.527 108.501 101.467 106.655C99.431 104.808 97.0281 103.885 94.2582 103.885C90.1152 103.885 86.8008 105.956 84.315 110.099C81.8292 114.242 80.5745 120.445 80.5508 128.707C80.5508 134.295 81.1071 138.958 82.2198 142.699C83.3562 146.416 84.9542 149.209 87.0138 151.08C89.0735 152.926 91.4883 153.849 94.2582 153.849ZM158.106 166.598C151.998 166.574 146.742 165.071 142.339 162.088C137.959 159.105 134.585 154.785 132.218 149.126C129.874 143.468 128.714 136.662 128.738 128.707C128.738 120.777 129.91 114.018 132.254 108.43C134.621 102.843 137.995 98.5937 142.374 95.6818C146.778 92.7462 152.022 91.2784 158.106 91.2784C164.19 91.2784 169.422 92.7462 173.802 95.6818C178.205 98.6174 181.591 102.879 183.958 108.466C186.326 114.029 187.497 120.777 187.474 128.707C187.474 136.686 186.29 143.504 183.923 149.162C181.579 154.82 178.217 159.141 173.837 162.124C169.458 165.107 164.214 166.598 158.106 166.598ZM158.106 153.849C162.272 153.849 165.599 151.754 168.085 147.564C170.57 143.374 171.801 137.088 171.778 128.707C171.778 123.191 171.21 118.598 170.073 114.929C168.96 111.259 167.374 108.501 165.315 106.655C163.279 104.808 160.876 103.885 158.106 103.885C153.963 103.885 150.648 105.956 148.163 110.099C145.677 114.242 144.422 120.445 144.398 128.707C144.398 134.295 144.955 138.958 146.067 142.699C147.204 146.416 148.802 149.209 150.862 151.08C152.921 152.926 155.336 153.849 158.106 153.849Z" fill="#B68756" fill-opacity="0.8"/>
<path d="M210.022 155.057L209.631 158.963C209.323 162.088 208.731 165.201 207.855 168.303C207.003 171.428 206.104 174.257 205.157 176.79C204.233 179.323 203.488 181.312 202.919 182.756H193.118C193.473 181.359 193.959 179.406 194.574 176.896C195.19 174.411 195.77 171.617 196.314 168.516C196.859 165.414 197.202 162.254 197.344 159.034L197.522 155.057H210.022ZM30.4105 257.598C24.3026 257.574 19.0469 256.071 14.6435 253.088C10.2637 250.105 6.89015 245.785 4.52273 240.126C2.17898 234.468 1.01894 227.662 1.04261 219.707C1.04261 211.777 2.21449 205.018 4.55824 199.43C6.92566 193.843 10.2992 189.594 14.679 186.682C19.0824 183.746 24.3262 182.278 30.4105 182.278C36.4948 182.278 41.7268 183.746 46.1065 186.682C50.5099 189.617 53.8954 193.879 56.2628 199.466C58.6302 205.029 59.8021 211.777 59.7784 219.707C59.7784 227.686 58.5947 234.504 56.2273 240.162C53.8835 245.82 50.5218 250.141 46.142 253.124C41.7623 256.107 36.5185 257.598 30.4105 257.598ZM30.4105 244.849C34.5772 244.849 37.9034 242.754 40.3892 238.564C42.875 234.374 44.1061 228.088 44.0824 219.707C44.0824 214.191 43.5142 209.598 42.3778 205.929C41.2652 202.259 39.679 199.501 37.6193 197.655C35.5833 195.808 33.1804 194.885 30.4105 194.885C26.2675 194.885 22.9531 196.956 20.4673 201.099C17.9815 205.242 16.7268 211.445 16.7031 219.707C16.7031 225.295 17.2595 229.958 18.3722 233.699C19.5085 237.416 21.1065 240.209 23.1662 242.08C25.2259 243.926 27.6406 244.849 30.4105 244.849ZM94.2582 257.598C88.1502 257.574 82.8945 256.071 78.4911 253.088C74.1114 250.105 70.7378 245.785 68.3704 240.126C66.0266 234.468 64.8666 227.662 64.8903 219.707C64.8903 211.777 66.0621 205.018 68.4059 199.43C70.7733 193.843 74.1469 189.594 78.5266 186.682C82.93 183.746 88.1739 182.278 94.2582 182.278C100.342 182.278 105.574 183.746 109.954 186.682C114.358 189.617 117.743 193.879 120.11 199.466C122.478 205.029 123.65 211.777 123.626 219.707C123.626 227.686 122.442 234.504 120.075 240.162C117.731 245.82 114.369 250.141 109.99 253.124C105.61 256.107 100.366 257.598 94.2582 257.598ZM94.2582 244.849C98.4248 244.849 101.751 242.754 104.237 238.564C106.723 234.374 107.954 228.088 107.93 219.707C107.93 214.191 107.362 209.598 106.225 205.929C105.113 202.259 103.527 199.501 101.467 197.655C99.431 195.808 97.0281 194.885 94.2582 194.885C90.1152 194.885 86.8008 196.956 84.315 201.099C81.8292 205.242 80.5745 211.445 80.5508 219.707C80.5508 225.295 81.1071 229.958 82.2198 233.699C83.3562 237.416 84.9542 240.209 87.0138 242.08C89.0735 243.926 91.4883 244.849 94.2582 244.849ZM158.106 257.598C151.998 257.574 146.742 256.071 142.339 253.088C137.959 250.105 134.585 245.785 132.218 240.126C129.874 234.468 128.714 227.662 128.738 219.707C128.738 211.777 129.91 205.018 132.254 199.43C134.621 193.843 137.995 189.594 142.374 186.682C146.778 183.746 152.022 182.278 158.106 182.278C164.19 182.278 169.422 183.746 173.802 186.682C178.205 189.617 181.591 193.879 183.958 199.466C186.326 205.029 187.497 211.777 187.474 219.707C187.474 227.686 186.29 234.504 183.923 240.162C181.579 245.82 178.217 250.141 173.837 253.124C169.458 256.107 164.214 257.598 158.106 257.598ZM158.106 244.849C162.272 244.849 165.599 242.754 168.085 238.564C170.57 234.374 171.801 228.088 171.778 219.707C171.778 214.191 171.21 209.598 170.073 205.929C168.96 202.259 167.374 199.501 165.315 197.655C163.279 195.808 160.876 194.885 158.106 194.885C153.963 194.885 150.648 196.956 148.163 201.099C145.677 205.242 144.422 211.445 144.398 219.707C144.398 225.295 144.955 229.958 146.067 233.699C147.204 237.416 148.802 240.209 150.862 242.08C152.921 243.926 155.336 244.849 158.106 244.849Z" fill="#B68756" fill-opacity="0.6"/>
</svg>
