<svg xmlns="http://www.w3.org/2000/svg" width="20" height="20" fill="none"><g clip-path="url(#a)"><path fill="#fff" d="M0 0h20v20H0V0Z"/><path fill="#435125" d="M10.493 16.61a.037.037 0 0 1-.012-.008v-.004l-.054-.055a2.982 2.982 0 0 1-.157-.191l-.207-.258-.027-.035-.258-.079-.187-.09.097-.113.352.149.258.054.476.352c-.091.08-.18.163-.265.25a.08.08 0 0 0-.008.016l.031-.02.031.027-.066.004h-.004Zm-1.777-.536c-.227 0-.45-.062-.664-.187-.215-.125.03-.051.097-.102a.605.605 0 0 1 .371-.105c.227 0 .5.078.817.226a1.217 1.217 0 0 1-.621.168Zm-.977-.215a.164.164 0 0 1-.11-.046.215.215 0 0 1-.046-.098.489.489 0 0 1-.012-.137.144.144 0 0 1 .055-.015c.086 0 .152.078.18.148.015.039.02.074.011.101-.008.028-.043.043-.078.043v.004Zm1.719-.203c-.578-.078-.82-.289-.926-.453a.523.523 0 0 1-.09-.332s.04-.008.09-.008c.156 0 .547.078.926.793Zm-1.184-.113c-.246 0-.437-.04-.558-.125a.344.344 0 0 1-.125-.14.227.227 0 0 1-.02-.067.76.76 0 0 1 .297-.055c.195 0 .484.063.79.36a3.577 3.577 0 0 1-.384.027Zm-1.195-.047c-.262 0-.621-.078-.844-.3.186-.045.376-.068.567-.071.246 0 .43.047.554.14.047.032.07.063.075.094.003.024-.008.051-.036.07-.054.04-.156.067-.296.067h-.02Zm-.848-.43a.104.104 0 0 1-.078-.039.195.195 0 0 1-.039-.086c-.015-.062-.012-.12-.012-.12a.078.078 0 0 1 .04-.012c.039 0 .07.02.09.039a.234.234 0 0 1 .054.086c.012.039.016.066.008.09a.067.067 0 0 1-.063.039v.003Zm1.953-.046a.144.144 0 0 1-.105-.043.216.216 0 0 1-.047-.098.489.489 0 0 1-.012-.14.144.144 0 0 1 .051-.012c.086 0 .156.074.18.144.015.04.02.078.012.102-.012.027-.043.046-.079.046Zm-.953-.04c-.523-.02-.797-.168-.93-.289a.614.614 0 0 1-.144-.183.391.391 0 0 1-.027-.078s.047-.02.129-.02h.011c.176 0 .54.074.961.57Zm.57-.054c-.299-.032-.577-.17-.785-.387a.805.805 0 0 1-.175-.289s.054-.012.133-.016h.035c.21.004.597.102.793.692Zm-2.163-.203c-.141 0-.274-.012-.399-.047-.223-.055-.316-.137-.36-.2a.212.212 0 0 1-.03-.085.14.14 0 0 1 0-.036s.144-.039.347-.043c.104-.001.207.008.309.028a.906.906 0 0 1 .535.336s-.168.047-.402.047Zm.976-.352a.155.155 0 0 1-.105-.047.215.215 0 0 1-.047-.097.481.481 0 0 1-.012-.137.146.146 0 0 1 .05-.012h.005c.086 0 .152.07.18.145.015.039.019.07.007.101-.011.028-.039.043-.078.043v.004Zm-.734-.105c-.004 0-.2-.047-.399-.172-.187-.117-.41-.313-.441-.625-.031-.313.02-.008.047-.008h.008c.054 0 .168.016.304.117.176.133.336.367.48.692v-.004Zm.48-.016s-.14-.055-.312-.203a2.008 2.008 0 0 1-.563-.777s.04-.02.098-.024h.027c.078 0 .2.035.336.184.196.24.337.52.414.82Zm-1.25-.04c-.156 0-.21-.085-.23-.12a.262.262 0 0 1-.016-.125.356.356 0 0 1 .078-.012h.008c.125 0 .227.067.27.129.007.012.035.059.011.09-.015.027-.054.039-.117.039H5.11Zm-.351-.444c-.09 0-.227-.008-.371-.032-.145-.027-.227-.148-.27-.246a.797.797 0 0 1-.059-.207c.442.012.653.14.75.246a.39.39 0 0 1 .106.235h-.156v.004Zm.46-.461a1.78 1.78 0 0 1-.101-.14c-.055-.083-.102-.169-.102-.235a3.32 3.32 0 0 0-.023-.29l-.027-.195c.011.008.277.106.277.356s-.023.5-.023.504Zm-.343-.024h-.012a1.545 1.545 0 0 1-.367-.164 1.583 1.583 0 0 1-.39-.293c-.071-.082-.118-.215-.126-.39a1.447 1.447 0 0 1 0-.235.138.138 0 0 1 .047-.011c.059 0 .117.027.203.085.078.055.152.117.22.184a3.3 3.3 0 0 1 .237.266c.083.154.155.315.215.48v.059a.03.03 0 0 1-.015.015.037.037 0 0 1-.016 0l.004.004Z"/><path fill="#435125" d="M9.585 16.61a.036.036 0 0 0 .012-.008v-.004l.054-.055c.055-.062.107-.125.157-.191l.207-.258.027-.035.258-.079.187-.09-.097-.113-.352.149-.258.054-.476.352c.092.08.18.163.265.25.004.005.006.01.008.016l-.031-.02-.031.027.066.004h.004Zm1.777-.536c.227 0 .45-.062.665-.187.214-.125-.032-.051-.098-.102a.605.605 0 0 0-.371-.105c-.227 0-.5.078-.817.226.012.008.262.168.621.168Zm.977-.215c.043 0 .078-.02.11-.046a.214.214 0 0 0 .046-.098.487.487 0 0 0 .012-.137.144.144 0 0 0-.055-.015c-.086 0-.152.078-.18.148a.162.162 0 0 0-.011.101c.008.028.043.043.078.043v.004Zm-1.719-.203c.578-.078.82-.289.926-.453a.524.524 0 0 0 .09-.332s-.04-.008-.09-.008c-.156 0-.547.078-.926.793Zm1.184-.113c.246 0 .437-.04.558-.125a.343.343 0 0 0 .125-.14.227.227 0 0 0 .02-.067.76.76 0 0 0-.297-.055c-.195 0-.484.063-.789.36.127.016.255.025.383.027Zm1.195-.047c.262 0 .621-.078.844-.3a2.617 2.617 0 0 0-.566-.071c-.247 0-.43.047-.555.14-.047.032-.07.063-.074.094-.004.024.007.051.035.07.054.04.156.067.297.067H13Zm.848-.43a.104.104 0 0 0 .078-.039.195.195 0 0 0 .039-.086c.016-.062.012-.12.012-.12a.078.078 0 0 0-.04-.012c-.038 0-.07.02-.09.039a.234.234 0 0 0-.054.086c-.012.039-.015.066-.008.09.008.019.032.039.063.039v.003Zm-1.953-.046a.144.144 0 0 0 .105-.043.214.214 0 0 0 .047-.098.485.485 0 0 0 .012-.14.143.143 0 0 0-.051-.012c-.086 0-.156.074-.18.144a.162.162 0 0 0-.011.102c.011.027.042.046.078.046Zm.953-.04c.523-.02.797-.168.93-.289a.612.612 0 0 0 .144-.183.394.394 0 0 0 .027-.078s-.046-.02-.129-.02h-.011c-.176 0-.54.074-.961.57Zm-.57-.054c.299-.032.577-.17.785-.387a.803.803 0 0 0 .175-.289s-.054-.012-.132-.016h-.036c-.21.004-.597.102-.793.692Zm2.164-.203c.14 0 .273-.012.398-.047.223-.055.316-.137.36-.2a.212.212 0 0 0 .03-.085.137.137 0 0 0 0-.036s-.144-.039-.347-.043a1.466 1.466 0 0 0-.309.028.906.906 0 0 0-.535.336s.168.047.403.047Zm-.977-.352c.04 0 .078-.02.105-.047a.214.214 0 0 0 .047-.097.48.48 0 0 0 .012-.137.146.146 0 0 0-.05-.012h-.005c-.086 0-.152.07-.18.145-.015.039-.019.07-.007.101.012.028.039.043.078.043v.004Zm.734-.105c.004 0 .2-.047.399-.172.187-.117.41-.313.441-.625.031-.313-.02-.008-.047-.008h-.008a.522.522 0 0 0-.304.117c-.176.133-.336.367-.48.692v-.004Zm-.48-.016s.14-.055.312-.203c.248-.21.441-.477.563-.777 0 0-.04-.02-.098-.024h-.027c-.078 0-.2.035-.336.184-.196.24-.337.52-.414.82Zm1.25-.04c.156 0 .21-.085.23-.12a.262.262 0 0 0 .016-.125.355.355 0 0 0-.078-.012h-.008a.338.338 0 0 0-.27.129c-.007.012-.035.059-.011.09.015.027.055.039.117.039h.004Zm.351-.444c.09 0 .227-.008.372-.032.144-.027.226-.148.27-.246a.798.798 0 0 0 .058-.207c-.442.012-.653.14-.75.246a.39.39 0 0 0-.106.235h.156v.004Zm-.46-.461c.036-.046.07-.092.101-.14.055-.083.102-.169.102-.235.003-.097.011-.193.023-.29l.027-.195c-.011.008-.277.106-.277.356s.023.5.023.504Zm.343-.024h.012c.078-.015.215-.078.367-.164.145-.077.277-.176.39-.293.071-.082.118-.215.126-.39a1.456 1.456 0 0 0 0-.235.138.138 0 0 0-.047-.011c-.059 0-.117.027-.203.085a1.647 1.647 0 0 0-.219.184 3.297 3.297 0 0 0-.238.266 3.655 3.655 0 0 0-.215.48v.059a.031.031 0 0 0 .016.015h.015l-.004.004Z"/><path fill="#D47600" d="m19.29 3.184-.08.03-.03.013-.094-.008-.09.043-.156.11-.008.003-.059.016-.054-.024-.032.016-.011.062-.028.047-.039.028-.125.011-.105.055-.14-.04-.063.028-.137.121-.07.035h-.024l-.093-.007-.04.015-.058.051-.11.008-.035.023-.054.11-.059.062-.031.004-.04-.012-.027.004-.011.07-.024.032-.078.023-.055.051-.054.024h-.086l-.067.039-.132.011-.051.051-.016.012-.023.015-.04.024-.011.008-.05-.012-.06.023-.023-.039-.039.028h-.055l-.066-.028-.05-.023-.04.008-.012.062v.008l-.039.05-.074.044-.008.015-.082.106-.156.168-.137.066-.136.04-.098.077-.254.13-.398.199-.082.027-.118.016-.207.078-.187.054-.012.004-.035.012-.258.078-.12-.012-.075.028-.188-.024-.129.004-.078.016-.156.078-.262.121-.086.078-.136.074-.156.047v-.066l-.055.015-.04.012-.128.02h-.07l-.043-.012h-.008l-.262.09-.289.027-.145.047h-.109l-.07.016-.133.02-.047-.016h-.012l-.39.015-.18-.02-.086.02-.14-.05-.211-.024-.047-.016-.11-.03-.05.026-.04.004-.085-.03h-.036l-.07.026-.043-.011-.039-.032-.094-.011-.054-.051-.313.043-.086-.024-.285-.085-.047.003-.055.04-.086.035-.074.02h-.101l-.117-.028-.118-.059-.047-.011-.097.011h-.031l-.18-.097-.235-.145-.16-.078-.062-.008-.008.027.031.094.012.094-.004.082v.055l.012.047.058.062.024.066.02.176v.18l-.032.285-.008.04-.035.152-.027.132-.117.364-.036.043-.078.054-.183.125-.133.078-.04.016-.109.008-.066-.004-.086-.047-.078-.02-.11-.078-.12-.023-.133-.078-.032-.04-.074-.007-.097-.031-.04-.008-.023-.008-.125-.004-.117-.054-.063-.016-.086-.004-.09.039-.042.023-.059-.023h-.039l-.05.074-.005.012-.03.016h-.075l-.031.011-.047.02-.04.02-.019.007h-.016l-.019.008h-.027l-.047-.023-.024-.016-.043-.008-.023.016v.078l-.024.043-.07.066-.066.059-.047.07-.121.277-.078.118-.024.023-.078.09-.074.055-.164.125-.156.058-.133.028H3.78l-.125-.016-.11-.035-.12-.078-.137-.106-.191-.191-.028-.016h-.004l-.058-.039H2.96l-.016.027-.011.04-.008.039-.02.214v.012l.012.086.148.207.043.11.008.011.031.051.024.04.05.148-.034.085.019.055-.047.035-.008.047.133.168.027.07-.03.102-.052.055-.015.015.008.043.062.055.102.094.054.136.04.036.05-.012.028.023h.039l.039.04.027.011.043.02.031.043.008.129.063.164v.101l.039.063.011.05-.02.137.048.043.05-.012.036.008.054.043.067.102.062-.008.04.02.195.175.046.024.04.015.039.04.058-.04h.008l.066-.008.032.02.054.04h.079l.156.05.074.015.14.09.063.04.035.027.047.039.094.039.078.02.047.011.035.012.176.07.094.02.09.035.062.023h.047l.066-.058h.067l.054.011.051-.007.082-.051.02-.028.058-.027.196-.023.058.02.149-.067.101.027.086-.031.195.043.051.039.055.062h.07l-.023.047.082.09.078.117v.012l.058.16.04.059.03.078v.055l-.042.035-.008.02v.007l.008.02.015-.008.032-.02.039-.004.07.008h.043l.074-.031.047-.024.078.032h.082l.035.015.102.043.05.008.02-.015.012-.028-.008-.031-.039-.047-.082-.098-.039-.05-.023-.07-.008-.094-.008-.063.012-.082.023-.031.016-.067.004-.015.047-.063.125-.078.132-.117.106-.074.11-.047v-.012l.015.004.273-.094h.008l.121-.023.832.058.031-.007.028-.079.015-.015.008-.008.094-.039.04-.008.116.031.051.012.078-.043h.055l.117-.062h.07l.024-.008.136-.102.133-.039.04-.015.007-.008.137-.07.086-.067.074-.039.078-.02.215-.015.043-.07.09-.016.058-.063.063-.023.043-.066.039-.055.055-.031.168-.008.203.023.027-.015.043-.164.047-.032.129-.183v-.125l.023-.082-.015-.149.02-.148.077-.188.07-.078.114-.074.059-.023.078-.016h.015l.02-.004.281-.004h.102l.093-.004.235.04.02.007.077.024.094.074.098.094.02.019.062.023.02.012.054-.012.074-.039.055-.046.078-.04v-.003l.043-.067.02-.027.148-.059.176-.008.02-.011.011-.004.043-.055h.043l.105.04.075-.016.058.023.043-.008.086-.008.094.063.055.008.187.109h.016l.008.004.023-.004.035-.012.008.004.02.031.03.004.036-.046-.016-.02-.004-.008-.066-.015-.063-.102.059-.063-.09-.109-.015-.02-.004-.007-.032-.047-.156-.242-.21-.164-.071-.059-.027-.02-.11-.113-.078-.101-.012-.024-.015-.039-.047-.098-.078-.066-.07-.07v-.004l-.141-.188-.024-.03-.03-.02h-.071l-.008-.008v-.004l.031-.04.04-.007.015-.035-.07-.203v-.008l-.008-.063.058-.296.008-.04.098-.195.062-.05.063-.13.058-.082.055-.054.008-.004.098-.059.082-.011.078-.012.136.039h.157l.058-.008.098-.031.047-.028.023-.039.047-.164.02-.054.027-.055.18-.207.133-.121.3-.223.149-.086.074-.047.672-.296.172-.176.09-.094.164-.106.187-.078.16-.129.035-.043.047-.144.035-.008.036-.074.007-.02.133-.093.016-.008.512-.254.078.008.039-.059.148-.023.024-.008.039-.016.031-.054v-.012l.004-.14.031-.04.02-.094.015-.023.016-.02.043-.03-.008-.02v.004Z"/></g><defs><clipPath id="a"><rect width="20" height="20" fill="#fff" rx="10"/></clipPath></defs></svg>