<svg xmlns="http://www.w3.org/2000/svg" width="20" height="20" fill="none"><g clip-path="url(#a)"><path fill="#012169" d="M-1-1h22v22H-1V-1Z"/><path fill="#fff" d="M21-1v2l-8.938 9L18 15.844V18h-2.094l-5.969-5.875L4.125 18H2v-2.125l5.813-5.844L-1 1.312V-1H.938l9 8.875L18.75-1H21Z"/><path fill="#C8102E" d="m7.75 12.125.344 1.063L3.313 18H2v-.094l5.75-5.781Zm3.875-.375 1.688.25L18 16.594V18l-6.375-6.25ZM18 2l-6 6.125-.125-1.375L16.563 2H18ZM2 2.031l6.031 5.906-1.844-.25L2 3.532v-1.5Z"/><path fill="#fff" d="M7.5-1v22h5V-1h-5ZM-1 7.5v5h22v-5H-1Z"/><path fill="#C8102E" d="M-8 8.5v3h36v-3H-8ZM8.5-1v22h3V-1h-3Z"/></g><defs><clipPath id="a"><rect width="20" height="20" fill="#fff" rx="10"/></clipPath></defs></svg>