<svg xmlns="http://www.w3.org/2000/svg" width="20" height="20" fill="none"><path fill="#0090E8" d="M10 20c5.523 0 10-4.477 10-10S15.523 0 10 0 0 4.477 0 10s4.477 10 10 10Z"/><path fill="#00F77C" d="M2.86 8.657v.507c0 .636.792 1.843 1.428 1.843h2.043c.664 0 1.2.536 1.2 1.2v1.229c0 .257.214.471.471.471h.25c.15 0 .357.1.357.5v1.607c0 .422.343.772.772.772h.35a.74.74 0 0 0 .543-.229l1.214-1.214.043-1.729a.435.435 0 0 1 .435-.421h.243l1.365-2.036c.071-.143.107-.3.107-.457v-.257a.237.237 0 0 0-.207-.229c-.707-.114-1.95-.693-1.95-1.414v-.357c0-1 .817-1 1.024-1h.004c.2 0 .357.164.357.357v.607c0 .257.215.472.472.472h.25l.821-.415a.568.568 0 0 0 .114-.943l-.164-.135c-.221-.193-.078-.665.3-.665h1.107c.857 0 1.429 1.393 1.429 2.25v.386c0 .122.1.222.221.222h.243c.157 0 .3-.079.386-.208l1.495-2.245a10.017 10.017 0 0 0-7.39-6.885l-.72.738h-.72L10.272.5a.811.811 0 0 0-.57-.236h-.915a.754.754 0 0 0-.357.086L7.359.886a.357.357 0 0 0-.2.307c-.017.343-.01.466-.003.616.005.097.01.206.01.391 0 .221.222.25.393.243a.356.356 0 0 0 .322-.35v-.1c0-.193.078-.372.207-.507l.2-.2c.431-.087.41.358.389.832a6.9 6.9 0 0 0-.01.318c0 .414-.279.7-.7.7H6.838c-.205-.005-.421-.097-.634-.188-.134-.057-.267-.114-.395-.148-.3-.071-.707.014-.707.579V3.6c0 .136-.107.25-.25.25a.471.471 0 0 0-.471.471v.858c0 .25.207.457.464.457h.414c.258 0 .436-.35.436-.607l.029-.215c0-.135.107-.25.25-.25h.693c.064 0 .392.007.65.222l.314.243c.164.164.378.25.607.25h.1a.467.467 0 0 0 .4-.215l.443-.657a.452.452 0 0 1 .378-.2h.265c.114 0 .207.093.207.207v.515c0 .192.157.35.35.35h.264a.82.82 0 0 1 .822.814.305.305 0 0 1-.465.257c-.378-.229-1.021-.407-1.343-.329-.314.072-1 .693-1 .693s-.807.186-.785-.228v-.2c.007-.193-.179-.279-.343-.279h-.743a.838.838 0 0 0-.593.243l-.228.229a.821.821 0 0 1-.586.242h-.757a.889.889 0 0 0-.665.272l-.764.807a1.254 1.254 0 0 0-.336.857Zm11.092 4.914a.381.381 0 0 0-.378.379v.757c0 .207.171.379.378.379a.381.381 0 0 0 .379-.379v-.757a.376.376 0 0 0-.379-.379Z"/></svg>