<svg xmlns="http://www.w3.org/2000/svg" width="16" height="19" fill="none"><path fill="#B68756" d="M0 18.5v-12l8-6 8 6v12H0Zm2-11v8c.85-.633 1.78-1.125 2.788-1.475A9.723 9.723 0 0 1 8 13.5c1.133 0 2.204.175 3.213.525A10.28 10.28 0 0 1 14 15.5v-8L8 3 2 7.5Zm6 5a2.893 2.893 0 0 1-2.125-.875A2.893 2.893 0 0 1 5 9.5c0-.833.292-1.542.875-2.125A2.893 2.893 0 0 1 8 6.5c.833 0 1.542.292 2.125.875S11 8.667 11 9.5s-.292 1.542-.875 2.125A2.893 2.893 0 0 1 8 12.5Zm0-2a.968.968 0 0 0 .713-.288A.967.967 0 0 0 9 9.5a.97.97 0 0 0-.287-.713A.97.97 0 0 0 8 8.5a.967.967 0 0 0-.712.287A.968.968 0 0 0 7 9.5c0 .283.096.52.288.712A.965.965 0 0 0 8 10.5Zm-3.85 6h7.7a7.483 7.483 0 0 0-1.837-.75A7.978 7.978 0 0 0 8 15.5c-.7 0-1.37.083-2.012.25a7.479 7.479 0 0 0-1.838.75Z"/></svg>