<svg width="38" height="38" viewBox="0 0 38 38" fill="none" xmlns="http://www.w3.org/2000/svg">
<g clip-path="url(#clip0_11287_28522)">
<path fill-rule="evenodd" clip-rule="evenodd" d="M19 3.42012C24.0718 3.42012 24.6768 3.44331 26.6776 3.53637C27.8821 3.55237 29.0752 3.77252 30.2061 4.18768C31.0309 4.4935 31.7778 4.97822 32.3931 5.60692C33.0193 6.22426 33.5035 6.97038 33.8122 7.79373C34.2274 8.9246 34.4476 10.118 34.4636 11.3225C34.5567 13.3233 34.58 13.9282 34.58 19C34.58 24.0718 34.5567 24.6767 34.4636 26.6775C34.4476 27.882 34.2274 29.0754 33.8122 30.2063C33.4979 31.0268 33.0144 31.7718 32.3931 32.3931C31.7718 33.0144 31.0266 33.498 30.2061 33.8123C29.0752 34.2275 27.8821 34.4476 26.6776 34.4636C24.6768 34.5567 24.0718 34.5799 19 34.5799C13.9282 34.5799 13.3232 34.5567 11.3224 34.4636C10.1179 34.4476 8.92479 34.2275 7.79392 33.8123C6.97342 33.498 6.22822 33.0144 5.60692 32.3931C4.98562 31.7718 4.50211 31.0268 4.18777 30.2063C3.77261 29.0754 3.55237 27.882 3.53637 26.6775C3.44331 24.6767 3.42003 24.0718 3.42003 19C3.42003 13.9282 3.44331 13.3233 3.53637 11.3225C3.55237 10.118 3.77261 8.9246 4.18777 7.79373C4.4965 6.97038 4.98074 6.22426 5.60692 5.60692C6.2222 4.97822 6.96911 4.4935 7.79392 4.18768C8.92479 3.77252 10.1179 3.55237 11.3224 3.53637C13.3232 3.44331 13.9282 3.42012 19 3.42012ZM19 0C13.8429 0 13.1914 0.0231896 11.1674 0.116251C9.59023 0.146766 8.02975 0.445843 6.55302 1.00044C5.29044 1.48585 4.14383 2.23075 3.18734 3.18724C2.23084 4.14373 1.48585 5.29063 1.00044 6.55321C0.445843 8.02994 0.146861 9.59013 0.116345 11.1673C0.0232842 13.1914 0 13.8429 0 19C0 24.1571 0.0232842 24.8086 0.116345 26.8327C0.146861 28.4099 0.445843 29.9701 1.00044 31.4468C1.48585 32.7094 2.23084 33.8563 3.18734 34.8128C4.14383 35.7692 5.29044 36.5142 6.55302 36.9996C8.02975 37.5542 9.59023 37.8532 11.1674 37.8837C13.1914 37.9768 13.8429 38 19 38C24.1571 38 24.8086 37.9768 26.8326 37.8837C28.4098 37.8532 29.9702 37.5542 31.447 36.9996C32.7096 36.5142 33.8562 35.7692 34.8127 34.8128C35.7692 33.8563 36.5142 32.7094 36.9996 31.4468C37.5542 29.9701 37.8531 28.4099 37.8837 26.8327C37.9767 24.8086 38 24.1571 38 19C38 13.8429 37.9767 13.1914 37.8837 11.1673C37.8531 9.59013 37.5542 8.02994 36.9996 6.55321C36.5142 5.29063 35.7692 4.14373 34.8127 3.18724C33.8562 2.23075 32.7096 1.48585 31.447 1.00044C29.9702 0.445843 28.4098 0.146766 26.8326 0.116251C24.8086 0.0231896 24.1571 0 19 0ZM19 9.24402C17.0705 9.24402 15.1843 9.8162 13.5799 10.8882C11.9756 11.9602 10.7251 13.4841 9.98668 15.2667C9.24828 17.0494 9.05512 19.0107 9.43156 20.9032C9.80799 22.7956 10.7371 24.5342 12.1015 25.8986C13.4659 27.2629 15.2043 28.1921 17.0967 28.5685C18.9892 28.945 20.9508 28.7518 22.7335 28.0134C24.5161 27.275 26.0397 26.0246 27.1117 24.4202C28.1837 22.8159 28.7559 20.9295 28.7559 19C28.7562 17.7187 28.5041 16.4501 28.0139 15.2663C27.5237 14.0826 26.8051 13.0067 25.8991 12.1007C24.9931 11.1947 23.9175 10.4764 22.7338 9.98621C21.55 9.49604 20.2813 9.24372 19 9.24402ZM19 25.3359C17.7469 25.3359 16.5218 24.9642 15.4799 24.268C14.438 23.5718 13.6259 22.5823 13.1464 21.4246C12.6668 20.2669 12.5413 18.9931 12.7858 17.764C13.0303 16.535 13.6337 15.4061 14.5198 14.52C15.4059 13.6339 16.5349 13.0302 17.7639 12.7857C18.993 12.5412 20.2669 12.6666 21.4246 13.1462C22.5823 13.6257 23.5719 14.438 24.2681 15.4799C24.9643 16.5218 25.336 17.7469 25.336 19C25.3353 20.6802 24.6676 22.2915 23.4795 23.4796C22.2915 24.6677 20.6802 25.3352 19 25.3359ZM31.4237 8.85627C31.4237 9.30721 31.29 9.74796 31.0394 10.1229C30.7889 10.4979 30.4328 10.7902 30.0162 10.9628C29.5996 11.1354 29.1412 11.1806 28.6989 11.0927C28.2566 11.0047 27.8503 10.7875 27.5315 10.4686C27.2126 10.1498 26.9955 9.74348 26.9075 9.3012C26.8195 8.85892 26.8646 8.40043 27.0372 7.98382C27.2098 7.5672 27.5021 7.21119 27.877 6.96066C28.2519 6.71013 28.6927 6.57631 29.1436 6.57631C29.4431 6.57611 29.7398 6.63485 30.0165 6.74936C30.2932 6.86387 30.5445 7.03176 30.7563 7.24352C30.968 7.45528 31.136 7.70672 31.2505 7.98344C31.3651 8.26015 31.4239 8.55679 31.4237 8.85627Z" fill="url(#paint0_linear_11287_28522)"/>
</g>
<defs>
<linearGradient id="paint0_linear_11287_28522" x1="0" y1="38" x2="38" y2="0" gradientUnits="userSpaceOnUse">
<stop stop-color="#FFD036"/>
<stop offset="0.1" stop-color="#FFD036"/>
<stop offset="0.5" stop-color="#F20000"/>
<stop offset="0.9" stop-color="#B613B1"/>
<stop offset="1" stop-color="#B613B1"/>
</linearGradient>
<clipPath id="clip0_11287_28522">
<rect width="38" height="38" fill="white"/>
</clipPath>
</defs>
</svg>
