<svg width="230" height="49" viewBox="0 0 230 49" fill="none" xmlns="http://www.w3.org/2000/svg">
<path d="M183.941 19.9338V19.8569C183.941 18.2414 184.955 17.0875 186.435 17.0875C187.916 17.0875 188.929 18.2414 188.929 19.78V19.8569C188.929 21.4724 187.916 22.6263 186.435 22.6263C184.955 22.7032 183.941 21.5493 183.941 19.9338ZM187.76 19.9338C187.76 18.8568 187.215 18.1645 186.435 18.1645C185.656 18.1645 185.11 18.8568 185.11 19.8569V19.9338C185.11 21.0108 185.656 21.6262 186.435 21.6262C187.215 21.7031 187.76 21.0108 187.76 19.9338Z" fill="black"/>
<path d="M191.734 17.2413H195.241V18.2414H192.825V19.4722H194.93V20.4723H192.825V22.6262H191.734V17.2413Z" fill="black"/>
<path d="M198.048 17.2413H201.555V18.2414H199.139V19.4722H201.243V20.4723H199.139V22.6262H198.048V17.2413Z" fill="black"/>
<path d="M204.36 17.2413H205.451V22.6262H204.36V17.2413Z" fill="black"/>
<path d="M208.335 19.9342C208.335 18.2418 209.348 17.1648 210.829 17.1648C211.608 17.1648 212.154 17.4725 212.543 17.8571L211.842 18.7033C211.53 18.3956 211.141 18.1648 210.751 18.1648C210.049 18.1648 209.504 18.8572 209.504 19.8572C209.504 20.9342 210.049 21.5496 210.751 21.5496C211.218 21.5496 211.53 21.3189 211.842 21.0111L212.543 21.7804C212.076 22.242 211.53 22.5497 210.673 22.5497C209.27 22.7035 208.335 21.6266 208.335 19.9342Z" fill="black"/>
<path d="M215.349 17.2413H216.44V22.6262H215.349V17.2413Z" fill="black"/>
<path d="M221.115 17.1648H222.206L224.155 22.5497H222.986L222.596 21.3958H220.726L220.336 22.5497H219.167L221.115 17.1648ZM222.206 20.4727L221.583 18.7033L220.959 20.4727H222.206Z" fill="black"/>
<path d="M226.726 17.2413H227.817V21.6262H230V22.6262H226.648V17.2413H226.726Z" fill="black"/>
<path d="M184.175 26.7036H185.967C187.214 26.7036 187.993 27.396 187.993 28.5499C187.993 29.7807 187.058 30.3961 185.967 30.3961H185.344V32.0116H184.253V26.7036H184.175ZM185.967 29.473C186.591 29.473 186.902 29.0884 186.902 28.6268C186.902 28.0883 186.591 27.7806 185.967 27.7806H185.344V29.5499H185.967V29.473Z" fill="black"/>
<path d="M191.735 26.6263H192.826L194.775 32.0112H193.606L193.216 30.8573H191.346L190.956 32.0112H189.787L191.735 26.6263ZM192.826 29.9342L192.203 28.1649L191.58 29.9342H192.826Z" fill="black"/>
<path d="M197.424 26.7036H199.45C200.074 26.7036 200.619 26.8575 200.931 27.2421C201.243 27.5498 201.398 27.9344 201.398 28.4729C201.398 29.3191 201.009 29.7807 200.385 30.0884L201.554 32.0885H200.229L199.216 30.3192H198.515V32.0885H197.424V26.7036ZM199.372 29.3191C199.918 29.3191 200.229 29.0114 200.229 28.5499C200.229 28.0114 199.918 27.7806 199.294 27.7806H198.515V29.3961H199.372V29.3191Z" fill="black"/>
<path d="M205.295 27.7037H203.893V26.7036H207.789V27.7037H206.386V32.0885H205.295V27.7037Z" fill="black"/>
<path d="M210.438 26.7036H211.452L213.556 29.8576V26.7036H214.647V32.0885H213.712L211.53 28.8576V32.0885H210.438V26.7036Z" fill="black"/>
<path d="M217.764 26.7036H221.271V27.7037H218.855V28.8576H220.959V29.8576H218.855V31.0885H221.271V32.0885H217.764V26.7036Z" fill="black"/>
<path d="M224.154 26.7036H226.181C226.804 26.7036 227.35 26.8575 227.661 27.2421C227.973 27.5498 228.129 27.9344 228.129 28.4729C228.129 29.3191 227.739 29.7807 227.116 30.0884L228.285 32.0885H226.96L225.947 30.3192H225.245V32.0885H224.154V26.7036ZM226.103 29.3191C226.648 29.3191 226.96 29.0114 226.96 28.5499C226.96 28.0114 226.648 27.7806 226.025 27.7806H225.245V29.3961H226.103V29.3191Z" fill="black"/>
<path d="M111.288 26.4364H116.354V18.8207H120.484C121.887 18.8207 122.588 19.2822 122.588 20.59V26.4364H127.654V20.2054C127.654 17.2821 126.017 15.9744 121.341 15.9744H111.21V26.4364H111.288Z" fill="black"/>
<path d="M104.508 15.9744H98.7406C94.6881 15.9744 92.9736 17.2821 92.9736 20.3592V22.4362C92.9736 25.0518 94.6102 26.5134 98.351 26.5134H109.106V23.744H99.3641C98.4289 23.744 98.1172 23.4363 98.1172 22.7439V22.2824H105.833C108.482 22.2824 109.963 21.4362 109.963 19.513V19.0514C109.963 17.2052 109.028 15.9744 104.508 15.9744ZM104.196 20.3592H98.0393V19.7438C98.0393 19.1284 98.273 18.7437 99.1303 18.7437H104.196C104.897 18.7437 105.209 18.9745 105.209 19.5899C105.209 20.1284 104.897 20.3592 104.196 20.3592Z" fill="black"/>
<path d="M82.4521 26.4364H87.5178V19.5899C87.5178 19.1284 87.6736 18.8207 88.2971 18.8207H92.2717V15.9744H86.5826C83.5432 15.9744 82.4521 17.1283 82.4521 18.9745V26.4364Z" fill="black"/>
<path d="M75.5944 15.9744H65.0735V18.7437H74.5812C75.5164 18.7437 75.8282 19.0514 75.8282 19.7438V20.1284H68.1129C64.9176 20.1284 63.9824 21.4362 63.9824 23.1286V23.5132C63.9824 25.821 65.8528 26.4364 69.5156 26.4364H75.2047C79.1793 26.4364 80.8938 25.5902 80.8938 22.4362V19.9746C80.8938 17.3591 79.2572 15.9744 75.5944 15.9744ZM75.9061 22.7439C75.9061 23.3594 75.6723 23.744 74.893 23.744H69.8274C69.2039 23.744 68.8142 23.5132 68.8142 22.9747C68.8142 22.3593 69.048 22.1285 69.8274 22.1285H75.9061V22.7439Z" fill="black"/>
<path d="M51.9814 26.4366H63.0479V23.5903H57.0471V14.2821H51.9814V26.4366Z" fill="black"/>
<path d="M40.8373 26.4367H50.501V23.5904H41.5387C40.4477 23.5904 39.7463 23.1288 39.7463 21.5903V20.6672C39.7463 19.2825 40.4477 18.744 41.4608 18.744H50.423V15.8977H40.6815C36.3172 15.8977 34.6807 17.667 34.6807 20.5903V21.7442C34.6807 25.129 36.3952 26.4367 40.8373 26.4367Z" fill="black"/>
<path d="M30.3937 14.2821C28.913 14.2821 27.8219 14.8975 26.7309 15.7437L20.2625 21.1286V14.359H17.4569C15.7424 14.359 14.7293 14.9744 13.5603 15.8976L0 26.4366H6.07874L15.041 19.2054V26.4366H19.2493L28.0557 19.2054V26.4366H33.1993V14.2821H30.3937Z" fill="black"/>
<path d="M140.668 5.74316C137.863 5.74316 133.888 6.58936 129.602 8.1279C126.017 9.43566 122.432 11.0511 118.613 13.4359C120.873 12.5127 125.315 11.5127 128.978 11.5127C133.888 11.5127 137.473 13.3589 132.251 19.8977C147.526 10.0511 147.059 5.74316 140.668 5.74316Z" fill="#FF9800"/>
<path d="M34.3682 36.2072H37.3296V37.0534H35.3034V38.0535H37.0958V38.9766H35.3034V40.7459H34.3682V36.2072Z" fill="black"/>
<path d="M41.0703 38.514V38.4371C41.0703 37.0524 41.9276 36.1293 43.1745 36.1293C44.4214 36.1293 45.2007 37.0524 45.2007 38.4371V38.514C45.2007 39.8987 44.3435 40.8218 43.0966 40.8218C41.9276 40.8218 41.0703 39.8987 41.0703 38.514ZM44.2655 38.514C44.2655 37.5909 43.798 37.0524 43.1745 37.0524C42.551 37.0524 42.0834 37.5909 42.0834 38.514V38.5909C42.0834 39.5141 42.551 40.0526 43.1745 40.0526C43.798 40.0526 44.2655 39.4371 44.2655 38.514Z" fill="black"/>
<path d="M49.2537 36.2064H50.9682C51.5138 36.2064 51.9034 36.3603 52.2152 36.668C52.4489 36.8988 52.6048 37.2834 52.6048 37.745C52.6048 38.4373 52.2931 38.8219 51.7476 39.0527L52.6827 40.7451H51.5917L50.7344 39.2835H50.111V40.7451H49.1758V36.2064H49.2537ZM50.8903 38.4373C51.3579 38.4373 51.6696 38.1296 51.6696 37.745C51.6696 37.2834 51.3579 37.0526 50.8903 37.0526H50.1889V38.4373H50.8903Z" fill="black"/>
<path d="M56.5791 36.2063H57.5922L58.6053 38.0525L59.6185 36.2063H60.6316V40.745H59.6964V37.8987L58.6053 39.7449L57.5143 37.8987V40.745H56.5791V36.2063Z" fill="black"/>
<path d="M64.6836 38.9757V36.2063H65.6188V38.9757C65.6188 39.5911 65.9305 39.8988 66.3981 39.8988C66.8657 39.8988 67.1774 39.5911 67.1774 38.9757V36.2063H68.1126V38.9757C68.1126 40.2065 67.4112 40.8219 66.3981 40.8219C65.385 40.8219 64.6836 40.2065 64.6836 38.9757Z" fill="black"/>
<path d="M72.3213 36.2063H73.2565V39.8219H75.1269V40.6681H72.3213V36.2063Z" fill="black"/>
<path d="M80.2715 36.2063H81.2067L82.8433 40.745H81.8302L81.5185 39.7449H79.9598L79.6481 40.745H78.7129L80.2715 36.2063ZM81.2067 38.9757L80.7391 37.5141L80.2715 38.9757H81.2067Z" fill="black"/>
<path d="M91.8826 37.2064L91.1813 37.3602L91.0254 36.514L92.1164 36.2063H92.7399V40.745H91.8047V37.2064H91.8826Z" fill="black"/>
<path d="M102.638 37.1288H101.469V36.2827H104.742V37.1288H103.651V40.7444H102.716V37.1288H102.638Z" fill="black"/>
<path d="M108.638 36.2063H111.599V37.0525H109.573V38.0525H111.365V38.8987H109.573V39.8988H111.599V40.745H108.638V36.2063Z" fill="black"/>
<path d="M116.899 36.2063H117.835L119.471 40.745H118.458L118.146 39.7449H116.588L116.276 40.745H115.341L116.899 36.2063ZM117.835 38.9757L117.367 37.5141L116.899 38.9757H117.835Z" fill="black"/>
<path d="M123.289 36.2064H124.302L125.315 38.0527L126.328 36.2064H127.342V40.7451H126.406V37.8988L125.315 39.7451L124.224 37.8988V40.7451H123.289V36.2064Z" fill="black"/>
<path d="M162.331 0V48.3102" stroke="black" stroke-width="0.9817" stroke-miterlimit="10"/>
</svg>
