<svg width="101" height="101" viewBox="0 0 101 101" fill="none" xmlns="http://www.w3.org/2000/svg">
<path d="M50.6522 0.347852C37.5171 0.347853 24.9028 5.48507 15.5049 14.6618C6.10702 23.8384 0.670845 36.3268 0.358017 49.4582C0.0451902 62.5896 4.88052 75.3227 13.8308 84.9364C22.7811 94.5502 35.1364 100.282 48.2566 100.908C61.3769 101.533 74.2215 97.0025 84.0457 88.2838C93.8699 79.565 99.8946 67.3497 100.832 54.2481C101.77 41.1464 97.5466 28.1976 89.0643 18.1685C80.582 8.13944 68.5136 1.82554 55.438 0.576002L54.4102 11.3314C64.6777 12.3126 74.1542 17.2705 80.8148 25.1457C87.4755 33.0209 90.7919 43.1888 90.0555 53.4767C89.3192 63.7646 84.5884 73.3565 76.874 80.2028C69.1597 87.0491 59.0736 90.6068 48.7711 90.1156C38.4686 89.6245 28.7667 85.1235 21.7387 77.5744C14.7106 70.0253 10.9137 60.0268 11.1593 49.7155C11.405 39.4042 15.6737 29.5979 23.0533 22.3921C30.4328 15.1862 40.338 11.1522 50.6522 11.1522L50.6522 0.347852Z" fill="#32A071"/>
</svg>
