<svg width="161" height="65" viewBox="0 0 161 65" fill="none" xmlns="http://www.w3.org/2000/svg">
<path d="M12.22 39.658H9.178L0.572 52.216V53.724H9.048V57H12.22V53.724H14.248V51.02H12.22V39.658ZM4.576 51.02L9.048 44.416V51.02H4.576ZM16.0253 55.31C16.0253 56.454 16.9093 57.338 18.0533 57.338C19.1973 57.338 20.0813 56.454 20.0813 55.31C20.0813 54.166 19.1973 53.282 18.0533 53.282C16.9093 53.282 16.0253 54.166 16.0253 55.31ZM31.6501 47.952C32.9761 47.302 34.1461 46.028 34.1461 44.104C34.1461 41.582 32.3261 39.268 28.7121 39.268C25.0981 39.268 23.2781 41.582 23.2781 44.104C23.2781 46.028 24.4481 47.302 25.7741 47.952C23.8501 48.576 22.6801 50.266 22.6801 52.268C22.6801 55.128 24.9681 57.39 28.7121 57.39C32.4561 57.39 34.7441 55.128 34.7441 52.268C34.7441 50.266 33.5741 48.576 31.6501 47.952ZM28.7121 46.548C27.2821 46.548 26.2941 45.56 26.2941 44.13C26.2941 42.7 27.2821 41.712 28.7121 41.712C30.1421 41.712 31.1301 42.7 31.1301 44.13C31.1301 45.56 30.1421 46.548 28.7121 46.548ZM28.7121 54.738C27.2041 54.738 26.0601 53.62 26.0601 52.034C26.0601 50.448 27.2041 49.33 28.7121 49.33C30.2201 49.33 31.3641 50.448 31.3641 52.034C31.3641 53.62 30.2201 54.738 28.7121 54.738Z" fill="#32A071"/>
<path fill-rule="evenodd" clip-rule="evenodd" d="M57.206 39.7442C57.4686 38.7519 58.8769 38.7519 59.1395 39.7442L60.3889 44.4658C60.5103 44.9245 60.9373 45.2348 61.411 45.2085L66.2877 44.9377C67.3125 44.8808 67.7477 46.2202 66.8851 46.7765L62.7807 49.4238C62.3819 49.681 62.2188 50.183 62.3903 50.6255L64.1548 55.1797C64.5256 56.1368 63.3862 56.9646 62.5906 56.3162L58.8045 53.2307C58.4366 52.9309 57.9088 52.9309 57.541 53.2307L53.7549 56.3162C52.9592 56.9646 51.8199 56.1368 52.1907 55.1797L53.9552 50.6255C54.1266 50.183 53.9635 49.681 53.5648 49.4238L49.4603 46.7765C48.5978 46.2202 49.033 44.8808 50.0578 44.9377L54.9344 45.2085C55.4082 45.2348 55.8352 44.9245 55.9566 44.4658L57.206 39.7442ZM80.206 39.7442C80.4686 38.7519 81.8769 38.7519 82.1395 39.7442L83.3889 44.4658C83.5103 44.9245 83.9373 45.2348 84.411 45.2085L89.2877 44.9377C90.3125 44.8808 90.7477 46.2202 89.8851 46.7765L85.7807 49.4238C85.3819 49.681 85.2188 50.183 85.3903 50.6255L87.1548 55.1797C87.5256 56.1368 86.3862 56.9646 85.5906 56.3162L81.8045 53.2307C81.4366 52.9309 80.9088 52.9309 80.541 53.2307L76.7549 56.3162C75.9592 56.9646 74.8199 56.1368 75.1907 55.1797L76.9552 50.6255C77.1266 50.183 76.9635 49.681 76.5648 49.4238L72.4603 46.7765C71.5978 46.2202 72.033 44.8808 73.0578 44.9377L77.9344 45.2085C78.4082 45.2348 78.8352 44.9245 78.9566 44.4658L80.206 39.7442ZM105.139 39.7442C104.877 38.7519 103.469 38.7519 103.206 39.7442L101.957 44.4658C101.835 44.9245 101.408 45.2348 100.934 45.2085L96.0578 44.9377C95.033 44.8808 94.5978 46.2202 95.4603 46.7765L99.5648 49.4238C99.9635 49.681 100.127 50.183 99.9552 50.6255L98.1907 55.1797C97.8199 56.1368 98.9592 56.9646 99.7549 56.3162L103.541 53.2307C103.909 52.9309 104.437 52.9309 104.804 53.2307L108.591 56.3162C109.386 56.9646 110.526 56.1368 110.155 55.1797L108.39 50.6255C108.219 50.183 108.382 49.681 108.781 49.4238L112.885 46.7765C113.748 46.2202 113.312 44.8808 112.288 44.9377L107.411 45.2085C106.937 45.2348 106.51 44.9245 106.389 44.4658L105.139 39.7442ZM126.206 39.7442C126.469 38.7519 127.877 38.7519 128.139 39.7442L129.389 44.4658C129.51 44.9245 129.937 45.2348 130.411 45.2085L135.288 44.9377C136.312 44.8808 136.748 46.2202 135.885 46.7765L131.781 49.4238C131.382 49.681 131.219 50.183 131.39 50.6255L133.155 55.1797C133.526 56.1368 132.386 56.9646 131.591 56.3162L127.804 53.2307C127.437 52.9309 126.909 52.9309 126.541 53.2307L122.755 56.3162C121.959 56.9646 120.82 56.1368 121.191 55.1797L122.955 50.6255C123.127 50.183 122.964 49.681 122.565 49.4238L118.46 46.7765C117.598 46.2202 118.033 44.8808 119.058 44.9377L123.934 45.2085C124.408 45.2348 124.835 44.9245 124.957 44.4658L126.206 39.7442ZM152.139 39.7442C151.877 38.7519 150.469 38.7519 150.206 39.7442L148.957 44.4658C148.835 44.9245 148.408 45.2348 147.934 45.2085L143.058 44.9377C142.033 44.8808 141.598 46.2202 142.46 46.7765L146.565 49.4238C146.964 49.681 147.127 50.183 146.955 50.6255L145.191 55.1797C144.82 56.1368 145.959 56.9646 146.755 56.3162L150.541 53.2307C150.909 52.9309 151.437 52.9309 151.804 53.2307L155.591 56.3162C156.386 56.9646 157.526 56.1368 157.155 55.1797L155.39 50.6255C155.219 50.183 155.382 49.681 155.781 49.4238L159.885 46.7765C160.748 46.2202 160.312 44.8808 159.288 44.9377L154.411 45.2085C153.937 45.2348 153.51 44.9245 153.389 44.4658L152.139 39.7442Z" fill="#32A071"/>
<g clip-path="url(#clip0_10193_26662)">
<path fill-rule="evenodd" clip-rule="evenodd" d="M160 7.13582C159.994 7.04623 159.965 6.95955 159.916 6.88385C159.868 6.80814 159.8 6.74586 159.72 6.70279C159.357 6.52648 158.829 6.40539 157.752 6.40539C155.323 6.40539 153.174 7.57854 152.237 9.54123V7.14357C152.236 7.09388 152.226 7.04472 152.207 6.99891C152.187 6.95311 152.159 6.91156 152.123 6.87664C152.087 6.84172 152.044 6.81413 151.998 6.79543C151.951 6.77674 151.901 6.76732 151.851 6.7677H148.213C148.163 6.76732 148.113 6.77674 148.066 6.79543C148.019 6.81413 147.977 6.84172 147.941 6.87664C147.905 6.91156 147.877 6.95311 147.857 6.99891C147.838 7.04472 147.827 7.09388 147.827 7.14357V23.3062C147.827 23.3559 147.838 23.4051 147.857 23.4509C147.877 23.4967 147.905 23.5382 147.941 23.5731C147.977 23.608 148.019 23.6356 148.066 23.6543C148.113 23.673 148.163 23.6825 148.213 23.6821H152.024C152.074 23.6825 152.124 23.673 152.171 23.6544C152.217 23.6357 152.26 23.6081 152.296 23.5732C152.332 23.5383 152.36 23.4967 152.38 23.4509C152.4 23.4051 152.41 23.3559 152.41 23.3062V16.0357C152.41 12.7885 154.733 11.1745 157.752 11.1745C158.349 11.1796 158.942 11.269 159.513 11.44C159.755 11.5175 160 11.3237 160 11.0757V7.13582ZM135.65 19.716C133.045 19.716 131.031 17.9238 131.031 15.2171C131.031 12.5104 133.046 10.7173 135.65 10.7173C138.254 10.7173 140.267 12.5114 140.267 15.2171C140.267 17.9238 138.254 19.716 135.65 19.716ZM135.65 6.35307C130.303 6.35307 126.31 9.93939 126.31 15.2171C126.31 20.4949 130.303 24.0812 135.65 24.0812C140.995 24.0812 144.988 20.4949 144.988 15.2171C144.988 9.93939 140.995 6.35307 135.65 6.35307ZM114.447 19.716C111.843 19.716 109.829 17.9238 109.829 15.2171C109.829 12.5114 111.843 10.7183 114.447 10.7183C117.051 10.7183 119.065 12.5104 119.065 15.2171C119.065 17.9238 117.051 19.716 114.447 19.716ZM114.447 6.35307C109.1 6.35307 105.107 9.93939 105.107 15.2171C105.107 20.4949 109.1 24.0812 114.447 24.0812C119.793 24.0812 123.786 20.4949 123.786 15.2171C123.786 9.93939 119.793 6.35307 114.447 6.35307ZM93.2741 19.7577C90.6709 19.7577 88.7264 17.9655 88.7264 15.2239C88.7264 12.4843 90.6709 10.6902 93.2751 10.6902C95.8449 10.6902 97.8228 12.4165 97.8228 15.2239C97.8228 17.9984 95.8449 19.7577 93.2751 19.7577H93.2741ZM101.882 0.000979967H98.0712C98.0209 0.000724877 97.9711 0.0102449 97.9245 0.0289964C97.878 0.047748 97.8356 0.0753639 97.7999 0.110267C97.7642 0.145171 97.7357 0.186678 97.7163 0.232419C97.6968 0.27816 97.6866 0.32724 97.6864 0.376855V9.20314C96.5055 7.57951 94.561 6.32692 91.8528 6.32692C87.6172 6.32692 84.0059 9.50829 84.0059 15.2259C84.0059 20.9424 87.6182 24.1219 91.9215 24.1219C94.4569 24.1219 96.4368 23.0398 97.6854 21.3144V23.3072C97.6857 23.3569 97.6958 23.406 97.7154 23.4518C97.7349 23.4976 97.7634 23.5392 97.7993 23.5741C97.8351 23.609 97.8776 23.6366 97.9242 23.6553C97.9709 23.674 98.0208 23.6834 98.0712 23.683H101.882C101.932 23.6834 101.982 23.674 102.029 23.6553C102.075 23.6366 102.118 23.609 102.154 23.5741C102.189 23.5392 102.218 23.4976 102.238 23.4518C102.257 23.406 102.267 23.3569 102.267 23.3072V0.377824C102.267 0.328045 102.257 0.278781 102.238 0.232865C102.218 0.186948 102.19 0.145283 102.154 0.110264C102.118 0.0752458 102.076 0.0475638 102.029 0.0288091C101.982 0.0100544 101.932 0.000596891 101.882 0.000979967ZM81.4822 18.5622C81.4822 22.4188 78.6003 24.0773 73.9828 24.0773C70.7936 24.0773 68.0501 23.2403 66.4805 21.5092C66.4215 21.4417 66.3882 21.3559 66.3864 21.2668C66.3846 21.1776 66.4144 21.0907 66.4707 21.0209L68.6734 18.2338C68.7077 18.1916 68.7509 18.1572 68.7999 18.1329C68.8489 18.1086 68.9027 18.0949 68.9575 18.0929C69.0124 18.0909 69.067 18.1005 69.1177 18.1211C69.1684 18.1418 69.2141 18.1729 69.2515 18.2125C70.4167 19.374 72.2061 20.0841 74.4344 20.0841C75.7193 20.0841 76.7607 19.747 76.7607 18.7996C76.7607 17.8851 75.8233 17.6836 72.907 17.0742C70.3372 16.5656 67.1431 15.4167 67.1431 11.7287C67.1431 8.31189 69.921 6.3492 74.4697 6.3492C77.4606 6.3492 79.6113 7.22882 81.1279 8.61414C81.1974 8.67917 81.2398 8.7676 81.2465 8.86194C81.2532 8.95629 81.2238 9.04969 81.1642 9.1237L79.0734 11.7684C79.0422 11.8089 79.0029 11.8427 78.958 11.8678C78.9131 11.8928 78.8635 11.9085 78.8122 11.9139C78.7609 11.9194 78.7091 11.9144 78.6598 11.8994C78.6105 11.8844 78.5649 11.8596 78.5256 11.8265C77.4999 10.9353 75.7968 10.3753 74.1222 10.3753C72.6989 10.3753 71.8999 10.8161 71.8999 11.5601C71.8999 12.4058 72.8383 12.6093 75.9283 13.2515C78.9477 13.8938 81.4822 15.0108 81.4822 18.5622ZM63.8606 18.5719C63.8606 22.4285 60.9786 24.087 56.3612 24.087C53.172 24.087 50.4285 23.25 48.8589 21.5189C48.8001 21.4514 48.767 21.3659 48.7652 21.277C48.7634 21.188 48.7931 21.1013 48.8491 21.0316L51.0518 18.2435C51.0862 18.2014 51.1294 18.1671 51.1784 18.1429C51.2275 18.1187 51.2812 18.1051 51.3359 18.1031C51.3907 18.1011 51.4453 18.1107 51.496 18.1312C51.5467 18.1517 51.5924 18.1828 51.6299 18.2222C52.7951 19.3847 54.5845 20.0948 56.8128 20.0948C58.0977 20.0948 59.1391 19.7567 59.1391 18.8093C59.1391 17.8948 58.2017 17.6933 55.2854 17.0839C52.7156 16.5763 49.5215 15.4264 49.5215 11.7384C49.5215 8.32157 52.2994 6.35985 56.8481 6.35985C59.838 6.35985 61.9887 7.23948 63.5053 8.62382C63.5749 8.68886 63.6172 8.77728 63.6239 8.87163C63.6306 8.96597 63.6013 9.05938 63.5416 9.13339L61.4508 11.7781C61.4197 11.8185 61.3805 11.8523 61.3357 11.8773C61.2909 11.9023 61.2415 11.9181 61.1903 11.9236C61.1391 11.9292 61.0874 11.9244 61.0382 11.9095C60.9889 11.8946 60.9433 11.87 60.9041 11.8372C59.8783 10.9459 58.1752 10.384 56.4996 10.384C55.0763 10.384 54.2773 10.8258 54.2773 11.5698C54.2773 12.4155 55.2167 12.6189 58.3058 13.2612C61.3252 13.9035 63.8606 15.0205 63.8606 18.5719ZM41.0209 16.8475C41.0209 18.7075 39.4601 20.3321 37.0287 20.3321C35.4317 20.3321 34.5629 19.6211 34.5629 18.539C34.5629 17.5915 35.2933 16.8805 36.7166 16.677L41.0209 16.1704V16.8475ZM38.0005 6.39376C34.3647 6.39376 31.625 7.57951 30.401 9.92292C30.3604 10.0046 30.3509 10.0979 30.3741 10.1859C30.3974 10.2739 30.4518 10.3507 30.5276 10.4024L33.3055 12.3361C33.4802 12.4572 33.7256 12.4174 33.8307 12.2344C34.6022 10.881 36.3308 10.4189 38.0005 10.4189C40.0491 10.4189 41.0199 11.128 41.0199 12.1104V12.3806C41.0199 12.7875 40.7774 12.9909 40.1178 13.0578L35.361 13.4637C32.1669 13.7669 29.8071 15.6957 29.8071 18.7744C29.8071 21.887 32.2366 24.0521 35.6741 24.0521C38.3823 24.0521 40.1178 22.7666 41.0199 21.4133V23.3382C41.0201 23.3879 41.0303 23.437 41.0499 23.4828C41.0694 23.5286 41.0979 23.5702 41.1337 23.6051C41.1696 23.64 41.212 23.6676 41.2587 23.6863C41.3054 23.705 41.3553 23.7144 41.4056 23.714H45.2172C45.2675 23.7144 45.3175 23.705 45.3641 23.6863C45.4108 23.6676 45.4533 23.64 45.4891 23.6051C45.5249 23.5702 45.5534 23.5286 45.573 23.4828C45.5925 23.437 45.6027 23.3879 45.6029 23.3382V13.2612C45.6029 8.55892 43.0685 6.39376 38.0005 6.39376ZM26.6631 0.374917V23.3033C26.6629 23.3531 26.6528 23.4023 26.6334 23.4482C26.6139 23.4942 26.5854 23.5358 26.5496 23.5709C26.5137 23.6059 26.4712 23.6336 26.4245 23.6523C26.3778 23.6711 26.3277 23.6805 26.2773 23.6801H22.4314C22.381 23.6805 22.331 23.6711 22.2842 23.6523C22.2375 23.6336 22.195 23.6059 22.1592 23.5709C22.1233 23.5358 22.0948 23.4942 22.0753 23.4482C22.0559 23.4023 22.0458 23.3531 22.0456 23.3033V0.368136C22.0456 0.164699 22.2155 1.12168e-05 22.4236 1.12168e-05H26.2773C26.3277 -0.000371721 26.3776 0.00905389 26.4243 0.0277481C26.4709 0.0464423 26.5134 0.0740379 26.5492 0.108954C26.585 0.14387 26.6135 0.18542 26.6331 0.231225C26.6526 0.27703 26.6628 0.326189 26.6631 0.375886V0.374917ZM9.2692 19.7402C6.66601 19.7402 4.72147 17.9471 4.72147 15.2065C4.72147 12.4659 6.66503 10.6727 9.2692 10.6727C11.8734 10.6727 13.7826 12.399 13.7826 15.2065C13.7826 17.98 11.8734 19.7402 9.2692 19.7402ZM17.8758 6.74929H14.0692C13.9663 6.74878 13.8673 6.78857 13.7941 6.85994C13.7209 6.93131 13.6793 7.02844 13.6785 7.13001V9.11789C12.7067 7.59501 10.6925 6.34339 8.01963 6.34339C3.71436 6.34339 0 9.48989 0 15.1396C0 20.7545 3.54061 23.8313 8.15804 23.8313C10.6582 23.8313 12.6017 22.817 13.7482 21.2273V22.3094C13.7482 24.7448 12.532 26.6736 8.64393 26.6736C6.68957 26.6736 5.12 26.04 3.7438 24.8523C3.70251 24.8153 3.65348 24.7877 3.60019 24.7715C3.5469 24.7553 3.49065 24.7508 3.43541 24.7584C3.38017 24.7659 3.32728 24.7854 3.2805 24.8154C3.23372 24.8453 3.19417 24.8851 3.16466 24.9318L1.43804 27.7508C1.21521 28.1151 1.24564 28.3195 1.38699 28.4396C3.15975 29.9412 5.46552 30.8683 8.81767 30.8683C16.109 30.8683 18.2616 26.9109 18.2616 22.5467V7.12517C18.2613 7.07547 18.2512 7.02631 18.2316 6.98051C18.2121 6.9347 18.1836 6.89315 18.1477 6.85823C18.1119 6.82332 18.0694 6.79572 18.0228 6.77703C17.9761 6.75833 17.9262 6.74891 17.8758 6.74929Z" fill="black"/>
</g>
<defs>
<clipPath id="clip0_10193_26662">
<rect width="160" height="31" fill="white"/>
</clipPath>
</defs>
</svg>
