<svg width="20" height="18" viewBox="0 0 20 18" fill="none" xmlns="http://www.w3.org/2000/svg">
<path d="M15 10C16.0609 10 17.0783 10.4214 17.8284 11.1716C18.5786 11.9217 19 12.9391 19 14C19 15.0609 18.5786 16.0783 17.8284 16.8284C17.0783 17.5786 16.0609 18 15 18C12.858 18 11 16.21 11 14H9C8.99962 14.9704 8.64646 15.9077 8.00631 16.637C7.36617 17.3664 6.48269 17.8382 5.5205 17.9644C4.55831 18.0907 3.58302 17.8629 2.77635 17.3234C1.96968 16.7839 1.38664 15.9696 1.13586 15.0321C0.885087 14.0946 0.983677 13.0979 1.41326 12.2278C1.84285 11.3576 2.57414 10.6732 3.47087 10.3023C4.36761 9.93128 5.36863 9.89895 6.28743 10.2113C7.20623 10.5236 7.98016 11.1594 8.465 12H11.535C11.886 11.3917 12.3911 10.8865 12.9993 10.5354C13.6076 10.1843 14.2977 9.99964 15 10ZM0 9V7H2V4C2 2.93913 2.42143 1.92172 3.17157 1.17157C3.92172 0.421427 4.93913 0 6 0H14C15.0609 0 16.0783 0.421427 16.8284 1.17157C17.5786 1.92172 18 2.93913 18 4V7H20V9H0Z" fill="white"/>
</svg>
