<svg width="23" height="12" viewBox="0 0 23 12" fill="none" xmlns="http://www.w3.org/2000/svg">
<path d="M16.0018 8.00001H11.6608C11.189 9.33444 10.2606 10.4591 9.0398 11.1753C7.81898 11.8914 6.38429 12.1529 4.98929 11.9136C3.5943 11.6743 2.32883 10.9495 1.41655 9.86733C0.504266 8.78519 0.00390625 7.41539 0.00390625 6.00001C0.00390625 4.58464 0.504266 3.21483 1.41655 2.13269C2.32883 1.05055 3.5943 0.325764 4.98929 0.086421C6.38429 -0.152922 7.81898 0.108595 9.0398 0.824749C10.2606 1.5409 11.189 2.66558 11.6608 4.00001H22.0018V8.00001H20.0018V12H16.0018V8.00001ZM6.00176 8.00001C6.53219 8.00001 7.0409 7.7893 7.41597 7.41423C7.79105 7.03915 8.00176 6.53045 8.00176 6.00001C8.00176 5.46958 7.79105 4.96087 7.41597 4.5858C7.0409 4.21073 6.53219 4.00001 6.00176 4.00001C5.47133 4.00001 4.96262 4.21073 4.58755 4.5858C4.21247 4.96087 4.00176 5.46958 4.00176 6.00001C4.00176 6.53045 4.21247 7.03915 4.58755 7.41423C4.96262 7.7893 5.47133 8.00001 6.00176 8.00001Z" fill="white"/>
</svg>
