<svg width="18" height="21" viewBox="0 0 18 21" fill="none" xmlns="http://www.w3.org/2000/svg">
<path d="M2.07 14.0001C2.023 13.6688 1.99961 13.3347 2 13.0001V12.0001H0V10.0001H2V9.00009C2 8.66009 2.024 8.32709 2.07 8.00009H0V6.00009H2.674C3.28697 4.7116 4.27751 3.64015 5.514 2.92809L4.464 1.87809L5.88 0.465088L7.563 2.14909C8.51142 1.9509 9.49058 1.9509 10.439 2.14909L12.122 0.465088L13.537 1.88009L12.487 2.93009C13.7228 3.64178 14.713 4.71249 15.326 6.00009H18V8.00009H15.93C15.976 8.32709 16 8.66009 16 9.00009V10.0001H18V12.0001H16V13.0001C16 13.3401 15.976 13.6731 15.93 14.0001H18V16.0001H15.326C14.7586 17.1977 13.8629 18.2097 12.7431 18.9183C11.6232 19.6269 10.3252 20.0031 9 20.0031C7.67477 20.0031 6.37677 19.6269 5.25692 18.9183C4.13707 18.2097 3.24138 17.1977 2.674 16.0001H0V14.0001H2.07ZM6 8.00009V10.0001H12V8.00009H6ZM6 12.0001V14.0001H12V12.0001H6Z" fill="white"/>
</svg>
