<svg width="18" height="22" viewBox="0 0 18 22" fill="none" xmlns="http://www.w3.org/2000/svg">
<path d="M15 7.75732H17C17.2652 7.75732 17.5196 7.86268 17.7071 8.05022C17.8946 8.23775 18 8.49211 18 8.75732V20.7573C18 21.0225 17.8946 21.2769 17.7071 21.4644C17.5196 21.652 17.2652 21.7573 17 21.7573H1C0.734784 21.7573 0.48043 21.652 0.292893 21.4644C0.105357 21.2769 0 21.0225 0 20.7573V8.75732C0 8.49211 0.105357 8.23775 0.292893 8.05022C0.48043 7.86268 0.734784 7.75732 1 7.75732H3V6.75732C3 5.16603 3.63214 3.6399 4.75736 2.51468C5.88258 1.38947 7.4087 0.757324 9 0.757324C10.5913 0.757324 12.1174 1.38947 13.2426 2.51468C14.3679 3.6399 15 5.16603 15 6.75732V7.75732ZM8 15.4893V17.7573H10V15.4893C10.3813 15.2692 10.6793 14.9294 10.8478 14.5226C11.0162 14.1159 11.0458 13.6649 10.9319 13.2396C10.8179 12.8144 10.5668 12.4386 10.2175 12.1706C9.86823 11.9025 9.44027 11.7573 9 11.7573C8.55973 11.7573 8.13177 11.9025 7.78248 12.1706C7.43319 12.4386 7.1821 12.8144 7.06815 13.2396C6.9542 13.6649 6.98376 14.1159 7.15224 14.5226C7.32072 14.9294 7.61872 15.2692 8 15.4893ZM13 7.75732V6.75732C13 5.69646 12.5786 4.67904 11.8284 3.9289C11.0783 3.17875 10.0609 2.75732 9 2.75732C7.93913 2.75732 6.92172 3.17875 6.17157 3.9289C5.42143 4.67904 5 5.69646 5 6.75732V7.75732H13Z" fill="white"/>
</svg>
