<svg width="22" height="22" viewBox="0 0 22 22" fill="none" xmlns="http://www.w3.org/2000/svg">
<path fill-rule="evenodd" clip-rule="evenodd" d="M19.6641 5.7658C20.7428 5.31124 21.5 4.24405 21.5 3C21.5 1.34315 20.1569 0 18.5 0C16.8431 0 15.5 1.34315 15.5 3C15.5 4.36675 16.414 5.52003 17.6641 5.88199V13.7582C17.6641 15.3495 17.0319 16.8756 15.9067 18.0008C14.7815 19.126 13.2554 19.7582 11.6641 19.7582C10.0728 19.7582 8.54664 19.126 7.42142 18.0008C6.46129 17.0407 6.28678 16.2623 6.10093 15.4333C6.06897 15.2908 6.03668 15.1467 6 15C5.6325 13.53 6.34546 10.9795 6.91647 8.93685C7.12233 8.20041 7.30975 7.52999 7.42142 7L0 15.2418L3.66406 13.5L3.66406 13.7582C3.66406 15.8799 4.50692 17.9147 6.00721 19.415C7.5075 20.9153 9.54233 21.7582 11.6641 21.7582C13.7858 21.7582 15.8206 20.9153 17.3209 19.415C18.8212 17.9147 19.6641 15.8799 19.6641 13.7582V5.7658Z" fill="white"/>
</svg>
