<svg width="64" height="46" viewBox="0 0 64 46" fill="none" xmlns="http://www.w3.org/2000/svg">
<path d="M61.2021 7.57145L61.2038 7.57805C61.8325 9.97009 62.1653 13.7781 62.3338 17.0942C62.4169 18.7302 62.4585 20.2094 62.4793 21.2798C62.4897 21.8147 62.4948 22.2466 62.4974 22.544C62.4987 22.6926 62.4994 22.8076 62.4997 22.885L62.5 22.9722L62.5 22.9937L62.5 22.9988V22.9999V22.9999V23.0001V23.0001V23.0012L62.5 23.0063L62.5 23.0279L62.4997 23.1152C62.4994 23.1926 62.4988 23.3076 62.4975 23.4564C62.495 23.7539 62.4899 24.186 62.4798 24.721C62.4596 25.7917 62.4191 27.2714 62.3382 28.9078C62.1745 32.2201 61.8511 36.0269 61.2398 38.4234C60.6043 40.7902 58.8419 42.5847 56.6293 43.1787L56.6224 43.1806C55.5261 43.4804 53.472 43.7313 50.8802 43.9251C48.3308 44.1158 45.385 44.2437 42.5816 44.3291C39.7806 44.4145 37.134 44.4573 35.1869 44.4786C34.2137 44.4893 33.416 44.4947 32.862 44.4973C32.585 44.4987 32.3689 44.4993 32.2224 44.4997L32.0559 44.5L32.0137 44.5L32.0032 44.5H32.0007H32.0001C32 44.5 32 44.5 32 46C32 44.5 32 44.5 31.9999 44.5H31.9993H31.9968L31.9863 44.5L31.9441 44.5L31.7776 44.4997C31.6311 44.4993 31.4151 44.4987 31.1381 44.4973C30.5842 44.4947 29.7866 44.4893 28.8136 44.4786C26.8671 44.4573 24.2217 44.4145 21.423 44.3291C18.6219 44.2437 15.6795 44.1158 13.1354 43.9251C10.5514 43.7315 8.5076 43.4811 7.42084 43.1825C5.17569 42.5479 3.39208 40.7319 2.79792 38.4286L2.79619 38.4219C2.16752 36.0299 1.8347 32.2219 1.66625 28.9058C1.58315 27.2698 1.54154 25.7906 1.52074 24.7202C1.51034 24.1853 1.50516 23.7534 1.50257 23.456C1.50128 23.3074 1.50064 23.1924 1.50032 23.115L1.50004 23.0278L1.5 23.0063L1.5 23.0012L1.5 23.0001V23.0001V22.9999V22.9999L1.5 22.9988L1.5 22.9937L1.50004 22.9721L1.50031 22.8848C1.50062 22.8074 1.50124 22.6924 1.5025 22.5436C1.50502 22.2461 1.51007 21.814 1.52019 21.279C1.54043 20.2083 1.58093 18.7286 1.66181 17.0922C1.82552 13.7798 2.14891 9.97297 2.76026 7.57647C3.39574 5.20979 5.15815 3.41528 7.37074 2.82128L7.37075 2.8213L7.37756 2.81943C8.47387 2.51957 10.528 2.26873 13.1198 2.07488C15.6692 1.8842 18.615 1.75635 21.4184 1.67088C24.2194 1.58548 26.866 1.54273 28.8131 1.52136C29.7863 1.51067 30.584 1.50533 31.138 1.50266C31.415 1.50133 31.6311 1.50066 31.7776 1.50033L31.9441 1.50004L31.9863 1.50001L31.9968 1.5L31.9993 1.5L31.9999 1.5C32 1.5 32 1.5 32 0C32 1.5 32 1.5 32.0001 1.5L32.0007 1.5L32.0032 1.5L32.0137 1.50001L32.0559 1.50004L32.2224 1.50033C32.3689 1.50066 32.5849 1.50133 32.8619 1.50266C33.4158 1.50533 34.2134 1.51067 35.1864 1.52136C37.1329 1.54273 39.7783 1.58548 42.577 1.67087C45.3781 1.75635 48.3205 1.8842 50.8646 2.07486C53.4485 2.26851 55.4922 2.5189 56.579 2.8175C58.8242 3.45202 60.6079 5.26801 61.2021 7.57145Z" stroke="white" stroke-width="3"/>
<path d="M25.4492 32.7182L42.1765 22.9989L25.4492 13.2795V32.7182Z" fill="white"/>
</svg>
