<svg width="30" height="30" viewBox="0 0 30 30" fill="none" xmlns="http://www.w3.org/2000/svg">
<g clip-path="url(#clip0)">
<path d="M26.9784 27.6977V5.2517C26.9784 4.02868 25.9712 3.02148 24.7482 3.02148H2.23022C1.00719 3.02148 0 4.02868 0 5.2517V27.7697C0 28.9927 1.00719 29.9999 2.23022 29.9999H24.7482C25.9712 29.9999 26.9784 28.9927 26.9784 27.6977Z" fill="#1C9957"/>
<path d="M2.23255 30.0002H24.7505C25.9736 30.0002 13.5275 17.9858 13.5275 17.9858C13.5275 17.9858 1.00953 30.0002 2.23255 30.0002Z" fill="#3E7BF1"/>
<path d="M26.9792 27.6976V5.25157C26.9792 4.02854 14.9648 16.4746 14.9648 16.4746C14.9648 16.4746 26.9792 28.9926 26.9792 27.6976Z" fill="#CBCCC9"/>
<path d="M24.7485 30.0001C25.9715 30.0001 26.9787 28.9929 26.9787 27.7699V27.5541L15.1802 15.7555L12.7341 18.2015L24.5327 30.0001H24.7485Z" fill="#F2F2F2"/>
<path d="M26.9784 5.2517C26.9784 4.02868 25.9712 3.02148 24.7482 3.02148H24.5324L0 27.5539V27.7697C0 28.9927 1.00719 29.9999 2.23022 29.9999H2.44604L26.9784 5.46753V5.2517Z" fill="#FFD73D"/>
<path d="M22.5169 0C18.3443 0 15.0349 3.3813 15.0349 7.48202C15.0349 12.5899 20.7903 14.4604 22.0133 22.3741C22.0853 22.8777 22.0853 23.2374 22.5169 23.2374C22.9486 23.2374 22.9486 22.8777 23.0205 22.3741C24.2435 14.4604 29.9989 12.5899 29.9989 7.48202C29.9989 3.3813 26.6176 0 22.5169 0Z" fill="#D73F35"/>
<path d="M25.1095 7.48202C25.1095 8.92087 23.9585 10.0719 22.5196 10.0719C21.0808 10.0719 19.9297 8.92087 19.9297 7.48202C19.9297 6.04317 21.0808 4.89209 22.5196 4.89209C23.9585 4.89209 25.1095 6.04317 25.1095 7.48202Z" fill="#752622"/>
<path d="M6.33192 7.91381V9.49654H8.63408C8.34631 10.4318 7.55494 11.1512 6.40386 11.1512C5.03696 11.1512 3.88588 10.0721 3.88588 8.63323C3.88588 7.26633 4.96501 6.11525 6.40386 6.11525C7.05134 6.11525 7.55494 6.33108 7.9866 6.69079L9.13767 5.53971C8.41825 4.89223 7.41106 4.46057 6.33192 4.46057C4.02976 4.46057 2.2312 6.33107 2.2312 8.56129C2.2312 10.8634 4.1017 12.662 6.33192 12.662C9.92904 12.662 10.5765 9.4246 10.2168 7.84187L6.33192 7.91381Z" fill="white"/>
</g>
<defs>
<clipPath id="clip0">
<rect width="30" height="30" fill="white"/>
</clipPath>
</defs>
</svg>
