<svg width="141" height="90" viewBox="0 0 141 90" fill="none" xmlns="http://www.w3.org/2000/svg">
<path d="M30.4551 78.3702V78.3062C30.4551 76.9609 31.2834 76 32.4939 76C33.7045 76 34.5328 76.9609 34.5328 78.2421V78.3062C34.5328 79.6515 33.7045 80.6124 32.4939 80.6124C31.2834 80.6764 30.4551 79.7155 30.4551 78.3702ZM33.5134 78.3702C33.5134 77.4734 33.0674 76.8968 32.4302 76.8968C31.7931 76.8968 31.3471 77.4734 31.3471 78.3062V78.3702C31.3471 79.2671 31.7931 79.7796 32.4302 79.7796C33.0674 79.7796 33.5134 79.2671 33.5134 78.3702Z" fill="black"/>
<path d="M36.8262 76.1279H39.6933V76.9607H37.7182V77.9857H39.4385V78.8185H37.7182V80.6122H36.8262V76.1279Z" fill="black"/>
<path d="M41.9238 76.1279H44.791V76.9607H42.8158V77.9857H44.5361V78.8185H42.8158V80.6122H41.9238V76.1279Z" fill="black"/>
<path d="M47.084 76.1279H47.976V80.6122H47.084V76.1279Z" fill="black"/>
<path d="M50.334 78.3687C50.334 76.9594 51.1623 76.0625 52.3728 76.0625C53.01 76.0625 53.456 76.3187 53.7746 76.6391L53.2011 77.3437C52.9463 77.0875 52.6277 76.8953 52.3091 76.8953C51.7357 76.8953 51.2897 77.4718 51.2897 78.3046C51.2897 79.2015 51.7357 79.714 52.3091 79.714C52.6914 79.714 52.9463 79.5218 53.2011 79.2655L53.7746 79.9061C53.3923 80.2905 52.9463 80.5468 52.2454 80.5468C51.1623 80.6108 50.334 79.714 50.334 78.3687Z" fill="black"/>
<path d="M56.0684 76.1279H56.9604V80.6122H56.0684V76.1279Z" fill="black"/>
<path d="M60.7823 76.0625H61.6743L63.2672 80.5468H62.3115L61.9929 79.5858H60.4637L60.1452 80.5468H59.1895L60.7823 76.0625ZM61.6743 78.7531L61.1646 77.2797L60.6549 78.7531H61.6743Z" fill="black"/>
<path d="M65.4348 76.1279H66.3268V79.7794H68.1108V80.6122H65.3711V76.1279H65.4348Z" fill="black"/>
<path d="M73.3984 76.1279H74.8639C75.8833 76.1279 76.5205 76.7045 76.5205 77.6654C76.5205 78.6904 75.8196 79.2029 74.8639 79.2029H74.3542V80.5481H73.4622V76.1279H73.3984ZM74.8002 78.3701C75.3099 78.3701 75.5647 78.0498 75.5647 77.6654C75.5647 77.217 75.3099 76.9607 74.8002 76.9607H74.2904V78.4341H74.8002V78.3701Z" fill="black"/>
<path d="M79.5792 76.0625H80.4712L82.064 80.5468H81.1083L80.7898 79.5858H79.2606L78.942 80.5468H77.9863L79.5792 76.0625ZM80.4712 78.7531L79.9615 77.2797L79.4518 78.7531H80.4712Z" fill="black"/>
<path d="M84.166 76.1279H85.8226C86.3323 76.1279 86.7783 76.256 87.0332 76.5764C87.288 76.8326 87.4155 77.1529 87.4155 77.6013C87.4155 78.306 87.0969 78.6904 86.5872 78.9466L87.5429 80.6122H86.4597L85.6314 79.1388H85.058V80.6122H84.166V76.1279ZM85.8226 78.306C86.2686 78.306 86.5235 78.0498 86.5235 77.6654C86.5235 77.217 86.2686 77.0248 85.7589 77.0248H85.1217V78.3701H85.8226V78.306Z" fill="black"/>
<path d="M90.6019 76.9607H89.4551V76.1279H92.6408V76.9607H91.494V80.6122H90.6019V76.9607Z" fill="black"/>
<path d="M94.8711 76.1279H95.6994L97.4197 78.7544V76.1279H98.3117V80.6122H97.5471L95.7631 77.9216V80.6122H94.8711V76.1279Z" fill="black"/>
<path d="M100.795 76.1279H103.662V76.9607H101.687V77.9216H103.407V78.7544H101.687V79.7794H103.662V80.6122H100.795V76.1279Z" fill="black"/>
<path d="M106.02 76.1279H107.676C108.186 76.1279 108.632 76.256 108.887 76.5764C109.142 76.8326 109.269 77.1529 109.269 77.6013C109.269 78.306 108.95 78.6904 108.441 78.9466L109.396 80.6122H108.313L107.485 79.1388H106.912V80.6122H106.02V76.1279ZM107.612 78.306C108.058 78.306 108.313 78.0498 108.313 77.6654C108.313 77.217 108.058 77.0248 107.549 77.0248H106.912V78.3701H107.612V78.306Z" fill="black"/>
<path d="M57.2793 85.2886H60.1464V86.1214H58.1713V87.1463H59.8916V87.9791H58.1713V89.7728H57.2793V85.2886Z" fill="black"/>
<path d="M62.1855 87.5309V87.4668C62.1855 86.1216 63.0138 85.1606 64.2244 85.1606C65.435 85.1606 66.2633 86.1216 66.2633 87.4028V87.4668C66.2633 88.8121 65.435 89.773 64.2244 89.773C63.0138 89.8371 62.1855 88.8762 62.1855 87.5309ZM65.2438 87.5309C65.2438 86.6341 64.7978 86.0575 64.1607 86.0575C63.5236 86.0575 63.0776 86.634 63.0776 87.4668V87.5309C63.0776 88.4278 63.5236 88.9402 64.1607 88.9402C64.7978 88.9402 65.2438 88.4278 65.2438 87.5309Z" fill="black"/>
<path d="M68.5566 85.2886H70.2132C70.7229 85.2886 71.1689 85.4167 71.4238 85.737C71.6786 85.9932 71.8061 86.3135 71.8061 86.762C71.8061 87.4666 71.4875 87.851 70.9778 88.1073L71.9335 89.7728H70.8504L70.0221 88.2994H69.4486V89.7728H68.5566V85.2886ZM70.1495 87.4666C70.5955 87.4666 70.8504 87.2104 70.8504 86.826C70.8504 86.3776 70.5955 86.1854 70.0858 86.1854H69.4486V87.5307H70.1495V87.4666Z" fill="black"/>
<path d="M74.1641 85.2886H77.0312V86.1214H75.0561V87.0823H76.7764V87.9151H75.0561V88.94H77.0312V89.7728H74.1641V85.2886Z" fill="black"/>
<path d="M82.7001 85.2886L81.4258 87.4666L82.7638 89.7728H81.7444L80.9161 88.2354L80.0878 89.7728H79.0684L80.4064 87.4666L79.1321 85.2886H80.1515L80.9161 86.762L81.6806 85.2886H82.7001Z" fill="black"/>
<path d="M108.314 20.4994H113.284V12.9403H117.362C118.764 12.9403 119.401 13.3887 119.401 14.6699V20.4994H124.37V14.2855C124.37 11.3387 122.778 10.1216 118.254 10.1216H108.314V20.4994Z" fill="black"/>
<path d="M101.752 10.1216H96.0815C92.1312 10.1216 90.4746 11.4669 90.4746 14.4777V16.5277C90.4746 19.1542 92.0675 20.5635 95.6992 20.5635H106.212V17.8089H96.7186C95.7629 17.8089 95.508 17.5526 95.508 16.848V16.3995H103.026C105.639 16.3995 107.04 15.5667 107.04 13.6449V13.1965C106.977 11.4028 106.148 10.1216 101.752 10.1216ZM101.433 14.4777H95.4443V13.8371C95.4443 13.2606 95.6992 12.8762 96.4638 12.8762H101.37C102.071 12.8762 102.389 13.0684 102.389 13.709C102.389 14.2215 102.134 14.4777 101.433 14.4777Z" fill="black"/>
<path d="M80.2161 20.4994H85.1858V13.709C85.1858 13.2606 85.3769 12.9403 85.9504 12.9403H89.7732V10.1216H84.2301C81.2992 10.1216 80.1523 11.2106 80.1523 13.0684V20.4994H80.2161Z" fill="black"/>
<path d="M73.525 10.1216H63.3307V12.8762H72.633C73.5887 12.8762 73.9073 13.1965 73.9073 13.9012V14.2855H66.4527C63.3307 14.2855 62.375 15.5668 62.375 17.2323V17.6167C62.375 19.9229 64.159 20.5635 67.727 20.5635H73.2065C77.093 20.5635 78.7496 19.6666 78.7496 16.5917V14.1574C78.7496 11.5309 77.1567 10.1216 73.525 10.1216ZM73.8436 16.7839C73.8436 17.3605 73.5887 17.7448 72.8242 17.7448H67.9182C67.281 17.7448 66.8987 17.5526 66.8987 16.9761C66.8987 16.3995 67.1536 16.0792 67.9182 16.0792H73.8436V16.7839Z" fill="black"/>
<path d="M50.5898 20.4995H61.3576V17.6808H55.5596V8.45605H50.5898V20.4995Z" fill="black"/>
<path d="M39.6936 20.5005H49.1233V17.6818H40.4581C39.4387 17.6818 38.7379 17.1693 38.7379 15.6959V14.7991C38.7379 13.4538 39.375 12.8773 40.4581 12.8773H49.187V10.0586H39.6299C35.4247 10.0586 33.8318 11.8523 33.8318 14.671V15.8241C33.7681 19.1552 35.4247 20.5005 39.6936 20.5005Z" fill="black"/>
<path d="M29.6272 8.45605C28.1618 8.45605 27.1423 9.0326 26.0592 9.92945L19.7515 15.1824V8.45605H17.0117C15.3552 8.45605 14.3357 9.09666 13.2526 9.99351L0 20.4995H5.92544L14.6543 13.3887V20.4995H18.7958L27.2698 13.3247V20.4995H32.3032V8.45605H29.6272Z" fill="black"/>
<path d="M136.922 0C134.182 0 130.296 0.83279 126.091 2.37025C122.586 3.65147 119.146 5.31705 115.387 7.6873C117.553 6.79045 121.886 5.76547 125.454 5.76547C130.232 5.76547 133.673 7.62324 128.639 14.0934C143.548 4.29207 143.166 0 136.922 0Z" fill="#FF9800"/>
<path d="M23.7031 30.2363H26.5703V31.0691H24.6588V32.0941H26.3791V32.9269H24.6588V34.7206H23.7668V30.2363H23.7031Z" fill="black"/>
<path d="M30.2012 32.4787V32.4146C30.2012 31.0693 31.0295 30.1084 32.24 30.1084C33.4506 30.1084 34.2152 31.0693 34.2152 32.3505V32.4146C34.2152 33.7599 33.3869 34.7208 32.1763 34.7208C31.0295 34.7848 30.2012 33.8239 30.2012 32.4787ZM33.2595 32.4787C33.2595 31.5818 32.8135 31.0053 32.1763 31.0053C31.5392 31.0053 31.0932 31.5818 31.0932 32.4146V32.4787C31.0932 33.3755 31.5392 33.888 32.1763 33.888C32.8135 33.888 33.2595 33.3755 33.2595 32.4787Z" fill="black"/>
<path d="M38.1035 30.2363H39.7601C40.2698 30.2363 40.7158 30.3645 40.9707 30.6848C41.2255 30.941 41.3529 31.2613 41.3529 31.7097C41.3529 32.4144 41.0344 32.7988 40.5247 33.055L41.4804 34.7206H40.3972L39.5689 33.2472H38.9955V34.7206H38.1035V30.2363ZM39.6964 32.4144C40.1424 32.4144 40.3972 32.1581 40.3972 31.7738C40.3972 31.3254 40.1424 31.1332 39.6327 31.1332H38.9955V32.4785H39.6964V32.4144Z" fill="black"/>
<path d="M45.3027 30.2363H46.2585L47.2779 32.03L48.2336 30.2363H49.1893V34.7206H48.2973V31.8378L47.2779 33.6956L46.2585 31.8378V34.6565H45.3664V30.2363H45.3027Z" fill="black"/>
<path d="M53.2031 32.9255V30.1709H54.0951V32.9255C54.0951 33.5661 54.4137 33.8864 54.8597 33.8864C55.3057 33.8864 55.6243 33.5661 55.6243 32.9896V30.235H56.5163V32.9255C56.5163 34.1427 55.8154 34.7192 54.796 34.7192C53.8403 34.7833 53.2031 34.1427 53.2031 32.9255Z" fill="black"/>
<path d="M60.593 30.2363H61.485V33.8237H63.269V34.6565H60.5293V30.2363H60.593Z" fill="black"/>
<path d="M68.3663 30.1709H69.2583L70.8511 34.6552H69.8954L69.5769 33.6942H68.0477L67.7292 34.6552H66.7734L68.3663 30.1709ZM69.2583 32.9255L68.7486 31.4521L68.2389 32.9255H69.2583Z" fill="black"/>
<path d="M79.6447 31.1318L78.9438 31.324L78.8164 30.4912L79.8995 30.1709H80.5367V34.6552H79.6447V31.1318Z" fill="black"/>
<path d="M90.1566 31.0691H89.0098V30.2363H92.1318V31.0691H90.9849V34.6565H90.0929V31.0691H90.1566Z" fill="black"/>
<path d="M95.9551 30.2363H98.8222V31.0691H96.8471V32.03H98.5674V32.8628H96.8471V33.8878H98.8222V34.7206H95.9551V30.2363Z" fill="black"/>
<path d="M104.048 30.1709H104.94L106.533 34.6552H105.577L105.259 33.6942H103.729L103.411 34.6552H102.455L104.048 30.1709ZM104.94 32.9255L104.43 31.4521L103.921 32.9255H104.94Z" fill="black"/>
<path d="M110.227 30.2363H111.182L112.202 32.03L113.157 30.2363H114.113V34.7206H113.221V31.8378L112.202 33.6956L111.182 31.8378V34.6565H110.227V30.2363Z" fill="black"/>
<path d="M53 55.5H88" stroke="black" stroke-width="0.9132" stroke-miterlimit="10"/>
</svg>
