<svg width="229" height="49" viewBox="0 0 229 49" fill="none" xmlns="http://www.w3.org/2000/svg">
<path d="M183 19.8317V19.7552C183 18.148 184.008 17 185.481 17C186.954 17 187.962 18.148 187.962 19.6787V19.7552C187.962 21.3624 186.954 22.5104 185.481 22.5104C184.008 22.5869 183 21.4389 183 19.8317ZM186.799 19.8317C186.799 18.7603 186.256 18.0715 185.481 18.0715C184.706 18.0715 184.163 18.7603 184.163 19.7552V19.8317C184.163 20.9032 184.706 21.5155 185.481 21.5155C186.256 21.592 186.799 20.9032 186.799 19.8317Z" fill="black"/>
<path d="M190.754 17.1533H194.243V18.1483H191.839V19.3728H193.933V20.3677H191.839V22.5106H190.754V17.1533Z" fill="black"/>
<path d="M197.033 17.1533H200.522V18.1483H198.119V19.3728H200.212V20.3677H198.119V22.5106H197.033V17.1533Z" fill="black"/>
<path d="M203.314 17.1533H204.4V22.5106H203.314V17.1533Z" fill="black"/>
<path d="M207.268 19.8319C207.268 18.1481 208.276 17.0767 209.749 17.0767C210.524 17.0767 211.067 17.3828 211.454 17.7655L210.757 18.6073C210.446 18.3012 210.059 18.0716 209.671 18.0716C208.973 18.0716 208.431 18.7604 208.431 19.7553C208.431 20.8268 208.973 21.439 209.671 21.439C210.136 21.439 210.446 21.2094 210.757 20.9033L211.454 21.6686C210.989 22.1278 210.446 22.434 209.594 22.434C208.198 22.587 207.268 21.5156 207.268 19.8319Z" fill="black"/>
<path d="M214.246 17.1533H215.332V22.5106H214.246V17.1533Z" fill="black"/>
<path d="M219.983 17.0767H221.069L223.007 22.434H221.844L221.456 21.286H219.596L219.208 22.434H218.045L219.983 17.0767ZM221.069 20.3676L220.448 18.6073L219.828 20.3676H221.069Z" fill="black"/>
<path d="M225.566 17.1533H226.651V21.5157H228.822V22.5106H225.488V17.1533H225.566Z" fill="black"/>
<path d="M183.232 26.5669H185.016C186.256 26.5669 187.032 27.2557 187.032 28.4037C187.032 29.6282 186.101 30.2405 185.016 30.2405H184.395V31.8477H183.31V26.5669H183.232ZM185.016 29.3221C185.636 29.3221 185.946 28.9394 185.946 28.4802C185.946 27.9445 185.636 27.6384 185.016 27.6384H184.395V29.3986H185.016V29.3221Z" fill="black"/>
<path d="M190.753 26.4902H191.838L193.777 31.8476H192.614L192.226 30.6996H190.365L189.977 31.8476H188.814L190.753 26.4902ZM191.838 29.7812L191.218 28.0209L190.598 29.7812H191.838Z" fill="black"/>
<path d="M196.414 26.5669H198.43C199.05 26.5669 199.593 26.72 199.903 27.1026C200.213 27.4088 200.368 27.7914 200.368 28.3272C200.368 29.169 199.981 29.6282 199.36 29.9344L200.523 31.9242H199.205L198.197 30.164H197.5V31.9242H196.414V26.5669ZM198.352 29.169C198.895 29.169 199.205 28.8629 199.205 28.4037C199.205 27.868 198.895 27.6384 198.275 27.6384H197.5V29.2456H198.352V29.169Z" fill="black"/>
<path d="M204.245 27.5618H202.85V26.5669H206.726V27.5618H205.331V31.9242H204.245V27.5618Z" fill="black"/>
<path d="M209.361 26.5669H210.369L212.463 29.7048V26.5669H213.548V31.9242H212.618L210.447 28.7098V31.9242H209.361V26.5669Z" fill="black"/>
<path d="M216.65 26.5669H220.139V27.5618H217.736V28.7098H219.829V29.7048H217.736V30.9293H220.139V31.9242H216.65V26.5669Z" fill="black"/>
<path d="M223.008 26.5669H225.024C225.644 26.5669 226.187 26.72 226.497 27.1026C226.807 27.4088 226.962 27.7914 226.962 28.3272C226.962 29.169 226.574 29.6282 225.954 29.9344L227.117 31.9242H225.799L224.791 30.164H224.093V31.9242H223.008V26.5669ZM224.946 29.169C225.489 29.169 225.799 28.8629 225.799 28.4037C225.799 27.868 225.489 27.6384 224.869 27.6384H224.093V29.2456H224.946V29.169Z" fill="black"/>
<path d="M110.718 26.3011H115.758V18.7243H119.867C121.263 18.7243 121.961 19.1835 121.961 20.4846V26.3011H127V20.1019C127 17.1936 125.372 15.8926 120.72 15.8926H110.641V26.3011H110.718Z" fill="black"/>
<path d="M103.973 15.8926H98.2355C94.2038 15.8926 92.498 17.1936 92.498 20.255V22.3214C92.498 24.9235 94.1262 26.3776 97.8479 26.3776H108.547V23.6224H98.8558C97.9254 23.6224 97.6153 23.3163 97.6153 22.6275V22.1683H105.291C107.927 22.1683 109.4 21.3264 109.4 19.4131V18.9539C109.4 17.1171 108.47 15.8926 103.973 15.8926ZM103.663 20.255H97.5377V19.6427C97.5377 19.0304 97.7703 18.6478 98.6232 18.6478H103.663C104.361 18.6478 104.671 18.8774 104.671 19.4896C104.671 20.0254 104.361 20.255 103.663 20.255Z" fill="black"/>
<path d="M82.0312 26.3011H87.0709V19.4896C87.0709 19.0304 87.226 18.7243 87.8463 18.7243H91.8005V15.8926H86.1405C83.1167 15.8926 82.0312 17.0406 82.0312 18.8774V26.3011Z" fill="black"/>
<path d="M75.2068 15.8926H64.7398V18.6478H74.1988C75.1293 18.6478 75.4394 18.9539 75.4394 19.6427V20.0254H67.7636C64.5847 20.0254 63.6543 21.3264 63.6543 23.0102V23.3928C63.6543 25.6888 65.5151 26.3011 69.1592 26.3011H74.8191C78.7733 26.3011 80.4791 25.4592 80.4791 22.3214V19.8723C80.4791 17.2702 78.8509 15.8926 75.2068 15.8926ZM75.5169 22.6275C75.5169 23.2398 75.2843 23.6224 74.509 23.6224H69.4693C68.849 23.6224 68.4614 23.3928 68.4614 22.8571C68.4614 22.2448 68.694 22.0152 69.4693 22.0152H75.5169V22.6275Z" fill="black"/>
<path d="M51.7148 26.3012H62.7246V23.4695H56.7545V14.209H51.7148V26.3012Z" fill="black"/>
<path d="M40.6271 26.3014H50.2413V23.4697H41.3249C40.2394 23.4697 39.5416 23.0105 39.5416 21.4799V20.5615C39.5416 19.1839 40.2394 18.6481 41.2474 18.6481H50.1637V15.8164H40.472C36.1302 15.8164 34.502 17.5767 34.502 20.4849V21.6329C34.502 25.0004 36.2077 26.3014 40.6271 26.3014Z" fill="black"/>
<path d="M30.2381 14.209C28.7649 14.209 27.6795 14.8212 26.594 15.6631L20.1587 21.0204V14.2855H17.3675C15.6618 14.2855 14.6538 14.8978 13.4908 15.8162L0 26.3012H6.04761L14.964 19.1071V26.3012H19.1508L27.9121 19.1071V26.3012H33.0293V14.209H30.2381Z" fill="black"/>
<path d="M139.948 5.71387C137.157 5.71387 133.202 6.55573 128.938 8.08639C125.372 9.38746 121.805 10.9947 118.006 13.3672C120.254 12.4488 124.674 11.4539 128.318 11.4539C133.202 11.4539 136.769 13.2906 131.574 19.796C146.771 9.99972 146.306 5.71387 139.948 5.71387Z" fill="#FF9800"/>
<path d="M34.1914 36.022H37.1377V36.8638H35.1218V37.8588H36.9051V38.7772H35.1218V40.5374H34.1914V36.022Z" fill="black"/>
<path d="M40.8594 38.3169V38.2403C40.8594 36.8627 41.7122 35.9443 42.9528 35.9443C44.1933 35.9443 44.9687 36.8627 44.9687 38.2403V38.3169C44.9687 39.6945 44.1158 40.6129 42.8752 40.6129C41.7122 40.6129 40.8594 39.6945 40.8594 38.3169ZM44.0382 38.3169C44.0382 37.3985 43.5731 36.8627 42.9528 36.8627C42.3325 36.8627 41.8673 37.3985 41.8673 38.3169V38.3934C41.8673 39.3118 42.3325 39.8475 42.9528 39.8475C43.5731 39.8475 44.0382 39.2353 44.0382 38.3169Z" fill="black"/>
<path d="M48.9994 36.021H50.7051C51.2479 36.021 51.6355 36.1741 51.9457 36.4802C52.1783 36.7098 52.3333 37.0925 52.3333 37.5517C52.3333 38.2405 52.0232 38.6231 51.4805 38.8527L52.4109 40.5365H51.3254L50.4725 39.0823H49.8523V40.5365H48.9219V36.021H48.9994ZM50.6276 38.2405C51.0928 38.2405 51.4029 37.9343 51.4029 37.5517C51.4029 37.0925 51.0928 36.8629 50.6276 36.8629H49.9298V38.2405H50.6276Z" fill="black"/>
<path d="M56.2891 36.021H57.297L58.3049 37.8578L59.3129 36.021H60.3208V40.5365H59.3904V37.7047L58.3049 39.5415L57.2195 37.7047V40.5365H56.2891V36.021Z" fill="black"/>
<path d="M64.3516 38.7762V36.021H65.282V38.7762C65.282 39.3885 65.5921 39.6946 66.0573 39.6946C66.5225 39.6946 66.8326 39.3885 66.8326 38.7762V36.021H67.763V38.7762C67.763 40.0007 67.0652 40.613 66.0573 40.613C65.0494 40.613 64.3516 40.0007 64.3516 38.7762Z" fill="black"/>
<path d="M71.9492 36.021H72.8796V39.6181H74.7404V40.4599H71.9492V36.021Z" fill="black"/>
<path d="M79.8593 36.021H80.7897L82.4179 40.5365H81.4099L81.0998 39.5415H79.5491L79.239 40.5365H78.3086L79.8593 36.021ZM80.7897 38.7762L80.3245 37.3221L79.8593 38.7762H80.7897Z" fill="black"/>
<path d="M91.4115 37.0159L90.7137 37.169L90.5586 36.3271L91.6441 36.021H92.2643V40.5365H91.3339V37.0159H91.4115Z" fill="black"/>
<path d="M102.112 36.939H100.949V36.0972H104.206V36.939H103.12V40.5361H102.19V36.939H102.112Z" fill="black"/>
<path d="M108.08 36.021H111.026V36.8629H109.01V37.8578H110.794V38.6997H109.01V39.6946H111.026V40.5365H108.08V36.021Z" fill="black"/>
<path d="M116.299 36.021H117.229L118.857 40.5365H117.849L117.539 39.5415H115.989L115.678 40.5365H114.748L116.299 36.021ZM117.229 38.7762L116.764 37.3221L116.299 38.7762H117.229Z" fill="black"/>
<path d="M122.656 36.021H123.664L124.672 37.8578L125.68 36.021H126.688V40.5365H125.758V37.7047L124.672 39.5415L123.587 37.7047V40.5365H122.656V36.021Z" fill="black"/>
<path d="M161.5 0V48.0628" stroke="black" stroke-width="0.9817" stroke-miterlimit="10"/>
</svg>
