<svg width="162" height="112" viewBox="0 0 162 112" fill="none" xmlns="http://www.w3.org/2000/svg">
<path d="M11.1943 93.2852C11.1943 93.8451 11.0953 94.3359 10.8974 94.7578C10.6995 95.1797 10.4156 95.5052 10.0458 95.7344C9.67863 95.9635 9.25675 96.0781 8.78019 96.0781C8.30884 96.0781 7.88826 95.9648 7.51847 95.7383C7.14868 95.5117 6.86222 95.1888 6.6591 94.7695C6.45597 94.3477 6.35311 93.8633 6.3505 93.3164V93.0352C6.3505 92.4753 6.45076 91.9831 6.65128 91.5586C6.85441 91.1315 7.13956 90.8047 7.50675 90.5781C7.87654 90.349 8.29842 90.2344 8.77238 90.2344C9.24634 90.2344 9.66691 90.349 10.0341 90.5781C10.4039 90.8047 10.689 91.1315 10.8896 91.5586C11.0927 91.9831 11.1943 92.474 11.1943 93.0312V93.2852ZM10.0068 93.0273C10.0068 92.431 9.89998 91.9779 9.68644 91.668C9.4729 91.3581 9.16821 91.2031 8.77238 91.2031C8.37915 91.2031 8.07576 91.3568 7.86222 91.6641C7.64868 91.9688 7.54061 92.4167 7.538 93.0078V93.2852C7.538 93.8659 7.64477 94.3164 7.85831 94.6367C8.07186 94.957 8.37915 95.1172 8.78019 95.1172C9.17342 95.1172 9.4755 94.9635 9.68644 94.6562C9.89738 94.3464 10.0041 93.8958 10.0068 93.3047V93.0273ZM17.2277 93.6758H14.9777V96H13.8058V90.3125H17.5089V91.2617H14.9777V92.7305H17.2277V93.6758ZM23.3705 93.6758H21.1205V96H19.9486V90.3125H23.6518V91.2617H21.1205V92.7305H23.3705V93.6758ZM27.3375 96H26.1657V90.3125H27.3375V96ZM34.6522 94.1055C34.608 94.7174 34.3814 95.1992 33.9725 95.5508C33.5663 95.9023 33.0298 96.0781 32.3632 96.0781C31.634 96.0781 31.0598 95.8333 30.6405 95.3438C30.2238 94.8516 30.0155 94.1771 30.0155 93.3203V92.9727C30.0155 92.4258 30.1119 91.944 30.3046 91.5273C30.4973 91.1107 30.772 90.7917 31.1288 90.5703C31.4882 90.3464 31.9048 90.2344 32.3788 90.2344C33.035 90.2344 33.5637 90.4102 33.9647 90.7617C34.3658 91.1133 34.5975 91.6068 34.66 92.2422H33.4882C33.4595 91.875 33.3566 91.6094 33.1796 91.4453C33.0051 91.2786 32.7382 91.1953 32.3788 91.1953C31.9882 91.1953 31.6952 91.3359 31.4999 91.6172C31.3072 91.8958 31.2082 92.3294 31.203 92.918V93.3477C31.203 93.9622 31.2955 94.4115 31.4803 94.6953C31.6678 94.9792 31.9621 95.1211 32.3632 95.1211C32.7251 95.1211 32.9947 95.0391 33.1718 94.875C33.3514 94.7083 33.4543 94.4518 33.4803 94.1055H34.6522ZM38.4278 96H37.256V90.3125H38.4278V96ZM44.5589 94.8281H42.5043L42.1136 96H40.8675L42.9847 90.3125H44.0707L46.1996 96H44.9535L44.5589 94.8281ZM42.8207 93.8789H44.2425L43.5277 91.75L42.8207 93.8789ZM49.6627 95.0586H52.151V96H48.4908V90.3125H49.6627V95.0586ZM59.8702 90.3125L61.3311 94.4375L62.7843 90.3125H64.3233V96H63.1475V94.4453L63.2647 91.7617L61.7296 96H60.9249L59.3936 91.7656L59.5108 94.4453V96H58.3389V90.3125H59.8702ZM70.388 94.8281H68.3333L67.9427 96H66.6966L68.8138 90.3125H69.8997L72.0286 96H70.7825L70.388 94.8281ZM68.6497 93.8789H70.0716L69.3568 91.75L68.6497 93.8789ZM75.566 96H74.3941V90.3125H75.566V96ZM83.0408 96H81.8689L79.5877 92.2578V96H78.4158V90.3125H79.5877L81.8728 94.0625V90.3125H83.0408V96ZM92.5257 94.5078C92.5257 94.2865 92.4475 94.1172 92.2913 94C92.135 93.8802 91.8538 93.7552 91.4475 93.625C91.0413 93.4922 90.7197 93.362 90.4827 93.2344C89.8369 92.8854 89.5139 92.4154 89.5139 91.8242C89.5139 91.5169 89.5999 91.2435 89.7718 91.0039C89.9462 90.7617 90.1949 90.5729 90.5178 90.4375C90.8434 90.3021 91.2079 90.2344 91.6116 90.2344C92.0178 90.2344 92.3798 90.3086 92.6975 90.457C93.0152 90.6029 93.2613 90.8099 93.4358 91.0781C93.6129 91.3464 93.7014 91.651 93.7014 91.9922H92.5296C92.5296 91.7318 92.4475 91.5299 92.2835 91.3867C92.1194 91.2409 91.8889 91.168 91.5921 91.168C91.3056 91.168 91.0829 91.2292 90.9241 91.3516C90.7652 91.4714 90.6858 91.6302 90.6858 91.8281C90.6858 92.013 90.7783 92.168 90.9632 92.293C91.1507 92.418 91.4254 92.5352 91.7874 92.6445C92.454 92.8451 92.9397 93.0938 93.2444 93.3906C93.5491 93.6875 93.7014 94.0573 93.7014 94.5C93.7014 94.9922 93.5152 95.3789 93.1428 95.6602C92.7704 95.9388 92.2691 96.0781 91.6389 96.0781C91.2014 96.0781 90.803 95.9987 90.4436 95.8398C90.0843 95.6784 89.8095 95.4583 89.6194 95.1797C89.4319 94.901 89.3382 94.5781 89.3382 94.2109H90.5139C90.5139 94.8385 90.8889 95.1523 91.6389 95.1523C91.9176 95.1523 92.135 95.0964 92.2913 94.9844C92.4475 94.8698 92.5257 94.7109 92.5257 94.5078ZM97.4302 93.9961V96H96.2583V90.3125H98.4771C98.9041 90.3125 99.2791 90.3906 99.6021 90.5469C99.9276 90.7031 100.178 90.9258 100.352 91.2148C100.527 91.5013 100.614 91.8281 100.614 92.1953C100.614 92.7526 100.422 93.1927 100.04 93.5156C99.6594 93.8359 99.132 93.9961 98.4575 93.9961H97.4302ZM97.4302 93.0469H98.4771C98.787 93.0469 99.0226 92.974 99.1841 92.8281C99.3482 92.6823 99.4302 92.474 99.4302 92.2031C99.4302 91.9245 99.3482 91.6992 99.1841 91.5273C99.02 91.3555 98.7935 91.2669 98.5044 91.2617H97.4302V93.0469ZM107.854 93.2852C107.854 93.8451 107.755 94.3359 107.557 94.7578C107.359 95.1797 107.076 95.5052 106.706 95.7344C106.339 95.9635 105.917 96.0781 105.44 96.0781C104.969 96.0781 104.548 95.9648 104.178 95.7383C103.809 95.5117 103.522 95.1888 103.319 94.7695C103.116 94.3477 103.013 93.8633 103.011 93.3164V93.0352C103.011 92.4753 103.111 91.9831 103.311 91.5586C103.514 91.1315 103.8 90.8047 104.167 90.5781C104.537 90.349 104.958 90.2344 105.432 90.2344C105.906 90.2344 106.327 90.349 106.694 90.5781C107.064 90.8047 107.349 91.1315 107.55 91.5586C107.753 91.9831 107.854 92.474 107.854 93.0312V93.2852ZM106.667 93.0273C106.667 92.431 106.56 91.9779 106.346 91.668C106.133 91.3581 105.828 91.2031 105.432 91.2031C105.039 91.2031 104.736 91.3568 104.522 91.6641C104.309 91.9688 104.201 92.4167 104.198 93.0078V93.2852C104.198 93.8659 104.305 94.3164 104.518 94.6367C104.732 94.957 105.039 95.1172 105.44 95.1172C105.833 95.1172 106.136 94.9635 106.346 94.6562C106.557 94.3464 106.664 93.8958 106.667 93.3047V93.0273ZM115.091 96H113.919L111.638 92.2578V96H110.466V90.3125H111.638L113.923 94.0625V90.3125H115.091V96ZM120.823 94.5078C120.823 94.2865 120.745 94.1172 120.589 94C120.433 93.8802 120.152 93.7552 119.745 93.625C119.339 93.4922 119.017 93.362 118.781 93.2344C118.135 92.8854 117.812 92.4154 117.812 91.8242C117.812 91.5169 117.898 91.2435 118.07 91.0039C118.244 90.7617 118.493 90.5729 118.816 90.4375C119.141 90.3021 119.506 90.2344 119.909 90.2344C120.316 90.2344 120.678 90.3086 120.995 90.457C121.313 90.6029 121.559 90.8099 121.734 91.0781C121.911 91.3464 121.999 91.651 121.999 91.9922H120.827C120.827 91.7318 120.745 91.5299 120.581 91.3867C120.417 91.2409 120.187 91.168 119.89 91.168C119.603 91.168 119.381 91.2292 119.222 91.3516C119.063 91.4714 118.984 91.6302 118.984 91.8281C118.984 92.013 119.076 92.168 119.261 92.293C119.448 92.418 119.723 92.5352 120.085 92.6445C120.752 92.8451 121.238 93.0938 121.542 93.3906C121.847 93.6875 121.999 94.0573 121.999 94.5C121.999 94.9922 121.813 95.3789 121.441 95.6602C121.068 95.9388 120.567 96.0781 119.937 96.0781C119.499 96.0781 119.101 95.9987 118.741 95.8398C118.382 95.6784 118.107 95.4583 117.917 95.1797C117.73 94.901 117.636 94.5781 117.636 94.2109H118.812C118.812 94.8385 119.187 95.1523 119.937 95.1523C120.215 95.1523 120.433 95.0964 120.589 94.9844C120.745 94.8698 120.823 94.7109 120.823 94.5078ZM129.228 93.2852C129.228 93.8451 129.129 94.3359 128.931 94.7578C128.733 95.1797 128.449 95.5052 128.08 95.7344C127.712 95.9635 127.291 96.0781 126.814 96.0781C126.343 96.0781 125.922 95.9648 125.552 95.7383C125.182 95.5117 124.896 95.1888 124.693 94.7695C124.49 94.3477 124.387 93.8633 124.384 93.3164V93.0352C124.384 92.4753 124.485 91.9831 124.685 91.5586C124.888 91.1315 125.173 90.8047 125.541 90.5781C125.91 90.349 126.332 90.2344 126.806 90.2344C127.28 90.2344 127.701 90.349 128.068 90.5781C128.438 90.8047 128.723 91.1315 128.923 91.5586C129.126 91.9831 129.228 92.474 129.228 93.0312V93.2852ZM128.041 93.0273C128.041 92.431 127.934 91.9779 127.72 91.668C127.507 91.3581 127.202 91.2031 126.806 91.2031C126.413 91.2031 126.11 91.3568 125.896 91.6641C125.682 91.9688 125.574 92.4167 125.572 93.0078V93.2852C125.572 93.8659 125.679 94.3164 125.892 94.6367C126.106 94.957 126.413 95.1172 126.814 95.1172C127.207 95.1172 127.509 94.9635 127.72 94.6562C127.931 94.3464 128.038 93.8958 128.041 93.3047V93.0273ZM133.945 93.918H133.011V96H131.84V90.3125H133.953C134.625 90.3125 135.143 90.4622 135.508 90.7617C135.872 91.0612 136.054 91.4844 136.054 92.0312C136.054 92.4193 135.97 92.7435 135.801 93.0039C135.634 93.2617 135.38 93.4674 135.039 93.6211L136.269 95.9453V96H135.011L133.945 93.918ZM133.011 92.9688H133.957C134.251 92.9688 134.479 92.8945 134.64 92.7461C134.802 92.5951 134.883 92.388 134.883 92.125C134.883 91.8568 134.806 91.6458 134.652 91.4922C134.501 91.3385 134.268 91.2617 133.953 91.2617H133.011V92.9688ZM147.133 93.2852C147.133 93.8451 147.034 94.3359 146.836 94.7578C146.638 95.1797 146.354 95.5052 145.985 95.7344C145.617 95.9635 145.195 96.0781 144.719 96.0781C144.248 96.0781 143.827 95.9648 143.457 95.7383C143.087 95.5117 142.801 95.1888 142.598 94.7695C142.395 94.3477 142.292 93.8633 142.289 93.3164V93.0352C142.289 92.4753 142.39 91.9831 142.59 91.5586C142.793 91.1315 143.078 90.8047 143.445 90.5781C143.815 90.349 144.237 90.2344 144.711 90.2344C145.185 90.2344 145.606 90.349 145.973 90.5781C146.343 90.8047 146.628 91.1315 146.828 91.5586C147.031 91.9831 147.133 92.474 147.133 93.0312V93.2852ZM145.945 93.0273C145.945 92.431 145.839 91.9779 145.625 91.668C145.412 91.3581 145.107 91.2031 144.711 91.2031C144.318 91.2031 144.015 91.3568 143.801 91.6641C143.587 91.9688 143.479 92.4167 143.477 93.0078V93.2852C143.477 93.8659 143.584 94.3164 143.797 94.6367C144.011 94.957 144.318 95.1172 144.719 95.1172C145.112 95.1172 145.414 94.9635 145.625 94.6562C145.836 94.3464 145.943 93.8958 145.945 93.3047V93.0273ZM153.166 93.6758H150.916V96H149.745V90.3125H153.448V91.2617H150.916V92.7305H153.166V93.6758ZM18.0736 102.875L19.2572 100.312H20.5385L18.6713 103.938V106H17.4799V103.938L15.6127 100.312H16.8979L18.0736 102.875ZM25.443 104.828H23.3883L22.9977 106H21.7516L23.8688 100.312H24.9547L27.0836 106H25.8375L25.443 104.828ZM23.7047 103.879H25.1266L24.4118 101.75L23.7047 103.879ZM33.7538 104.105C33.7095 104.717 33.483 105.199 33.0741 105.551C32.6679 105.902 32.1314 106.078 31.4647 106.078C30.7356 106.078 30.1613 105.833 29.7421 105.344C29.3254 104.852 29.1171 104.177 29.1171 103.32V102.973C29.1171 102.426 29.2134 101.944 29.4061 101.527C29.5988 101.111 29.8736 100.792 30.2304 100.57C30.5897 100.346 31.0064 100.234 31.4804 100.234C32.1366 100.234 32.6652 100.41 33.0663 100.762C33.4673 101.113 33.6991 101.607 33.7616 102.242H32.5897C32.5611 101.875 32.4582 101.609 32.2811 101.445C32.1067 101.279 31.8397 101.195 31.4804 101.195C31.0897 101.195 30.7968 101.336 30.6014 101.617C30.4087 101.896 30.3098 102.329 30.3046 102.918V103.348C30.3046 103.962 30.397 104.411 30.5819 104.695C30.7694 104.979 31.0637 105.121 31.4647 105.121C31.8267 105.121 32.0962 105.039 32.2733 104.875C32.453 104.708 32.5559 104.452 32.5819 104.105H33.7538ZM40.9122 106H39.7403V103.562H37.4552V106H36.2833V100.312H37.4552V102.617H39.7403V100.312H40.9122V106ZM47.8636 101.262H46.1214V106H44.9496V101.262H43.2308V100.312H47.8636V101.262ZM58.2782 104.105C58.2339 104.717 58.0073 105.199 57.5985 105.551C57.1922 105.902 56.6558 106.078 55.9891 106.078C55.2599 106.078 54.6857 105.833 54.2664 105.344C53.8498 104.852 53.6414 104.177 53.6414 103.32V102.973C53.6414 102.426 53.7378 101.944 53.9305 101.527C54.1232 101.111 54.398 100.792 54.7547 100.57C55.1141 100.346 55.5308 100.234 56.0047 100.234C56.661 100.234 57.1896 100.41 57.5907 100.762C57.9917 101.113 58.2235 101.607 58.286 102.242H57.1141C57.0855 101.875 56.9826 101.609 56.8055 101.445C56.631 101.279 56.3641 101.195 56.0047 101.195C55.6141 101.195 55.3211 101.336 55.1258 101.617C54.9331 101.896 54.8342 102.329 54.8289 102.918V103.348C54.8289 103.962 54.9214 104.411 55.1063 104.695C55.2938 104.979 55.5881 105.121 55.9891 105.121C56.3511 105.121 56.6206 105.039 56.7977 104.875C56.9774 104.708 57.0802 104.452 57.1063 104.105H58.2782ZM61.9796 105.059H64.4678V106H60.8077V100.312H61.9796V105.059ZM71.1146 100.312V104.059C71.1146 104.681 70.9193 105.173 70.5286 105.535C70.1406 105.897 69.6094 106.078 68.9349 106.078C68.2708 106.078 67.7435 105.902 67.3529 105.551C66.9622 105.199 66.763 104.716 66.7552 104.102V100.312H67.9271V104.066C67.9271 104.439 68.0156 104.711 68.1927 104.883C68.3724 105.052 68.6198 105.137 68.9349 105.137C69.5937 105.137 69.9284 104.79 69.9388 104.098V100.312H71.1146ZM73.8355 106V100.312H75.8277C76.5178 100.312 77.0412 100.445 77.398 100.711C77.7548 100.974 77.9332 101.361 77.9332 101.871C77.9332 102.15 77.8616 102.396 77.7183 102.609C77.5751 102.82 77.3759 102.975 77.1207 103.074C77.4123 103.147 77.6415 103.294 77.8082 103.516C77.9774 103.737 78.0621 104.008 78.0621 104.328C78.0621 104.875 77.8876 105.289 77.5386 105.57C77.1897 105.852 76.6923 105.995 76.0464 106H73.8355ZM75.0074 103.523V105.059H76.0113C76.2873 105.059 76.5022 104.993 76.6558 104.863C76.8121 104.73 76.8902 104.548 76.8902 104.316C76.8902 103.796 76.6207 103.531 76.0816 103.523H75.0074ZM75.0074 102.695H75.8746C76.4657 102.685 76.7613 102.449 76.7613 101.988C76.7613 101.73 76.6858 101.546 76.5347 101.434C76.3863 101.319 76.1506 101.262 75.8277 101.262H75.0074V102.695ZM84.4571 106V100.312H86.2071C86.7071 100.312 87.1537 100.426 87.5469 100.652C87.9427 100.876 88.2513 101.197 88.4727 101.613C88.694 102.027 88.8047 102.499 88.8047 103.027V103.289C88.8047 103.818 88.6954 104.288 88.4766 104.699C88.2605 105.111 87.9545 105.43 87.5586 105.656C87.1628 105.883 86.7162 105.997 86.2188 106H84.4571ZM85.6289 101.262V105.059H86.1954C86.6537 105.059 87.0039 104.909 87.2461 104.609C87.4883 104.31 87.612 103.882 87.6172 103.324V103.023C87.6172 102.445 87.4974 102.008 87.2579 101.711C87.0183 101.411 86.668 101.262 86.2071 101.262H85.6289ZM94.8421 103.535H92.5921V105.059H95.2327V106H91.4202V100.312H95.2249V101.262H92.5921V102.617H94.8421V103.535ZM102.964 100.312L104.425 104.438L105.878 100.312H107.417V106H106.241V104.445L106.358 101.762L104.823 106H104.018L102.487 101.766L102.604 104.445V106H101.432V100.312H102.964ZM114.872 103.285C114.872 103.845 114.773 104.336 114.575 104.758C114.377 105.18 114.093 105.505 113.724 105.734C113.356 105.964 112.935 106.078 112.458 106.078C111.987 106.078 111.566 105.965 111.196 105.738C110.826 105.512 110.54 105.189 110.337 104.77C110.134 104.348 110.031 103.863 110.028 103.316V103.035C110.028 102.475 110.129 101.983 110.329 101.559C110.532 101.132 110.817 100.805 111.185 100.578C111.554 100.349 111.976 100.234 112.45 100.234C112.924 100.234 113.345 100.349 113.712 100.578C114.082 100.805 114.367 101.132 114.567 101.559C114.771 101.983 114.872 102.474 114.872 103.031V103.285ZM113.685 103.027C113.685 102.431 113.578 101.978 113.364 101.668C113.151 101.358 112.846 101.203 112.45 101.203C112.057 101.203 111.754 101.357 111.54 101.664C111.326 101.969 111.218 102.417 111.216 103.008V103.285C111.216 103.866 111.323 104.316 111.536 104.637C111.75 104.957 112.057 105.117 112.458 105.117C112.851 105.117 113.153 104.964 113.364 104.656C113.575 104.346 113.682 103.896 113.685 103.305V103.027ZM122.109 106H120.937L118.656 102.258V106H117.484V100.312H118.656L120.941 104.062V100.312H122.109V106ZM128.173 104.828H126.119L125.728 106H124.482L126.599 100.312H127.685L129.814 106H128.568L128.173 104.828ZM126.435 103.879H127.857L127.142 101.75L126.435 103.879ZM136.484 104.105C136.44 104.717 136.213 105.199 135.804 105.551C135.398 105.902 134.862 106.078 134.195 106.078C133.466 106.078 132.892 105.833 132.472 105.344C132.056 104.852 131.847 104.177 131.847 103.32V102.973C131.847 102.426 131.944 101.944 132.136 101.527C132.329 101.111 132.604 100.792 132.961 100.57C133.32 100.346 133.737 100.234 134.211 100.234C134.867 100.234 135.396 100.41 135.797 100.762C136.198 101.113 136.429 101.607 136.492 102.242H135.32C135.291 101.875 135.189 101.609 135.011 101.445C134.837 101.279 134.57 101.195 134.211 101.195C133.82 101.195 133.527 101.336 133.332 101.617C133.139 101.896 133.04 102.329 133.035 102.918V103.348C133.035 103.962 133.127 104.411 133.312 104.695C133.5 104.979 133.794 105.121 134.195 105.121C134.557 105.121 134.827 105.039 135.004 104.875C135.183 104.708 135.286 104.452 135.312 104.105H136.484ZM143.686 103.285C143.686 103.845 143.587 104.336 143.389 104.758C143.191 105.18 142.907 105.505 142.537 105.734C142.17 105.964 141.748 106.078 141.271 106.078C140.8 106.078 140.38 105.965 140.01 105.738C139.64 105.512 139.353 105.189 139.15 104.77C138.947 104.348 138.844 103.863 138.842 103.316V103.035C138.842 102.475 138.942 101.983 139.143 101.559C139.346 101.132 139.631 100.805 139.998 100.578C140.368 100.349 140.79 100.234 141.264 100.234C141.738 100.234 142.158 100.349 142.525 100.578C142.895 100.805 143.18 101.132 143.381 101.559C143.584 101.983 143.686 102.474 143.686 103.031V103.285ZM142.498 103.027C142.498 102.431 142.391 101.978 142.178 101.668C141.964 101.358 141.659 101.203 141.264 101.203C140.87 101.203 140.567 101.357 140.353 101.664C140.14 101.969 140.032 102.417 140.029 103.008V103.285C140.029 103.866 140.136 104.316 140.35 104.637C140.563 104.957 140.87 105.117 141.271 105.117C141.665 105.117 141.967 104.964 142.178 104.656C142.389 104.346 142.495 103.896 142.498 103.305V103.027Z" fill="black"/>
<g clip-path="url(#clip0_6131_8866)">
<path d="M64.2119 1.84776L62.6172 2.42578L80.5853 51.594L82.18 51.016L64.2119 1.84776Z" fill="#9F6620"/>
<path d="M63.978 3.69472C65.5193 3.13606 66.4873 1.91286 66.14 0.962619C65.7928 0.0123807 64.2618 -0.305057 62.7205 0.2536C61.1792 0.812257 60.2112 2.03546 60.5585 2.9857C60.9057 3.93593 62.4367 4.25337 63.978 3.69472Z" fill="#9F6620"/>
<path d="M28.2029 43.029C26.6473 43.029 25.4452 42.8178 24.3138 42.5361C23.536 42.3952 22.8288 42.2544 21.9803 42.184C19.5054 41.9727 13.2121 42.9586 13.1414 42.9586H13L13.0707 42.8178C13.0707 42.7473 13.495 41.6206 15.7577 39.7192C16.9598 38.7333 18.7276 37.8178 20.5661 36.7615C22.1924 35.846 23.8895 34.9305 25.3037 33.9446C26.7887 32.9587 28.0615 31.4799 29.4757 29.7193C31.1021 27.8179 32.8698 25.7053 35.4861 23.663C37.0418 22.4659 38.1732 22.1138 39.6581 21.6912C41.0016 21.3391 42.4865 20.9166 44.7493 19.649C46.7999 18.5223 47.9313 17.5364 48.992 16.2688C49.2748 15.9167 49.6284 15.5645 49.9112 15.2124C50.9719 13.9448 52.1033 12.5364 54.2246 10.8463C59.033 6.90267 64.1242 6.69141 64.1949 6.69141H64.2656V6.76183C64.2656 6.83225 63.8413 11.4801 66.3162 19.7194C69.0032 28.5926 73.1045 30.9869 73.1045 30.9869L74.2359 34.0855L74.0944 34.015C74.0237 34.015 70.0639 33.0291 64.6898 33.8742C61.8614 34.508 59.8108 35.846 57.548 37.3249L57.2652 37.5361C55.7802 38.5925 54.2246 39.6488 52.3861 40.2826C49.8405 41.1981 48.1434 40.846 46.2342 40.353C44.82 40.0009 43.3351 39.6488 41.2137 39.7896C38.5267 39.9305 36.5468 40.7755 34.5669 41.5502C33.0113 42.184 31.597 42.7473 29.9 42.9586C29.2636 43.029 28.6979 43.029 28.2029 43.029ZM21.0611 41.9727C21.4146 41.9727 21.6975 41.9727 21.9096 41.9727C22.7581 42.0431 23.4653 42.184 24.2431 42.3952C25.7987 42.7473 27.3544 43.029 29.8293 42.7473C31.4556 42.6065 32.8698 41.9727 34.4255 41.3389C36.4054 40.5643 38.3853 39.7192 41.143 39.5784C43.2644 39.4375 44.82 39.86 46.2342 40.1417C48.1434 40.6347 49.7698 40.9868 52.2447 40.0713C54.0832 39.3671 55.5681 38.3812 57.1238 37.3249L57.4066 37.1136C59.6694 35.5643 61.72 34.2967 64.6898 33.8038C69.4982 32.9587 73.1752 33.6629 73.953 33.8742L72.9631 31.0573C72.6095 30.8461 68.7204 28.2405 66.1748 19.8603C63.912 12.2547 64.0535 7.67731 64.1242 6.90267C63.417 6.97309 58.7501 7.46605 54.366 11.0576C52.2447 12.7477 51.1133 14.1561 50.0526 15.4237C49.7698 15.7758 49.4162 16.1279 49.1334 16.48C48.0727 17.7476 46.8706 18.7335 44.82 19.8603C42.5573 21.0574 41.0016 21.5504 39.6581 21.9025C38.2439 22.325 37.1125 22.6067 35.5569 23.8039C33.0113 25.7757 31.1728 27.9588 29.6171 29.7897C28.1322 31.4799 26.9301 32.9587 25.3745 34.015C23.8895 35.0009 22.1924 35.9164 20.5661 36.8319C18.7276 37.8178 16.9598 38.8037 15.7577 39.7192C13.9192 41.1981 13.3536 42.184 13.1414 42.5361C14.1314 42.6065 18.5155 41.9727 21.0611 41.9727Z" fill="#C32420"/>
<path d="M13.1406 42.8868C13.1406 42.8868 19.5046 41.9009 21.9795 42.1122C24.4544 42.3235 26.2929 43.3094 29.8992 42.8868" stroke="#00910D" stroke-width="0.25" stroke-miterlimit="10"/>
<path d="M49.1326 16.5508C48.0719 17.748 46.9406 18.8043 44.8899 19.931C40.1523 22.4662 38.5966 21.6211 35.6268 23.8746C30.677 27.607 28.5557 31.9027 25.3737 34.0858C22.1917 36.2689 18.0197 38.0294 15.8276 39.8604C13.4942 41.6913 13.1406 42.8885 13.1406 42.8885C13.1406 42.8885 19.5046 41.9026 21.9795 42.1139C24.4544 42.3251 26.2929 43.311 29.8992 42.8885C33.5054 42.466 36.2632 40.0012 41.213 39.7195C46.1627 39.4379 47.9305 41.9026 52.3146 40.2829C54.2945 39.5787 55.8502 38.4519 57.5472 37.3252C52.8096 33.0295 49.5569 22.3254 49.1326 16.5508Z" fill="#C32420"/>
<path d="M49.9109 22.2534C49.9109 22.2534 48.4259 24.0844 45.5975 24.9294C42.769 25.7745 39.6577 25.4224 36.7586 27.3942C33.8594 29.366 29.2632 34.2955 26.4348 35.6335C23.6063 36.9716 20.0708 38.2392 18.798 39.0138C17.5252 39.7884 16.1816 40.7743 16.1816 40.7743C16.1816 40.7743 23.9599 38.3096 26.1519 37.3237C30.1824 35.4223 32.0209 32.4646 36.9 30.4928C41.7791 28.521 45.0318 28.8731 47.3652 27.8167C49.6987 26.7604 50.7594 25.4928 50.7594 25.4928C50.7594 25.4928 50.5472 24.7886 50.2644 23.9435C50.123 23.1689 49.9109 22.2534 49.9109 22.2534Z" fill="white"/>
<path d="M52.3871 30C52.3871 30 50.1243 31.9014 45.2452 32.3943C40.3662 32.8169 37.1135 33.0281 34.4971 35.0704C31.8808 37.1126 29.4059 38.6619 27.2846 39.1548C25.0926 39.6478 21.8398 40.5633 21.8398 40.5633C21.8398 40.5633 25.7997 41.7604 30.3959 39.859C34.9921 37.9577 37.962 35.0704 42.0632 35.1408C46.1645 35.2112 47.2959 36.5492 50.9728 35.2112C52.882 34.5774 54.1548 33.3802 54.1548 33.3802C54.1548 33.3802 53.6599 32.6056 53.1649 31.6901C52.8113 31.0563 52.3871 30 52.3871 30Z" fill="white"/>
<path d="M52.6686 17.2546L50.4766 15.7053L51.6787 15.2828L52.81 16.0574L53.1636 14.7194L54.3657 14.2969L53.6586 16.8321L54.3657 18.7334L53.305 19.0856L52.6686 17.2546Z" fill="#9F6620"/>
<path d="M62.7094 14.1547C62.3558 14.4364 62.1437 14.5772 61.9315 14.6477C61.2244 14.9294 60.6587 14.7885 60.1638 14.5772C59.6688 14.366 59.2445 13.873 59.0324 13.3801C58.8202 12.8167 58.891 12.1829 59.1031 11.69C59.3152 11.197 59.7395 10.7745 60.3759 10.5632C60.588 10.4928 60.8709 10.4224 61.3659 10.4224L61.7901 11.6195C61.2951 11.3378 60.9416 11.4787 60.7295 11.4787C60.4466 11.6195 60.2345 11.7604 60.0931 11.9716C59.9516 12.2533 59.9516 12.6054 60.0223 12.8871C60.0931 13.1688 60.3759 13.4505 60.588 13.5209C60.8002 13.5913 61.1537 13.6618 61.4366 13.5209C61.578 13.4505 61.9315 13.3097 62.1437 12.8167L62.7094 14.1547Z" fill="#9F6620"/>
<path d="M60.8712 34.4381L60.1641 30.2832L61.154 29.9311L62.7097 31.7621L62.7804 29.3677L63.7703 29.0156L65.821 32.748L64.831 33.1001L63.6996 30.9874L63.5582 33.593L63.1339 33.7339L61.4369 31.6917L61.9318 34.086L60.8712 34.4381Z" fill="#9F6620"/>
<path d="M64.4071 20.7726C64.4071 20.7726 65.185 19.7163 64.4071 18.5895C63.7707 17.6036 62.8515 17.7445 62.8515 17.7445C62.8515 17.7445 62.7101 16.1952 61.7908 16.5473C60.8716 16.8994 61.5787 18.167 61.5787 18.167C61.5787 18.167 61.4373 18.3079 61.2251 18.5895C61.013 18.8712 61.013 18.8712 61.013 18.8712L60.7302 18.9417C60.5887 18.8712 60.4473 18.7304 60.4473 18.5191C60.4473 18.3079 60.8716 17.1811 60.3059 16.7586C59.7402 16.2656 59.2452 16.7586 58.821 17.0403C58.5381 17.2515 58.1139 17.2515 57.9017 17.2515C57.9724 17.1811 57.9724 17.0403 57.9724 16.9698C57.9724 16.5473 57.6189 16.2656 57.2653 16.2656C56.9118 16.2656 56.5582 16.6177 56.5582 16.9698C56.5582 17.322 56.7703 17.6036 57.1239 17.6741C56.9118 17.8149 56.6289 18.0262 56.3461 18.0966C55.8511 18.167 55.144 18.0966 55.0026 18.8712C54.9318 19.5754 55.9925 20.1388 56.0632 20.2797C56.2047 20.4909 56.1339 20.7022 56.1339 20.843L55.8511 20.9135C55.8511 20.9135 55.8511 20.9135 55.4975 20.7726C55.144 20.6318 54.9318 20.7022 54.9318 20.7022C54.9318 20.7022 54.649 19.2233 53.7298 19.5754C52.8105 19.9276 53.7298 21.1951 53.7298 21.1951C53.7298 21.1951 52.9519 21.6881 53.0934 22.8853C53.2348 24.2233 54.5076 24.5754 54.5076 24.5754C54.5076 24.5754 57.0532 30.5612 57.2653 30.7021C57.5482 30.9134 57.5482 30.4908 57.831 30.35C57.9724 30.2796 58.1138 30.35 58.326 30.35C58.821 30.2091 58.7502 29.7162 58.6795 29.2936C58.821 29.3641 59.0331 29.4345 59.2452 29.4345C59.3867 29.4345 59.5281 29.4345 59.7402 29.3641C61.2251 28.8711 61.8615 29.1528 61.8615 29.1528L61.9323 29.0824C62.003 28.8711 62.4272 28.4486 63.5586 27.9556C63.7 27.8852 63.8415 27.8148 63.9829 27.6739C64.195 27.5331 64.2657 27.3218 64.3364 27.181C64.5486 27.6035 64.8314 27.9556 65.3264 27.7444C65.5385 27.674 65.5385 27.4627 65.7507 27.4627C66.0335 27.3923 66.3163 27.6739 66.3871 27.3218C66.3871 26.9697 64.4071 20.7726 64.4071 20.7726ZM61.7908 16.8994C61.9323 16.829 62.1444 16.9698 62.2151 17.1811C62.2858 17.3924 62.2151 17.6741 62.0737 17.6741C61.9323 17.6741 61.7201 17.6036 61.6494 17.3924C61.5787 17.2515 61.6494 16.9698 61.7908 16.8994ZM55.3561 18.8712C55.4268 18.4487 55.7804 18.3783 56.2754 18.2374C56.7703 18.0966 56.9825 17.8149 57.1239 17.6036H57.1946C57.4774 17.6036 57.6896 17.4628 57.7603 17.2515C57.9724 17.322 58.326 17.3924 58.821 17.1811C59.3159 16.9698 59.5988 16.7586 59.9523 17.0403C60.2352 17.322 60.0938 18.3079 59.8816 18.66C59.6695 19.0121 59.5281 19.2938 59.5281 19.2938C59.5281 19.2938 59.8816 18.3783 59.8109 17.8149C59.7402 17.2515 59.2452 17.2515 59.0331 17.2515C58.7502 17.2515 58.3967 17.4628 58.3967 17.4628C58.3967 17.4628 59.0331 17.5332 59.3159 18.0262C59.4574 18.2374 59.5281 18.66 59.2452 19.0825C59.1038 19.2233 59.0331 19.3642 59.0331 19.3642C59.0331 19.3642 59.1038 18.8008 58.9624 18.3783C58.8917 18.167 58.821 18.0262 58.6795 17.9557C58.4674 17.7445 58.2553 17.6741 57.9724 17.6741C57.4067 17.6741 56.9825 18.0966 56.9825 18.66C56.9825 18.66 56.9825 18.66 56.9825 18.7304C56.9825 18.8712 56.9825 19.0121 57.0532 19.2233C57.2653 19.6459 57.6896 19.998 57.6896 19.998C57.6896 19.998 57.5482 19.9276 57.336 19.9276C56.841 19.8571 56.6289 19.4346 56.5582 19.2233C56.4875 18.66 56.9118 18.2374 56.9118 18.2374C56.9118 18.2374 56.5582 18.3079 56.2754 18.4487C56.0632 18.5895 55.7804 18.9417 56.0632 19.3642C56.3461 19.8571 57.1946 20.2797 57.1946 20.2797C57.1946 20.2797 56.841 20.1388 56.4875 19.998C56.1339 19.8571 55.3561 19.2938 55.3561 18.8712ZM54.2247 20.7726C54.0833 20.843 53.8712 20.7022 53.8005 20.4205C53.7298 20.2092 53.8005 19.9276 53.9419 19.9276C54.0833 19.9276 54.2954 19.998 54.3662 20.2797C54.4369 20.4909 54.3662 20.7022 54.2247 20.7726ZM54.7904 22.7444C54.7904 22.7444 54.0126 22.0402 54.649 21.7585C55.2147 21.5473 55.2147 22.5332 55.2147 22.5332L57.0532 28.0261L54.7904 22.7444ZM63.4879 27.6739C62.2858 28.1669 61.9323 28.6599 61.7908 28.8711C61.508 28.8007 60.8716 28.8007 59.6695 29.1528C59.1745 29.2937 58.821 29.1528 58.5381 29.012C58.1846 27.8852 56.1339 22.2515 56.1339 22.2515L58.821 21.2656L61.508 20.2092C61.508 20.2092 63.6293 25.7726 64.1243 26.8993C64.1243 27.181 63.9122 27.4627 63.4879 27.6739ZM62.4979 19.7867C62.4979 19.7867 61.8615 19.0121 62.4272 18.8712C63.0636 18.66 62.9929 19.6459 62.9929 19.6459L64.7607 25.1388L62.4979 19.7867Z" fill="#9F6620"/>
<path d="M56.7703 22.2549L56.6289 23.5225L57.5481 24.3675L57.6896 23.0999L56.7703 22.2549Z" fill="#C32420"/>
<path d="M58.8208 22.6742L57.8309 21.8291L57.6895 23.0967L58.6794 23.9418L58.8208 22.6742Z" fill="#C32420"/>
<path d="M59.881 22.2523L58.9617 21.4072L58.8203 22.6748L59.7396 23.5903L59.881 22.2523Z" fill="#C32420"/>
<path d="M60.9415 21.9013L60.0223 20.9858L59.8809 22.2534L60.8001 23.1689L60.9415 21.9013Z" fill="#C32420"/>
<path d="M57.5477 24.3643L57.4062 25.6319L58.3962 26.5473L58.5376 25.2797L57.5477 24.3643Z" fill="#C32420"/>
<path d="M58.5371 25.2804L59.4564 26.1255L59.5978 24.8579L58.6785 23.9424L58.5371 25.2804Z" fill="#C32420"/>
<path d="M59.5996 24.8589L60.5896 25.704L60.6603 24.4364L59.741 23.5913L59.5996 24.8589Z" fill="#C32420"/>
<path d="M60.6602 24.4365L61.6501 25.2816L61.7915 24.014L60.8016 23.1689L60.6602 24.4365Z" fill="#C32420"/>
<path d="M58.2559 27.8154L59.1751 28.6605L59.3165 27.3929L58.3973 26.5479L58.2559 27.8154Z" fill="#C32420"/>
<path d="M59.3164 27.3941L60.3064 28.2391L60.4478 26.9715L59.4578 26.1265L59.3164 27.3941Z" fill="#C32420"/>
<path d="M60.4473 26.9717L61.3665 27.8872L61.5079 26.6196L60.5887 25.7041L60.4473 26.9717Z" fill="#C32420"/>
<path d="M61.5078 26.6197L62.4271 27.4648L62.5685 26.1972L61.6492 25.2817L61.5078 26.6197Z" fill="#C32420"/>
<path d="M62.0728 21.4789L61.0828 20.6338L60.9414 21.9014L61.9314 22.7464L62.0728 21.4789Z" fill="#C32420"/>
<path d="M61.9324 22.7466L61.791 24.0142L62.7103 24.9297L62.8517 23.6621L61.9324 22.7466Z" fill="#C32420"/>
<path d="M63.5583 27.0433L63.6997 25.7757L62.7098 24.9307L62.5684 26.1983L63.5583 27.0433Z" fill="#C32420"/>
<path d="M72.8447 51.004L74.4395 51.582L92.4076 2.41377L90.8129 1.83575L72.8447 51.004Z" fill="#9F6620"/>
<path d="M94.4818 2.94997C94.8291 1.99974 93.8611 0.776537 92.3198 0.21788C90.7785 -0.340777 89.2475 -0.0233391 88.9003 0.926899C88.553 1.87714 89.521 3.10034 91.0623 3.659C92.6036 4.21766 94.1346 3.90021 94.4818 2.94997Z" fill="#9F6620"/>
<path d="M125.147 42.9572C123.52 42.8163 122.036 42.1825 120.48 41.5487C118.571 40.7741 116.52 39.9291 113.833 39.7882C111.782 39.6474 110.227 39.9995 108.813 40.3516C106.903 40.8445 105.206 41.2671 102.661 40.2812C100.822 39.5769 99.2665 38.5206 97.7816 37.5347L97.4988 37.3234C95.3067 35.8446 93.1854 34.5066 90.2862 34.0136C84.9122 33.0981 80.8817 34.084 80.8817 34.1545L80.7402 34.2249L81.8716 31.1263C81.9423 31.1263 85.9729 28.732 88.5892 19.9997C91.0641 11.7604 90.6398 7.11252 90.6398 7.0421V6.97168H90.7105C90.7812 6.97168 95.8724 7.18295 100.681 11.1266C102.802 12.8167 103.933 14.2955 104.994 15.4927C105.277 15.8448 105.631 16.1969 105.913 16.549C106.974 17.7462 108.105 18.8025 110.156 19.9293C112.419 21.1264 113.904 21.549 115.247 21.9715C116.732 22.394 117.864 22.6757 119.419 23.9433C122.036 25.9151 123.803 28.0982 125.43 29.9996C126.844 31.6897 128.117 33.1686 129.602 34.2249C131.087 35.2108 132.784 36.1263 134.339 37.0418C136.178 38.0277 137.946 39.0136 139.148 39.9995C141.481 41.8304 141.835 43.0276 141.835 43.098L141.905 43.2389H141.764C141.693 43.2389 135.4 42.253 132.996 42.4642C132.147 42.5347 131.44 42.6755 130.662 42.8163C129.531 43.0276 128.329 43.3093 126.773 43.3093C126.349 43.0276 125.783 43.0276 125.147 42.9572ZM141.764 42.7459C141.623 42.3938 140.986 41.3375 139.148 39.9291C137.946 38.9431 136.248 38.0277 134.339 37.0418C132.713 36.1263 131.016 35.2108 129.531 34.2249C128.046 33.1686 126.773 31.6897 125.288 29.9996C123.662 28.0982 121.894 25.9855 119.348 24.0137C117.793 22.8166 116.661 22.5349 115.247 22.1124C113.904 21.7602 112.419 21.3377 110.085 20.0701C108.035 18.9434 106.903 17.887 105.772 16.6899C105.489 16.3378 105.136 15.9857 104.853 15.6336C103.792 14.366 102.661 12.9575 100.539 11.2674C96.1553 7.6759 91.4883 7.18295 90.7812 7.11252C90.8519 7.81674 90.9933 12.3942 88.7306 20.0701C86.185 28.4503 82.2959 31.0559 81.9423 31.2672L80.9524 34.084C81.7302 33.8728 85.4779 33.1686 90.2155 34.0136C93.1854 34.5066 95.236 35.8446 97.4988 37.3234L97.7816 37.5347C99.3373 38.591 100.822 39.5769 102.661 40.2812C105.206 41.1966 106.833 40.7741 108.671 40.3516C110.085 39.9995 111.641 39.6474 113.762 39.7882C116.52 39.9291 118.5 40.7741 120.48 41.5487C122.036 42.1825 123.45 42.7459 125.076 42.9572C127.48 43.2389 129.107 42.8868 130.662 42.6051C131.44 42.4642 132.147 42.3234 132.996 42.1825C133.279 42.1825 133.561 42.1825 133.844 42.1825C136.531 41.9713 140.915 42.6051 141.764 42.7459Z" fill="#C32420"/>
<path d="M141.907 42.8868C141.907 42.8868 135.543 41.9009 133.068 42.1122C130.593 42.3235 128.755 43.3094 125.148 42.8868" stroke="#00910D" stroke-width="0.25" stroke-miterlimit="10"/>
<path d="M105.913 16.5503C106.974 17.7475 108.105 18.8038 110.156 19.9305C114.893 22.4657 116.449 21.6207 119.419 23.8742C124.298 27.6769 126.419 31.9022 129.601 34.0853C132.783 36.2684 136.955 38.0289 139.147 39.7895C141.481 41.6204 141.834 42.8176 141.834 42.8176C141.834 42.8176 135.47 41.8317 132.995 42.043C130.521 42.2542 128.682 43.2401 125.076 42.8176C121.47 42.3951 118.712 39.9303 113.762 39.6486C108.883 39.3669 107.044 41.8317 102.66 40.212C100.68 39.5078 99.1248 38.381 97.4277 37.2543C102.236 33.029 105.418 22.3249 105.913 16.5503Z" fill="#C32420"/>
<path d="M105.136 22.2534C105.136 22.2534 106.621 24.0844 109.449 24.9294C112.277 25.7745 115.389 25.4224 118.288 27.3942C121.116 29.2956 125.854 34.2955 128.612 35.6335C131.44 36.9716 134.905 38.2392 136.249 39.0138C137.521 39.7884 138.865 40.7743 138.865 40.7743C138.865 40.7743 131.087 38.3096 128.895 37.3237C124.864 35.4223 123.026 32.4646 118.146 30.4928C113.267 28.521 110.015 28.8731 107.681 27.8167C105.348 26.7604 104.287 25.4928 104.287 25.4928C104.287 25.4928 104.499 24.7886 104.782 23.9435C104.924 23.1689 105.136 22.2534 105.136 22.2534Z" fill="white"/>
<path d="M102.59 29.9995C102.59 29.9995 104.853 31.9009 109.732 32.3939C114.611 32.8164 117.864 33.0276 120.48 35.0699C123.096 37.1121 125.571 38.6614 127.693 39.1543C129.885 39.6473 133.137 40.5628 133.137 40.5628C133.137 40.5628 129.177 41.7599 124.581 39.8586C119.985 37.9572 117.015 35.0699 112.914 35.1403C108.742 35.2107 107.681 36.5487 104.004 35.2107C102.095 34.5769 100.822 33.3798 100.822 33.3798C100.822 33.3798 101.317 32.6051 101.812 31.6896C102.236 31.0558 102.59 29.9995 102.59 29.9995Z" fill="white"/>
<path d="M95.5896 15.4913L94.5996 15.1392L95.3067 13.2378L94.5996 10.7026L95.8017 11.1252L96.1553 12.4632L97.2866 11.6885L98.4887 12.1111L96.2967 13.6604L95.5896 15.4913Z" fill="#9F6620"/>
<path d="M102.096 18.6618C101.601 18.6618 101.389 18.6618 101.177 18.521C100.47 18.2393 100.045 17.8168 99.9039 17.3942C99.6917 16.9013 99.621 16.2675 99.8332 15.7745C100.045 15.2112 100.47 14.7886 100.965 14.5774C101.46 14.3661 102.025 14.2957 102.662 14.507C102.874 14.5774 103.157 14.7182 103.51 15.0703L103.086 16.2675C102.874 15.7745 102.52 15.5633 102.379 15.4929C102.096 15.352 101.813 15.4224 101.601 15.4929C101.247 15.6337 101.035 15.9154 100.965 16.1971C100.894 16.4788 100.894 16.8309 101.035 17.0421C101.177 17.2534 101.389 17.4647 101.672 17.6055C101.813 17.6759 102.237 17.7464 102.732 17.5351L102.096 18.6618Z" fill="#9F6620"/>
<path d="M93.1157 34.0857L93.6106 31.6914L91.9136 33.5928L91.4893 33.4519L91.3479 30.8463L90.2165 32.959L89.2266 32.6069L91.2772 28.8745L92.2671 29.2266L92.3378 31.621L93.8935 29.79L94.8834 30.1421L94.1056 34.297L93.1157 34.0857Z" fill="#9F6620"/>
<path d="M88.7303 27.255C88.801 27.6071 89.0839 27.3254 89.3667 27.3958C89.5081 27.3958 89.5788 27.6071 89.791 27.6775C90.2859 27.8887 90.5688 27.4662 90.7809 27.1141C90.8516 27.255 90.9223 27.4662 91.1345 27.6071C91.2759 27.6775 91.4173 27.8183 91.5587 27.8887C92.6901 28.3817 93.0437 28.8747 93.1851 29.0155L93.2558 29.0859C93.2558 29.0859 93.8922 28.8747 95.3772 29.2972C95.5893 29.3676 95.7307 29.3676 95.8721 29.3676C96.0843 29.3676 96.2964 29.2972 96.4378 29.2268C96.3671 29.6493 96.2964 30.1422 96.7914 30.2831C97.0035 30.3535 97.1449 30.2127 97.2863 30.2831C97.4985 30.4239 97.5692 30.776 97.852 30.6352C98.0642 30.4944 100.61 24.5085 100.61 24.5085C100.61 24.5085 101.883 24.1564 102.024 22.8184C102.165 21.6916 101.388 21.1283 101.388 21.1283C101.388 21.1283 102.307 19.9311 101.388 19.5086C100.468 19.086 100.186 20.6353 100.186 20.6353C100.186 20.6353 99.9734 20.6353 99.6198 20.7057C99.2663 20.8466 99.2663 20.8466 99.2663 20.8466L98.9834 20.7761C98.9834 20.6353 98.9127 20.424 99.0541 20.2128C99.1955 20.0719 100.256 19.4381 100.115 18.8043C99.9734 18.0297 99.337 18.1001 98.7713 18.0297C98.4884 18.0297 98.1349 17.8184 97.9935 17.6072C98.2763 17.5367 98.5592 17.2551 98.5592 16.9029C98.5592 16.4804 98.2056 16.1987 97.852 16.1987C97.4985 16.1987 97.1449 16.5508 97.1449 16.9029C97.1449 17.0438 97.1449 17.1142 97.2156 17.1846C97.0035 17.1846 96.5792 17.1142 96.2964 16.9734C95.8721 16.6917 95.3771 16.1987 94.8115 16.6917C94.3165 17.1142 94.7408 18.241 94.67 18.4522C94.67 18.6635 94.4579 18.8043 94.3872 18.8748L94.1043 18.8043C94.1043 18.8043 94.1044 18.8043 93.8922 18.5226C93.6801 18.241 93.5387 18.1001 93.5387 18.1001C93.5387 18.1001 94.3165 16.7621 93.3265 16.4804C92.3366 16.1987 92.2659 17.6776 92.2659 17.6776C92.2659 17.6776 91.3466 17.6072 90.7102 18.5226C89.9324 19.6494 90.7102 20.7057 90.7102 20.7057C90.7102 20.7057 88.6596 26.9733 88.7303 27.255ZM93.3265 17.4663C93.2558 17.6776 93.0437 17.8184 92.9023 17.748C92.7608 17.6776 92.6901 17.4663 92.7608 17.2551C92.8316 17.0438 93.0437 16.9029 93.1851 16.9734C93.3972 16.9734 93.3972 17.2551 93.3265 17.4663ZM98.5592 20.0719C98.2056 20.2128 97.852 20.3536 97.852 20.3536C97.852 20.3536 98.7006 19.8607 98.9834 19.4381C99.2663 18.9452 98.9834 18.5931 98.7713 18.5226C98.5592 18.3818 98.1349 18.3114 98.1349 18.3114C98.1349 18.3114 98.5592 18.7339 98.4884 19.2973C98.4177 19.579 98.2056 19.9311 97.7106 20.0015C97.4985 20.0015 97.3571 20.0719 97.3571 20.0719C97.3571 20.0719 97.7813 19.6494 97.9935 19.2973C98.0642 19.1564 98.0642 18.9452 98.0642 18.8043C98.0642 18.8043 98.0642 18.8043 98.0642 18.7339C98.0642 18.1705 97.6399 17.748 97.0742 17.748C96.7914 17.748 96.5085 17.8889 96.3671 18.0297C96.2257 18.1705 96.155 18.3114 96.0843 18.4522C95.9428 18.8748 96.0136 19.4381 96.0136 19.4381C96.0136 19.4381 95.9428 19.2973 95.8014 19.1564C95.4479 18.7339 95.5893 18.3114 95.7307 18.1001C96.0136 17.6072 96.65 17.5367 96.65 17.5367C96.65 17.5367 96.2964 17.3255 96.0136 17.3255C95.8014 17.3255 95.3064 17.3959 95.2357 17.8889C95.165 18.4522 95.5186 19.3677 95.5186 19.3677C95.5186 19.3677 95.3064 19.0156 95.165 18.7339C95.0236 18.4522 94.8115 17.3959 95.0943 17.1142C95.3771 16.8325 95.7307 17.0438 96.2257 17.2551C96.7207 17.4663 97.0742 17.3959 97.2863 17.3255C97.4278 17.5367 97.6399 17.6776 97.852 17.6776H97.9228C98.0642 17.8889 98.2763 18.1705 98.7713 18.3114C99.337 18.4522 99.6905 18.5226 99.6905 18.9452C99.6905 19.2973 98.9127 19.9311 98.5592 20.0719ZM100.68 20.2128C100.751 20.0015 100.963 19.8607 101.105 19.8607C101.246 19.8607 101.317 20.1424 101.246 20.3536C101.175 20.5649 100.963 20.7057 100.822 20.7057C100.68 20.7057 100.61 20.4945 100.68 20.2128ZM97.9935 28.0296L99.832 22.5367C99.832 22.5367 99.832 21.5508 100.398 21.7621C101.034 22.0437 100.256 22.748 100.256 22.748L97.9935 28.0296ZM90.8516 26.8324C91.3466 25.7057 93.468 20.1424 93.468 20.1424L96.155 21.1987L98.842 22.1846C98.842 22.1846 96.7914 27.7479 96.4378 28.9451C96.2257 29.1563 95.8721 29.2972 95.3064 29.0859C94.1751 28.7338 93.5387 28.7338 93.1851 28.8042C93.0437 28.593 92.6901 28.1 91.488 27.6071C91.0638 27.4662 90.9223 27.1845 90.8516 26.8324ZM90.286 25.1423L92.0537 19.6494C92.0537 19.6494 91.9123 18.5931 92.6194 18.8748C93.1851 19.086 92.5487 19.7902 92.5487 19.7902L90.286 25.1423Z" fill="#9F6620"/>
<path d="M98.2771 22.2534L98.4185 23.521L97.4285 24.3661L97.2871 23.0985L98.2771 22.2534Z" fill="#C32420"/>
<path d="M96.2266 22.6727L97.1458 21.8276L97.2872 23.0952L96.368 23.9403L96.2266 22.6727Z" fill="#C32420"/>
<path d="M95.166 22.2508L96.0853 21.4058L96.2267 22.6734L95.3074 23.5888L95.166 22.2508Z" fill="#C32420"/>
<path d="M94.0352 21.8999L95.0251 20.9844L95.1665 22.252L94.1766 23.1674L94.0352 21.8999Z" fill="#C32420"/>
<path d="M97.429 24.3628L97.5704 25.6304L96.6512 26.5459L96.5098 25.2783L97.429 24.3628Z" fill="#C32420"/>
<path d="M96.5099 25.2789L95.5906 26.124L95.4492 24.8564L96.3685 23.9409L96.5099 25.2789Z" fill="#C32420"/>
<path d="M95.4497 24.8574L94.4598 25.7025L94.3184 24.4349L95.3083 23.5898L95.4497 24.8574Z" fill="#C32420"/>
<path d="M94.3165 24.4351L93.3973 25.2801L93.2559 24.0125L94.1751 23.1675L94.3165 24.4351Z" fill="#C32420"/>
<path d="M96.7915 27.814L95.8016 28.659L95.6602 27.3914L96.6501 26.5464L96.7915 27.814Z" fill="#C32420"/>
<path d="M95.6603 27.3926L94.741 28.2377L94.5996 26.9701L95.5896 26.125L95.6603 27.3926Z" fill="#C32420"/>
<path d="M94.5997 26.9702L93.6805 27.8857L93.5391 26.6181L94.4583 25.7026L94.5997 26.9702Z" fill="#C32420"/>
<path d="M93.5396 26.6183L92.5496 27.4634L92.4082 26.1958L93.3982 25.2803L93.5396 26.6183Z" fill="#C32420"/>
<path d="M92.9746 21.4774L93.8939 20.6323L94.0353 21.8999L93.116 22.745L92.9746 21.4774Z" fill="#C32420"/>
<path d="M93.1146 22.7451L93.256 24.0127L92.3367 24.9282L92.1953 23.6606L93.1146 22.7451Z" fill="#C32420"/>
<path d="M91.4891 27.0418L91.3477 25.7743L92.3376 24.9292L92.4083 26.1968L91.4891 27.0418Z" fill="#C32420"/>
</g>
<path d="M103 70.5L55 70.5" stroke="black" stroke-width="0.9817" stroke-miterlimit="10"/>
<defs>
<clipPath id="clip0_6131_8866">
<rect width="129.048" height="51.6191" fill="white" transform="translate(13)"/>
</clipPath>
</defs>
</svg>
