<svg width="330" height="53" viewBox="0 0 330 53" fill="none" xmlns="http://www.w3.org/2000/svg">
<path d="M173.105 20.7896C173.105 21.3494 173.007 21.8403 172.809 22.2622C172.611 22.6841 172.327 23.0096 171.957 23.2388C171.59 23.4679 171.168 23.5825 170.691 23.5825C170.22 23.5825 169.799 23.4692 169.43 23.2427C169.06 23.0161 168.773 22.6932 168.57 22.2739C168.367 21.8521 168.264 21.3677 168.262 20.8208V20.5396C168.262 19.9797 168.362 19.4875 168.562 19.063C168.766 18.6359 169.051 18.3091 169.418 18.0825C169.788 17.8534 170.21 17.7388 170.684 17.7388C171.158 17.7388 171.578 17.8534 171.945 18.0825C172.315 18.3091 172.6 18.6359 172.801 19.063C173.004 19.4875 173.105 19.9784 173.105 20.5356V20.7896ZM171.918 20.5317C171.918 19.9354 171.811 19.4823 171.598 19.1724C171.384 18.8625 171.079 18.7075 170.684 18.7075C170.29 18.7075 169.987 18.8612 169.773 19.1685C169.56 19.4731 169.452 19.9211 169.449 20.5122V20.7896C169.449 21.3703 169.556 21.8208 169.77 22.1411C169.983 22.4614 170.29 22.6216 170.691 22.6216C171.085 22.6216 171.387 22.4679 171.598 22.1606C171.809 21.8507 171.915 21.4002 171.918 20.8091V20.5317ZM179.139 21.1802H176.889V23.5044H175.717V17.8169H179.42V18.7661H176.889V20.2349H179.139V21.1802ZM185.282 21.1802H183.032V23.5044H181.86V17.8169H185.563V18.7661H183.032V20.2349H185.282V21.1802ZM189.249 23.5044H188.077V17.8169H189.249V23.5044ZM196.563 21.6099C196.519 22.2218 196.293 22.7036 195.884 23.0552C195.478 23.4067 194.941 23.5825 194.274 23.5825C193.545 23.5825 192.971 23.3377 192.552 22.8481C192.135 22.356 191.927 21.6815 191.927 20.8247V20.4771C191.927 19.9302 192.023 19.4484 192.216 19.0317C192.408 18.6151 192.683 18.2961 193.04 18.0747C193.399 17.8507 193.816 17.7388 194.29 17.7388C194.946 17.7388 195.475 17.9146 195.876 18.2661C196.277 18.6177 196.509 19.1112 196.571 19.7466H195.399C195.371 19.3794 195.268 19.1138 195.091 18.9497C194.916 18.783 194.649 18.6997 194.29 18.6997C193.899 18.6997 193.606 18.8403 193.411 19.1216C193.218 19.4002 193.119 19.8338 193.114 20.4224V20.8521C193.114 21.4666 193.207 21.9159 193.392 22.1997C193.579 22.4836 193.873 22.6255 194.274 22.6255C194.636 22.6255 194.906 22.5435 195.083 22.3794C195.263 22.2127 195.366 21.9562 195.392 21.6099H196.563ZM200.339 23.5044H199.167V17.8169H200.339V23.5044ZM206.47 22.3325H204.415L204.025 23.5044H202.779L204.896 17.8169H205.982L208.111 23.5044H206.865L206.47 22.3325ZM204.732 21.3833H206.154L205.439 19.2544L204.732 21.3833ZM211.574 22.563H214.062V23.5044H210.402V17.8169H211.574V22.563ZM221.781 17.8169L223.242 21.9419L224.695 17.8169H226.235V23.5044H225.059V21.9497L225.176 19.2661L223.641 23.5044H222.836L221.305 19.27L221.422 21.9497V23.5044H220.25V17.8169H221.781ZM232.299 22.3325H230.245L229.854 23.5044H228.608L230.725 17.8169H231.811L233.94 23.5044H232.694L232.299 22.3325ZM230.561 21.3833H231.983L231.268 19.2544L230.561 21.3833ZM237.477 23.5044H236.305V17.8169H237.477V23.5044ZM244.952 23.5044H243.78L241.499 19.7622V23.5044H240.327V17.8169H241.499L243.784 21.5669V17.8169H244.952V23.5044ZM254.437 22.0122C254.437 21.7909 254.359 21.6216 254.202 21.5044C254.046 21.3846 253.765 21.2596 253.359 21.1294C252.952 20.9966 252.631 20.8664 252.394 20.7388C251.748 20.3898 251.425 19.9198 251.425 19.3286C251.425 19.0213 251.511 18.7479 251.683 18.5083C251.857 18.2661 252.106 18.0773 252.429 17.9419C252.755 17.8065 253.119 17.7388 253.523 17.7388C253.929 17.7388 254.291 17.813 254.609 17.9614C254.926 18.1073 255.173 18.3143 255.347 18.5825C255.524 18.8507 255.613 19.1554 255.613 19.4966H254.441C254.441 19.2362 254.359 19.0343 254.195 18.8911C254.031 18.7453 253.8 18.6724 253.503 18.6724C253.217 18.6724 252.994 18.7336 252.835 18.856C252.676 18.9757 252.597 19.1346 252.597 19.3325C252.597 19.5174 252.689 19.6724 252.874 19.7974C253.062 19.9224 253.337 20.0396 253.699 20.1489C254.365 20.3494 254.851 20.5981 255.156 20.895C255.46 21.1919 255.613 21.5617 255.613 22.0044C255.613 22.4966 255.426 22.8833 255.054 23.1646C254.682 23.4432 254.18 23.5825 253.55 23.5825C253.113 23.5825 252.714 23.5031 252.355 23.3442C251.995 23.1828 251.721 22.9627 251.531 22.6841C251.343 22.4054 251.249 22.0825 251.249 21.7153H252.425C252.425 22.3429 252.8 22.6567 253.55 22.6567C253.829 22.6567 254.046 22.6007 254.202 22.4888C254.359 22.3742 254.437 22.2153 254.437 22.0122ZM259.341 21.5005V23.5044H258.17V17.8169H260.388C260.815 17.8169 261.19 17.895 261.513 18.0513C261.839 18.2075 262.089 18.4302 262.263 18.7192C262.438 19.0057 262.525 19.3325 262.525 19.6997C262.525 20.257 262.334 20.6971 261.951 21.02C261.571 21.3403 261.043 21.5005 260.369 21.5005H259.341ZM259.341 20.5513H260.388C260.698 20.5513 260.934 20.4784 261.095 20.3325C261.259 20.1867 261.341 19.9784 261.341 19.7075C261.341 19.4289 261.259 19.2036 261.095 19.0317C260.931 18.8599 260.705 18.7713 260.416 18.7661H259.341V20.5513ZM269.765 20.7896C269.765 21.3494 269.667 21.8403 269.469 22.2622C269.271 22.6841 268.987 23.0096 268.617 23.2388C268.25 23.4679 267.828 23.5825 267.351 23.5825C266.88 23.5825 266.459 23.4692 266.09 23.2427C265.72 23.0161 265.433 22.6932 265.23 22.2739C265.027 21.8521 264.924 21.3677 264.922 20.8208V20.5396C264.922 19.9797 265.022 19.4875 265.223 19.063C265.426 18.6359 265.711 18.3091 266.078 18.0825C266.448 17.8534 266.87 17.7388 267.344 17.7388C267.818 17.7388 268.238 17.8534 268.605 18.0825C268.975 18.3091 269.26 18.6359 269.461 19.063C269.664 19.4875 269.765 19.9784 269.765 20.5356V20.7896ZM268.578 20.5317C268.578 19.9354 268.471 19.4823 268.258 19.1724C268.044 18.8625 267.739 18.7075 267.344 18.7075C266.95 18.7075 266.647 18.8612 266.433 19.1685C266.22 19.4731 266.112 19.9211 266.109 20.5122V20.7896C266.109 21.3703 266.216 21.8208 266.43 22.1411C266.643 22.4614 266.95 22.6216 267.351 22.6216C267.745 22.6216 268.047 22.4679 268.258 22.1606C268.469 21.8507 268.575 21.4002 268.578 20.8091V20.5317ZM277.002 23.5044H275.83L273.549 19.7622V23.5044H272.377V17.8169H273.549L275.834 21.5669V17.8169H277.002V23.5044ZM282.735 22.0122C282.735 21.7909 282.657 21.6216 282.5 21.5044C282.344 21.3846 282.063 21.2596 281.657 21.1294C281.25 20.9966 280.929 20.8664 280.692 20.7388C280.046 20.3898 279.723 19.9198 279.723 19.3286C279.723 19.0213 279.809 18.7479 279.981 18.5083C280.155 18.2661 280.404 18.0773 280.727 17.9419C281.052 17.8065 281.417 17.7388 281.821 17.7388C282.227 17.7388 282.589 17.813 282.907 17.9614C283.224 18.1073 283.47 18.3143 283.645 18.5825C283.822 18.8507 283.91 19.1554 283.91 19.4966H282.739C282.739 19.2362 282.657 19.0343 282.493 18.8911C282.328 18.7453 282.098 18.6724 281.801 18.6724C281.515 18.6724 281.292 18.7336 281.133 18.856C280.974 18.9757 280.895 19.1346 280.895 19.3325C280.895 19.5174 280.987 19.6724 281.172 19.7974C281.36 19.9224 281.634 20.0396 281.996 20.1489C282.663 20.3494 283.149 20.5981 283.453 20.895C283.758 21.1919 283.91 21.5617 283.91 22.0044C283.91 22.4966 283.724 22.8833 283.352 23.1646C282.979 23.4432 282.478 23.5825 281.848 23.5825C281.41 23.5825 281.012 23.5031 280.653 23.3442C280.293 23.1828 280.019 22.9627 279.828 22.6841C279.641 22.4054 279.547 22.0825 279.547 21.7153H280.723C280.723 22.3429 281.098 22.6567 281.848 22.6567C282.127 22.6567 282.344 22.6007 282.5 22.4888C282.657 22.3742 282.735 22.2153 282.735 22.0122ZM291.139 20.7896C291.139 21.3494 291.04 21.8403 290.842 22.2622C290.644 22.6841 290.361 23.0096 289.991 23.2388C289.624 23.4679 289.202 23.5825 288.725 23.5825C288.254 23.5825 287.833 23.4692 287.463 23.2427C287.094 23.0161 286.807 22.6932 286.604 22.2739C286.401 21.8521 286.298 21.3677 286.295 20.8208V20.5396C286.295 19.9797 286.396 19.4875 286.596 19.063C286.799 18.6359 287.085 18.3091 287.452 18.0825C287.822 17.8534 288.243 17.7388 288.717 17.7388C289.191 17.7388 289.612 17.8534 289.979 18.0825C290.349 18.3091 290.634 18.6359 290.835 19.063C291.038 19.4875 291.139 19.9784 291.139 20.5356V20.7896ZM289.952 20.5317C289.952 19.9354 289.845 19.4823 289.631 19.1724C289.418 18.8625 289.113 18.7075 288.717 18.7075C288.324 18.7075 288.021 18.8612 287.807 19.1685C287.594 19.4731 287.486 19.9211 287.483 20.5122V20.7896C287.483 21.3703 287.59 21.8208 287.803 22.1411C288.017 22.4614 288.324 22.6216 288.725 22.6216C289.118 22.6216 289.42 22.4679 289.631 22.1606C289.842 21.8507 289.949 21.4002 289.952 20.8091V20.5317ZM295.856 21.4224H294.923V23.5044H293.751V17.8169H295.864C296.536 17.8169 297.054 17.9666 297.419 18.2661C297.783 18.5656 297.966 18.9888 297.966 19.5356C297.966 19.9237 297.881 20.2479 297.712 20.5083C297.545 20.7661 297.291 20.9718 296.95 21.1255L298.18 23.4497V23.5044H296.923L295.856 21.4224ZM294.923 20.4731H295.868C296.162 20.4731 296.39 20.3989 296.552 20.2505C296.713 20.0994 296.794 19.8924 296.794 19.6294C296.794 19.3612 296.717 19.1502 296.563 18.9966C296.412 18.8429 296.179 18.7661 295.864 18.7661H294.923V20.4731ZM309.044 20.7896C309.044 21.3494 308.945 21.8403 308.747 22.2622C308.549 22.6841 308.266 23.0096 307.896 23.2388C307.529 23.4679 307.107 23.5825 306.63 23.5825C306.159 23.5825 305.738 23.4692 305.368 23.2427C304.999 23.0161 304.712 22.6932 304.509 22.2739C304.306 21.8521 304.203 21.3677 304.2 20.8208V20.5396C304.2 19.9797 304.301 19.4875 304.501 19.063C304.704 18.6359 304.99 18.3091 305.357 18.0825C305.727 17.8534 306.148 17.7388 306.622 17.7388C307.096 17.7388 307.517 17.8534 307.884 18.0825C308.254 18.3091 308.539 18.6359 308.74 19.063C308.943 19.4875 309.044 19.9784 309.044 20.5356V20.7896ZM307.857 20.5317C307.857 19.9354 307.75 19.4823 307.536 19.1724C307.323 18.8625 307.018 18.7075 306.622 18.7075C306.229 18.7075 305.926 18.8612 305.712 19.1685C305.499 19.4731 305.391 19.9211 305.388 20.5122V20.7896C305.388 21.3703 305.495 21.8208 305.708 22.1411C305.922 22.4614 306.229 22.6216 306.63 22.6216C307.023 22.6216 307.325 22.4679 307.536 22.1606C307.747 21.8507 307.854 21.4002 307.857 20.8091V20.5317ZM315.078 21.1802H312.828V23.5044H311.656V17.8169H315.359V18.7661H312.828V20.2349H315.078V21.1802ZM170.395 30.3794L171.578 27.8169H172.859L170.992 31.4419V33.5044H169.801V31.4419L167.934 27.8169H169.219L170.395 30.3794ZM177.764 32.3325H175.709L175.319 33.5044H174.073L176.19 27.8169H177.276L179.405 33.5044H178.158L177.764 32.3325ZM176.026 31.3833H177.448L176.733 29.2544L176.026 31.3833ZM186.075 31.6099C186.03 32.2218 185.804 32.7036 185.395 33.0552C184.989 33.4067 184.452 33.5825 183.786 33.5825C183.056 33.5825 182.482 33.3377 182.063 32.8481C181.646 32.356 181.438 31.6815 181.438 30.8247V30.4771C181.438 29.9302 181.534 29.4484 181.727 29.0317C181.92 28.6151 182.194 28.2961 182.551 28.0747C182.911 27.8507 183.327 27.7388 183.801 27.7388C184.458 27.7388 184.986 27.9146 185.387 28.2661C185.788 28.6177 186.02 29.1112 186.083 29.7466H184.911C184.882 29.3794 184.779 29.1138 184.602 28.9497C184.428 28.783 184.161 28.6997 183.801 28.6997C183.411 28.6997 183.118 28.8403 182.922 29.1216C182.73 29.4002 182.631 29.8338 182.625 30.4224V30.8521C182.625 31.4666 182.718 31.9159 182.903 32.1997C183.09 32.4836 183.385 32.6255 183.786 32.6255C184.148 32.6255 184.417 32.5435 184.594 32.3794C184.774 32.2127 184.877 31.9562 184.903 31.6099H186.075ZM193.233 33.5044H192.061V31.0669H189.776V33.5044H188.604V27.8169H189.776V30.1216H192.061V27.8169H193.233V33.5044ZM200.185 28.7661H198.442V33.5044H197.27V28.7661H195.552V27.8169H200.185V28.7661ZM210.599 31.6099C210.555 32.2218 210.328 32.7036 209.919 33.0552C209.513 33.4067 208.977 33.5825 208.31 33.5825C207.581 33.5825 207.007 33.3377 206.587 32.8481C206.171 32.356 205.962 31.6815 205.962 30.8247V30.4771C205.962 29.9302 206.059 29.4484 206.251 29.0317C206.444 28.6151 206.719 28.2961 207.076 28.0747C207.435 27.8507 207.852 27.7388 208.326 27.7388C208.982 27.7388 209.511 27.9146 209.912 28.2661C210.313 28.6177 210.544 29.1112 210.607 29.7466H209.435C209.406 29.3794 209.303 29.1138 209.126 28.9497C208.952 28.783 208.685 28.6997 208.326 28.6997C207.935 28.6997 207.642 28.8403 207.447 29.1216C207.254 29.4002 207.155 29.8338 207.15 30.4224V30.8521C207.15 31.4666 207.242 31.9159 207.427 32.1997C207.615 32.4836 207.909 32.6255 208.31 32.6255C208.672 32.6255 208.942 32.5435 209.119 32.3794C209.298 32.2127 209.401 31.9562 209.427 31.6099H210.599ZM214.3 32.563H216.789V33.5044H213.129V27.8169H214.3V32.563ZM223.435 27.8169V31.563C223.435 32.1854 223.24 32.6776 222.85 33.0396C222.462 33.4015 221.93 33.5825 221.256 33.5825C220.592 33.5825 220.064 33.4067 219.674 33.0552C219.283 32.7036 219.084 32.2205 219.076 31.606V27.8169H220.248V31.5708C220.248 31.9432 220.337 32.2153 220.514 32.3872C220.693 32.5565 220.941 32.6411 221.256 32.6411C221.915 32.6411 222.249 32.2948 222.26 31.6021V27.8169H223.435ZM226.156 33.5044V27.8169H228.149C228.839 27.8169 229.362 27.9497 229.719 28.2153C230.076 28.4784 230.254 28.8651 230.254 29.3755C230.254 29.6541 230.182 29.9002 230.039 30.1138C229.896 30.3247 229.697 30.4797 229.442 30.5786C229.733 30.6515 229.962 30.7987 230.129 31.02C230.298 31.2414 230.383 31.5122 230.383 31.8325C230.383 32.3794 230.208 32.7935 229.86 33.0747C229.511 33.356 229.013 33.4992 228.367 33.5044H226.156ZM227.328 31.0278V32.563H228.332C228.608 32.563 228.823 32.4979 228.977 32.3677C229.133 32.2349 229.211 32.0526 229.211 31.8208C229.211 31.3 228.942 31.0356 228.403 31.0278H227.328ZM227.328 30.1997H228.195C228.787 30.1893 229.082 29.9536 229.082 29.4927C229.082 29.2349 229.007 29.05 228.856 28.938C228.707 28.8234 228.472 28.7661 228.149 28.7661H227.328V30.1997ZM236.778 33.5044V27.8169H238.528C239.028 27.8169 239.475 27.9302 239.868 28.1567C240.264 28.3807 240.572 28.701 240.794 29.1177C241.015 29.5317 241.126 30.0031 241.126 30.5317V30.7935C241.126 31.3221 241.016 31.7922 240.798 32.2036C240.581 32.6151 240.275 32.9341 239.88 33.1606C239.484 33.3872 239.037 33.5018 238.54 33.5044H236.778ZM237.95 28.7661V32.563H238.516C238.975 32.563 239.325 32.4132 239.567 32.1138C239.809 31.8143 239.933 31.3859 239.938 30.8286V30.5278C239.938 29.9497 239.818 29.5122 239.579 29.2153C239.339 28.9159 238.989 28.7661 238.528 28.7661H237.95ZM247.163 31.0396H244.913V32.563H247.554V33.5044H243.741V27.8169H247.546V28.7661H244.913V30.1216H247.163V31.0396ZM255.285 27.8169L256.745 31.9419L258.199 27.8169H259.738V33.5044H258.562V31.9497L258.679 29.2661L257.144 33.5044H256.339L254.808 29.27L254.925 31.9497V33.5044H253.753V27.8169H255.285ZM267.193 30.7896C267.193 31.3494 267.094 31.8403 266.896 32.2622C266.698 32.6841 266.414 33.0096 266.045 33.2388C265.677 33.4679 265.255 33.5825 264.779 33.5825C264.308 33.5825 263.887 33.4692 263.517 33.2427C263.147 33.0161 262.861 32.6932 262.658 32.2739C262.455 31.8521 262.352 31.3677 262.349 30.8208V30.5396C262.349 29.9797 262.449 29.4875 262.65 29.063C262.853 28.6359 263.138 28.3091 263.505 28.0825C263.875 27.8534 264.297 27.7388 264.771 27.7388C265.245 27.7388 265.666 27.8534 266.033 28.0825C266.403 28.3091 266.688 28.6359 266.888 29.063C267.091 29.4875 267.193 29.9784 267.193 30.5356V30.7896ZM266.005 30.5317C266.005 29.9354 265.899 29.4823 265.685 29.1724C265.472 28.8625 265.167 28.7075 264.771 28.7075C264.378 28.7075 264.074 28.8612 263.861 29.1685C263.647 29.4731 263.539 29.9211 263.537 30.5122V30.7896C263.537 31.3703 263.643 31.8208 263.857 32.1411C264.071 32.4614 264.378 32.6216 264.779 32.6216C265.172 32.6216 265.474 32.4679 265.685 32.1606C265.896 31.8507 266.003 31.4002 266.005 30.8091V30.5317ZM274.43 33.5044H273.258L270.976 29.7622V33.5044H269.805V27.8169H270.976L273.262 31.5669V27.8169H274.43V33.5044ZM280.494 32.3325H278.44L278.049 33.5044H276.803L278.92 27.8169H280.006L282.135 33.5044H280.889L280.494 32.3325ZM278.756 31.3833H280.178L279.463 29.2544L278.756 31.3833ZM288.805 31.6099C288.761 32.2218 288.534 32.7036 288.125 33.0552C287.719 33.4067 287.183 33.5825 286.516 33.5825C285.787 33.5825 285.213 33.3377 284.793 32.8481C284.377 32.356 284.168 31.6815 284.168 30.8247V30.4771C284.168 29.9302 284.265 29.4484 284.457 29.0317C284.65 28.6151 284.925 28.2961 285.282 28.0747C285.641 27.8507 286.058 27.7388 286.532 27.7388C287.188 27.7388 287.716 27.9146 288.118 28.2661C288.519 28.6177 288.75 29.1112 288.813 29.7466H287.641C287.612 29.3794 287.509 29.1138 287.332 28.9497C287.158 28.783 286.891 28.6997 286.532 28.6997C286.141 28.6997 285.848 28.8403 285.653 29.1216C285.46 29.4002 285.361 29.8338 285.356 30.4224V30.8521C285.356 31.4666 285.448 31.9159 285.633 32.1997C285.821 32.4836 286.115 32.6255 286.516 32.6255C286.878 32.6255 287.147 32.5435 287.325 32.3794C287.504 32.2127 287.607 31.9562 287.633 31.6099H288.805ZM296.006 30.7896C296.006 31.3494 295.907 31.8403 295.71 32.2622C295.512 32.6841 295.228 33.0096 294.858 33.2388C294.491 33.4679 294.069 33.5825 293.592 33.5825C293.121 33.5825 292.7 33.4692 292.331 33.2427C291.961 33.0161 291.674 32.6932 291.471 32.2739C291.268 31.8521 291.165 31.3677 291.163 30.8208V30.5396C291.163 29.9797 291.263 29.4875 291.463 29.063C291.667 28.6359 291.952 28.3091 292.319 28.0825C292.689 27.8534 293.111 27.7388 293.585 27.7388C294.058 27.7388 294.479 27.8534 294.846 28.0825C295.216 28.3091 295.501 28.6359 295.702 29.063C295.905 29.4875 296.006 29.9784 296.006 30.5356V30.7896ZM294.819 30.5317C294.819 29.9354 294.712 29.4823 294.499 29.1724C294.285 28.8625 293.98 28.7075 293.585 28.7075C293.191 28.7075 292.888 28.8612 292.674 29.1685C292.461 29.4731 292.353 29.9211 292.35 30.5122V30.7896C292.35 31.3703 292.457 31.8208 292.67 32.1411C292.884 32.4614 293.191 32.6216 293.592 32.6216C293.986 32.6216 294.288 32.4679 294.499 32.1606C294.71 31.8507 294.816 31.4002 294.819 30.8091V30.5317Z" fill="black"/>
<path d="M111.165 42.931C109.571 42.7924 108.184 42.1685 106.659 41.5445C104.718 40.782 102.777 39.9501 100.073 39.7421C99.7958 39.7421 99.5185 39.7421 99.2412 39.7421C97.5774 39.7421 96.2602 40.0887 95.0817 40.366C93.2793 40.8513 91.6848 41.1979 89.2584 40.2967C87.4559 39.6728 86.0694 38.6329 84.5443 37.593L84.1977 37.385C81.9793 35.8599 79.8995 34.612 76.9879 34.1268C72.6204 33.3642 69.1541 33.9188 68.0449 34.1268L68.9462 31.6311C69.5008 31.2844 73.2443 28.5807 75.6014 20.539C77.6811 13.4679 77.6811 9.1004 77.6118 7.92188C78.721 8.06053 82.9498 8.61513 86.9707 11.9427C88.9811 13.6065 90.1596 14.993 91.1302 16.2409C91.4075 16.5875 91.6848 16.9341 92.0314 17.2808C93.1406 18.5286 94.2498 19.5685 96.2602 20.6777C98.4786 21.9255 100.004 22.3415 101.321 22.6881C102.707 23.1041 103.817 23.3814 105.272 24.5599C107.768 26.501 109.571 28.5807 111.096 30.4525C112.552 32.1857 113.799 33.6415 115.255 34.612C116.711 35.5826 118.375 36.4838 119.969 37.385C121.772 38.3556 123.505 39.3261 124.614 40.2274C126.07 41.4059 126.694 42.2378 126.971 42.7231C125.723 42.5151 121.841 41.9605 119.553 41.9605C119.207 41.9605 118.93 41.9605 118.652 42.0298C117.82 42.0991 117.127 42.2378 116.364 42.4458C115.117 42.8617 113.522 43.2083 111.165 42.931Z" fill="#FCFFFB"/>
<path d="M12.3079 42.5849C11.5453 42.4463 10.7828 42.3076 10.0202 42.169C9.74288 42.169 9.46558 42.0997 9.11896 42.0997C6.83123 42.0997 2.94902 42.6543 1.70117 42.8622C1.97847 42.377 2.6024 41.545 4.05822 40.3665C5.23675 39.4653 6.90055 38.4947 8.703 37.5242C10.2975 36.623 11.9613 35.7217 13.4171 34.7512C14.9423 33.7113 16.1901 32.2555 17.5766 30.5917C19.1018 28.7199 20.9042 26.6402 23.3999 24.6991C24.8557 23.5205 25.9649 23.2432 27.3514 22.8273C28.6686 22.4807 30.1938 21.9954 32.4122 20.8169C34.4226 19.7077 35.6011 18.6678 36.641 17.4199C36.9183 17.0733 37.1956 16.7267 37.5422 16.38C38.5821 15.1322 39.6913 13.7457 41.7017 12.0819C45.7226 8.75429 49.8821 8.19969 51.0606 8.06104C50.9913 9.17024 50.9913 13.607 53.0711 20.6782C55.4974 28.7199 59.1717 31.3543 59.7263 31.7702L60.6275 34.2659C59.5183 34.0579 56.052 33.5033 51.6846 34.2659C48.7729 34.7512 46.6931 36.0684 44.4747 37.5242L44.1281 37.7322C42.603 38.772 41.1471 39.7426 39.414 40.4358C36.9876 41.3371 35.3932 40.9211 33.5907 40.5052C32.4122 40.2279 31.095 39.8812 29.4312 39.8812C29.1539 39.8812 28.8766 39.8812 28.5993 39.8812C25.8956 40.0199 23.8852 40.8518 22.0134 41.6837C20.4883 42.3076 19.1018 42.8622 17.5073 43.0702C15.3582 43.2089 13.8331 42.8622 12.3079 42.5849Z" fill="#FCFFFB"/>
<path d="M60.3501 31.4923L60.2808 31.423C60.2114 31.423 56.2599 28.9966 53.7642 20.539C51.3378 12.428 51.7538 7.8525 51.7538 7.8525V7.5752H51.4765C51.4072 7.5752 46.3464 7.8525 41.6323 11.7347C39.5526 13.4678 38.374 14.8543 37.4035 16.1022C37.1262 16.4488 36.8489 16.7954 36.5023 17.1421C35.4624 18.3206 34.3532 19.3605 32.3428 20.4003C30.1243 21.5789 28.6685 21.9948 27.3513 22.4108C25.8955 22.8267 24.7863 23.1733 23.1918 24.3519C20.6268 26.293 18.8937 28.442 17.2992 30.3138C15.9127 31.9776 14.6649 33.4335 13.209 34.404C11.7532 35.3746 10.1587 36.2758 8.56425 37.177C6.76179 38.1476 5.02867 39.1181 3.85014 40.0887C1.56241 41.9604 1.14646 43.139 1.14646 43.2083L1.00781 43.4856L1.35444 43.4163C1.42376 43.4163 7.5937 42.4457 9.95075 42.6537C10.7133 42.723 11.4759 42.8617 12.2385 43.0003C13.3477 43.2083 14.5955 43.4856 16.1207 43.4856C16.6753 43.4856 17.2299 43.4856 17.8538 43.4163C19.5176 43.2776 20.9041 42.6537 22.4293 42.0298C24.301 41.2672 26.2421 40.4353 28.8765 40.2966C30.8869 40.158 32.3428 40.5046 33.7293 40.8512H33.7986C35.7397 41.3365 37.3342 41.7525 39.8992 40.7819C41.7016 40.0887 43.2961 39.0488 44.7519 38.0782L45.0292 37.8703C47.1783 36.4144 49.1887 35.1666 52.0311 34.6813C57.2305 33.7801 61.1127 34.7506 61.182 34.7506L61.5979 34.8893L60.3501 31.4923ZM33.7986 40.4353C32.4121 40.0887 30.8869 39.742 28.8072 39.8114C26.1035 39.95 24.0931 40.7819 22.2213 41.6138C20.6961 42.2377 19.3096 42.7923 17.7845 43.0003C15.4274 43.2776 13.833 42.931 12.3771 42.6537C11.6145 42.515 10.9213 42.3764 10.0894 42.2377C9.8121 42.2377 9.5348 42.1684 9.18817 42.1684C6.90044 42.1684 3.01824 42.723 1.77039 42.931C2.04769 42.4457 2.67161 41.6138 4.12744 40.4353C5.30597 39.5341 6.96977 38.5635 8.77222 37.593C10.3667 36.6917 12.0305 35.7905 13.4863 34.82C15.0115 33.7801 16.2593 32.3242 17.6458 30.6604C19.171 28.7887 20.9734 26.7089 23.4691 24.7678C24.925 23.5893 26.0342 23.312 27.4207 22.896C28.7378 22.5494 30.263 22.0641 32.4814 20.8856C34.4918 19.7764 35.6704 18.7365 36.7102 17.4887C36.9875 17.1421 37.2648 16.7954 37.6115 16.4488C38.6513 15.201 39.7605 13.8145 41.771 12.1507C45.7918 8.82305 49.9513 8.26845 51.1298 8.1298C51.0605 9.239 51.0605 13.6758 53.1403 20.747C55.5667 28.7887 59.2409 31.423 59.7955 31.839L60.6967 34.3347C59.5875 34.1267 56.1213 33.5721 51.7538 34.3347C48.8421 34.82 46.7624 36.1371 44.544 37.593L44.2667 37.8009C42.7415 38.8408 41.2857 39.8114 39.5526 40.5046C37.2648 41.2672 35.6704 40.8512 33.7986 40.4353Z" fill="#C32420"/>
<path d="M36.6409 17.2808C35.6011 18.4593 34.4919 19.4992 32.4814 20.6084C27.8367 23.1041 26.3115 22.2722 23.3999 24.4906C18.6164 28.2341 16.5367 32.3936 13.417 34.5427C10.2281 36.6918 6.13791 38.4249 3.91951 40.2274C1.63178 42.0298 1.28516 43.2083 1.28516 43.2083C1.28516 43.2083 7.52441 42.2378 9.95079 42.4458C12.3772 42.6537 14.1796 43.6243 17.7152 43.2083C21.3201 42.7924 23.9545 40.366 28.8072 40.0887C33.5906 39.8114 35.3931 42.2378 39.6912 40.6433C41.6323 39.9501 43.1575 38.8409 44.8213 37.7317C40.2458 33.5028 37.0569 22.9654 36.6409 17.2808Z" fill="#C32420"/>
<path d="M37.404 22.896C37.404 22.896 35.9482 24.6984 33.1752 25.5303C30.4022 26.3623 27.3519 26.0156 24.5095 27.9567C21.6672 29.8978 17.0918 34.7506 14.3881 36.0678C11.6844 37.3849 8.21814 38.6328 6.90097 39.3954C5.65311 40.1579 4.33594 41.1285 4.33594 41.1285C4.33594 41.1285 11.9617 38.7021 14.1108 37.7316C18.0623 35.8598 19.8648 32.9481 24.6482 31.007C29.4316 29.0659 32.6206 29.4126 34.9083 28.3727C37.196 27.2635 38.2359 26.0849 38.2359 26.0849C38.2359 26.0849 38.0279 25.3917 37.7506 24.5598C37.5426 23.7972 37.404 22.896 37.404 22.896Z" fill="white"/>
<path d="M39.8312 30.5225C39.8312 30.5225 37.6128 32.3942 32.8294 32.8795C28.046 33.2955 24.857 33.5034 22.292 35.5139C19.727 37.455 17.3006 39.0494 15.2208 39.5347C13.1411 40.02 9.88281 40.9212 9.88281 40.9212C9.88281 40.9212 13.765 42.0997 18.2711 40.228C22.7773 38.3562 25.6889 35.5139 29.7098 35.5832C33.7306 35.6525 34.8398 36.9697 38.4447 35.6525C40.3165 35.0286 41.5644 33.8501 41.5644 33.8501C41.5644 33.8501 41.0791 33.0875 40.5938 32.1863C40.2472 31.5623 39.8312 30.5225 39.8312 30.5225Z" fill="white"/>
<path d="M40.0358 17.9737L37.8867 16.4485L39.0652 16.0326L40.1744 16.7951L40.5211 15.478L41.6996 15.062L41.0063 17.5577L41.6996 19.4295L40.729 19.7761L40.0358 17.9737Z" fill="#9F6620"/>
<path d="M49.9492 14.9237C49.6026 15.201 49.3946 15.3397 49.1867 15.409C48.4934 15.6863 47.9388 15.5477 47.4535 15.3397C46.9682 15.1317 46.5523 14.6464 46.3443 14.1612C46.1363 13.6066 46.2057 12.9826 46.4136 12.4974C46.6216 12.0121 47.0376 11.5961 47.6615 11.3882C47.8695 11.3188 48.1468 11.2495 48.632 11.2495L49.048 12.428C48.5627 12.1507 48.2161 12.2894 48.0081 12.2894C47.7308 12.428 47.5229 12.5667 47.3842 12.7747C47.2456 13.052 47.2456 13.3986 47.3149 13.6759C47.3842 13.9532 47.6615 14.2305 47.8695 14.2998C48.0774 14.3691 48.4241 14.4385 48.7014 14.2998C48.84 14.2305 49.1867 14.0918 49.3946 13.6066L49.9492 14.9237Z" fill="#9F6620"/>
<path d="M48.1493 34.8898L47.3867 30.7996L48.3573 30.453L49.8824 32.2554L49.9517 29.8984L50.9223 29.5518L52.9327 33.226L51.9622 33.5726L50.853 31.4929L50.7143 34.0579L50.2984 34.1965L48.7039 32.1861L49.1892 34.5432L48.1493 34.8898Z" fill="#9F6620"/>
<path d="M51.6147 21.4412C51.6147 21.4412 52.3773 20.4013 51.6147 19.2921C50.9908 18.3216 50.0896 18.4602 50.0896 18.4602C50.0896 18.4602 49.9509 16.9351 49.0497 17.2817C48.1485 17.6283 48.8417 18.8762 48.8417 18.8762C48.8417 18.8762 48.7031 19.0148 48.4951 19.2921C48.2871 19.5694 48.2871 19.5694 48.2871 19.5694L48.0098 19.6387C47.8712 19.5694 47.7325 19.4308 47.7325 19.2228C47.7325 19.0148 48.1485 17.9056 47.5939 17.4897C47.0393 17.0044 46.554 17.4897 46.138 17.767C45.8607 17.9749 45.4448 17.9749 45.2368 17.9749C45.3061 17.9056 45.3061 17.767 45.3061 17.6976C45.3061 17.2817 44.9595 17.0044 44.6129 17.0044C44.2663 17.0044 43.9196 17.351 43.9196 17.6976C43.9196 18.0443 44.1276 18.3216 44.4742 18.3909C44.2663 18.5295 43.989 18.7375 43.7117 18.8068C43.2264 18.8762 42.5331 18.8068 42.3945 19.5694C42.3252 20.2627 43.365 20.8173 43.4344 20.9559C43.573 21.1639 43.5037 21.3719 43.5037 21.5105L43.2264 21.5798C43.2264 21.5798 43.2264 21.5798 42.8798 21.4412C42.5331 21.3025 42.3252 21.3719 42.3252 21.3719C42.3252 21.3719 42.0479 19.916 41.1466 20.2627C40.2454 20.6093 41.1466 21.8572 41.1466 21.8572C41.1466 21.8572 40.3841 22.3424 40.5227 23.521C40.6614 24.8381 41.9092 25.1848 41.9092 25.1848C41.9092 25.1848 44.4049 31.0774 44.6129 31.216C44.8902 31.424 44.8902 31.0081 45.1675 30.8694C45.3061 30.8001 45.4448 30.8694 45.6528 30.8694C46.138 30.7308 46.0687 30.2455 45.9994 29.8295C46.138 29.8989 46.346 29.9682 46.554 29.9682C46.6926 29.9682 46.8313 29.9682 47.0393 29.8989C48.4951 29.4136 49.119 29.6909 49.119 29.6909L49.1883 29.6216C49.2577 29.4136 49.6736 28.9976 50.7828 28.5124C50.9215 28.443 51.0601 28.3737 51.1988 28.2351C51.4067 28.0964 51.4761 27.8884 51.5454 27.7498C51.7534 28.1657 52.0307 28.5124 52.5159 28.3044C52.7239 28.2351 52.7239 28.0271 52.9319 28.0271C53.2092 27.9578 53.4865 28.2351 53.5558 27.8884C53.4865 27.5418 51.6147 21.4412 51.6147 21.4412ZM49.0497 17.6283C49.1883 17.559 49.3963 17.6976 49.4656 17.9056C49.535 18.1136 49.4656 18.3909 49.327 18.3909C49.1883 18.3909 48.9804 18.3216 48.911 18.1136C48.8417 17.9749 48.911 17.6976 49.0497 17.6283ZM42.7411 19.5694C42.8104 19.1535 43.1571 19.0841 43.6423 18.9455C44.1276 18.8068 44.3356 18.5295 44.4742 18.3216H44.5436C44.8209 18.3216 45.0288 18.1829 45.0982 17.9749C45.3061 18.0443 45.6528 18.1136 46.138 17.9056C46.6233 17.6976 46.9006 17.4897 47.2472 17.767C47.5245 18.0443 47.3859 19.0148 47.1779 19.3614C46.9699 19.7081 46.8313 19.9854 46.8313 19.9854C46.8313 19.9854 47.1779 19.0841 47.1086 18.5295C47.0393 17.9749 46.554 17.9749 46.346 17.9749C46.0687 17.9749 45.7221 18.1829 45.7221 18.1829C45.7221 18.1829 46.346 18.2522 46.6233 18.7375C46.762 18.9455 46.8313 19.3614 46.554 19.7774C46.4153 19.916 46.346 20.0547 46.346 20.0547C46.346 20.0547 46.4153 19.5001 46.2767 19.0841C46.2074 18.8762 46.138 18.7375 45.9994 18.6682C45.7914 18.4602 45.5834 18.3909 45.3061 18.3909C44.7515 18.3909 44.3356 18.8068 44.3356 19.3614C44.3356 19.3614 44.3356 19.3614 44.3356 19.4308C44.3356 19.5694 44.3356 19.7081 44.4049 19.916C44.6129 20.332 45.0288 20.6786 45.0288 20.6786C45.0288 20.6786 44.8902 20.6093 44.6822 20.6093C44.1969 20.54 43.989 20.124 43.9196 19.916C43.8503 19.3614 44.2663 18.9455 44.2663 18.9455C44.2663 18.9455 43.9196 19.0148 43.6423 19.1535C43.4344 19.2921 43.1571 19.6387 43.4344 20.0547C43.7117 20.54 44.5436 20.9559 44.5436 20.9559C44.5436 20.9559 44.1969 20.8173 43.8503 20.6786C43.5037 20.54 42.6718 19.9854 42.7411 19.5694ZM41.5626 21.4412C41.4239 21.5105 41.216 21.3719 41.1466 21.0946C41.0773 20.8866 41.1466 20.6093 41.2853 20.6093C41.4239 20.6093 41.6319 20.6786 41.7012 20.9559C41.7706 21.1639 41.7706 21.3719 41.5626 21.4412ZM42.1865 23.3823C42.1865 23.3823 41.4239 22.6891 42.0479 22.4117C42.6718 22.2038 42.6025 23.1743 42.6025 23.1743L44.4049 28.5817L42.1865 23.3823ZM50.6442 28.2351C49.535 28.7203 49.119 29.2056 49.0497 29.4136C48.7724 29.3443 48.1485 29.3443 46.9699 29.6909C46.4847 29.8295 46.138 29.6909 45.8607 29.5522C45.5141 28.443 43.5037 22.897 43.5037 22.897L46.138 21.9265L48.7724 20.8866C48.7724 20.8866 50.8521 26.3633 51.3374 27.4725C51.3374 27.7498 51.1294 28.0271 50.6442 28.2351ZM49.7429 20.4706C49.7429 20.4706 49.119 19.7081 49.6736 19.5694C50.2975 19.3614 50.2282 20.332 50.2282 20.332L51.9613 25.7394L49.7429 20.4706Z" fill="#9F6620"/>
<path d="M44.1269 22.8955L43.9883 24.1434L44.8895 24.9753L45.0282 23.7274L44.1269 22.8955Z" fill="#C32420"/>
<path d="M46.1365 23.3119L45.166 22.48L45.0273 23.7278L45.9979 24.5597L46.1365 23.3119Z" fill="#C32420"/>
<path d="M47.1766 22.8954L46.206 22.0635L46.1367 23.3113L47.0379 24.2126L47.1766 22.8954Z" fill="#C32420"/>
<path d="M48.2176 22.5492L47.3164 21.6479L47.1777 22.8958L48.079 23.797L48.2176 22.5492Z" fill="#C32420"/>
<path d="M44.8887 24.9751L44.75 26.223L45.7206 27.1242L45.8592 25.8763L44.8887 24.9751Z" fill="#C32420"/>
<path d="M45.8594 25.8767L46.7606 26.7086L46.8993 25.4608L45.998 24.5596L45.8594 25.8767Z" fill="#C32420"/>
<path d="M46.8984 25.4612L47.7997 26.2931L47.9383 25.0453L47.0371 24.2134L46.8984 25.4612Z" fill="#C32420"/>
<path d="M47.9395 25.0457L48.91 25.8776L49.0487 24.6298L48.0781 23.7979L47.9395 25.0457Z" fill="#C32420"/>
<path d="M45.582 28.3719L46.4833 29.2038L46.6219 27.9559L45.7207 27.124L45.582 28.3719Z" fill="#C32420"/>
<path d="M46.625 27.9563L47.5955 28.7882L47.6649 27.5404L46.7636 26.7085L46.625 27.9563Z" fill="#C32420"/>
<path d="M47.6621 27.5408L48.6327 28.442L48.7713 27.1942L47.8008 26.293L47.6621 27.5408Z" fill="#C32420"/>
<path d="M48.7715 27.1936L49.6727 28.0255L49.8114 26.7777L48.9101 25.8765L48.7715 27.1936Z" fill="#C32420"/>
<path d="M49.326 22.1332L48.3555 21.3013L48.2168 22.5491L49.1873 23.381L49.326 22.1332Z" fill="#C32420"/>
<path d="M49.1894 23.3809L49.0508 24.6287L49.952 25.5299L50.0907 24.2821L49.1894 23.3809Z" fill="#C32420"/>
<path d="M50.7831 27.6095L50.8524 26.3617L49.9511 25.5298L49.8125 26.7776L50.7831 27.6095Z" fill="#C32420"/>
<path d="M69.017 51.1811L51.8937 4.24806C52.9335 3.62414 53.5575 2.72291 53.2802 1.96034C52.9335 1.05911 51.4777 0.712486 49.9526 1.26709C48.4274 1.82169 47.5262 3.00021 47.8728 3.90144C48.1501 4.66402 49.19 5.01064 50.3685 4.80267L67.4918 51.8051L69.017 51.1811Z" fill="#9F6620"/>
<path d="M127.803 43.1394C127.734 43.0008 127.387 41.8916 125.099 40.0198C123.921 39.0493 122.188 38.148 120.316 37.1082C118.721 36.2763 117.127 35.375 115.671 34.3351C114.215 33.3646 112.967 31.9088 111.581 30.245C109.986 28.3732 108.253 26.2934 105.688 24.283C104.163 23.1045 102.985 22.7579 101.529 22.3419C100.212 21.9953 98.7558 21.5793 96.5374 20.3315C94.527 19.2916 93.4871 18.2517 92.3779 17.0732C92.1006 16.7266 91.8233 16.38 91.4767 16.0333C90.4368 14.7855 89.3276 13.399 87.2478 11.6659C82.5337 7.78365 77.4037 7.50635 77.4037 7.50635H77.1264V7.78365C77.1264 7.85297 77.5423 12.3591 75.1159 20.4701C72.6202 28.9278 68.5994 31.2849 68.5301 31.3542L68.4607 31.4235L67.2129 34.8204L67.6288 34.6818C67.6982 34.6818 71.5804 33.7112 76.7798 34.6125C79.6221 35.0977 81.6325 36.3456 83.7816 37.8014L84.0589 38.0094C85.5147 39.0493 87.0399 40.0891 88.9116 40.7131C91.4767 41.6836 93.1405 41.2677 95.0122 40.7824H95.0816C96.4681 40.4358 97.9239 40.0891 99.9343 40.2278C102.569 40.3664 104.51 41.1983 106.382 41.9609C107.907 42.5848 109.363 43.2088 110.957 43.3474C111.581 43.4167 112.136 43.4167 112.69 43.4167C114.215 43.4167 115.394 43.1394 116.572 42.9315C117.335 42.7928 118.028 42.6542 118.86 42.5848C121.217 42.3769 127.387 43.3474 127.456 43.3474L127.803 43.4167V43.1394ZM111.165 42.9315C109.571 42.7928 108.184 42.1689 106.659 41.545C104.718 40.7824 102.777 39.9505 100.073 39.7425C99.7957 39.7425 99.5184 39.7425 99.2411 39.7425C97.5773 39.7425 96.2601 40.0891 95.0816 40.3664C93.2791 40.8517 91.6846 41.1983 89.2583 40.2971C87.4558 39.6732 86.0693 38.6333 84.5442 37.5934L84.1975 37.3855C81.9791 35.8603 79.8994 34.6125 76.9877 34.1272C72.6202 33.3646 69.154 33.9192 68.0448 34.1272L68.946 31.6315C69.5006 31.2849 73.2442 28.5812 75.6012 20.5395C77.681 13.4683 77.681 9.10082 77.6117 7.9223C78.7209 8.06095 82.9497 8.61555 86.9705 11.9432C88.981 13.607 90.1595 14.9935 91.13 16.2413C91.4073 16.5879 91.6846 16.9346 92.0313 17.2812C93.1405 18.529 94.2497 19.5689 96.2601 20.6781C98.4785 21.926 100.004 22.3419 101.321 22.6885C102.707 23.1045 103.817 23.3818 105.272 24.5603C107.768 26.5014 109.571 28.5812 111.096 30.4529C112.551 32.1861 113.799 33.6419 115.255 34.6125C116.711 35.583 118.375 36.4842 119.969 37.3855C121.772 38.356 123.505 39.3266 124.614 40.2278C126.07 41.4063 126.694 42.2382 126.971 42.7235C125.723 42.5155 121.841 41.9609 119.553 41.9609C119.207 41.9609 118.929 41.9609 118.652 42.0302C117.82 42.0996 117.127 42.2382 116.364 42.4462C115.117 42.8621 113.522 43.2088 111.165 42.9315Z" fill="#C32420"/>
<path d="M92.3092 17.2808C93.3491 18.4593 94.4583 19.4992 96.4687 20.6084C101.114 23.1041 102.639 22.2722 105.55 24.4906C110.334 28.2341 112.414 32.3936 115.533 34.5427C118.653 36.6918 122.743 38.4249 124.892 40.158C127.18 41.9605 127.526 43.139 127.526 43.139C127.526 43.139 121.287 42.1685 118.861 42.3764C116.434 42.5844 114.632 43.555 111.096 43.139C107.491 42.7231 104.857 40.2967 100.004 40.0194C95.2209 39.7421 93.4184 42.1685 89.1203 40.574C87.1792 39.8807 85.654 38.7715 83.9902 37.6623C88.7043 33.5028 91.824 22.9654 92.3092 17.2808Z" fill="#C32420"/>
<path d="M91.5487 22.896C91.5487 22.896 93.0045 24.6984 95.7775 25.5303C98.5505 26.3623 101.601 26.0156 104.443 27.9567C107.216 29.8285 111.861 34.7506 114.565 36.0678C117.338 37.3849 120.735 38.6328 122.052 39.3954C123.3 40.1579 124.617 41.1285 124.617 41.1285C124.617 41.1285 116.991 38.7021 114.842 37.7316C110.89 35.8598 109.088 32.9481 104.305 31.007C99.5211 29.0659 96.3321 29.4126 94.0444 28.3727C91.7567 27.2635 90.7168 26.0849 90.7168 26.0849C90.7168 26.0849 90.9248 25.3917 91.2021 24.5598C91.3407 23.7972 91.5487 22.896 91.5487 22.896Z" fill="white"/>
<path d="M89.0515 30.5225C89.0515 30.5225 91.2699 32.3942 96.0533 32.8795C100.837 33.2955 104.026 33.5034 106.591 35.5139C109.156 37.455 111.582 39.0494 113.662 39.5347C115.742 40.02 119 40.9212 119 40.9212C119 40.9212 115.118 42.0997 110.612 40.228C106.105 38.3562 103.194 35.5139 99.173 35.5832C95.0828 35.6525 94.0429 36.9697 90.438 35.6525C88.5662 35.0286 87.3184 33.8501 87.3184 33.8501C87.3184 33.8501 87.8036 33.0875 88.2889 32.1863C88.7049 31.5623 89.0515 30.5225 89.0515 30.5225Z" fill="white"/>
<path d="M82.1873 16.241L81.2168 15.8943L81.91 14.0226L81.2168 11.5269L82.3953 11.9428L82.742 13.26L83.8512 12.4974L85.0297 12.9134L82.8806 14.4385L82.1873 16.241Z" fill="#9F6620"/>
<path d="M88.5647 19.3608C88.0794 19.3608 87.8714 19.3608 87.6635 19.2221C86.9702 18.9448 86.5543 18.5289 86.4156 18.1129C86.2076 17.6276 86.1383 17.0037 86.3463 16.5184C86.5543 15.9638 86.9702 15.5479 87.4555 15.3399C87.9408 15.1319 88.4954 15.0626 89.1193 15.2706C89.3273 15.3399 89.6046 15.4786 89.9512 15.8252L89.5352 17.0037C89.3273 16.5184 88.9806 16.3105 88.842 16.2411C88.5647 16.1025 88.2874 16.1718 88.0794 16.2411C87.7328 16.3798 87.5248 16.6571 87.4555 16.9344C87.3862 17.2117 87.3862 17.5583 87.5248 17.7663C87.6635 17.9743 87.8714 18.1822 88.1487 18.3209C88.2874 18.3902 88.7033 18.4595 89.1886 18.2516L88.5647 19.3608Z" fill="#9F6620"/>
<path d="M79.7601 34.5427L80.2454 32.1856L78.5816 34.0574L78.1657 33.9187L78.027 31.3537L76.9178 33.4335L75.9473 33.0868L77.9577 29.4126L78.9282 29.7592L78.9976 32.1163L80.5227 30.3138L81.4933 30.6604L80.7307 34.7506L79.7601 34.5427Z" fill="#9F6620"/>
<path d="M75.4646 27.8181C75.534 28.1647 75.8113 27.8874 76.0886 27.9568C76.2272 27.9568 76.2965 28.1647 76.5045 28.2341C76.9898 28.442 77.2671 28.0261 77.4751 27.6795C77.5444 27.8181 77.6137 28.0261 77.8217 28.1647C77.9603 28.2341 78.099 28.3727 78.2376 28.442C79.3468 28.9273 79.6935 29.4126 79.8321 29.5512L79.9014 29.6206C79.9014 29.6206 80.5254 29.4126 81.9812 29.8285C82.1892 29.8979 82.3278 29.8979 82.4665 29.8979C82.6745 29.8979 82.8824 29.8285 83.0211 29.7592C82.9518 30.1752 82.8824 30.6604 83.3677 30.7991C83.5757 30.8684 83.7143 30.7298 83.853 30.7991C84.061 30.9377 84.1303 31.2844 84.4076 31.1457C84.6156 31.0071 87.1113 25.1144 87.1113 25.1144C87.1113 25.1144 88.3591 24.7678 88.4978 23.4506C88.6364 22.3414 87.8738 21.7868 87.8738 21.7868C87.8738 21.7868 88.7751 20.6083 87.8738 20.1924C86.9726 19.7764 86.6953 21.3016 86.6953 21.3016C86.6953 21.3016 86.4873 21.3016 86.1407 21.3709C85.7941 21.5095 85.7941 21.5095 85.7941 21.5095L85.5168 21.4402C85.5168 21.3016 85.4475 21.0936 85.5861 20.8856C85.7248 20.747 86.7646 20.123 86.626 19.4991C86.4873 18.7365 85.8634 18.8059 85.3088 18.7365C85.0315 18.7365 84.6849 18.5286 84.5462 18.3206C84.8235 18.2513 85.1008 17.974 85.1008 17.6273C85.1008 17.2114 84.7542 16.9341 84.4076 16.9341C84.061 16.9341 83.7143 17.2807 83.7143 17.6273C83.7143 17.766 83.7143 17.8353 83.7837 17.9046C83.5757 17.9046 83.1597 17.8353 82.8824 17.6967C82.4665 17.4194 81.9812 16.9341 81.4266 17.4194C80.9413 17.8353 81.3573 18.9445 81.288 19.1525C81.288 19.3605 81.08 19.4991 81.0106 19.5684L80.7333 19.4991C80.7333 19.4991 80.7333 19.4991 80.5254 19.2218C80.3174 18.9445 80.1787 18.8059 80.1787 18.8059C80.1787 18.8059 80.9413 17.4887 79.9708 17.2114C79.0002 16.9341 78.9309 18.3899 78.9309 18.3899C78.9309 18.3899 78.0297 18.3206 77.4057 19.2218C76.6432 20.331 77.4057 21.3709 77.4057 21.3709C77.4057 21.3709 75.3953 27.5408 75.4646 27.8181ZM79.9708 18.1819C79.9014 18.3899 79.6935 18.5286 79.5548 18.4592C79.4162 18.3899 79.3468 18.1819 79.4162 17.974C79.4855 17.766 79.6935 17.6273 79.8321 17.6967C79.9708 17.6967 80.0401 17.974 79.9708 18.1819ZM85.0315 20.747C84.6849 20.8856 84.3383 21.0243 84.3383 21.0243C84.3383 21.0243 85.1702 20.539 85.4475 20.123C85.7248 19.6378 85.4475 19.2911 85.2395 19.2218C85.0315 19.0832 84.6156 19.0138 84.6156 19.0138C84.6156 19.0138 85.0315 19.4298 84.9622 19.9844C84.8929 20.2617 84.6849 20.6083 84.1996 20.6776C83.9916 20.6776 83.853 20.747 83.853 20.747C83.853 20.747 84.2689 20.331 84.4769 19.9844C84.5462 19.8457 84.5462 19.6378 84.5462 19.4991C84.5462 19.4991 84.5462 19.4991 84.5462 19.4298C84.5462 18.8752 84.1303 18.4592 83.5757 18.4592C83.2984 18.4592 83.0211 18.5979 82.8824 18.7365C82.7438 18.8752 82.6744 19.0138 82.6051 19.1525C82.4665 19.5684 82.5358 20.123 82.5358 20.123C82.5358 20.123 82.4665 19.9844 82.3278 19.8457C81.9812 19.4298 82.1198 19.0138 82.2585 18.8059C82.5358 18.3206 83.1597 18.2513 83.1597 18.2513C83.1597 18.2513 82.8131 18.0433 82.5358 18.0433C82.3278 18.0433 81.8425 18.1126 81.7732 18.5979C81.7039 19.1525 82.0505 20.0537 82.0505 20.0537C82.0505 20.0537 81.8426 19.7071 81.7039 19.4298C81.5652 19.1525 81.3573 18.1126 81.6346 17.8353C81.9119 17.558 82.2585 17.766 82.7438 17.974C83.2291 18.1819 83.5757 18.1126 83.7837 18.0433C83.9223 18.2513 84.1303 18.3899 84.3383 18.3899H84.4076C84.5462 18.5979 84.7542 18.8752 85.2395 19.0138C85.7941 19.1525 86.1407 19.2218 86.1407 19.6378C86.21 19.9844 85.4475 20.6083 85.0315 20.747ZM87.1806 20.8856C87.2499 20.6776 87.4579 20.539 87.5965 20.539C87.7352 20.539 87.8045 20.8163 87.7352 21.0243C87.6659 21.2322 87.4579 21.3709 87.3192 21.3709C87.1806 21.3709 87.1113 21.1629 87.1806 20.8856ZM84.4769 28.5807L86.2794 23.1733C86.2794 23.1733 86.2794 22.2028 86.834 22.4108C87.4579 22.6881 86.6953 23.3813 86.6953 23.3813L84.4769 28.5807ZM77.5444 27.4022C78.0297 26.293 80.1094 20.8163 80.1094 20.8163L82.7438 21.8562L85.3781 22.8267C85.3781 22.8267 83.3677 28.3034 83.0211 29.4819C82.8131 29.6899 82.4665 29.8285 81.9119 29.6206C80.8027 29.2739 80.1787 29.2739 79.8321 29.3433C79.6935 29.1353 79.3468 28.65 78.1683 28.1647C77.7524 28.0261 77.6137 27.7488 77.5444 27.4022ZM76.9898 25.7384L78.7229 20.331C78.7229 20.331 78.5843 19.2911 79.2775 19.5684C79.8321 19.7764 79.2082 20.4697 79.2082 20.4697L76.9898 25.7384Z" fill="#9F6620"/>
<path d="M84.8221 22.8955L84.9608 24.1434L83.9902 24.9753L83.8516 23.7274L84.8221 22.8955Z" fill="#C32420"/>
<path d="M82.8105 23.3119L83.7118 22.48L83.8504 23.7278L82.9492 24.5597L82.8105 23.3119Z" fill="#C32420"/>
<path d="M81.7715 22.8954L82.6727 22.0635L82.8114 23.3113L81.9101 24.2126L81.7715 22.8954Z" fill="#C32420"/>
<path d="M80.6641 22.5492L81.6346 21.6479L81.7733 22.8958L80.8027 23.797L80.6641 22.5492Z" fill="#C32420"/>
<path d="M83.9911 24.9751L84.1297 26.223L83.2285 27.1242L83.0898 25.8763L83.9911 24.9751Z" fill="#C32420"/>
<path d="M83.0877 25.8767L82.1172 26.7086L81.9785 25.4608L82.9491 24.5596L83.0877 25.8767Z" fill="#C32420"/>
<path d="M81.9774 25.4612L81.0761 26.2931L80.9375 25.0453L81.908 24.2134L81.9774 25.4612Z" fill="#C32420"/>
<path d="M80.9383 25.0457L80.0371 25.8776L79.8984 24.6298L80.7997 23.7979L80.9383 25.0457Z" fill="#C32420"/>
<path d="M83.3651 28.3719L82.3945 29.2038L82.2559 27.9559L83.2264 27.124L83.3651 28.3719Z" fill="#C32420"/>
<path d="M82.2567 27.9563L81.3555 28.7882L81.2168 27.5404L82.118 26.7085L82.2567 27.9563Z" fill="#C32420"/>
<path d="M81.2157 27.5408L80.3144 28.442L80.1758 27.1942L81.077 26.293L81.2157 27.5408Z" fill="#C32420"/>
<path d="M80.1756 27.1936L79.2051 28.0255L79.0664 26.7777L80.037 25.8765L80.1756 27.1936Z" fill="#C32420"/>
<path d="M79.6211 22.1332L80.5223 21.3013L80.661 22.5491L79.7597 23.381L79.6211 22.1332Z" fill="#C32420"/>
<path d="M79.7596 23.3809L79.8983 24.6287L78.9277 25.5299L78.7891 24.2821L79.7596 23.3809Z" fill="#C32420"/>
<path d="M78.166 27.6095L78.0273 26.3617L78.9286 25.5298L79.0672 26.7776L78.166 27.6095Z" fill="#C32420"/>
<path d="M78.9287 1.26709C77.4035 0.712486 75.9477 1.05911 75.6011 1.96034C75.3238 2.72291 75.9477 3.62414 76.9876 4.24806L59.9336 51.1811L61.4587 51.7357L78.582 4.73334C79.7606 4.94132 80.8004 4.59469 81.0777 3.83211C81.355 3.00021 80.4538 1.82169 78.9287 1.26709Z" fill="#9F6620"/>
<path d="M146.5 2.00012L146.5 50.0002" stroke="black" stroke-width="0.9817" stroke-miterlimit="10"/>
</svg>
